<svg width="75" height="75" viewBox="0 0 75 75" fill="none" xmlns="http://www.w3.org/2000/svg">
<circle opacity="0.4" cx="39.5751" cy="43.076" r="32.6531" fill="url(#paint0_linear_1_284)"/>
<circle opacity="0.4" cx="71.0037" cy="7.1576" r="4.89796" fill="url(#paint1_linear_1_284)"/>
<g opacity="0.5">
<g opacity="0.1" filter="url(#filter0_f_1_284)">
<path d="M40.719 64.541C49.1848 64.541 56.0476 60.5829 56.0476 55.7004C56.0476 50.8178 49.1848 46.8597 40.719 46.8597C32.2533 46.8597 25.3905 50.8178 25.3905 55.7004C25.3905 60.5829 32.2533 64.541 40.719 64.541Z" fill="#0F054C"/>
</g>
<g opacity="0.2" filter="url(#filter1_f_1_284)">
<path d="M40.7178 63.0082C47.7267 63.0082 53.4084 59.7364 53.4084 55.7004C53.4084 51.6644 47.7267 48.3926 40.7178 48.3926C33.709 48.3926 28.0272 51.6644 28.0272 55.7004C28.0272 59.7364 33.709 63.0082 40.7178 63.0082Z" fill="#0F054C"/>
</g>
<g opacity="0.4" filter="url(#filter2_f_1_284)">
<path d="M40.7192 61.4754C46.2515 61.4754 50.7363 58.8898 50.7363 55.7004C50.7363 52.511 46.2515 49.9255 40.7192 49.9255C35.187 49.9255 30.7022 52.511 30.7022 55.7004C30.7022 58.8898 35.187 61.4754 40.7192 61.4754Z" fill="#080344"/>
</g>
</g>
<path d="M24.3574 41.3346C23.8227 43.0457 21.0778 46.3966 19.3311 45.8619C17.62 45.3271 17.62 41.1564 18.119 39.4453C18.6537 37.7342 20.4361 36.736 22.1829 37.2707C23.894 37.8055 24.8921 39.6235 24.3574 41.3346Z" fill="url(#paint2_radial_1_284)"/>
<path d="M24.3574 41.3346C23.8227 43.0457 21.0778 46.3966 19.3311 45.8619C17.62 45.3271 17.62 41.1564 18.119 39.4453C18.6537 37.7342 20.4361 36.736 22.1829 37.2707C23.894 37.8055 24.8921 39.6235 24.3574 41.3346Z" fill="url(#paint3_linear_1_284)"/>
<path d="M21.0431 37.3062C21.9343 37.2349 23.1106 37.7696 23.6097 38.5182C24.1444 39.2668 23.8236 39.9085 22.9324 40.0154C22.0412 40.0867 20.8648 39.552 20.3658 38.8034C19.831 38.0548 20.1519 37.3775 21.0431 37.3062Z" fill="#251C72"/>
<path opacity="0.5" d="M21.0431 37.3062C21.9343 37.2349 23.1106 37.7696 23.6097 38.5182C24.1444 39.2668 23.8236 39.9085 22.9324 40.0154C22.0412 40.0867 20.8648 39.552 20.3658 38.8034C19.831 38.0548 20.1519 37.3775 21.0431 37.3062Z" fill="url(#paint4_radial_1_284)"/>
<path d="M20.1159 38.126C20.2585 37.9834 20.508 37.9121 20.7932 37.8765C21.6844 37.8052 22.8608 38.3399 23.3599 39.0885C23.5024 39.3024 23.6094 39.5519 23.6094 39.7302C23.9302 39.445 23.9659 38.9816 23.6094 38.4825C23.0747 37.7339 21.9339 37.1992 21.0428 37.2705C20.4367 37.3418 20.0803 37.6982 20.1159 38.126Z" fill="#16E09E"/>
<path opacity="0.6" d="M24.0687 36.4156C23.9261 36.4156 23.8192 36.5226 23.8192 36.6652C23.8192 36.8078 23.9261 36.9147 24.0687 36.9147C24.2113 36.9147 24.3182 36.8078 24.3182 36.6652C24.3182 36.5582 24.2113 36.4156 24.0687 36.4156Z" fill="#16E09E"/>
<path d="M21.6467 34.6331C21.2902 34.6331 21.005 34.9182 20.9694 35.2747C20.9694 35.6312 21.2545 35.9164 21.611 35.952C21.9675 35.9877 22.2527 35.6668 22.2883 35.3104C22.2883 34.9539 22.0032 34.6331 21.6467 34.6331Z" fill="#16E09E"/>
<path opacity="0.6" d="M25.3551 33.1716C25.1412 33.1716 24.9987 33.3142 24.9987 33.528C24.9987 33.7419 25.1412 33.8845 25.3551 33.8845C25.569 33.8845 25.7116 33.7419 25.7116 33.528C25.7116 33.3142 25.569 33.1716 25.3551 33.1716Z" fill="#16E09E"/>
<path d="M23.9279 33.4564C23.7853 33.4564 23.6783 33.5634 23.6783 33.706C23.6783 33.8485 23.7853 33.9555 23.9279 33.9555C24.0705 33.9555 24.1774 33.8485 24.1774 33.706C24.1774 33.599 24.0348 33.4564 23.9279 33.4564Z" fill="#16E09E"/>
<path d="M24.1762 32.9219C24.0693 32.9219 23.998 32.9932 23.998 33.1001C23.998 33.2071 24.0693 33.2784 24.1762 33.2784C24.2832 33.2784 24.3545 33.2071 24.3545 33.1001C24.3545 32.9932 24.2832 32.9219 24.1762 32.9219Z" fill="#16E09E"/>
<path opacity="0.6" d="M22.1097 37.6988C21.8958 37.6988 21.7532 37.8414 21.7532 38.0553C21.7532 38.2692 21.8958 38.4117 22.1097 38.4117C22.3235 38.4117 22.4661 38.2692 22.4661 38.0553C22.4661 37.8414 22.2879 37.6988 22.1097 37.6988Z" fill="#16E09E"/>
<path d="M23.1782 37.5561C22.893 37.5561 22.6435 37.77 22.6435 38.0908C22.6435 38.376 22.8574 38.6255 23.1782 38.6255C23.4634 38.6255 23.7129 38.4116 23.7129 38.0908C23.7129 37.8056 23.499 37.5561 23.1782 37.5561Z" fill="#16E09E"/>
<path d="M28.954 35.417C31.6512 35.417 33.8377 33.2304 33.8377 30.5332C33.8377 27.836 31.6512 25.6495 28.954 25.6495C26.2568 25.6495 24.0703 27.836 24.0703 30.5332C24.0703 33.2304 26.2568 35.417 28.954 35.417Z" fill="url(#paint5_linear_1_284)"/>
<path d="M31.5924 26.3982C33.8738 27.8598 34.5511 30.8898 33.0896 33.1713C31.628 35.4527 28.598 36.1301 26.3165 34.6685C24.035 33.2069 23.3577 30.1769 24.8193 27.8954C26.2809 25.614 29.3109 24.9367 31.5924 26.3982Z" fill="url(#paint6_linear_1_284)"/>
<path d="M53.3724 39.4093C53.3724 48.8916 47.7044 56.6272 40.7531 56.6272C33.7661 56.6272 28.1338 48.9272 28.1338 39.4093C28.1338 29.927 33.8018 27.0752 40.7531 27.0752C47.7044 27.0395 53.3724 29.8913 53.3724 39.4093Z" fill="url(#paint7_radial_1_284)"/>
<path d="M53.3724 39.4093C53.3724 48.8916 47.7044 56.6272 40.7531 56.6272C33.7661 56.6272 28.1338 48.9272 28.1338 39.4093C28.1338 29.927 33.8018 27.0752 40.7531 27.0752C47.7044 27.0395 53.3724 29.8913 53.3724 39.4093Z" fill="url(#paint8_linear_1_284)"/>
<path d="M40.7175 37.1637C45.482 37.1637 49.3443 34.9293 49.3443 32.173C49.3443 29.4167 45.482 27.1823 40.7175 27.1823C35.9531 27.1823 32.0908 29.4167 32.0908 32.173C32.0908 34.9293 35.9531 37.1637 40.7175 37.1637Z" fill="#7C4EFF"/>
<path opacity="0.5" d="M40.7175 37.1637C45.482 37.1637 49.3443 34.9293 49.3443 32.173C49.3443 29.4167 45.482 27.1823 40.7175 27.1823C35.9531 27.1823 32.0908 29.4167 32.0908 32.173C32.0908 34.9293 35.9531 37.1637 40.7175 37.1637Z" fill="url(#paint9_radial_1_284)"/>
<path d="M34.6219 29.9627C37.9728 28.0021 43.4626 28.0021 46.8134 29.9627C48.2037 30.7826 49.0236 31.7808 49.2732 32.8145C49.6296 31.3173 48.8097 29.7845 46.8134 28.6437C43.4626 26.6831 37.9728 26.6831 34.6219 28.6437C32.6613 29.7845 31.8414 31.353 32.1622 32.8145C32.4118 31.7808 33.2316 30.7826 34.6219 29.9627Z" fill="#5F56AA"/>
<path d="M35.9049 17.347C37.3224 14.8919 37.3244 12.2393 35.9093 11.4222C34.4941 10.6052 32.1978 11.9331 30.7803 14.3883C29.3628 16.8434 29.3609 19.496 30.776 20.3131C32.1911 21.1301 34.4874 19.8022 35.9049 17.347Z" fill="#BCBEFF"/>
<path d="M41.2173 33.1712C48.3443 33.1712 54.1218 27.3937 54.1218 20.2667C54.1218 13.1398 48.3443 7.36224 41.2173 7.36224C34.0903 7.36224 28.3128 13.1398 28.3128 20.2667C28.3128 27.3937 34.0903 33.1712 41.2173 33.1712Z" fill="url(#paint10_radial_1_284)"/>
<path d="M41.2173 33.1712C48.3443 33.1712 54.1218 27.3937 54.1218 20.2667C54.1218 13.1398 48.3443 7.36224 41.2173 7.36224C34.0903 7.36224 28.3128 13.1398 28.3128 20.2667C28.3128 27.3937 34.0903 33.1712 41.2173 33.1712Z" fill="url(#paint11_linear_1_284)"/>
<path d="M37.2261 26.3985C36.9053 28.9294 34.9803 29.7137 32.9484 28.1808C30.9165 26.6123 29.5262 23.3327 29.8827 20.7661C30.2035 18.2351 32.1285 17.4509 34.1604 18.9837C36.1567 20.5522 37.547 23.8675 37.2261 26.3985Z" fill="#7C4EFF"/>
<path opacity="0.5" d="M37.2261 26.3985C36.9053 28.9294 34.9803 29.7137 32.9484 28.1808C30.9165 26.6123 29.5262 23.3327 29.8827 20.7661C30.2035 18.2351 32.1285 17.4509 34.1604 18.9837C36.1567 20.5522 37.547 23.8675 37.2261 26.3985Z" fill="url(#paint12_radial_1_284)"/>
<path d="M35.5496 24.1879C35.4427 25.1148 34.7297 25.4 33.9811 24.8296C33.2325 24.2592 32.7334 23.0472 32.876 22.156C32.983 21.2292 33.6959 20.944 34.4445 21.5143C35.1575 22.0491 35.6565 23.2611 35.5496 24.1879Z" fill="#16E09E"/>
<path d="M33.9099 27.7885C31.878 26.22 30.4877 22.9404 30.8442 20.3737C30.9868 19.3399 31.3789 18.5913 31.9493 18.1992C30.8799 18.3062 30.0956 19.1974 29.8817 20.7659C29.5609 23.2969 30.9155 26.6121 32.9474 28.1806C34.1594 29.1074 35.3002 29.1787 36.1201 28.6084C35.4428 28.644 34.6942 28.3945 33.9099 27.7885Z" fill="#5F56AA"/>
<path d="M33.1255 28.0737C31.0936 26.5052 29.7033 23.2256 30.0598 20.659C30.2024 19.4826 30.7014 18.6983 31.3787 18.3062C30.5945 18.627 30.0241 19.4469 29.8815 20.7303C29.5607 23.2613 30.9153 26.5765 32.9472 28.145C34.0523 28.9649 35.0861 29.1431 35.8704 28.7154C35.1218 29.0362 34.1236 28.858 33.1255 28.0737Z" fill="#5F56AA"/>
<path d="M54.6211 47.5728C57.3183 47.5728 59.5049 45.3863 59.5049 42.689C59.5049 39.9918 57.3183 37.8053 54.6211 37.8053C51.9239 37.8053 49.7374 39.9918 49.7374 42.689C49.7374 45.3863 51.9239 47.5728 54.6211 47.5728Z" fill="url(#paint13_radial_1_284)"/>
<path d="M54.6211 47.5728C57.3183 47.5728 59.5049 45.3863 59.5049 42.689C59.5049 39.9918 57.3183 37.8053 54.6211 37.8053C51.9239 37.8053 49.7374 39.9918 49.7374 42.689C49.7374 45.3863 51.9239 47.5728 54.6211 47.5728Z" fill="url(#paint14_linear_1_284)"/>
<path d="M59.3256 42.7604C59.3256 44.1507 58.3631 45.8261 57.1511 46.5034C55.939 47.1807 54.9766 46.646 54.9766 45.2558C54.9766 43.8655 55.939 42.1901 57.1511 41.5128C58.3631 40.8354 59.3256 41.3702 59.3256 42.7604Z" fill="#7C4EFF"/>
<path opacity="0.5" d="M59.3256 42.7604C59.3256 44.1507 58.3631 45.8261 57.1511 46.5034C55.939 47.1807 54.9766 46.646 54.9766 45.2558C54.9766 43.8655 55.939 42.1901 57.1511 41.5128C58.3631 40.8354 59.3256 41.3702 59.3256 42.7604Z" fill="url(#paint15_radial_1_284)"/>
<path d="M58.1836 41.2277C58.3619 41.4773 58.4688 41.8337 58.4688 42.2972C58.4688 43.6874 57.5063 45.3629 56.2943 46.0402C55.9378 46.2541 55.5813 46.361 55.2961 46.3254C55.6526 46.8601 56.3656 46.967 57.1855 46.5036C58.3975 45.8263 59.36 44.1508 59.36 42.7606C59.3243 41.7981 58.8609 41.2634 58.1836 41.2277Z" fill="#5F56AA"/>
<path d="M52.0887 25.0079L47.4545 27.6815V22.2986L52.0887 19.5894V25.0079Z" fill="#7C4EFF"/>
<path opacity="0.8" d="M51.4114 20.0172V24.6157L47.4545 26.8972V27.6815L52.0887 25.0079V19.5894L51.4114 20.0172Z" fill="#5F56AA"/>
<path d="M48.3465 23.7598L47.9187 24.0093V23.5459L48.3465 23.2964V23.7598Z" fill="#16E09E"/>
<path d="M49.2011 22.6548L48.809 22.8687V22.4053L49.2011 22.1558V22.6548Z" fill="#16E09E"/>
<path d="M50.0915 22.7618L49.6993 22.9757V22.5123L50.0915 22.2628V22.7618Z" fill="#16E09E"/>
<path d="M50.0915 24.0094L49.6993 24.2589V23.7598L50.0915 23.546V24.0094Z" fill="#16E09E"/>
<path d="M49.5588 24.972L49.1667 25.2216V24.7581L49.5588 24.5086V24.972Z" fill="#16E09E"/>
<path d="M51.0212 23.4748L50.5934 23.7243V23.2609L51.0212 23.0114V23.4748Z" fill="#16E09E"/>
<path d="M57.9738 56.4134C57.4391 58.1245 54.6942 61.4754 52.9474 60.9407C51.2007 60.4059 51.2363 56.2351 51.7354 54.5241C52.2701 52.813 54.0525 51.8148 55.7993 52.3495C57.5104 52.8843 58.5085 54.7023 57.9738 56.4134Z" fill="url(#paint16_radial_1_284)"/>
<path d="M57.9738 56.4134C57.4391 58.1245 54.6942 61.4754 52.9474 60.9407C51.2007 60.4059 51.2363 56.2351 51.7354 54.5241C52.2701 52.813 54.0525 51.8148 55.7993 52.3495C57.5104 52.8843 58.5085 54.7023 57.9738 56.4134Z" fill="url(#paint17_linear_1_284)"/>
<path d="M54.6583 52.3854C55.5495 52.3141 56.7259 52.8488 57.2249 53.5974C57.7597 54.346 57.4388 54.9877 56.5476 55.0946C55.6564 55.1659 54.4801 54.6312 53.981 53.8826C53.4463 53.134 53.7671 52.4567 54.6583 52.3854Z" fill="#251C72"/>
<path opacity="0.5" d="M54.6583 52.3854C55.5495 52.3141 56.7259 52.8488 57.2249 53.5974C57.7597 54.346 57.4388 54.9877 56.5476 55.0946C55.6564 55.1659 54.4801 54.6312 53.981 53.8826C53.4463 53.134 53.7671 52.4567 54.6583 52.3854Z" fill="url(#paint18_radial_1_284)"/>
<path d="M53.7311 53.2408C53.8737 53.0982 54.1233 53.0269 54.4084 52.9913C55.2996 52.92 56.476 53.4547 56.9751 54.2033C57.1177 54.4172 57.2246 54.6667 57.2246 54.845C57.5455 54.5598 57.5811 54.0964 57.2246 53.5973C56.6899 52.8487 55.5492 52.314 54.658 52.3853C54.052 52.4566 53.6955 52.7774 53.7311 53.2408Z" fill="#5F56AA"/>
<path opacity="0.6" d="M57.2243 50.3178C57.3312 50.2108 57.3312 50.0683 57.2243 49.9613C57.1173 49.8544 56.9747 49.8544 56.8678 49.9613C56.7609 50.0683 56.7609 50.2108 56.8678 50.3178C56.9391 50.4247 57.1173 50.4247 57.2243 50.3178Z" fill="#16E09E"/>
<path d="M60.1828 49.8897C60.4323 49.6401 60.468 49.248 60.2185 48.9628C59.9689 48.7133 59.5768 48.6776 59.2916 48.9272C59.0421 49.1767 59.0064 49.5688 59.256 49.854C59.5412 50.1392 59.9333 50.1392 60.1828 49.8897Z" fill="#16E09E"/>
<path opacity="0.6" d="M58.5807 53.5263C58.7233 53.3837 58.7233 53.1698 58.5807 53.0272C58.4382 52.8846 58.2243 52.8846 58.0817 53.0272C57.9391 53.1698 57.9391 53.3837 58.0817 53.5263C58.1886 53.6689 58.4382 53.6689 58.5807 53.5263Z" fill="#16E09E"/>
<path d="M59.4006 52.314C59.5076 52.2071 59.5076 52.0645 59.4006 51.9575C59.2937 51.8506 59.1511 51.8506 59.0441 51.9575C58.9372 52.0645 58.9372 52.2071 59.0441 52.314C59.1511 52.3853 59.2937 52.4209 59.4006 52.314Z" fill="#16E09E"/>
<path d="M59.6132 52.8842C59.6845 52.8129 59.6845 52.706 59.6132 52.6347C59.5419 52.5634 59.4349 52.5634 59.3637 52.6347C59.2924 52.706 59.2924 52.8129 59.3637 52.8842C59.4349 52.9555 59.5419 52.9555 59.6132 52.8842Z" fill="#16E09E"/>
<path opacity="0.6" d="M57.7589 48.036C57.9015 47.8934 57.9015 47.6795 57.7589 47.5369C57.6163 47.3943 57.4024 47.3943 57.2598 47.5369C57.1172 47.6795 57.1172 47.8934 57.2598 48.036C57.3668 48.1786 57.6163 48.1786 57.7589 48.036Z" fill="#16E09E"/>
<path d="M57.0456 48.8917C57.2594 48.6778 57.2594 48.357 57.0812 48.1431C56.8673 47.9292 56.5465 47.9292 56.3326 48.1074C56.1187 48.3213 56.1187 48.6421 56.2969 48.856C56.5108 49.0699 56.8317 49.1056 57.0456 48.8917Z" fill="#16E09E"/>
<path d="M46.4256 15.4544L19.7967 0.197183C19.3689 -0.0523515 18.9768 -0.0523532 18.656 0.125886L17.0162 1.08838L18.0856 1.87263V2.72817L17.4796 2.97771L17.5152 35.4528L19.3333 37.1996L25.5003 40.7287L44.3937 51.2448C44.3937 51.2448 45.1066 51.2448 45.2136 51.2448C45.2492 51.2448 45.2849 51.1379 45.3205 51.0309L46.1404 51.4943L45.8909 52.742L47.5663 51.7795C47.9228 51.5656 48.1723 51.1022 48.1723 50.3892V18.734C48.1367 17.4507 47.3881 15.9891 46.4256 15.4544ZM45.7126 49.4624L20.0819 34.7755C19.868 34.6686 19.6898 34.3121 19.6898 34.0269V2.76382L25.1439 6.25731L44.8927 17.8785L45.4631 18.7697L45.7839 32.9218L45.7126 49.4624Z" fill="url(#paint19_linear_1_284)"/>
<path opacity="0.6" d="M47.6013 16.7377L45.0347 18.1993L45.3911 18.7697L45.712 32.9218L45.6763 49.4267L45.2129 49.1416C45.2129 49.6406 45.8546 52.1716 45.8546 52.7063L47.2092 51.9221L47.53 51.7438C47.8865 51.53 48.136 51.0665 48.136 50.3536V18.6984C48.136 18.0567 47.9221 17.3437 47.6013 16.7377Z" fill="#4F3FAF"/>
<path d="M44.7131 16.4526L18.0843 1.19539C17.1574 0.660673 16.3732 1.23104 16.3732 2.47871V34.1339C16.3732 35.3816 17.1218 36.8432 18.0843 37.4135L44.7131 52.6708C45.64 53.2055 46.4242 52.6351 46.4242 51.3875V19.7322C46.4242 18.4489 45.64 16.9874 44.7131 16.4526ZM44.8557 50.425C44.8557 50.7102 44.6775 50.8527 44.4636 50.7102L18.3338 35.7381C18.1199 35.6311 17.9417 35.2747 17.9417 34.9895V3.4412C17.9417 3.15602 18.1199 3.01343 18.3338 3.15602L44.4636 18.1281C44.6775 18.235 44.8557 18.5915 44.8557 18.8767V50.425Z" fill="url(#paint20_linear_1_284)"/>
<path d="M44.7131 16.4526L18.0843 1.19539C17.1574 0.660673 16.3732 1.23104 16.3732 2.47871V34.1339C16.3732 35.3816 17.1218 36.8432 18.0843 37.4135L44.7131 52.6708C45.64 53.2055 46.4242 52.6351 46.4242 51.3875V19.7322C46.4242 18.4489 45.64 16.9874 44.7131 16.4526ZM44.8557 50.425C44.8557 50.7102 44.6775 50.8527 44.4636 50.7102L18.3338 35.7381C18.1199 35.6311 17.9417 35.2747 17.9417 34.9895V3.4412C17.9417 3.15602 18.1199 3.01343 18.3338 3.15602L44.4636 18.1281C44.6775 18.235 44.8557 18.5915 44.8557 18.8767V50.425Z" fill="url(#paint21_linear_1_284)"/>
<path d="M20.044 34.7398C19.8301 34.6328 19.6518 34.2764 19.6518 33.9912V3.90446L18.3329 3.12021C18.119 3.01326 17.9407 3.12021 17.9407 3.40539V34.9893C17.9407 35.2745 18.119 35.5953 18.3329 35.7379L44.4627 50.71C44.6766 50.8169 44.8548 50.71 44.8548 50.4248V48.9633L20.044 34.7398Z" fill="#251C72"/>
<path opacity="0.4" d="M44.8548 50.4249C44.8548 50.71 44.6766 50.8526 44.4627 50.71L18.3329 35.738C18.119 35.631 17.9407 35.2746 17.9407 34.9894V3.4411C17.9407 3.15592 18.119 3.01332 18.3329 3.15591L44.4627 18.128C44.6766 18.2349 44.8548 18.5914 44.8548 18.8766V50.4249Z" fill="#16E09E"/>
<g opacity="0.4">
<path d="M25.9963 17.2368L23.4653 15.7752V15.1335L25.9963 16.5951V17.2368Z" fill="#16E09E"/>
<path d="M28.1715 18.4847L26.9238 17.7361V17.0944L28.1715 17.843V18.4847Z" fill="#16E09E"/>
<path d="M26.7453 19.162L25.6758 18.5204V17.8787L26.7453 18.5204V19.162Z" fill="#16E09E"/>
<path d="M28.5634 20.1954L27.3157 19.4825V18.8408L28.5634 19.5538V20.1954Z" fill="#16E09E"/>
<path d="M30.6665 22.905L25.6758 20.0176V19.4116L30.6665 22.2634V22.905Z" fill="#16E09E"/>
<path d="M26.7453 22.1559L25.6758 21.5499V20.9083L26.7453 21.5143V22.1559Z" fill="#16E09E"/>
<path d="M28.5634 23.2255L27.3157 22.4769V21.8352L28.5634 22.5838V23.2255Z" fill="#16E09E"/>
<path d="M28.4207 24.6156L25.6758 23.0471V22.4055L28.4207 23.974V24.6156Z" fill="#16E09E"/>
<path d="M30.2731 25.6852L28.9898 24.9366V24.295L30.2731 25.0436V25.6852Z" fill="#16E09E"/>
<path d="M32.0904 26.7549L30.8428 26.0063V25.3646L32.0904 26.1132V26.7549Z" fill="#16E09E"/>
<path d="M35.0879 28.4657L32.6995 27.0754V26.4338L35.0879 27.824V28.4657Z" fill="#16E09E"/>
<path d="M33.6594 30.6405L32.3761 29.8919V29.2502L33.6594 29.9988V30.6405Z" fill="#16E09E"/>
<path d="M36.6174 32.3513L34.229 30.9611V30.3194L36.6174 31.7097V32.3513Z" fill="#16E09E"/>
<path d="M26.9592 26.7549L25.6758 26.0419V25.4003L26.9592 26.1489V26.7549Z" fill="#16E09E"/>
<path d="M28.7767 27.8242L27.529 27.1113V26.4696L28.7767 27.1826V27.8242Z" fill="#16E09E"/>
<path d="M31.7701 29.571L29.3817 28.1807V27.5391L31.7701 28.9293V29.571Z" fill="#16E09E"/>
<path d="M35.4424 30.1768L34.1948 29.4639V28.8222L35.4424 29.5352V30.1768Z" fill="#16E09E"/>
<path d="M37.2968 31.2465L36.0135 30.4979V29.8918L37.2968 30.6048V31.2465Z" fill="#16E09E"/>
<path d="M40.2904 32.9577L37.8664 31.5674V30.9258L40.2904 32.316V32.9577Z" fill="#16E09E"/>
<path d="M26.9592 29.7849L25.6758 29.0363V28.3947L26.9592 29.1433V29.7849Z" fill="#16E09E"/>
<path d="M29.9174 31.4958L27.529 30.1055V29.4639L29.9174 30.8541V31.4958Z" fill="#16E09E"/>
<path d="M34.4813 25.115L33.1979 24.3664V23.7247L34.4813 24.4733V25.115Z" fill="#16E09E"/>
<path d="M32.556 24.0097L31.2727 23.2611V22.6194L32.556 23.368V24.0097Z" fill="#16E09E"/>
<path d="M37.4392 26.8263L35.0508 25.436V24.7944L37.4392 26.1846V26.8263Z" fill="#16E09E"/>
<path d="M26.8166 25.1865L25.6758 24.5448V23.9031L26.8166 24.5448V25.1865Z" fill="#16E09E"/>
<path d="M30.2384 27.1468L27.4222 25.5426V24.9009L30.2384 26.5051V27.1468Z" fill="#16E09E"/>
<path d="M33.6233 29.1433L30.8428 27.5035V26.8618L33.6233 28.5016V29.1433Z" fill="#16E09E"/>
<path d="M39.2202 27.8597L38.0795 27.1824V26.5408L39.2202 27.2181V27.8597Z" fill="#16E09E"/>
<path d="M28.4906 29.1789L25.7101 27.5391V26.8975L28.4906 28.5373V29.1789Z" fill="#16E09E"/>
<path d="M29.9519 29.9986L29.0964 29.4996V28.8579L29.9519 29.357V29.9986Z" fill="#16E09E"/>
<path d="M31.4129 30.8542L30.5574 30.3552V29.7135L31.4129 30.2126V30.8542Z" fill="#16E09E"/>
<path d="M34.1599 32.4228L32.0566 31.2107V30.5691L34.1599 31.7811V32.4228Z" fill="#16E09E"/>
<path d="M34.7304 32.7795L32.6272 31.5318V30.8901L34.7304 32.1378V32.7795Z" fill="#16E09E"/>
<path d="M36.5114 29.2857L35.6558 28.7866V28.145L36.5114 28.644V29.2857Z" fill="#16E09E"/>
<path d="M39.2201 30.8542L37.1169 29.6422V29.0005L39.2201 30.2126V30.8542Z" fill="#16E09E"/>
<path d="M24.3551 29.7851L23.4995 29.286V28.6443L24.3551 29.1434V29.7851Z" fill="#16E09E"/>
<path d="M27.0638 31.3531L24.9606 30.1411V29.4995L27.0638 30.7115V31.3531Z" fill="#16E09E"/>
<path d="M29.8451 32.9574L27.7419 31.7454V31.1037L29.8451 32.3157V32.9574Z" fill="#16E09E"/>
</g>
<defs>
<filter id="filter0_f_1_284" x="0.390503" y="21.8597" width="80.6571" height="67.6813" filterUnits="userSpaceOnUse" color-interpolation-filters="sRGB">
<feFlood flood-opacity="0" result="BackgroundImageFix"/>
<feBlend mode="normal" in="SourceGraphic" in2="BackgroundImageFix" result="shape"/>
<feGaussianBlur stdDeviation="12.5" result="effect1_foregroundBlur_1_284"/>
</filter>
<filter id="filter1_f_1_284" x="8.02722" y="28.3926" width="65.3812" height="54.6156" filterUnits="userSpaceOnUse" color-interpolation-filters="sRGB">
<feFlood flood-opacity="0" result="BackgroundImageFix"/>
<feBlend mode="normal" in="SourceGraphic" in2="BackgroundImageFix" result="shape"/>
<feGaussianBlur stdDeviation="10" result="effect1_foregroundBlur_1_284"/>
</filter>
<filter id="filter2_f_1_284" x="20.7022" y="39.9255" width="40.0341" height="31.5499" filterUnits="userSpaceOnUse" color-interpolation-filters="sRGB">
<feFlood flood-opacity="0" result="BackgroundImageFix"/>
<feBlend mode="normal" in="SourceGraphic" in2="BackgroundImageFix" result="shape"/>
<feGaussianBlur stdDeviation="5" result="effect1_foregroundBlur_1_284"/>
</filter>
<linearGradient id="paint0_linear_1_284" x1="17.5343" y1="0.700335" x2="55.4935" y2="70.4963" gradientUnits="userSpaceOnUse">
<stop stop-color="#7C4EFF"/>
<stop offset="0.904355" stop-color="#7C4EFF" stop-opacity="0"/>
</linearGradient>
<linearGradient id="paint1_linear_1_284" x1="67.6975" y1="0.801257" x2="73.3914" y2="11.2706" gradientUnits="userSpaceOnUse">
<stop stop-color="#7C4EFF"/>
<stop offset="0.904355" stop-color="#7C4EFF" stop-opacity="0"/>
</linearGradient>
<radialGradient id="paint2_radial_1_284" cx="0" cy="0" r="1" gradientUnits="userSpaceOnUse" gradientTransform="translate(23.2787 38.7667) rotate(16.7569) scale(9.23046 9.23046)">
<stop stop-color="#C0BFF6"/>
<stop offset="1" stop-color="#393091"/>
</radialGradient>
<linearGradient id="paint3_linear_1_284" x1="20.1079" y1="45.3303" x2="23.3612" y2="37.7299" gradientUnits="userSpaceOnUse">
<stop stop-color="#5761D7"/>
<stop offset="0.1779" stop-color="#5C66D9"/>
<stop offset="0.3876" stop-color="#6A73DF"/>
<stop offset="0.6134" stop-color="#8289E8"/>
<stop offset="0.849" stop-color="#A3A7F5"/>
<stop offset="1" stop-color="#BCBEFF"/>
</linearGradient>
<radialGradient id="paint4_radial_1_284" cx="0" cy="0" r="1" gradientUnits="userSpaceOnUse" gradientTransform="translate(21.5436 39.2876) rotate(-95.1062) scale(5.99025 5.99024)">
<stop stop-color="#16E09E"/>
<stop offset="0.1055" stop-color="#37BFA7"/>
<stop offset="0.338" stop-color="#2277B0"/>
<stop offset="0.776042" stop-color="#2043CC"/>
<stop offset="1" stop-color="#2D30FF"/>
</radialGradient>
<linearGradient id="paint5_linear_1_284" x1="28.7962" y1="25.7038" x2="28.7962" y2="35.4131" gradientUnits="userSpaceOnUse">
<stop stop-color="#16E09E"/>
<stop offset="0.447917" stop-color="#31BDA4"/>
<stop offset="0.734375" stop-color="#2752CC"/>
<stop offset="1" stop-color="#4C14EB"/>
</linearGradient>
<linearGradient id="paint6_linear_1_284" x1="27.3977" y1="34.7833" x2="30.3466" y2="25.7037" gradientUnits="userSpaceOnUse">
<stop stop-color="#5761D7"/>
<stop offset="0.1779" stop-color="#5C66D9"/>
<stop offset="0.3876" stop-color="#6A73DF"/>
<stop offset="0.6134" stop-color="#8289E8"/>
<stop offset="0.849" stop-color="#A3A7F5"/>
<stop offset="1" stop-color="#BCBEFF"/>
</linearGradient>
<radialGradient id="paint7_radial_1_284" cx="0" cy="0" r="1" gradientUnits="userSpaceOnUse" gradientTransform="translate(48.1835 36.8248) scale(21.7149 29.5598)">
<stop stop-color="#C0BFF6"/>
<stop offset="1" stop-color="#393091"/>
</radialGradient>
<linearGradient id="paint8_linear_1_284" x1="36.7497" y1="54.6485" x2="46.7918" y2="28.2426" gradientUnits="userSpaceOnUse">
<stop stop-color="#5761D7"/>
<stop offset="0.1779" stop-color="#5C66D9"/>
<stop offset="0.3876" stop-color="#6A73DF"/>
<stop offset="0.6134" stop-color="#8289E8"/>
<stop offset="0.849" stop-color="#A3A7F5"/>
<stop offset="1" stop-color="#BCBEFF"/>
</linearGradient>
<radialGradient id="paint9_radial_1_284" cx="0" cy="0" r="1" gradientUnits="userSpaceOnUse" gradientTransform="translate(40.3933 36.9475) scale(16.8079 16.8079)">
<stop stop-color="#16E09E"/>
<stop offset="0.1055" stop-color="#37BFA7"/>
<stop offset="0.4587" stop-color="#2A76E4"/>
<stop offset="0.7105" stop-color="#6951FD"/>
<stop offset="0.8458" stop-color="#7C4EFF"/>
<stop offset="1" stop-color="#3C04DB"/>
</radialGradient>
<radialGradient id="paint10_radial_1_284" cx="0" cy="0" r="1" gradientUnits="userSpaceOnUse" gradientTransform="translate(49.2726 18.3708) scale(21.7815)">
<stop stop-color="#C0BFF6"/>
<stop offset="1" stop-color="#393091"/>
</radialGradient>
<linearGradient id="paint11_linear_1_284" x1="37.1234" y1="31.4432" x2="44.8785" y2="7.56563" gradientUnits="userSpaceOnUse">
<stop stop-color="#5761D7"/>
<stop offset="0.1779" stop-color="#5C66D9"/>
<stop offset="0.3876" stop-color="#6A73DF"/>
<stop offset="0.6134" stop-color="#8289E8"/>
<stop offset="0.849" stop-color="#A3A7F5"/>
<stop offset="1" stop-color="#BCBEFF"/>
</linearGradient>
<radialGradient id="paint12_radial_1_284" cx="0" cy="0" r="1" gradientUnits="userSpaceOnUse" gradientTransform="translate(37.2186 21.4687) scale(10.6985 10.6985)">
<stop stop-color="#16E09E"/>
<stop offset="0.05911" stop-color="#3CCDB3"/>
<stop offset="0.359375" stop-color="#2277B0"/>
<stop offset="0.770833" stop-color="#2043CC"/>
<stop offset="1" stop-color="#2D30FF"/>
</radialGradient>
<radialGradient id="paint13_radial_1_284" cx="0" cy="0" r="1" gradientUnits="userSpaceOnUse" gradientTransform="translate(57.5172 39.4777) rotate(11.1976) scale(10.2101 10.2101)">
<stop stop-color="#C0BFF6"/>
<stop offset="1" stop-color="#393091"/>
</radialGradient>
<linearGradient id="paint14_linear_1_284" x1="53.0718" y1="46.9188" x2="56.0067" y2="37.8823" gradientUnits="userSpaceOnUse">
<stop stop-color="#5761D7"/>
<stop offset="0.1779" stop-color="#5C66D9"/>
<stop offset="0.3876" stop-color="#6A73DF"/>
<stop offset="0.6134" stop-color="#8289E8"/>
<stop offset="0.849" stop-color="#A3A7F5"/>
<stop offset="1" stop-color="#BCBEFF"/>
</linearGradient>
<radialGradient id="paint15_radial_1_284" cx="0" cy="0" r="1" gradientUnits="userSpaceOnUse" gradientTransform="translate(56.2414 43.2443) scale(9.11837 9.11838)">
<stop stop-color="#16E09E"/>
<stop offset="0.1055" stop-color="#37BFAF"/>
<stop offset="0.338" stop-color="#2277B0"/>
<stop offset="0.78125" stop-color="#2043CC"/>
<stop offset="1" stop-color="#2D30FF"/>
</radialGradient>
<radialGradient id="paint16_radial_1_284" cx="0" cy="0" r="1" gradientUnits="userSpaceOnUse" gradientTransform="translate(56.8998 53.8495) rotate(16.7569) scale(9.23046 9.23046)">
<stop stop-color="#C0BFF6"/>
<stop offset="1" stop-color="#393091"/>
</radialGradient>
<linearGradient id="paint17_linear_1_284" x1="53.7186" y1="60.4091" x2="56.969" y2="52.8057" gradientUnits="userSpaceOnUse">
<stop stop-color="#5761D7"/>
<stop offset="0.1779" stop-color="#5C66D9"/>
<stop offset="0.3876" stop-color="#6A73DF"/>
<stop offset="0.6134" stop-color="#8289E8"/>
<stop offset="0.849" stop-color="#A3A7F5"/>
<stop offset="1" stop-color="#BCBEFF"/>
</linearGradient>
<radialGradient id="paint18_radial_1_284" cx="0" cy="0" r="1" gradientUnits="userSpaceOnUse" gradientTransform="translate(55.1637 54.3709) rotate(-95.1063) scale(5.99023 5.99025)">
<stop stop-color="#16E09E"/>
<stop offset="0.1055" stop-color="#37BFA7"/>
<stop offset="0.338542" stop-color="#2277B0"/>
<stop offset="0.75" stop-color="#2043CC"/>
<stop offset="1" stop-color="#2D30FF"/>
</radialGradient>
<linearGradient id="paint19_linear_1_284" x1="23.1642" y1="26.3638" x2="48.3838" y2="26.3638" gradientUnits="userSpaceOnUse">
<stop stop-color="#BCBEFF"/>
<stop offset="0.1659" stop-color="#B6B8FC"/>
<stop offset="0.3956" stop-color="#A4A8F5"/>
<stop offset="0.6625" stop-color="#868DEA"/>
<stop offset="0.9554" stop-color="#5E67DA"/>
<stop offset="1" stop-color="#5761D7"/>
</linearGradient>
<linearGradient id="paint20_linear_1_284" x1="16.3903" y1="26.9296" x2="46.4218" y2="26.9296" gradientUnits="userSpaceOnUse">
<stop stop-color="#BCBEFF"/>
<stop offset="0.1659" stop-color="#B6B8FC"/>
<stop offset="0.3956" stop-color="#A4A8F5"/>
<stop offset="0.6625" stop-color="#868DEA"/>
<stop offset="0.9554" stop-color="#5E67DA"/>
<stop offset="1" stop-color="#5761D7"/>
</linearGradient>
<linearGradient id="paint21_linear_1_284" x1="12.2424" y1="26.9296" x2="66.4241" y2="26.9296" gradientUnits="userSpaceOnUse">
<stop stop-color="#706EC4"/>
<stop offset="0.119792" stop-color="#6D6BC2"/>
<stop offset="0.401042" stop-color="#5651AC"/>
<stop offset="0.760417" stop-color="#463F9D"/>
<stop offset="1" stop-color="#3C3494"/>
</linearGradient>
</defs>
</svg>
