<svg width="103" height="105" viewBox="0 0 103 105" fill="none" xmlns="http://www.w3.org/2000/svg">
<path d="M75.7263 45.5993C79.0144 43.4561 84.0935 37.0853 82.3613 34.4431C80.6291 31.8302 72.7904 33.944 69.5023 36.0871C66.2141 38.2597 64.9517 42.135 66.6838 44.7479C68.3866 47.3608 72.4381 47.7425 75.7263 45.5993Z" fill="url(#paint0_radial_5403_83722)"/>
<path d="M75.7263 45.5993C79.0144 43.4561 84.0935 37.0853 82.3613 34.4431C80.6291 31.8302 72.7904 33.944 69.5023 36.0871C66.2141 38.2597 64.9517 42.135 66.6838 44.7479C68.3866 47.3608 72.4381 47.7425 75.7263 45.5993Z" fill="url(#paint1_linear_5403_83722)"/>
<path d="M56.6433 53.291C56.9368 53.291 57.2598 53.2029 57.524 53.0268L69.1794 45.1294C69.884 44.6596 70.0601 43.6908 69.5904 42.9862C69.1206 42.2816 68.1518 42.1054 67.4472 42.5752L55.7919 50.4726C55.0872 50.9423 54.9111 51.9112 55.3808 52.6158C55.6744 53.0562 56.1735 53.291 56.6433 53.291Z" fill="#2FD3C7"/>
<path d="M52.9707 61.7813C48.4402 61.7813 44.7675 58.1086 44.7675 53.5781C44.7675 49.0477 48.4402 45.375 52.9707 45.375C57.5011 45.375 61.1738 49.0477 61.1738 53.5781C61.1738 58.1086 57.5011 61.7813 52.9707 61.7813Z" fill="url(#paint2_linear_5403_83722)"/>
<path d="M11.9518 68.4865C11.9518 84.4138 21.4723 97.4071 33.1483 97.4071C44.8842 97.4071 54.3447 84.4737 54.3447 68.4865C54.3447 52.5593 44.8243 47.7691 33.1483 47.7691C21.4723 47.7092 11.9518 52.4994 11.9518 68.4865Z" fill="url(#paint3_radial_5403_83722)"/>
<path d="M11.9518 68.4865C11.9518 84.4138 21.4723 97.4071 33.1483 97.4071C44.8842 97.4071 54.3447 84.4737 54.3447 68.4865C54.3447 52.5593 44.8243 47.7691 33.1483 47.7691C21.4723 47.7092 11.9518 52.4994 11.9518 68.4865Z" fill="url(#paint4_linear_5403_83722)"/>
<path d="M33.208 64.7153C25.2053 64.7153 18.7178 60.9622 18.7178 56.3325C18.7178 51.7028 25.2053 47.9497 33.208 47.9497C41.2107 47.9497 47.6982 51.7028 47.6982 56.3325C47.6982 60.9622 41.2107 64.7153 33.208 64.7153Z" fill="#7C4EFF"/>
<path opacity="0.5" d="M33.208 64.7153C25.2053 64.7153 18.7178 60.9622 18.7178 56.3325C18.7178 51.7028 25.2053 47.9497 33.208 47.9497C41.2107 47.9497 47.6982 51.7028 47.6982 56.3325C47.6982 60.9622 41.2107 64.7153 33.208 64.7153Z" fill="url(#paint5_radial_5403_83722)"/>
<path d="M43.4462 52.6197C37.8178 49.3265 28.5967 49.3265 22.9683 52.6197C20.6331 53.9969 19.2559 55.6734 18.8368 57.4099C18.238 54.895 19.6152 52.3203 22.9683 50.4043C28.5967 47.111 37.8178 47.111 43.4462 50.4043C46.7395 52.3203 48.1166 54.9549 47.5777 57.4099C47.1586 55.6734 45.7814 53.9969 43.4462 52.6197Z" fill="#5F56AA"/>
<path d="M41.2931 31.4294C38.9121 27.3056 38.9088 22.85 41.2858 21.4776C43.6627 20.1052 47.5198 22.3358 49.9008 26.4596C52.2818 30.5835 52.285 35.039 49.9081 36.4114C47.5311 37.7838 43.6741 35.5533 41.2931 31.4294Z" fill="#BCBEFF"/>
<path d="M32.3714 58.0086C20.4004 58.0086 10.6959 48.3042 10.6959 36.3332C10.6959 24.3622 20.4004 14.6577 32.3714 14.6577C44.3424 14.6577 54.0469 24.3622 54.0469 36.3332C54.0469 48.3042 44.3424 58.0086 32.3714 58.0086Z" fill="url(#paint6_radial_5403_83722)"/>
<path d="M32.3714 58.0086C20.4004 58.0086 10.6959 48.3042 10.6959 36.3332C10.6959 24.3622 20.4004 14.6577 32.3714 14.6577C44.3424 14.6577 54.0469 24.3622 54.0469 36.3332C54.0469 48.3042 44.3424 58.0086 32.3714 58.0086Z" fill="url(#paint7_linear_5403_83722)"/>
<path d="M39.0726 46.6324C39.6115 50.8836 42.8448 52.2009 46.2578 49.6262C49.6708 46.9916 52.006 41.4829 51.4073 37.1718C50.8684 32.9205 47.635 31.6032 44.222 34.178C40.8689 36.8125 38.5337 42.3811 39.0726 46.6324Z" fill="#7C4EFF"/>
<path opacity="0.5" d="M39.0726 46.6324C39.6115 50.8836 42.8448 52.2009 46.2578 49.6262C49.6708 46.9916 52.006 41.4829 51.4073 37.1718C50.8684 32.9205 47.635 31.6032 44.222 34.178C40.8689 36.8125 38.5337 42.3811 39.0726 46.6324Z" fill="url(#paint8_radial_5403_83722)"/>
<path d="M41.8873 42.9203C42.0669 44.4771 43.2645 44.9561 44.5219 43.9981C45.7793 43.04 46.6176 41.0042 46.3781 39.5073C46.1984 37.9505 45.0009 37.4715 43.7435 38.4295C42.546 39.3277 41.7077 41.3635 41.8873 42.9203Z" fill="#16E09E"/>
<path d="M44.6413 48.9678C48.0543 46.3332 50.3895 40.8245 49.7907 36.5133C49.5512 34.7769 48.8926 33.5195 47.9345 32.8608C49.7308 33.0405 51.0481 34.5374 51.4074 37.172C51.9463 41.4233 49.671 46.9918 46.258 49.6264C44.2222 51.1832 42.3061 51.303 40.9289 50.3449C42.0666 50.4048 43.324 49.9857 44.6413 48.9678Z" fill="#5F56AA"/>
<path d="M45.9586 49.4468C49.3716 46.8122 51.7068 41.3036 51.108 36.9924C50.8685 35.0165 50.0302 33.6992 48.8926 33.0405C50.2098 33.5794 51.1679 34.9566 51.4074 37.1122C51.9463 41.3634 49.671 46.932 46.258 49.5666C44.4018 50.9438 42.6653 51.2431 41.3481 50.5246C42.6055 51.0635 44.282 50.7641 45.9586 49.4468Z" fill="#5F56AA"/>
<path d="M9.85935 82.199C5.32887 82.199 1.65621 78.5264 1.65621 73.9959C1.65621 69.4654 5.32887 65.7927 9.85935 65.7927C14.3898 65.7927 18.0625 69.4654 18.0625 73.9959C18.0625 78.5264 14.3898 82.199 9.85935 82.199Z" fill="url(#paint9_radial_5403_83722)"/>
<path d="M9.85935 82.199C5.32887 82.199 1.65621 78.5264 1.65621 73.9959C1.65621 69.4654 5.32887 65.7927 9.85935 65.7927C14.3898 65.7927 18.0625 69.4654 18.0625 73.9959C18.0625 78.5264 14.3898 82.199 9.85935 82.199Z" fill="url(#paint10_linear_5403_83722)"/>
<path d="M1.9499 74.1162C1.9499 76.4514 3.56658 79.2657 5.6024 80.4033C7.63822 81.541 9.25488 80.6428 9.25488 78.3076C9.25488 75.9724 7.63822 73.1582 5.6024 72.0205C3.56658 70.8829 1.9499 71.781 1.9499 74.1162Z" fill="#7C4EFF"/>
<path opacity="0.5" d="M1.9499 74.1162C1.9499 76.4514 3.56658 79.2657 5.6024 80.4033C7.63822 81.541 9.25488 80.6428 9.25488 78.3076C9.25488 75.9724 7.63822 73.1582 5.6024 72.0205C3.56658 70.8829 1.9499 71.781 1.9499 74.1162Z" fill="url(#paint11_radial_5403_83722)"/>
<path d="M3.86676 71.5413C3.56737 71.9604 3.38775 72.5592 3.38775 73.3376C3.38775 75.6728 5.00443 78.487 7.04025 79.6247C7.63902 79.9839 8.23778 80.1635 8.7168 80.1037C8.11803 81.0018 6.92049 81.1815 5.54332 80.4031C3.5075 79.2654 1.89082 76.4512 1.89082 74.116C1.9507 72.4993 2.72909 71.6011 3.86676 71.5413Z" fill="#5F56AA"/>
<path d="M14.1027 44.2973L21.8867 48.7881V39.7467L14.1027 35.196V44.2973Z" fill="#7C4EFF"/>
<path opacity="0.8" d="M15.2404 35.9146V43.6387L21.8867 47.4708V48.7881L14.1027 44.2973V35.196L15.2404 35.9146Z" fill="#5F56AA"/>
<path d="M20.3908 42.2015L21.1094 42.6206V41.8422L20.3908 41.4231V42.2015Z" fill="#16E09E"/>
<path d="M18.9546 40.3461L19.6133 40.7054V39.9269L18.9546 39.5078V40.3461Z" fill="#16E09E"/>
<path d="M17.4566 40.5253L18.1152 40.8846V40.1061L17.4566 39.687V40.5253Z" fill="#16E09E"/>
<path d="M17.4566 42.6209L18.1152 43.0401V42.2018L17.4566 41.8425V42.6209Z" fill="#16E09E"/>
<path d="M18.354 44.2379L19.0127 44.657V43.8786L18.354 43.4595V44.2379Z" fill="#16E09E"/>
<path d="M15.8996 41.723L16.6182 42.1421V41.3637L15.8996 40.9446V41.723Z" fill="#16E09E"/>
<path d="M4.21551 97.0495C5.11366 99.9236 9.7242 105.552 12.6582 104.654C15.5921 103.756 15.5323 96.7502 14.694 93.8761C13.7958 91.002 10.802 89.3254 7.86801 90.2236C4.99391 91.1217 3.31735 94.1755 4.21551 97.0495Z" fill="url(#paint12_radial_5403_83722)"/>
<path d="M4.21551 97.0495C5.11366 99.9236 9.7242 105.552 12.6582 104.654C15.5921 103.756 15.5323 96.7502 14.694 93.8761C13.7958 91.002 10.802 89.3254 7.86801 90.2236C4.99391 91.1217 3.31735 94.1755 4.21551 97.0495Z" fill="url(#paint13_linear_5403_83722)"/>
<path d="M9.78676 90.2829C8.28984 90.1632 6.31389 91.0613 5.47561 92.3187C4.57746 93.5762 5.11635 94.6539 6.61327 94.8336C8.11019 94.9533 10.0861 94.0552 10.9244 92.7978C11.8226 91.5403 11.2837 90.4027 9.78676 90.2829Z" fill="#251C72"/>
<path opacity="0.5" d="M9.78676 90.2829C8.28984 90.1632 6.31389 91.0613 5.47561 92.3187C4.57746 93.5762 5.11635 94.6539 6.61327 94.8336C8.11019 94.9533 10.0861 94.0552 10.9244 92.7978C11.8226 91.5403 11.2837 90.4027 9.78676 90.2829Z" fill="url(#paint14_radial_5403_83722)"/>
<path d="M11.3426 91.7202C11.1031 91.4807 10.6839 91.3609 10.2049 91.3011C8.70799 91.1813 6.73206 92.0795 5.89378 93.3369C5.65428 93.6961 5.47464 94.1153 5.47464 94.4147C4.93575 93.9357 4.87587 93.1573 5.47464 92.319C6.37279 91.0616 8.28886 90.1634 9.78579 90.2832C10.8037 90.4029 11.4025 90.9418 11.3426 91.7202Z" fill="#5F56AA"/>
<path opacity="0.6" d="M5.48222 86.8088C5.30281 86.6294 5.30281 86.3902 5.48222 86.2107C5.66164 86.0313 5.90086 86.0313 6.08028 86.2107C6.2597 86.3902 6.2597 86.6294 6.08028 86.8088C5.96067 86.9882 5.66164 86.9882 5.48222 86.8088Z" fill="#16E09E"/>
<path d="M0.509731 86.0914C0.0905924 85.6723 0.0307117 85.0136 0.449851 84.5346C0.86899 84.1155 1.52764 84.0556 2.00666 84.4747C2.42579 84.8939 2.48566 85.5525 2.06652 86.0315C1.5875 86.5105 0.92887 86.5106 0.509731 86.0914Z" fill="#16E09E"/>
<path opacity="0.6" d="M3.20475 92.1988C2.96524 91.9593 2.96524 91.6 3.20475 91.3605C3.44426 91.121 3.80352 91.121 4.04303 91.3605C4.28253 91.6 4.28253 91.9593 4.04303 92.1988C3.86339 92.4383 3.44426 92.4383 3.20475 92.1988Z" fill="#16E09E"/>
<path d="M1.82695 90.1621C1.64753 89.9826 1.64753 89.7434 1.82695 89.564C2.00637 89.3846 2.24559 89.3846 2.42501 89.564C2.60442 89.7434 2.60442 89.9826 2.42501 90.1621C2.24559 90.2817 2.00637 90.3415 1.82695 90.1621Z" fill="#16E09E"/>
<path d="M1.46918 91.1204C1.34957 91.0008 1.34957 90.8214 1.46918 90.7018C1.58879 90.5822 1.76822 90.5822 1.88783 90.7018C2.00744 90.8214 2.00744 91.0008 1.88783 91.1204C1.76822 91.24 1.58879 91.24 1.46918 91.1204Z" fill="#16E09E"/>
<path opacity="0.6" d="M4.58268 82.9774C4.34317 82.7379 4.34317 82.3786 4.58268 82.1391C4.82219 81.8996 5.18145 81.8996 5.42095 82.1391C5.66046 82.3786 5.66046 82.7379 5.42095 82.9774C5.24132 83.2169 4.82219 83.2169 4.58268 82.9774Z" fill="#16E09E"/>
<path d="M5.7799 84.4147C5.42064 84.0555 5.42063 83.5166 5.72002 83.1573C6.07928 82.7981 6.61818 82.7981 6.97744 83.0975C7.3367 83.4567 7.3367 83.9956 7.03732 84.3549C6.67806 84.7141 6.13916 84.774 5.7799 84.4147Z" fill="#16E09E"/>
<path opacity="0.6" d="M83.5943 45.3777L102.98 34.1742L83.5943 23L64.2081 34.2035L83.5943 45.3777Z" fill="#2BB889"/>
<path opacity="0.4" d="M64.188 11.8079V34.2378L83.594 45.4234L103 34.2378V11.8079L83.594 23.0228L64.188 11.8079Z" fill="#16E09E"/>
<path opacity="0.4" d="M83.594 45.4234L103 34.2378V11.8079L83.594 23.0228V45.4234Z" fill="#16E09E"/>
<path opacity="0.4" d="M64.1897 34.2378L83.5957 45.4234V23.0228L64.1897 11.8079V34.2378Z" fill="#08D793"/>
<path opacity="0.4" d="M83.594 23.0229L103 11.8079L83.594 0.622314L64.188 11.8373L83.594 23.0229Z" fill="#4EF2BC"/>
<path d="M64.188 11.8079V12.8061L83.594 23.9917L103 12.8061V11.8079L83.594 23.0228L64.188 11.8079Z" fill="#F9FBFD"/>
<path d="M14.2501 44.0432L22.0889 48.5644V39.5219L14.2501 35.0007V44.0432Z" fill="#251C72"/>
<path opacity="0.8" d="M14.2501 35.0007V44.0432L22.0889 48.5644V47.2432L15.4245 43.3973V35.676L14.2501 35.0007Z" fill="#7C4EFF"/>
<path d="M20.5933 41.9881L21.2979 42.3991V41.577L20.5933 41.166V41.9881Z" fill="#16E09E"/>
<path d="M19.0962 41.137L19.8008 41.5186V40.726L19.0962 40.3149V41.137Z" fill="#16E09E"/>
<path d="M17.5991 40.2563L18.3037 40.6673V39.8746L17.5991 39.4636V40.2563Z" fill="#16E09E"/>
<path d="M17.5991 42.3994L18.3037 42.7811V41.9884L17.5991 41.5774V42.3994Z" fill="#16E09E"/>
<path d="M18.5102 44.0144L19.2148 44.4254V43.6327L18.5102 43.2217V44.0144Z" fill="#16E09E"/>
<path d="M16.0727 41.5186L16.7773 41.9002V41.1076L16.0727 40.6965V41.5186Z" fill="#16E09E"/>
<defs>
<radialGradient id="paint0_radial_5403_83722" cx="0" cy="0" r="1" gradientUnits="userSpaceOnUse" gradientTransform="translate(63.6599 48.9168) rotate(180) scale(12.5655 12.5655)">
<stop stop-color="#C0BFF6"/>
<stop offset="1" stop-color="#393091"/>
</radialGradient>
<linearGradient id="paint1_linear_5403_83722" x1="76.9752" y1="46.066" x2="73.482" y2="32.9263" gradientUnits="userSpaceOnUse">
<stop stop-color="#5761D7"/>
<stop offset="0.1779" stop-color="#5C66D9"/>
<stop offset="0.3876" stop-color="#6A73DF"/>
<stop offset="0.6134" stop-color="#8289E8"/>
<stop offset="0.849" stop-color="#A3A7F5"/>
<stop offset="1" stop-color="#BCBEFF"/>
</linearGradient>
<linearGradient id="paint2_linear_5403_83722" x1="55.5731" y1="60.6828" x2="50.6433" y2="45.5043" gradientUnits="userSpaceOnUse">
<stop stop-color="#5761D7"/>
<stop offset="0.1779" stop-color="#5C66D9"/>
<stop offset="0.3876" stop-color="#6A73DF"/>
<stop offset="0.6134" stop-color="#8289E8"/>
<stop offset="0.849" stop-color="#A3A7F5"/>
<stop offset="1" stop-color="#BCBEFF"/>
</linearGradient>
<radialGradient id="paint3_radial_5403_83722" cx="0" cy="0" r="1" gradientUnits="userSpaceOnUse" gradientTransform="translate(20.6676 64.1455) rotate(180) scale(36.4742 49.6511)">
<stop stop-color="#C0BFF6"/>
<stop offset="1" stop-color="#393091"/>
</radialGradient>
<linearGradient id="paint4_linear_5403_83722" x1="39.8728" y1="94.0836" x2="23.0052" y2="49.7301" gradientUnits="userSpaceOnUse">
<stop stop-color="#5761D7"/>
<stop offset="0.1779" stop-color="#5C66D9"/>
<stop offset="0.3876" stop-color="#6A73DF"/>
<stop offset="0.6134" stop-color="#8289E8"/>
<stop offset="0.849" stop-color="#A3A7F5"/>
<stop offset="1" stop-color="#BCBEFF"/>
</linearGradient>
<radialGradient id="paint5_radial_5403_83722" cx="0" cy="0" r="1" gradientUnits="userSpaceOnUse" gradientTransform="translate(33.7525 64.3522) rotate(180) scale(28.2319 28.2319)">
<stop stop-color="#16E09E"/>
<stop offset="0.1055" stop-color="#37BFA7"/>
<stop offset="0.4587" stop-color="#2A76E4"/>
<stop offset="0.7105" stop-color="#6951FD"/>
<stop offset="0.8458" stop-color="#7C4EFF"/>
<stop offset="1" stop-color="#3C04DB"/>
</radialGradient>
<radialGradient id="paint6_radial_5403_83722" cx="0" cy="0" r="1" gradientUnits="userSpaceOnUse" gradientTransform="translate(18.8411 33.1487) rotate(180) scale(36.586)">
<stop stop-color="#C0BFF6"/>
<stop offset="1" stop-color="#393091"/>
</radialGradient>
<linearGradient id="paint7_linear_5403_83722" x1="39.2479" y1="55.1061" x2="26.2218" y2="14.9993" gradientUnits="userSpaceOnUse">
<stop stop-color="#5761D7"/>
<stop offset="0.1779" stop-color="#5C66D9"/>
<stop offset="0.3876" stop-color="#6A73DF"/>
<stop offset="0.6134" stop-color="#8289E8"/>
<stop offset="0.849" stop-color="#A3A7F5"/>
<stop offset="1" stop-color="#BCBEFF"/>
</linearGradient>
<radialGradient id="paint8_radial_5403_83722" cx="0" cy="0" r="1" gradientUnits="userSpaceOnUse" gradientTransform="translate(39.0853 38.3519) rotate(180) scale(17.9702 17.9702)">
<stop stop-color="#16E09E"/>
<stop offset="0.05911" stop-color="#3CCDB3"/>
<stop offset="0.359375" stop-color="#2277B0"/>
<stop offset="0.770833" stop-color="#2043CC"/>
<stop offset="1" stop-color="#2D30FF"/>
</radialGradient>
<radialGradient id="paint9_radial_5403_83722" cx="0" cy="0" r="1" gradientUnits="userSpaceOnUse" gradientTransform="translate(4.99477 68.6019) rotate(168.802) scale(17.1498 17.1498)">
<stop stop-color="#C0BFF6"/>
<stop offset="1" stop-color="#393091"/>
</radialGradient>
<linearGradient id="paint10_linear_5403_83722" x1="12.4618" y1="81.1005" x2="7.532" y2="65.922" gradientUnits="userSpaceOnUse">
<stop stop-color="#5761D7"/>
<stop offset="0.1779" stop-color="#5C66D9"/>
<stop offset="0.3876" stop-color="#6A73DF"/>
<stop offset="0.6134" stop-color="#8289E8"/>
<stop offset="0.849" stop-color="#A3A7F5"/>
<stop offset="1" stop-color="#BCBEFF"/>
</linearGradient>
<radialGradient id="paint11_radial_5403_83722" cx="0" cy="0" r="1" gradientUnits="userSpaceOnUse" gradientTransform="translate(7.13033 74.9289) rotate(180) scale(15.316 15.316)">
<stop stop-color="#16E09E"/>
<stop offset="0.1055" stop-color="#37BFAF"/>
<stop offset="0.338" stop-color="#2277B0"/>
<stop offset="0.78125" stop-color="#2043CC"/>
<stop offset="1" stop-color="#2D30FF"/>
</radialGradient>
<radialGradient id="paint12_radial_5403_83722" cx="0" cy="0" r="1" gradientUnits="userSpaceOnUse" gradientTransform="translate(6.01937 92.7431) rotate(163.243) scale(15.5043 15.5043)">
<stop stop-color="#C0BFF6"/>
<stop offset="1" stop-color="#393091"/>
</radialGradient>
<linearGradient id="paint13_linear_5403_83722" x1="11.3629" y1="103.761" x2="5.90318" y2="90.9898" gradientUnits="userSpaceOnUse">
<stop stop-color="#5761D7"/>
<stop offset="0.1779" stop-color="#5C66D9"/>
<stop offset="0.3876" stop-color="#6A73DF"/>
<stop offset="0.6134" stop-color="#8289E8"/>
<stop offset="0.849" stop-color="#A3A7F5"/>
<stop offset="1" stop-color="#BCBEFF"/>
</linearGradient>
<radialGradient id="paint14_radial_5403_83722" cx="0" cy="0" r="1" gradientUnits="userSpaceOnUse" gradientTransform="translate(8.93786 93.6179) rotate(-84.8937) scale(10.0617 10.0617)">
<stop stop-color="#16E09E"/>
<stop offset="0.1055" stop-color="#37BFA7"/>
<stop offset="0.338542" stop-color="#2277B0"/>
<stop offset="0.75" stop-color="#2043CC"/>
<stop offset="1" stop-color="#2D30FF"/>
</radialGradient>
</defs>
</svg>
