<svg width="110" height="110" viewBox="0 0 110 110" fill="none" xmlns="http://www.w3.org/2000/svg">
<path d="M94.0752 87.2766V80.479L92.2301 79.4108C91.7446 82.6154 87.9574 84.7518 84.7528 85.1402L63.2918 97.7643L53.8723 101.163L23.8658 85.7229L24.5456 85.3344C22.0207 84.1691 20.5641 81.4501 19.2046 78.9253L17.1653 80.0906L16 80.3819V87.3737C16 88.7332 16.874 89.9956 18.6219 91.0638L48.6284 108.349C52.1243 110.388 57.8537 110.388 61.3496 108.349L91.3561 91.0638C93.1041 90.0928 93.9781 88.7332 93.9781 87.4708C94.0752 87.3737 94.0752 87.3737 94.0752 87.2766Z" fill="url(#paint0_linear_5403_84573)"/>
<path opacity="0.3" d="M84.7528 85.2373L63.2919 97.8614L55.1348 100.775V110C57.4654 110 59.796 109.514 61.5439 108.446L91.5504 91.1609C93.2984 90.1898 94.1723 88.8303 94.1723 87.5679C94.1723 87.4708 94.1723 87.4708 94.1723 87.3737V80.5761L92.4244 79.605H92.2302C91.6475 82.7124 87.8603 84.7517 84.7528 85.2373Z" fill="#7C4EFF"/>
<path d="M24.6427 85.3343L53.0955 68.923C54.2608 68.2432 56.0087 68.2432 57.174 68.923L85.1412 85.043L84.8499 85.2372C88.0545 84.7517 91.7446 82.7124 92.3273 79.5078L60.9613 62.0283L51.8331 59.6006L44.3557 63.9705L19.3018 78.9252C20.6613 81.3529 22.0208 84.169 24.6427 85.3343Z" fill="url(#paint1_linear_5403_84573)"/>
<path opacity="0.3" d="M55.1348 60.4746L51.8331 59.6006L44.3557 63.9705L19.3018 78.9252C20.6613 81.45 22.0208 84.169 24.6427 85.3343L53.0955 68.923C53.6781 68.6317 54.3579 68.4374 55.1348 68.4374V60.4746Z" fill="#7C4EFF"/>
<path d="M48.7251 101.552L18.7186 84.2663C15.2227 82.227 15.2227 78.9253 18.7186 76.886L48.7251 59.6007C52.221 57.5615 57.9504 57.5615 61.4463 59.6007L91.4528 76.886C94.9487 78.9253 94.9487 82.227 91.4528 84.2663L61.4463 101.552C57.9504 103.494 52.221 103.494 48.7251 101.552ZM57.1735 62.0285C56.0082 61.3487 54.2603 61.3487 53.095 62.0285L23.0885 79.3138C21.9232 79.9935 21.9232 81.0617 23.0885 81.6444L53.095 98.9297C54.2603 99.6094 56.0082 99.6094 57.1735 98.9297L87.18 81.6444C88.3453 80.9646 88.3453 79.8964 87.18 79.3138L57.1735 62.0285Z" fill="url(#paint2_linear_5403_84573)"/>
<path d="M87.1797 79.3137L57.1732 62.0284C56.0079 61.3486 54.2599 61.3486 53.0946 62.0284L23.0881 79.3137C22.3113 79.7021 22.117 80.3819 22.3113 80.8674C22.4084 80.5761 22.6997 80.2848 23.0881 80.0905L53.0946 62.8052C54.2599 62.1255 56.0079 62.1255 57.1732 62.8052L87.1797 80.0905C87.5681 80.2848 87.7623 80.5761 87.9566 80.8674C88.1508 80.3819 87.8595 79.7992 87.1797 79.3137Z" fill="white"/>
<path d="M91.452 84.1689L61.4455 101.454C57.9496 103.493 52.2202 103.493 48.7243 101.454L18.7178 84.1689C17.164 83.2949 16.29 82.1296 16.0958 80.8672C15.9016 82.3238 16.7756 83.8775 18.7178 84.9457L48.7243 102.328C52.2202 104.367 57.9496 104.367 61.4455 102.328L91.452 85.0428C93.3941 83.8775 94.2681 82.4209 94.0739 80.9643C93.8797 82.1296 93.0057 83.2949 91.452 84.1689Z" fill="white"/>
<path d="M49.5992 101.066L19.5927 83.6836C16.5824 81.9357 16.5824 79.0224 19.5927 77.2745L49.5992 59.9892C52.6096 58.2412 57.5621 58.2412 60.6696 59.9892L90.6761 77.2745C93.6865 79.0224 93.6865 81.9357 90.6761 83.6836L60.6696 100.969C57.5621 102.814 52.6096 102.814 49.5992 101.066ZM57.9506 61.5429C56.3968 60.6689 53.7749 60.6689 52.2212 61.5429L22.2147 78.8282C20.6609 79.7022 20.6609 81.2559 22.2147 82.1299L52.2212 99.4152C53.7749 100.289 56.3968 100.289 57.9506 99.4152L87.957 82.1299C89.5108 81.2559 89.5108 79.7022 87.957 78.8282L57.9506 61.5429Z" fill="url(#paint3_linear_5403_84573)"/>
<path opacity="0.4" d="M57.1749 62.0284C56.0096 61.3486 54.2616 61.3486 53.0963 62.0284L23.0898 79.3137C21.9245 79.9934 21.9245 81.0616 23.0898 81.6443L53.0963 98.9296C54.2616 99.6093 56.0096 99.6093 57.1749 98.9296L87.1814 81.6443C88.3466 80.9645 88.3466 79.8963 87.1814 79.3137L57.1749 62.0284Z" fill="#16E09E"/>
<g filter="url(#filter0_b_5403_84573)">
<path d="M55.2674 42.2056C48.0042 42.2056 41.1897 36.2521 42.1148 29.0438C43.5253 18.0345 53.2066 11.3941 55.2674 0C57.3283 11.3941 67.0096 18.0345 68.4201 29.0438C69.3452 36.2521 62.5307 42.2056 55.2674 42.2056Z" fill="url(#paint4_linear_5403_84573)" fill-opacity="0.2"/>
</g>
<path d="M55.2674 42.2056C48.0042 42.2056 41.1897 36.2521 42.1148 29.0438C43.5253 18.0345 53.2066 11.3941 55.2674 0C57.3283 11.3941 67.0096 18.0345 68.4201 29.0438C69.3452 36.2521 62.5307 42.2056 55.2674 42.2056Z" fill="url(#paint5_radial_5403_84573)" fill-opacity="0.4"/>
<path d="M55.2674 42.2056C48.0042 42.2056 41.1897 36.2521 42.1148 29.0438C43.5253 18.0345 53.2066 11.3941 55.2674 0C57.3283 11.3941 67.0096 18.0345 68.4201 29.0438C69.3452 36.2521 62.5307 42.2056 55.2674 42.2056Z" fill="url(#paint6_radial_5403_84573)"/>
<path opacity="0.5" d="M43.2738 29.1926L43.2738 29.1923C43.8694 24.5436 46.0269 20.6814 48.5341 16.706C48.877 16.1623 49.2272 15.6155 49.5804 15.064C51.6661 11.8078 53.8572 8.38694 55.2674 4.46441C56.6777 8.38694 58.8688 11.8078 60.9545 15.064C61.3077 15.6155 61.6579 16.1623 62.0008 16.706C64.508 20.6814 66.6655 24.5436 67.2611 29.1923L67.2611 29.1926C67.6685 32.3669 66.3829 35.3044 64.1064 37.4838C61.8216 39.6711 58.5893 41.0372 55.2674 41.0372C51.9456 41.0372 48.7133 39.6711 46.4285 37.4838C44.152 35.3044 42.8664 32.3669 43.2738 29.1926Z" stroke="url(#paint7_linear_5403_84573)" stroke-width="2.33686"/>
<circle cx="4" cy="25" r="1" fill="#16E09E"/>
<circle cx="34" cy="38" r="1" fill="#16E09E"/>
<circle cx="23" cy="59" r="2" fill="#16E09E"/>
<circle cx="48" cy="84" r="2" fill="#16E09E"/>
<circle cx="102" cy="46" r="2" fill="#16E09E"/>
<circle cx="30" cy="12" r="1" fill="#16E09E"/>
<circle cx="90" cy="22" r="1" fill="#16E09E"/>
<circle cx="75" cy="65" r="2" fill="#16E09E"/>
<path opacity="0.5" d="M87.9577 80.4786V40.8364H22.1182L22.1182 80.4786C22.1182 80.867 22.4095 81.3526 22.9921 81.6439L52.9986 98.9292C54.1639 99.609 55.9119 99.609 57.0772 98.9292L87.0837 81.6439C87.7634 81.3526 87.9577 80.867 87.9577 80.4786Z" fill="url(#paint8_linear_5403_84573)"/>
<defs>
<filter id="filter0_b_5403_84573" x="40.4724" y="-1.55791" width="29.5904" height="45.3214" filterUnits="userSpaceOnUse" color-interpolation-filters="sRGB">
<feFlood flood-opacity="0" result="BackgroundImageFix"/>
<feGaussianBlur in="BackgroundImageFix" stdDeviation="0.778954"/>
<feComposite in2="SourceAlpha" operator="in" result="effect1_backgroundBlur_5403_84573"/>
<feBlend mode="normal" in="SourceGraphic" in2="effect1_backgroundBlur_5403_84573" result="shape"/>
</filter>
<linearGradient id="paint0_linear_5403_84573" x1="23.8363" y1="66.9887" x2="85.7596" y2="102.74" gradientUnits="userSpaceOnUse">
<stop stop-color="#BCBEFF"/>
<stop offset="0.2271" stop-color="#AAADF8"/>
<stop offset="0.6802" stop-color="#7C83E5"/>
<stop offset="1" stop-color="#5761D7"/>
</linearGradient>
<linearGradient id="paint1_linear_5403_84573" x1="27.5527" y1="64.581" x2="82.776" y2="96.4641" gradientUnits="userSpaceOnUse">
<stop offset="0.2421" stop-color="#5761D7"/>
<stop offset="0.3923" stop-color="#7A82E5"/>
<stop offset="0.5463" stop-color="#979CF0"/>
<stop offset="0.7" stop-color="#ACAFF8"/>
<stop offset="0.8519" stop-color="#B8BAFD"/>
<stop offset="1" stop-color="#BCBEFF"/>
</linearGradient>
<linearGradient id="paint2_linear_5403_84573" x1="16.0712" y1="80.5027" x2="94.1178" y2="80.5027" gradientUnits="userSpaceOnUse">
<stop stop-color="#E9E9FD"/>
<stop offset="0.3601" stop-color="#D3D2F9"/>
<stop offset="0.7062" stop-color="#C5C4F7"/>
<stop offset="1" stop-color="#C0BFF6"/>
</linearGradient>
<linearGradient id="paint3_linear_5403_84573" x1="17.2697" y1="80.5027" x2="92.9198" y2="80.5027" gradientUnits="userSpaceOnUse">
<stop stop-color="#E9E9FD"/>
<stop offset="0.3601" stop-color="#D3D2F9"/>
<stop offset="0.7062" stop-color="#C5C4F7"/>
<stop offset="1" stop-color="#C0BFF6"/>
</linearGradient>
<linearGradient id="paint4_linear_5403_84573" x1="50.8627" y1="-34.274" x2="64.1049" y2="42.0635" gradientUnits="userSpaceOnUse">
<stop stop-color="#5761D7"/>
<stop offset="0.0726" stop-color="#5472D8"/>
<stop offset="0.2791" stop-color="#4E9CDB"/>
<stop offset="0.4801" stop-color="#49BDDD"/>
<stop offset="0.6715" stop-color="#45D5DF"/>
<stop offset="0.8493" stop-color="#43E3B3"/>
<stop offset="1" stop-color="#16E09E"/>
</linearGradient>
<radialGradient id="paint5_radial_5403_84573" cx="0" cy="0" r="1" gradientUnits="userSpaceOnUse" gradientTransform="translate(60.1719 42.1409) rotate(-100.216) scale(10.7639 18.0858)">
<stop stop-color="#005C14" stop-opacity="0.4"/>
<stop offset="1" stop-color="#57D75C" stop-opacity="0"/>
</radialGradient>
<radialGradient id="paint6_radial_5403_84573" cx="0" cy="0" r="1" gradientUnits="userSpaceOnUse" gradientTransform="translate(49.7987 13.2906) rotate(49.9697) scale(10.5837 12.5997)">
<stop stop-color="white" stop-opacity="0.8"/>
<stop offset="1" stop-color="white" stop-opacity="0"/>
</radialGradient>
<linearGradient id="paint7_linear_5403_84573" x1="51.7437" y1="5.51074" x2="55.2674" y2="42.2056" gradientUnits="userSpaceOnUse">
<stop stop-color="white" stop-opacity="0"/>
<stop offset="0.625" stop-color="white" stop-opacity="0.4"/>
<stop offset="1" stop-color="#02881F" stop-opacity="0.1"/>
</linearGradient>
<linearGradient id="paint8_linear_5403_84573" x1="55.0936" y1="99.4964" x2="54.5035" y2="50.1704" gradientUnits="userSpaceOnUse">
<stop stop-color="#16E09E"/>
<stop offset="1" stop-color="#16E09E" stop-opacity="0"/>
</linearGradient>
</defs>
</svg>
