<svg width="75" height="75" viewBox="0 0 75 75" fill="none" xmlns="http://www.w3.org/2000/svg">
<path opacity="0.4" d="M36.9979 73.4854C53.7338 73.4854 67.3009 59.9183 67.3009 43.1824C67.3009 26.4465 53.7338 12.8793 36.9979 12.8793C20.262 12.8793 6.69489 26.4465 6.69489 43.1824C6.69489 59.9183 20.262 73.4854 36.9979 73.4854Z" fill="url(#paint0_linear_1_933)"/>
<g clip-path="url(#clip0_1_933)">
<path opacity="0.4" d="M13.0147 29.6818C19.6421 29.6818 25.0147 24.3092 25.0147 17.6818C25.0147 11.0543 19.6421 5.68176 13.0147 5.68176C6.38729 5.68176 1.01471 11.0543 1.01471 17.6818C1.01471 24.3092 6.38729 29.6818 13.0147 29.6818Z" fill="url(#paint1_linear_1_933)"/>
</g>
<g clip-path="url(#clip1_1_933)">
<path d="M25.6198 71.7908C24.997 71.7908 24.3741 71.6707 23.943 71.4075L1.87965 58.6628C1.44845 58.3992 1.18494 58.064 1.18494 57.6566C1.18494 57.1774 1.54427 56.7225 2.14315 56.363L44.2096 32.0959C45.3593 31.4251 47.0844 31.3533 48.0902 31.9282L70.1537 44.6728C70.5849 44.9364 70.8484 45.2716 70.8484 45.6787C70.8484 46.1578 70.489 46.6131 69.8902 46.9726L27.8238 71.2395C27.177 71.599 26.3864 71.7908 25.6198 71.7908ZM23.9909 71.3116C24.9491 71.8625 26.65 71.7908 27.7759 71.144L69.8422 46.8525C70.4172 46.5172 70.7525 46.086 70.7525 45.6549C70.7525 45.2954 70.5369 44.9839 70.1057 44.7446L48.0423 32.0001C47.0844 31.4491 45.3835 31.5209 44.2576 32.1678L2.21504 56.4589C1.6401 56.7942 1.30472 57.2254 1.30472 57.6566C1.30472 58.016 1.52032 58.3275 1.95154 58.5669L23.9909 71.3116Z" fill="#16E09E"/>
<path d="M70.776 39.7856L67.6136 40.3365L48.0658 29.0534C47.0838 28.4785 45.3828 28.5504 44.2328 29.2211L6.83791 50.7815L1.23224 51.7397V53.728C1.23224 54.0874 1.44784 54.4465 1.903 54.6862L23.9663 67.4306C24.9485 68.0056 26.6493 67.9335 27.7992 67.263L69.8657 42.9719C70.4646 42.6124 70.7998 42.1813 70.7998 41.7501V39.7856H70.776Z" fill="url(#paint2_linear_1_933)"/>
<path d="M23.9668 65.4422L1.90345 52.6975C0.921282 52.1228 1.04106 51.1404 2.16699 50.4936L44.2333 26.2265C45.3592 25.5797 47.0843 25.5078 48.0663 26.0588L70.1294 38.8034C71.1118 39.3781 70.9921 40.3605 69.8662 41.0073L27.7997 65.2746C26.6498 65.9451 24.949 66.0169 23.9668 65.4422Z" fill="#24126A"/>
<path d="M69.8414 41.0074L27.7991 65.2747C26.6732 65.9215 24.9484 65.9932 23.9662 65.4423L1.90289 52.698C1.5196 52.4824 1.304 52.1709 1.25609 51.8594C1.18422 52.2668 1.39983 52.6738 1.90289 52.9615L23.9662 65.7059C24.9484 66.2809 26.6492 66.2088 27.7991 65.5382L69.8656 41.2471C70.5362 40.8635 70.8476 40.3368 70.7997 39.8815C70.728 40.2889 70.4165 40.6721 69.8414 41.0074Z" fill="white"/>
<path opacity="0.51" d="M24.0136 64.9389L2.74086 52.6499C1.78264 52.0987 1.90244 51.1404 3.0044 50.5178L44.2801 26.6817C45.3822 26.0589 47.0352 25.987 47.9935 26.538L69.2659 38.8272C70.2242 39.3785 70.1045 40.3364 69.0024 40.9593L27.7268 64.7955C26.6009 65.4181 24.9479 65.4902 24.0136 64.9389Z" fill="#453C9E"/>
<path opacity="0.8" d="M25.6189 64.8435C24.996 64.8435 24.4211 64.7235 23.9659 64.4599L2.69318 52.1709C2.26197 51.9311 2.0224 51.5717 2.0224 51.1885C2.0224 50.7335 2.35779 50.2544 2.95669 49.9191L44.2323 26.0829C45.3345 25.4361 47.0354 25.3642 47.9937 25.9392L69.2665 38.2285C69.6977 38.4679 69.937 38.8273 69.937 39.2105C69.937 39.6659 69.6018 40.145 69.0029 40.4803L27.727 64.3164C27.1281 64.6517 26.3615 64.8435 25.6189 64.8435ZM24.0378 64.3402C24.972 64.8673 26.6011 64.7956 27.6791 64.1967L68.955 40.3606C69.5059 40.0491 69.8174 39.6179 69.8174 39.2105C69.8174 38.8753 69.6018 38.5638 69.2185 38.3482L47.9457 26.0589C47.0112 25.5319 45.3824 25.5798 44.3044 26.2027L3.02854 50.0388C2.47756 50.3503 2.16614 50.7814 2.16614 51.1885C2.16614 51.5241 2.38173 51.8352 2.76503 52.0508L24.0378 64.3402Z" fill="url(#paint3_linear_1_933)"/>
<g opacity="0.3">
<path opacity="0.5" d="M24.0136 64.4123L2.74086 52.1229C1.78264 51.572 1.90244 50.6138 3.0044 49.9908L44.2801 26.1548C45.3822 25.5319 47.0352 25.4601 47.9935 26.0111L69.2659 38.3002C70.2242 38.8514 70.1045 39.8097 69.0024 40.4323L27.7268 64.2685C26.6009 64.8914 24.9479 64.9394 24.0136 64.4123Z" fill="url(#paint4_radial_1_933)"/>
<mask id="mask0_1_933" style="mask-type:alpha" maskUnits="userSpaceOnUse" x="2" y="26" width="68" height="40">
<path opacity="0.51" d="M24.0136 64.939L2.74086 52.65C1.78264 52.0987 1.90244 51.1405 3.0044 50.5179L44.2801 26.6818C45.3822 26.0589 47.0352 25.9871 47.9935 26.538L69.2659 38.8273C70.2242 39.3785 70.1045 40.3364 69.0024 40.9594L27.7268 64.7955C26.6009 65.4181 24.9479 65.4903 24.0136 64.939Z" fill="#453C9E"/>
</mask>
<g mask="url(#mask0_1_933)">
<path d="M22.4448 63.8299C22.4188 63.7849 22.3477 63.766 22.3027 63.792C22.2125 63.844 13.2906 68.9948 10.331 66.6783C9.8906 66.3319 9.70151 65.9003 9.7447 65.4547C10.0057 63.2014 16.1827 60.476 16.2278 60.45C16.2728 60.424 16.2919 60.353 16.2658 60.308C16.2398 60.263 16.1687 60.2437 16.1237 60.2697C15.8724 60.3548 9.81154 63.0731 9.51242 65.4688C9.4502 65.9855 9.66531 66.462 10.1577 66.8987C11.4789 67.938 13.8917 67.7466 17.4482 66.4144C20.0445 65.3959 22.3426 64.0693 22.3426 64.0693C22.4518 63.9463 22.4708 63.8749 22.4448 63.8299Z" fill="white"/>
<path d="M45.3964 58.6293L27.9655 48.6263L29.681 46.9149L27.9412 43.173L45.3719 53.176L43.6115 54.9134L45.3964 58.6293Z" fill="white"/>
<path d="M23.9452 69.0312L8.85668 60.3797L10.1546 59.0895L8.84497 56.3009L23.9335 64.9528L22.6356 66.2426L23.9452 69.0312Z" fill="#0BCD8D"/>
<path opacity="0.5" d="M29.112 66.0073L2.08086 81.6138L-7.18842 65.559L9.19828 56.0983C9.26801 56.0578 9.37083 56.0749 9.48357 56.1629L16.531 59.7284L29.112 66.0073Z" fill="url(#paint5_linear_1_933)"/>
<path d="M8.84497 56.3009L27.9411 43.173L45.3719 53.176L23.9335 64.9528L8.84497 56.3009Z" fill="url(#paint6_linear_1_933)"/>
<path d="M22.6352 66.2435L43.6109 54.9142L45.3713 53.1768L23.9331 64.9533L22.6352 66.2435Z" fill="url(#paint7_linear_1_933)"/>
<path d="M23.9448 69.0316L45.3956 58.6293L43.611 54.9138L22.6352 66.243L23.9448 69.0316Z" fill="url(#paint8_linear_1_933)"/>
<path d="M10.1546 59.0898L11.957 58.0494L8.84497 56.3013L10.1546 59.0898Z" fill="#06B37A"/>
<path d="M21.7446 60.3296C21.8452 60.5036 21.7249 60.7616 21.4761 60.905C21.2272 61.0489 20.9439 61.024 20.8434 60.8497C20.7428 60.6757 20.863 60.4177 21.1119 60.2742C21.3607 60.1304 21.644 60.1553 21.7446 60.3296Z" fill="#322E84"/>
<path d="M15.3415 57.3567C15.5668 57.2266 15.7141 56.9612 15.61 56.7809C15.5059 56.6006 15.2476 56.5698 14.9773 56.7255C14.752 56.8556 14.6047 57.121 14.7088 57.3013C14.8129 57.4816 15.1162 57.4868 15.3415 57.3567Z" fill="#322E84"/>
<path d="M21.5186 60.4592C21.4926 60.4138 21.4215 60.3949 21.3765 60.4209C21.2864 60.4729 12.9837 67.0087 10.0691 64.6662C9.62874 64.3197 9.43966 63.8882 9.43085 63.3525C9.58083 60.8026 15.2565 57.1053 15.3467 57.0532C15.3917 57.0272 15.4107 56.9562 15.3847 56.9109C15.3587 56.8659 15.2876 56.8469 15.2426 56.8729C15.0173 57.003 9.38661 60.6744 9.24362 63.3403C9.20738 63.9019 9.4485 64.4238 9.91492 64.8152C11.2361 65.8549 13.5899 65.4572 16.9053 63.6031C19.3646 62.2434 21.4805 60.6012 21.5256 60.5751C21.5256 60.5751 21.5446 60.5042 21.5186 60.4592Z" fill="white"/>
<path d="M13.7062 62.3401C13.6802 62.2947 13.6091 62.2758 13.5641 62.3018C13.4739 62.3538 6.26433 66.5162 3.91324 64.6294C3.56993 64.3469 3.38783 64.0317 3.45704 63.631C3.67486 61.823 8.64727 59.6132 8.69232 59.5872C8.73741 59.5612 8.75644 59.4902 8.75644 59.4902C8.73042 59.4449 8.65935 59.4259 8.65935 59.4259C8.47911 59.53 3.55175 61.7141 3.3149 63.5931C3.27171 64.0384 3.43477 64.425 3.84915 64.7265C4.87905 65.5739 6.89842 65.4294 9.74604 64.3261C11.8657 63.5229 13.7132 62.4561 13.7132 62.4561C13.7132 62.4561 13.7322 62.3851 13.7062 62.3401Z" fill="white"/>
<path d="M32.1972 58.1528L18.1437 50.0451L19.5768 48.6768L18.1371 45.663L32.2357 53.7447L30.8026 55.113L32.1972 58.1528Z" fill="white"/>
<path d="M14.938 66.5546L2.72223 59.5487L3.80182 58.5049L2.73331 56.2379L14.9491 63.2438L13.8695 64.2876L14.938 66.5546Z" fill="#0BCD8D"/>
<path opacity="0.5" d="M20.8308 63.0705L-6.36425 78.7714L-13.8364 65.8293L2.64959 56.311C2.71973 56.2705 2.8169 56.2768 2.91774 56.3437L8.26018 59.4404L20.8308 63.0705Z" fill="url(#paint9_linear_1_933)"/>
<path d="M2.73407 56.2381L18.1371 45.663L32.2357 53.7447L14.9048 63.2701L2.73407 56.2381Z" fill="url(#paint10_linear_1_933)"/>
<path d="M13.8698 64.2877L30.8022 55.1125L32.2353 53.7446L14.9043 63.27L13.8698 64.2877Z" fill="url(#paint11_linear_1_933)"/>
<path d="M14.9369 66.5548L32.1954 58.1527L30.8007 55.1129L13.8683 64.2878L14.9369 66.5548Z" fill="url(#paint12_linear_1_933)"/>
<path d="M3.80108 58.5053L5.19796 57.699L2.7326 56.2386L3.80108 58.5053Z" fill="#06B37A"/>
<path d="M13.1192 59.5544C13.191 59.6786 13.0879 59.8726 12.8888 59.9879C12.6897 60.1027 12.4701 60.0949 12.3982 59.9704C12.3264 59.8462 12.4295 59.6522 12.6286 59.537C12.8277 59.4221 13.0473 59.4299 13.1192 59.5544Z" fill="#322E84"/>
<path d="M7.93835 57.1381C8.1186 57.034 8.2468 56.8396 8.16878 56.7046C8.09072 56.5693 7.90353 56.5571 7.67823 56.6872C7.49799 56.7912 7.36979 56.9857 7.44781 57.1206C7.5449 57.1849 7.75811 57.2421 7.93835 57.1381Z" fill="#322E84"/>
<path d="M12.9388 59.6583C12.9128 59.6133 12.8418 59.5944 12.7967 59.6204C12.7066 59.6724 6.03121 64.9685 3.65411 63.0364C3.3108 62.7539 3.10268 62.3933 3.17189 61.993C3.3047 59.9338 7.8799 56.9318 7.92499 56.9058C7.97004 56.8798 7.98907 56.8088 7.96305 56.7635C7.93703 56.7185 7.86596 56.6995 7.82091 56.7255C7.64067 56.8296 3.11052 59.8055 2.95868 61.9358C2.94151 62.4264 3.10454 62.813 3.51892 63.1145C4.54884 63.9616 6.46414 63.6371 9.14869 62.1473C11.1574 61.0474 12.8487 59.7104 12.8487 59.7104C12.9649 59.7037 12.9649 59.7037 12.9388 59.6583Z" fill="white"/>
</g>
</g>
<path opacity="0.4" d="M64.7152 40.3126C64.3799 40.5044 63.8528 40.5044 63.5413 40.3126C63.206 40.1208 63.206 39.8096 63.5413 39.6416C63.8766 39.4502 64.4037 39.4502 64.7152 39.6416C65.0267 39.8334 65.0267 40.1449 64.7152 40.3126Z" fill="#24126A"/>
<path opacity="0.4" d="M60.2362 37.0546L62.536 38.3723C62.8237 38.5399 62.7758 38.8276 62.4643 38.9953C62.129 39.1867 61.6499 39.2109 61.3622 39.0432L59.0624 37.7255C58.7751 37.5579 58.823 37.2702 59.1345 37.1025C59.4456 36.9111 59.9489 36.887 60.2362 37.0546Z" fill="#24126A"/>
<path opacity="0.4" d="M47.2997 29.4366L49.5995 30.7542C49.8872 30.9218 49.8392 31.2093 49.5277 31.377C49.1925 31.5687 48.7133 31.5926 48.4256 31.4249L46.1259 30.1074C45.8385 29.9397 45.8865 29.6522 46.198 29.4845C46.5095 29.2929 47.0124 29.2689 47.2997 29.4366Z" fill="#24126A"/>
<path d="M64.7152 39.4981C64.3799 39.6896 63.8528 39.6896 63.5413 39.4981C63.206 39.3063 63.206 38.9948 63.5413 38.8272C63.8766 38.6354 64.4037 38.6354 64.7152 38.8272C65.0267 38.9948 65.0267 39.3063 64.7152 39.4981Z" fill="#16E09E"/>
<path d="M60.2362 36.2159L62.536 37.5336C62.8237 37.7013 62.7758 37.9886 62.4643 38.1562C62.129 38.348 61.6499 38.3718 61.3622 38.2042L59.0624 36.8868C58.7751 36.7192 58.823 36.4315 59.1345 36.2639C59.4456 36.0962 59.9489 36.0721 60.2362 36.2159Z" fill="#16E09E"/>
<path d="M47.2997 28.5981L49.5995 29.9157C49.8872 30.0834 49.8392 30.3709 49.5277 30.5386C49.1925 30.7302 48.7133 30.7542 48.4256 30.5865L46.1259 29.2689C45.8385 29.1013 45.8865 28.8138 46.198 28.6461C46.5095 28.4544 47.0124 28.4305 47.2997 28.5981Z" fill="#16E09E"/>
<g opacity="0.1">
<path d="M54.3173 67.1093C54.3173 64.4263 56.1859 61.1921 58.5094 59.8506C59.6595 59.1797 60.7133 59.1079 61.4801 59.5633L62.2704 60.0182L62.031 60.0424C62.4384 60.5453 62.7016 61.3118 62.7016 62.27C62.7016 64.953 60.8334 68.1873 58.5094 69.5287C57.7188 69.9837 56.9762 70.1517 56.3294 70.0796L56.3535 70.2952L55.5391 69.8161L55.515 69.7923C54.7723 69.3611 54.3173 68.4266 54.3173 67.1093Z" fill="#9FFFCB"/>
<path d="M62.2637 66.8807C63.8978 64.0505 63.894 60.9895 62.2556 60.0435C60.6174 59.0975 57.9646 60.6249 56.3305 63.4551C54.6965 66.2849 54.7002 69.3459 56.3387 70.2919C57.9772 71.2379 60.6297 69.7105 62.2637 66.8807Z" fill="#16E09E"/>
</g>
<path opacity="0.2" d="M59.0376 74.7372C55.3722 74.7372 51.7071 73.9224 48.9041 72.3174C46.1973 70.7603 44.6878 68.6761 44.6878 66.4485C44.6878 64.2205 46.1731 62.1363 48.9041 60.5792C54.486 57.345 63.565 57.345 69.1469 60.5792C71.8537 62.1363 73.3632 64.2205 73.3632 66.4485C73.3632 68.6761 71.8778 70.7603 69.1469 72.3174C66.368 73.9466 62.7026 74.7372 59.0376 74.7372ZM59.0376 58.2553C55.3963 58.2553 51.7309 59.0459 48.952 60.6751C46.269 62.2322 44.7837 64.2922 44.7837 66.4723C44.7837 68.6524 46.269 70.7124 48.952 72.2694C54.5098 75.4795 63.565 75.4795 69.1228 72.2694C71.8061 70.7124 73.2911 68.6524 73.2911 66.4723C73.2911 64.2922 71.8061 62.2322 69.1228 60.6751C66.3439 59.0459 62.6788 58.2553 59.0376 58.2553Z" fill="#16E09E"/>
<path d="M59.0372 71.6226C56.7612 71.6226 54.4856 71.1197 52.7367 70.1135C51.06 69.1315 50.1255 67.8375 50.1255 66.4481C50.1255 65.059 51.06 63.7651 52.7367 62.7831C56.2103 60.7706 61.8399 60.7706 65.3135 62.7831C66.9906 63.7651 67.9247 65.059 67.9247 66.4481C67.9247 67.8375 66.9906 69.1315 65.3135 70.1135C63.5887 71.1197 61.3131 71.6226 59.0372 71.6226ZM59.0372 61.3936C56.7854 61.3936 54.5094 61.8965 52.7847 62.879C51.1317 63.8372 50.1976 65.1066 50.1976 66.4723C50.1976 67.8138 51.1079 69.1073 52.7847 70.0656C56.2345 72.0538 61.8399 72.0538 65.2897 70.0656C66.9427 69.1073 67.8768 67.8375 67.8768 66.4723C67.8768 65.1066 66.9665 63.8372 65.2897 62.879C63.565 61.8728 61.289 61.3936 59.0372 61.3936Z" fill="#16E09E"/>
<mask id="mask1_1_933" style="mask-type:alpha" maskUnits="userSpaceOnUse" x="46" y="49" width="20" height="20">
<path d="M46.6158 63.2358L65.2227 49.7934V62.5523L55.1978 68.704L46.6158 63.2358Z" fill="#D9D9D9"/>
</mask>
<g mask="url(#mask1_1_933)">
<path d="M54.3188 67.1094C54.3188 64.4264 56.1874 61.1926 58.5109 59.8507C59.661 59.1801 60.7148 59.1084 61.4816 59.5634L62.2718 60.0187L62.0325 60.0425C62.4395 60.5454 62.703 61.3122 62.703 62.2705C62.703 64.9535 60.8345 68.1873 58.5109 69.5288C57.7203 69.9842 56.9776 70.1518 56.3308 70.0801L56.355 70.2957L55.5402 69.8165L55.5164 69.7924C54.7738 69.3612 54.3188 68.4271 54.3188 67.1094Z" fill="#9FFFCB"/>
<path d="M62.2651 66.8808C63.8992 64.051 63.8954 60.9896 62.257 60.044C60.6188 59.098 57.966 60.625 56.3319 63.4552C54.6979 66.2853 54.7016 69.3464 56.3401 70.2924C57.9786 71.2383 60.6311 69.711 62.2651 66.8808Z" fill="#16E09E"/>
</g>
<path d="M43.0602 27.7483C43.0081 27.7483 42.9561 27.6962 42.9561 27.6442C42.9561 27.5401 42.9561 17.238 39.4699 15.8332C38.9495 15.6251 38.4815 15.6771 38.1172 15.9372C36.2962 17.2901 37.0244 24.002 37.0244 24.0541C37.0244 24.1061 36.9724 24.1581 36.9203 24.1581C36.8683 24.1581 36.8162 24.1061 36.8162 24.0541C36.7642 23.7939 36.0881 17.186 38.0131 15.7291C38.4295 15.417 38.9495 15.3649 39.5739 15.5731C41.1347 16.1974 42.1755 18.3827 42.8 22.1289C43.2163 24.8866 43.2163 27.5401 43.2163 27.5401C43.1643 27.6962 43.1122 27.7483 43.0602 27.7483Z" fill="white"/>
<path d="M50.0323 50.2256L32.6539 40.1315L32.0295 42.4729L27.9191 42.8372L45.2975 52.9309L45.9216 50.5375L50.0323 50.2256Z" fill="white"/>
<path d="M48.3156 26.4475L33.2785 17.7063L32.8103 19.4754L29.7405 19.7355L44.7773 28.4767L45.2457 26.7076L48.3156 26.4475Z" fill="#7C4EFF"/>
<path opacity="0.5" d="M48.4717 38.603V0.183105H29.8559V23.4739C29.8559 23.573 29.9224 23.6721 30.0554 23.7381L36.6945 29.0563L48.4717 38.603Z" fill="url(#paint13_linear_1_933)"/>
<path d="M29.7402 19.7357L27.9191 42.8374L45.2975 52.9315L44.7771 28.4768L29.7402 19.7357Z" fill="url(#paint14_linear_1_933)"/>
<path opacity="0.6" d="M28.9054 37.0189L28.6677 39.1726L45.3032 48.5051V46.3514L28.9054 37.0189Z" fill="#252070"/>
<path d="M45.2461 26.7077L45.9226 50.538L45.2981 52.9314L44.7781 28.4768L45.2461 26.7077Z" fill="url(#paint15_linear_1_933)"/>
<path d="M48.3155 26.4473L50.0325 50.2253L45.9221 50.5375L45.2456 26.7074L48.3155 26.4473Z" fill="url(#paint16_linear_1_933)"/>
<path d="M32.8103 19.4754V21.5566L29.7405 19.7356L32.8103 19.4754Z" fill="#5F56AA"/>
<path d="M39.6795 28.893C39.8806 28.893 40.0438 28.66 40.0438 28.3727C40.0438 28.0853 39.8806 27.8524 39.6795 27.8524C39.4784 27.8524 39.3152 28.0853 39.3152 28.3727C39.3152 28.66 39.4784 28.893 39.6795 28.893Z" fill="#322E84"/>
<path d="M33.9032 24.8347C33.9032 25.0949 33.7471 25.355 33.539 25.355C33.3309 25.355 33.1747 25.1469 33.1747 24.8347C33.1747 24.5746 33.3309 24.3144 33.539 24.3144C33.7471 24.3144 33.9032 24.5746 33.9032 24.8347Z" fill="#322E84"/>
<path d="M39.6787 28.6327C39.6267 28.6327 39.5746 28.5807 39.5746 28.5287C39.5746 28.4246 41.0837 17.9664 37.5975 16.6136C37.0771 16.4055 36.6091 16.4576 36.1408 16.7177C34.0075 18.1225 33.6433 24.8865 33.6433 24.9906C33.6433 25.0426 33.5912 25.0947 33.5392 25.0947C33.4872 25.0947 33.4351 25.0426 33.4351 24.9906C33.4351 24.7304 33.7994 18.0185 36.0367 16.5616C36.5051 16.2494 37.0771 16.1974 37.6495 16.4055C39.2107 17.0299 40.043 19.2672 40.095 23.0654C40.147 25.8751 39.7828 28.5287 39.7828 28.5807C39.7828 28.5807 39.7307 28.6327 39.6787 28.6327Z" fill="white"/>
<path d="M29.8972 33.6277C29.8452 33.6277 29.7932 33.5757 29.7932 33.5236C29.7932 33.4195 29.7932 25.0946 26.9835 24.002C26.5672 23.8459 26.203 23.8458 25.8909 24.106C24.434 25.1987 25.0063 30.6099 25.0063 30.6619C25.0063 30.7139 24.9543 30.766 24.9543 30.766C24.9023 30.766 24.8502 30.7139 24.8502 30.7139C24.8502 30.5058 24.2779 25.1466 25.7868 24.002C26.151 23.7418 26.5672 23.6898 27.0355 23.8979C28.2843 24.3662 29.1688 26.1873 29.6371 29.2051C30.0013 31.4424 30.0013 33.5757 30.0013 33.5757C30.0013 33.5757 29.9492 33.6277 29.8972 33.6277Z" fill="white"/>
<path d="M35.516 51.7343L21.4678 43.6177L20.9995 45.5428L17.6696 45.803L31.7179 53.9717L32.1862 52.0466L35.516 51.7343Z" fill="white"/>
<path d="M34.1625 32.5872L21.9873 25.511L21.623 26.9679L19.1255 27.176L31.3008 34.2523L31.665 32.7952L34.1625 32.5872Z" fill="#7C4EFF"/>
<path opacity="0.5" d="M34.2122 47.3166V8.50073H19.1611V32.0316C19.1611 32.1317 19.2155 32.2319 19.3244 32.2986L24.7159 36.1037L34.2122 47.3166Z" fill="url(#paint17_linear_1_933)"/>
<path d="M19.1264 27.176L17.6696 45.8031L31.7179 53.9718L31.3016 34.2003L19.1264 27.176Z" fill="url(#paint18_linear_1_933)"/>
<mask id="mask2_1_933" style="mask-type:alpha" maskUnits="userSpaceOnUse" x="17" y="27" width="15" height="27">
<path d="M19.1264 27.176L17.6696 45.8031L31.7179 53.9718L31.3016 34.2003L19.1264 27.176Z" fill="url(#paint19_linear_1_933)"/>
</mask>
<g mask="url(#mask2_1_933)">
<path opacity="0.6" d="M17.9726 40.9794L17.7746 42.7618L31.6375 50.4855V48.7031L17.9726 40.9794Z" fill="#252070"/>
</g>
<path d="M31.6657 32.7951L32.186 52.0466L31.7178 53.9717L31.3015 34.2002L31.6657 32.7951Z" fill="url(#paint20_linear_1_933)"/>
<path d="M34.163 32.5872L35.5159 51.7344L32.1858 52.0467L31.6655 32.7952L34.163 32.5872Z" fill="url(#paint21_linear_1_933)"/>
<path d="M21.6245 26.9679V28.5808L19.127 27.176L21.6245 26.9679Z" fill="#5F56AA"/>
<path d="M27.1908 34.5126C27.3345 34.5126 27.451 34.326 27.451 34.0962C27.451 33.8662 27.3345 33.6799 27.1908 33.6799C27.0472 33.6799 26.9307 33.8662 26.9307 34.0962C26.9307 34.326 27.0472 34.5126 27.1908 34.5126Z" fill="#322E84"/>
<path d="M22.509 31.2344C22.509 31.4425 22.4049 31.6506 22.2488 31.6506C22.0927 31.6506 21.9886 31.4945 21.9886 31.2344C21.9886 31.0262 22.0927 30.8181 22.2488 30.8181C22.3528 30.8702 22.509 31.0262 22.509 31.2344Z" fill="#322E84"/>
<path d="M27.1912 34.3039C27.1392 34.3039 27.0872 34.2522 27.0872 34.2002C27.0872 34.0961 28.3359 25.667 25.4742 24.5743C25.058 24.4182 24.6417 24.4182 24.3295 24.6784C22.6125 25.823 22.3003 31.2863 22.3003 31.3383C22.3003 31.3903 22.2483 31.4424 22.1963 31.4424C22.1443 31.4424 22.0922 31.3903 22.0922 31.3383C22.0922 31.1302 22.4044 25.719 24.1735 24.5223C24.5897 24.2621 25.006 24.2101 25.4742 24.4182C26.723 24.8865 27.3994 26.7076 27.4514 29.7774C27.5034 32.0667 27.1912 34.2002 27.1912 34.2002C27.2433 34.3039 27.2433 34.3039 27.1912 34.3039Z" fill="white"/>
</g>
<defs>
<linearGradient id="paint0_linear_1_933" x1="16.5434" y1="3.85649" x2="51.7706" y2="68.6293" gradientUnits="userSpaceOnUse">
<stop stop-color="#7C4EFF"/>
<stop offset="0.904355" stop-color="#7C4EFF" stop-opacity="0"/>
</linearGradient>
<linearGradient id="paint1_linear_1_933" x1="4.91471" y1="2.10872" x2="18.8647" y2="27.7588" gradientUnits="userSpaceOnUse">
<stop stop-color="#7C4EFF"/>
<stop offset="0.904355" stop-color="#7C4EFF" stop-opacity="0"/>
</linearGradient>
<linearGradient id="paint2_linear_1_933" x1="1.24527" y1="48.2419" x2="70.7865" y2="48.2419" gradientUnits="userSpaceOnUse">
<stop stop-color="#BCBEFF"/>
<stop offset="0.151" stop-color="#A3A7F5"/>
<stop offset="0.3866" stop-color="#8289E8"/>
<stop offset="0.6124" stop-color="#6A73DF"/>
<stop offset="0.8221" stop-color="#5C66D9"/>
<stop offset="1" stop-color="#5761D7"/>
</linearGradient>
<linearGradient id="paint3_linear_1_933" x1="45.7013" y1="58.0803" x2="26.2896" y2="32.3199" gradientUnits="userSpaceOnUse">
<stop stop-color="#16E09E"/>
<stop offset="0.1055" stop-color="#37BF9E"/>
<stop offset="0.2197" stop-color="#2C87A1"/>
<stop offset="0.338" stop-color="#235F87"/>
<stop offset="0.4587" stop-color="#1C3F72"/>
<stop offset="0.5824" stop-color="#162561"/>
<stop offset="0.7105" stop-color="#121355"/>
<stop offset="0.8458" stop-color="#10084E"/>
<stop offset="1" stop-color="#0F054C"/>
</linearGradient>
<radialGradient id="paint4_radial_1_933" cx="0" cy="0" r="1" gradientUnits="userSpaceOnUse" gradientTransform="translate(32.5327 44.6003) scale(54.4299 54.4299)">
<stop stop-color="#16E09E"/>
<stop offset="0.1055" stop-color="#37BF96"/>
<stop offset="0.2197" stop-color="#2C87A1"/>
<stop offset="0.338" stop-color="#235F87"/>
<stop offset="0.4587" stop-color="#1C3F72"/>
<stop offset="0.5824" stop-color="#162561"/>
<stop offset="0.7105" stop-color="#121355"/>
<stop offset="0.8458" stop-color="#10084E"/>
<stop offset="1" stop-color="#0F054C"/>
</radialGradient>
<linearGradient id="paint5_linear_1_933" x1="15.7175" y1="60.6379" x2="0.102846" y2="69.653" gradientUnits="userSpaceOnUse">
<stop stop-color="#16E09E"/>
<stop offset="0.1055" stop-color="#37BF8E"/>
<stop offset="1" stop-color="#16E09E" stop-opacity="0"/>
</linearGradient>
<linearGradient id="paint6_linear_1_933" x1="16.8855" y1="70.6437" x2="34.0127" y2="47.2376" gradientUnits="userSpaceOnUse">
<stop stop-color="#BCBEFF"/>
<stop offset="0.1659" stop-color="#B6B8FC"/>
<stop offset="0.3956" stop-color="#A4A8F5"/>
<stop offset="0.6625" stop-color="#868DEA"/>
<stop offset="0.9554" stop-color="#5E67DA"/>
<stop offset="1" stop-color="#5761D7"/>
</linearGradient>
<linearGradient id="paint7_linear_1_933" x1="34.0919" y1="79.635" x2="40.6287" y2="55.813" gradientUnits="userSpaceOnUse">
<stop stop-color="#8083EF"/>
<stop offset="0.9554" stop-color="#5E67DA"/>
<stop offset="1" stop-color="#5761D7"/>
</linearGradient>
<linearGradient id="paint8_linear_1_933" x1="30.954" y1="77.8418" x2="42.1792" y2="55.1394" gradientUnits="userSpaceOnUse">
<stop stop-color="#BCBEFF"/>
<stop offset="0.1659" stop-color="#B6B8FC"/>
<stop offset="0.3956" stop-color="#A4A8F5"/>
<stop offset="0.6625" stop-color="#868DEA"/>
<stop offset="0.9554" stop-color="#5E67DA"/>
<stop offset="1" stop-color="#5761D7"/>
</linearGradient>
<linearGradient id="paint9_linear_1_933" x1="8.52614" y1="59.6969" x2="-7.18315" y2="68.7665" gradientUnits="userSpaceOnUse">
<stop stop-color="#16E09E"/>
<stop offset="0.1055" stop-color="#37BF8E"/>
<stop offset="1" stop-color="#16E09E" stop-opacity="0"/>
</linearGradient>
<linearGradient id="paint10_linear_1_933" x1="9.24178" y1="67.8458" x2="23.0804" y2="48.9549" gradientUnits="userSpaceOnUse">
<stop stop-color="#BCBEFF"/>
<stop offset="0.1659" stop-color="#B6B8FC"/>
<stop offset="0.3956" stop-color="#A4A8F5"/>
<stop offset="0.6625" stop-color="#868DEA"/>
<stop offset="0.9554" stop-color="#5E67DA"/>
<stop offset="1" stop-color="#5761D7"/>
</linearGradient>
<linearGradient id="paint11_linear_1_933" x1="22.8186" y1="74.577" x2="27.5649" y2="55.6541" gradientUnits="userSpaceOnUse">
<stop stop-color="#8083EF"/>
<stop offset="0.9554" stop-color="#5E67DA"/>
<stop offset="1" stop-color="#5761D7"/>
</linearGradient>
<linearGradient id="paint12_linear_1_933" x1="20.5656" y1="73.6139" x2="29.5851" y2="55.2817" gradientUnits="userSpaceOnUse">
<stop stop-color="#BCBEFF"/>
<stop offset="0.1659" stop-color="#B6B8FC"/>
<stop offset="0.3956" stop-color="#A4A8F5"/>
<stop offset="0.6625" stop-color="#868DEA"/>
<stop offset="0.9554" stop-color="#5E67DA"/>
<stop offset="1" stop-color="#5761D7"/>
</linearGradient>
<linearGradient id="paint13_linear_1_933" x1="37.5547" y1="26.1204" x2="37.3688" y2="2.88862" gradientUnits="userSpaceOnUse">
<stop stop-color="#16E09E"/>
<stop offset="0.1055" stop-color="#37BF8E"/>
<stop offset="1" stop-color="#16E09E" stop-opacity="0"/>
</linearGradient>
<linearGradient id="paint14_linear_1_933" x1="46.1818" y1="19.5276" x2="34.4748" y2="46.0634" gradientUnits="userSpaceOnUse">
<stop stop-color="#BCBEFF"/>
<stop offset="0.1659" stop-color="#B6B8FC"/>
<stop offset="0.3956" stop-color="#A4A8F5"/>
<stop offset="0.6625" stop-color="#868DEA"/>
<stop offset="0.9554" stop-color="#5E67DA"/>
<stop offset="1" stop-color="#5761D7"/>
</linearGradient>
<linearGradient id="paint15_linear_1_933" x1="62.5721" y1="29.9337" x2="45.2096" y2="47.5056" gradientUnits="userSpaceOnUse">
<stop stop-color="#8083EF"/>
<stop offset="0.9554" stop-color="#5E67DA"/>
<stop offset="1" stop-color="#5761D7"/>
</linearGradient>
<linearGradient id="paint16_linear_1_933" x1="59.45" y1="28.1124" x2="45.4017" y2="49.1848" gradientUnits="userSpaceOnUse">
<stop stop-color="#BCBEFF"/>
<stop offset="0.1659" stop-color="#B6B8FC"/>
<stop offset="0.3956" stop-color="#A4A8F5"/>
<stop offset="0.6625" stop-color="#868DEA"/>
<stop offset="0.9554" stop-color="#5E67DA"/>
<stop offset="1" stop-color="#5761D7"/>
</linearGradient>
<linearGradient id="paint17_linear_1_933" x1="25.3856" y1="34.7053" x2="25.151" y2="11.235" gradientUnits="userSpaceOnUse">
<stop stop-color="#16E09E"/>
<stop offset="0.1055" stop-color="#37BF8E"/>
<stop offset="1" stop-color="#16E09E" stop-opacity="0"/>
</linearGradient>
<linearGradient id="paint18_linear_1_933" x1="32.4328" y1="27.0081" x2="22.9921" y2="48.4382" gradientUnits="userSpaceOnUse">
<stop stop-color="#BCBEFF"/>
<stop offset="0.1659" stop-color="#B6B8FC"/>
<stop offset="0.3956" stop-color="#A4A8F5"/>
<stop offset="0.6625" stop-color="#868DEA"/>
<stop offset="0.9554" stop-color="#5E67DA"/>
<stop offset="1" stop-color="#5761D7"/>
</linearGradient>
<linearGradient id="paint19_linear_1_933" x1="32.4328" y1="27.0081" x2="22.9921" y2="48.4382" gradientUnits="userSpaceOnUse">
<stop stop-color="#BCBEFF"/>
<stop offset="0.1659" stop-color="#B6B8FC"/>
<stop offset="0.3956" stop-color="#A4A8F5"/>
<stop offset="0.6625" stop-color="#868DEA"/>
<stop offset="0.9554" stop-color="#5E67DA"/>
<stop offset="1" stop-color="#5761D7"/>
</linearGradient>
<linearGradient id="paint20_linear_1_933" x1="45.051" y1="35.4004" x2="31.0365" y2="48.9722" gradientUnits="userSpaceOnUse">
<stop stop-color="#8083EF"/>
<stop offset="0.9554" stop-color="#5E67DA"/>
<stop offset="1" stop-color="#5761D7"/>
</linearGradient>
<linearGradient id="paint21_linear_1_933" x1="43.0906" y1="33.9322" x2="31.7243" y2="50.9096" gradientUnits="userSpaceOnUse">
<stop stop-color="#BCBEFF"/>
<stop offset="0.1659" stop-color="#B6B8FC"/>
<stop offset="0.3956" stop-color="#A4A8F5"/>
<stop offset="0.6625" stop-color="#868DEA"/>
<stop offset="0.9554" stop-color="#5E67DA"/>
<stop offset="1" stop-color="#5761D7"/>
</linearGradient>
<clipPath id="clip0_1_933">
<rect width="9.09091" height="9.09091" fill="white" transform="translate(1.01471 5.68176)"/>
</clipPath>
<clipPath id="clip1_1_933">
<rect width="72.3485" height="75" fill="white" transform="translate(0.998474)"/>
</clipPath>
</defs>
</svg>
