<svg width="75" height="75" viewBox="0 0 75 75" fill="none" xmlns="http://www.w3.org/2000/svg">
<g clip-path="url(#clip0_1_218)">
<path opacity="0.4" d="M37.0934 75C55.1027 75 69.7021 60.4006 69.7021 42.3913C69.7021 24.382 55.1027 9.78259 37.0934 9.78259C19.0842 9.78259 4.48474 24.382 4.48474 42.3913C4.48474 60.4006 19.0842 75 37.0934 75Z" fill="url(#paint0_linear_1_218)"/>
<path opacity="0.4" d="M69.7046 11.8205C72.406 11.8205 74.5959 9.6306 74.5959 6.92921C74.5959 4.22781 72.406 2.0379 69.7046 2.0379C67.0032 2.0379 64.8133 4.22781 64.8133 6.92921C64.8133 9.6306 67.0032 11.8205 69.7046 11.8205Z" fill="url(#paint1_linear_1_218)"/>
<g clip-path="url(#clip1_1_218)">
<g opacity="0.3">
<path d="M24.9358 40.3386C25.4776 40.0247 25.9054 40.2815 25.9054 40.9088C25.9054 41.5361 25.4776 42.2775 24.9358 42.5914C24.394 42.9053 23.9662 42.6485 23.9662 42.0212C23.9662 41.3939 24.4225 40.6524 24.9358 40.3386Z" fill="url(#paint2_linear_1_218)"/>
<path d="M24.9928 40.367C24.451 40.6809 24.0232 41.4223 24.0232 42.0496C24.0232 42.3345 24.1088 42.5628 24.2799 42.6484C24.0803 42.5628 23.9662 42.3345 23.9662 41.9926C23.9662 41.3652 24.394 40.6238 24.9358 40.3099C25.221 40.1388 25.4776 40.1388 25.6487 40.2529C25.4776 40.1958 25.2495 40.2243 24.9928 40.367Z" fill="white"/>
<path d="M22.6239 38.9983C23.1657 38.6844 23.5935 38.9412 23.5935 39.5685C23.5935 40.1958 23.1657 40.9373 22.6239 41.2511C22.082 41.5646 21.6543 41.3082 21.6543 40.6805C21.6543 40.0532 22.082 39.3117 22.6239 38.9983Z" fill="url(#paint3_linear_1_218)"/>
<path d="M20.2578 37.6295C20.7997 37.3156 21.2274 37.5724 21.2274 38.1998C21.2274 38.8271 20.7997 39.5685 20.2578 39.8824C19.716 40.1958 19.2883 39.9394 19.2883 39.3121C19.2883 38.7129 19.716 37.943 20.2578 37.6295Z" fill="url(#paint4_linear_1_218)"/>
<path d="M24.2503 42.6484L25.448 43.3328C25.2769 43.2187 25.1628 43.0193 25.1628 42.7055C25.1628 42.0782 25.5906 41.3367 26.1324 41.0229C26.3891 40.8802 26.6172 40.8517 26.8168 40.9373L31.9214 43.8745L30.5526 46.27L15.4954 37.6295C14.8395 37.2586 14.6114 36.403 14.9821 35.7472C15.3528 35.0913 16.2084 34.8631 16.8643 35.234L20.9423 37.5725C20.7712 37.4583 20.5145 37.4583 20.2293 37.6295C19.6875 37.943 19.2597 38.6844 19.2597 39.3117C19.2597 39.6256 19.3738 39.8538 19.5449 39.9394L20.7426 40.6238C20.5715 40.5097 20.4575 40.31 20.4575 39.9965C20.4575 39.3688 20.8852 38.6274 21.427 38.3139C21.6837 38.1712 21.9118 38.1427 22.1114 38.2283L23.3092 38.9127C23.1381 38.7985 22.8814 38.7985 22.5963 38.9697C22.0544 39.2832 21.6267 40.0246 21.6267 40.6524C21.6267 40.9658 21.7407 41.1941 21.9118 41.2797L23.1096 41.964C22.9384 41.8499 22.8244 41.6502 22.8244 41.3367C22.8244 40.7094 23.2521 39.968 23.794 39.6541C24.0506 39.5115 24.2788 39.4829 24.4784 39.5685L25.6191 40.2244C25.448 40.1102 25.1913 40.1102 24.9062 40.2814C24.3643 40.5953 23.9366 41.3367 23.9366 41.964C23.9651 42.3346 24.0792 42.5343 24.2503 42.6484Z" fill="#BCBEFF"/>
<path d="M22.6809 39.0267C22.1391 39.3402 21.7113 40.082 21.7113 40.7093C21.7113 40.9943 21.7969 41.2225 21.968 41.3081C21.7683 41.2225 21.6543 40.9943 21.6543 40.6523C21.6543 40.025 22.082 39.2835 22.6239 38.9697C22.909 38.7985 23.1657 38.7985 23.3368 38.9126C23.1657 38.8555 22.9376 38.8841 22.6809 39.0267Z" fill="white"/>
<path d="M20.3149 37.6576C19.773 37.9715 19.3453 38.7129 19.3453 39.3402C19.3453 39.6256 19.4309 39.8538 19.6019 39.939C19.4023 39.8538 19.2883 39.6256 19.2883 39.2832C19.2883 38.6559 19.716 37.9144 20.2578 37.601C20.543 37.4298 20.7997 37.4298 20.9708 37.5439C20.7997 37.5154 20.5715 37.5154 20.3149 37.6576Z" fill="white"/>
<path opacity="0.48" d="M26.1606 41.0229C25.6188 41.3367 25.191 42.0782 25.191 42.7055C25.191 43.0194 25.3051 43.2476 25.4762 43.3328L24.2784 42.6484C24.1073 42.5343 23.9933 42.335 23.9933 42.0211C23.9933 41.3938 24.421 40.6524 24.9629 40.3385C25.248 40.1677 25.4762 40.1677 25.6758 40.2814L26.845 40.9662C26.6454 40.8521 26.4173 40.8806 26.1606 41.0229Z" fill="url(#paint5_linear_1_218)"/>
<path opacity="0.48" d="M23.8216 39.6827C23.2798 39.9962 22.852 40.738 22.852 41.3653C22.852 41.6788 22.9661 41.9071 23.1372 41.9927L21.9395 41.3083C21.7683 41.1942 21.6543 40.9944 21.6543 40.681C21.6543 40.0533 22.082 39.3118 22.6239 38.9984C22.909 38.8272 23.1372 38.8272 23.3368 38.9413L24.506 39.6257C24.3349 39.5115 24.1068 39.5401 23.8216 39.6827Z" fill="url(#paint6_linear_1_218)"/>
<path opacity="0.48" d="M21.4842 38.3424C20.9424 38.6559 20.5146 39.3973 20.5146 40.025C20.5146 40.3385 20.6287 40.5667 20.7998 40.6523L19.6021 39.9679C19.431 39.8538 19.3169 39.6541 19.3169 39.3402C19.3169 38.7129 19.7447 37.9715 20.2865 37.658C20.5717 37.4868 20.7998 37.4868 20.9995 37.601L22.1686 38.2853C21.969 38.1712 21.7409 38.1712 21.4842 38.3424Z" fill="url(#paint7_linear_1_218)"/>
<path d="M30.6384 50.4619C30.6384 50.5475 30.6384 50.6046 30.6384 50.6902L33.6042 53.1713L38.4237 54.9676L41.817 54.1977L45.0681 53.2569L48.3763 50.7187L48.4619 50.6617C48.4619 50.4619 48.4619 50.2626 48.4333 50.0629C49.0036 49.2929 49.6023 48.5229 50.173 47.7244C50.4294 48.0668 50.6576 48.4088 50.8288 48.7512L51.2279 48.4373V50.4334C51.2279 50.4619 51.2279 50.4905 51.2279 50.4905V50.5761C51.1708 52.2587 50.0589 53.9413 47.8345 55.2244C43.2718 57.8767 35.914 57.8767 31.3513 55.253C29.0985 53.9413 27.9578 52.2587 27.9293 50.5475C27.9293 50.519 27.9293 50.519 27.9293 50.4905V48.3803L28.357 48.7227C28.4426 48.5229 28.5851 48.3232 28.6992 48.0949C29.1555 49.0076 29.6688 50.0914 30.6384 50.4619Z" fill="url(#paint8_linear_1_218)"/>
<path d="M47.5781 45.6142C47.6352 45.6427 47.6923 45.6712 47.7779 45.7283C48.8046 46.3271 49.6031 47.0114 50.1734 47.7244C49.6031 48.4943 49.0039 49.2643 48.4337 50.0628C48.2625 48.8938 47.4069 47.7529 45.867 46.8688C42.3881 44.8727 36.7414 44.8727 33.2625 46.8973C31.5514 47.8955 30.6959 49.1787 30.6674 50.4908C29.7263 50.1199 29.213 49.036 28.6712 48.1523C29.0989 47.5246 29.6978 46.8973 30.4678 46.3556L30.0685 46.4412C30.0685 46.4412 32.8062 44.0742 32.9203 44.0457C33.0344 44.0172 38.5097 42.5628 38.5097 42.5628L44.698 43.1045L47.5781 45.6142Z" fill="url(#paint9_linear_1_218)"/>
<path opacity="0.5" d="M45.6669 45.4715C49.1462 47.4679 49.1462 50.719 45.6669 52.7436C42.1879 54.7682 36.5413 54.7682 33.0622 52.7722C29.5831 50.7757 29.5831 47.525 33.0622 45.5C36.5413 43.4754 42.1879 43.4469 45.6669 45.4715Z" fill="url(#paint10_linear_1_218)"/>
<path opacity="0.48" d="M45.6383 46.0988C49.1173 48.0953 49.1173 51.3464 45.6383 53.3709C42.159 55.3955 36.5128 55.3955 33.0336 53.3995C29.5545 51.4034 29.5545 48.1523 33.0336 46.1273C36.5128 44.1027 42.159 44.0742 45.6383 46.0988Z" fill="url(#paint11_linear_1_218)"/>
<path d="M47.7775 43.6462C43.2147 41.0229 35.8288 41.0514 31.2946 43.6748C26.7603 46.2986 26.7603 50.576 31.323 53.1998C35.8859 55.8232 43.2718 55.795 47.806 53.1713C52.3402 50.5189 52.3402 46.2415 47.7775 43.6462ZM45.8385 44.7586C49.3174 46.7547 49.3174 50.0058 45.8385 52.0304C42.3591 54.0554 36.7129 54.0554 33.2337 52.0589C29.7546 50.0628 29.7546 46.8117 33.2337 44.7872C36.7129 42.7626 42.3306 42.7626 45.8385 44.7586Z" fill="#BCBEFF"/>
<path d="M47.7775 43.6462C43.2147 41.0229 35.8288 41.0514 31.2946 43.6748C26.7603 46.2986 26.7603 50.576 31.323 53.1998C35.8859 55.8232 43.2718 55.795 47.806 53.1713C52.3402 50.5189 52.3402 46.2415 47.7775 43.6462ZM45.8385 44.7586C49.3174 46.7547 49.3174 50.0058 45.8385 52.0304C42.3591 54.0554 36.7129 54.0554 33.2337 52.0589C29.7546 50.0628 29.7546 46.8117 33.2337 44.7872C36.7129 42.7626 42.3306 42.7626 45.8385 44.7586Z" fill="#BCBEFF"/>
<path d="M31.2379 53.0001C35.8007 55.6239 43.1866 55.5954 47.7208 52.9716C50.5154 51.3465 51.5992 49.1217 50.9434 47.0115C51.7134 49.1503 50.6581 51.4887 47.7779 53.1428C43.2151 55.7951 35.8578 55.7951 31.2949 53.1713C29.5553 52.1731 28.4717 50.9185 28.0439 49.6068C28.5002 50.8614 29.5553 52.0594 31.2379 53.0001Z" fill="white"/>
<path d="M33.1758 44.6159C36.6551 42.5913 42.3013 42.5913 45.7806 44.5874C47.1208 45.3573 47.9479 46.327 48.2613 47.3249C47.9194 46.3841 47.1208 45.5 45.8377 44.7586C42.3583 42.7621 36.7122 42.7621 33.2328 44.7871C31.094 46.0132 30.2955 47.7243 30.7518 49.3213C30.153 47.6673 30.9514 45.8991 33.1758 44.6159Z" fill="white"/>
</g>
<path d="M46.2946 70.2674C45.9673 70.2674 45.6037 70.1948 45.3127 70.013L0.438064 44.0846C0.147154 43.9391 0.00167847 43.6843 0.00167847 43.4663C0.00167847 43.2845 0.110755 43.1027 0.328948 42.9934L27.1301 27.5383C27.5665 27.2838 28.3666 27.3202 28.8757 27.6111L73.7503 53.5395C74.0413 53.685 74.1869 53.9394 74.1869 54.1578C74.1869 54.3396 74.0776 54.5214 73.8596 54.6303L47.0581 70.0856C46.84 70.2311 46.5856 70.2674 46.2946 70.2674ZM0.510782 43.9754L45.3856 69.9038C45.8581 70.1585 46.549 70.1948 46.9855 69.9767L73.7866 54.5214C73.9321 54.4122 74.0413 54.303 74.0413 54.1578C74.0413 53.9756 73.8958 53.8305 73.6778 53.685L28.8029 27.7565C28.3302 27.502 27.6393 27.4656 27.2029 27.6838L0.401705 43.139C0.25623 43.2482 0.147154 43.357 0.147154 43.5025C0.110755 43.6843 0.25623 43.8661 0.510782 43.9754Z" fill="#16E09E"/>
<path d="M74.078 49.6846L71.605 49.321L46.1959 64.1046C45.6868 63.814 6.82621 42.2164 6.38982 42.4708L1.60197 39.2478L0.0382996 39.0297V41.1024C0.0382996 41.2846 0.183734 41.5027 0.438286 41.6482L45.3131 67.5766C45.8222 67.8672 46.5493 67.9039 46.9859 67.6492L73.787 52.1939C73.9688 52.085 74.078 51.9395 74.078 51.7577V49.6846Z" fill="url(#paint12_linear_1_218)"/>
<path fill-rule="evenodd" clip-rule="evenodd" d="M45.3497 65.5039L0.474975 39.5755C-0.0341278 39.2845 -0.0704865 38.8842 0.365899 38.6299L27.1671 23.1746C27.6034 22.9201 28.3307 22.9564 28.8398 23.2474L73.7144 49.1759C74.1872 49.4303 74.2598 49.8668 73.8237 50.1212L47.0226 65.5765C46.586 65.8312 45.8589 65.7946 45.3497 65.5039ZM44.4404 63.249L4.32949 40.0842C3.8931 39.8299 3.85674 39.4663 4.25677 39.2115L28.1851 25.3929C28.5851 25.1747 29.2396 25.211 29.676 25.4656L69.7504 48.6302C70.187 48.8849 70.2232 49.2848 69.8597 49.5028L45.9314 63.322C45.5311 63.5401 44.8765 63.5038 44.4404 63.249Z" fill="url(#paint13_linear_1_218)"/>
<path d="M4.32879 40.0845L5.93832 41.0139L28.1844 28.2642C28.5999 28.0485 29.1768 28.0485 29.6753 28.337L67.9321 50.6159L69.8589 49.5032C70.2224 49.2847 70.1862 48.8848 69.7496 48.6305L29.6753 25.4657C29.2389 25.2111 28.5844 25.1747 28.1844 25.3929L4.25608 39.2119C3.85605 39.4662 3.89241 39.8298 4.32879 40.0845Z" fill="#251C72"/>
<path opacity="0.4" d="M4.32879 40.0846L44.4396 63.249C44.8761 63.5037 45.5307 63.54 45.9306 63.3219L69.8589 49.5032C70.2224 49.2847 70.1862 48.8848 69.7496 48.6305L29.6753 25.4657C29.2389 25.2111 28.5844 25.1747 28.1844 25.3929L4.25608 39.2119C3.85605 39.4662 3.89241 39.8298 4.32879 40.0846Z" fill="#16E09E"/>
<path d="M73.7862 49.8664L46.9851 65.3217C46.5486 65.5765 45.8214 65.5398 45.3123 65.2492L0.437588 39.3208C0.219395 39.2115 0.110278 39.0297 0.0375607 38.8842C-0.0351974 39.1023 0.110278 39.357 0.437588 39.5388L45.3123 65.4672C45.8214 65.7583 46.5486 65.7945 46.9851 65.5398L73.7862 50.0849C74.0409 49.9394 74.1135 49.7576 74.0409 49.5391C74.0043 49.6846 73.9317 49.7939 73.7862 49.8664Z" fill="white"/>
<path d="M39.5067 25.3972C36.5124 25.3972 33.5466 24.7413 31.2652 23.4295C29.0409 22.1462 27.8146 20.4352 27.8146 18.6101C27.8146 16.785 29.0409 15.0739 31.2652 13.7907C35.828 11.1385 43.2424 11.1385 47.8052 13.7621C50.0295 15.0454 51.256 16.7565 51.256 18.5816C51.256 20.4067 50.0295 22.1177 47.8052 23.401C45.5238 24.7128 42.5295 25.3972 39.5067 25.3972ZM39.5638 11.937C36.5695 11.937 33.5751 12.5929 31.3222 13.9047C29.1549 15.1595 27.9287 16.842 27.9572 18.6101C27.9572 20.3782 29.1549 22.0607 31.3507 23.3155C35.8851 25.9105 43.271 25.9105 47.7767 23.2869C49.9439 22.0321 51.1704 20.3496 51.1419 18.5816C51.1419 16.8135 49.9439 15.131 47.7481 13.8762C45.4953 12.5644 42.5295 11.937 39.5638 11.937Z" fill="#16E09E"/>
<path d="M27.0361 40.6647L27.8706 40.7283V42.8858L26.5941 42.0062L26.458 40.9982L26.947 40.6647H27.0361Z" fill="#4F3FAF" stroke="url(#paint14_linear_1_218)" stroke-width="0.3066"/>
<path d="M31.4981 42.2365L31.7037 41.7718L32.4761 42.1313L32.5179 44.2044C32.485 44.5852 32.2307 44.9275 31.7042 45.2284C31.08 45.5907 30.3509 45.7395 29.5147 45.6722C28.678 45.605 27.8544 45.338 27.0432 44.8709C26.4859 44.544 26.0821 44.1918 25.8273 43.8156C25.6559 43.5555 25.5732 43.3085 25.5732 43.0729V43.0717L25.5313 41.0398L26.1947 40.7239L26.3958 40.7638L26.7095 41.8456L26.7151 41.8648L26.7312 41.8766L27.6514 42.5581L27.6539 42.5602L27.6566 42.5618L27.8523 42.6767L27.8297 42.6881L27.9068 42.7456L28.2732 43.0183L28.2798 43.0232L28.2873 43.026L29.7102 43.5714L29.7391 43.5824L29.7647 43.5649L30.2162 43.2584L30.2692 43.2225L30.2292 43.1724C30.1603 43.0864 30.0831 42.9947 29.9973 42.8976L29.9972 42.8972C29.6406 42.4953 29.3944 42.1619 29.2557 41.8953C29.1284 41.652 29.0695 41.4262 29.0749 41.2171V41.2146L29.0331 39.177L29.8949 38.8452L30.0225 38.9279L30.3397 39.8964L30.3575 39.9506L30.4123 39.9347C30.4527 39.9233 30.4905 39.9119 30.5255 39.9001L30.5775 39.8826L30.5642 39.8296C30.5436 39.7472 30.5121 39.6429 30.4747 39.5194C30.4649 39.4868 30.4547 39.453 30.4442 39.4179L30.4441 39.4175C30.3764 39.1953 30.3524 39.0568 30.352 38.9732C30.3518 38.9312 30.3576 38.9076 30.3633 38.8953C30.3679 38.8851 30.3716 38.8839 30.3727 38.8835C30.3758 38.8823 30.3833 38.8811 30.3975 38.8839C30.4114 38.8868 30.4272 38.8925 30.4442 38.8998C30.4525 38.9035 30.4606 38.9072 30.4687 38.9108L30.4711 38.9121C30.4781 38.9153 30.4855 38.919 30.4921 38.9218C30.499 38.9247 30.5086 38.9288 30.5184 38.9308C30.5233 38.932 30.5316 38.9337 30.5413 38.9328C30.551 38.9324 30.5677 38.9292 30.582 38.9153C30.5814 38.9157 30.581 38.9161 30.581 38.9161C30.581 38.9161 30.5832 38.9145 30.5894 38.9104C30.5969 38.9055 30.6073 38.8986 30.6206 38.8905C30.6472 38.8741 30.6835 38.8521 30.7265 38.8265C30.8125 38.7755 30.924 38.7107 31.0348 38.6471C31.1454 38.5831 31.2551 38.5203 31.337 38.4735L31.4359 38.4172L31.4566 38.4054L33.1637 38.5884L34.7337 40.1418L34.7497 40.1573L34.772 40.1585L35.7906 40.2152L35.8322 42.1684L35.8318 42.1754C35.831 42.1819 35.8302 42.1917 35.8294 42.2035C35.8269 42.2271 35.8237 42.2593 35.8188 42.2952C35.8094 42.369 35.7951 42.4501 35.7764 42.4978L35.776 42.4994C35.6659 42.8092 35.4071 43.0896 34.9882 43.3366L33.53 42.4929L33.4968 41.2823L33.4961 41.2554L33.4756 41.2383C33.438 41.2069 33.3948 41.1792 33.3466 41.1551C32.9716 40.9362 32.5972 40.8111 32.2239 40.7818C31.8511 40.7528 31.5289 40.8164 31.2606 40.977C31.1345 41.0491 31.044 41.138 30.9977 41.2456C30.9509 41.354 30.9526 41.4739 30.9958 41.6006C31.0562 41.7873 31.1924 42.0042 31.3986 42.2504L31.4596 42.3233L31.4981 42.2365Z" fill="url(#paint15_linear_1_218)" stroke="url(#paint16_linear_1_218)" stroke-width="0.290494"/>
<path d="M35.1526 40.3896L35.153 40.3847L35.166 40.174L35.7876 40.2098L35.8288 42.1513L35.8284 42.1582C35.828 42.1647 35.8272 42.1745 35.8259 42.1863C35.8235 42.21 35.8202 42.2426 35.8157 42.2792C35.806 42.3534 35.7917 42.437 35.7729 42.4896C35.6678 42.7798 35.4297 43.0451 35.0486 43.284L35.0083 41.3813L35.1526 40.3896Z" fill="#4F3FAF" stroke="url(#paint17_linear_1_218)" stroke-width="0.3066"/>
<path d="M29.9567 40.8849L29.9563 40.8845C29.5998 40.4826 29.3537 40.1492 29.2152 39.883C29.0271 39.5206 28.9839 39.2039 29.0724 38.928C29.1611 38.6512 29.3863 38.4026 29.7618 38.1857C30.1504 37.9636 30.6101 37.8266 31.1424 37.7761C31.6686 37.7255 32.2268 37.7704 32.8175 37.911H32.8181C33.4083 38.0459 33.9618 38.2652 34.4788 38.5685L34.4795 38.5689C35.0027 38.8672 35.3682 39.1848 35.5822 39.5194C35.7958 39.8585 35.8411 40.1793 35.7298 40.4871C35.6197 40.7956 35.3621 41.0752 34.9448 41.3223L33.5436 40.5115C33.8297 40.3269 33.9806 40.1145 33.9506 39.8712C33.9243 39.6058 33.6947 39.3649 33.3064 39.1424C32.9305 38.9227 32.5552 38.7971 32.1808 38.7678C31.8077 38.7384 31.4849 38.7996 31.216 38.9549L31.2153 38.9553C31.0887 39.0307 30.9977 39.122 30.9511 39.2316C30.9042 39.3425 30.9059 39.4636 30.9496 39.5915C31.0334 39.8369 31.2425 40.1373 31.5676 40.4911L31.5681 40.4915C32.1741 41.1372 32.4659 41.6704 32.4713 42.0939V42.0947C32.4819 42.5166 32.223 42.8911 31.6592 43.2148C31.0357 43.5767 30.3074 43.7255 29.4718 43.6583C28.6356 43.5853 27.8122 43.3159 27.0014 42.8483C26.4388 42.5276 26.0356 42.1758 25.7871 41.7951L25.7865 41.7943C25.5331 41.4193 25.4695 41.0704 25.5809 40.7414L25.5811 40.741C25.6856 40.4223 25.9564 40.1263 26.4081 39.8565L27.8093 40.6672C27.4572 40.8918 27.275 41.1417 27.3196 41.4193C27.3429 41.5652 27.4282 41.7079 27.5651 41.8468C27.7023 41.9863 27.8948 42.1261 28.1403 42.2667C28.5101 42.4803 28.8737 42.6034 29.231 42.6327C29.5936 42.6678 29.9137 42.6062 30.1879 42.4456C30.3372 42.3604 30.4488 42.2671 30.5159 42.1632C30.5845 42.0572 30.6051 41.9422 30.5751 41.8224C30.547 41.7099 30.4793 41.5758 30.377 41.4217C30.2742 41.2668 30.1338 41.0879 29.9567 40.8849Z" fill="url(#paint18_linear_1_218)" stroke="url(#paint19_linear_1_218)" stroke-width="0.3066"/>
<path d="M38.5325 42.2629L38.5753 44.2737L33.395 47.2337L33.3524 45.223L38.5325 42.2629Z" fill="url(#paint20_linear_1_218)"/>
<path d="M33.4832 45.2148L36.8215 47.133L35.7213 47.7636L30.8972 44.9858L38.1495 40.8021L42.949 43.5758L41.8473 44.2109L38.4702 42.2605L38.4389 42.2426L38.4079 42.2605L36.6527 43.2746L36.559 43.3284L36.6527 43.3826L39.4725 45.0155L38.405 45.6253L35.5224 43.9647L35.491 43.9468L35.46 43.9647L33.4833 45.0979L33.4519 45.1158V45.1521V45.1525V45.1533V45.1541V45.1545V45.1553V45.1561V45.157V45.1578V45.1586V45.1594V45.1598V45.1606V45.1965L33.4832 45.2148Z" fill="url(#paint21_linear_1_218)" stroke="url(#paint22_linear_1_218)" stroke-width="0.3066"/>
<path d="M30.8398 45.0937L35.6616 47.8703L35.7012 49.7478L30.8797 46.9662L30.8398 45.0937Z" fill="url(#paint23_linear_1_218)" stroke="url(#paint24_linear_1_218)" stroke-width="0.290494"/>
<path d="M35.7837 47.8715L36.8785 47.2434L36.918 49.1119L35.8232 49.7396L35.7837 47.8715Z" fill="#4F3FAF" stroke="url(#paint25_linear_1_218)" stroke-width="0.3066"/>
<path d="M39.6399 47.0262L38.5092 47.6853L38.4045 45.7055V45.697M39.6399 47.0262L39.5988 45.0868L39.5368 45.1218M39.6399 47.0262L39.6086 46.9724L39.5768 46.9907M39.6399 47.0262L39.5772 47.0278L39.5768 46.9907M39.5368 45.1218L39.5356 45.0509L38.4045 45.697M39.5368 45.1218L38.4677 45.7332ZM39.5368 45.1218L39.5768 46.9907ZM38.4045 45.697L38.4094 45.7055L38.4355 45.7516L38.4677 45.7332M38.4045 45.697H38.4668V45.6978V45.6982V45.699V45.6998V45.7006V45.7015V45.7023V45.7031V45.7035V45.7043V45.7051L38.4677 45.7332M38.4677 45.7332L38.5076 47.614L39.5768 46.9907" fill="#4F3FAF"/>
<path d="M39.6399 47.0262L38.5092 47.6853L38.4045 45.7055V45.697M39.6399 47.0262L39.5988 45.0868L39.5368 45.1218M39.6399 47.0262L39.6086 46.9724L39.5768 46.9907M39.6399 47.0262L39.5772 47.0278L39.5768 46.9907M38.4045 45.697L39.5356 45.0509L39.5368 45.1218M38.4045 45.697L38.4094 45.7055L38.4355 45.7516L38.4677 45.7332M38.4045 45.697H38.4668V45.6978V45.6982V45.699V45.6998V45.7006V45.7015V45.7023V45.7031V45.7035V45.7043V45.7051L38.4677 45.7332M39.5368 45.1218L38.4677 45.7332M39.5368 45.1218L39.5768 46.9907M39.5768 46.9907L38.5076 47.614L38.4677 45.7332" stroke="url(#paint26_linear_1_218)" stroke-width="0.3066"/>
<path d="M43.0604 45.5507L41.9566 46.1869L41.9089 44.3185L43.0209 43.6822L43.0604 45.5507Z" fill="#4F3FAF" stroke="url(#paint27_linear_1_218)" stroke-width="0.3066"/>
<path d="M41.8459 44.2916L41.8969 46.2938C41.8912 46.2995 41.8883 46.2995 41.8883 46.2938L38.4803 44.3254L38.4379 42.3147L41.8459 44.283C41.8459 44.283 41.8459 44.2859 41.8459 44.2916Z" fill="url(#paint28_linear_1_218)"/>
<path d="M35.5335 46.0293L35.4907 44.0186L38.4047 45.6971C38.4047 45.6971 38.4047 45.6999 38.4047 45.7056L38.4475 47.7078C38.4475 47.7135 38.4475 47.7164 38.4475 47.7164L35.5335 46.0293Z" fill="url(#paint29_linear_1_218)"/>
<path d="M48.0247 50.2748C47.7418 50.735 47.2457 51.1753 46.5287 51.5926L46.1969 51.7801L46.1961 51.7806C45.4804 52.1975 44.7226 52.4878 43.9225 52.6512H43.9217C43.1272 52.8204 42.3446 52.8509 41.5738 52.7441C40.8084 52.6426 40.1195 52.4152 39.5077 52.0614C38.9003 51.7129 38.5151 51.3212 38.3403 50.8891L38.3395 50.8875C38.3122 50.8255 38.2877 50.7301 38.2685 50.6429C38.2592 50.6001 38.2514 50.5602 38.2453 50.5288C38.2441 50.5227 38.2429 50.5166 38.2416 50.5108C38.2388 50.4941 38.2359 50.4799 38.2339 50.4701V50.4697V50.4693V50.4685V50.4672L38.1911 48.406C38.1911 48.4003 38.1919 48.3982 38.1923 48.3974C38.1927 48.397 38.1935 48.3954 38.1952 48.3933L38.7185 48.0909H38.7234L38.7349 48.086L39.6891 47.6772L39.6919 47.6755C39.72 47.6617 39.7555 47.6299 39.7588 47.5785L39.8154 47.3022C39.8162 47.3013 39.8166 47.3005 39.8171 47.2997C39.8179 47.2985 39.8183 47.2981 39.8183 47.2981L39.824 47.2924L39.8276 47.2854C39.8427 47.2589 39.9006 47.1742 39.9626 47.0898C39.9931 47.0482 40.0237 47.0079 40.0498 46.9761C40.0628 46.9602 40.0743 46.9471 40.0836 46.9369C40.0881 46.932 40.0922 46.9284 40.095 46.9255C40.0971 46.9235 40.0983 46.9227 40.0987 46.9223C40.1635 46.8823 41.0256 46.3239 41.1361 46.2505H41.1369L41.143 46.2493L44.0851 45.6456H44.0859L46.1884 45.7732H46.1921C46.1925 45.7732 46.1925 45.7732 46.1929 45.7732L47.0338 46.7246L47.0354 46.7266C47.0354 46.7274 47.0358 46.7287 47.0358 46.7303C47.0358 46.7323 47.0358 46.7344 47.0358 46.7372L46.7994 47.6156L46.7794 47.6902H46.8406L46.8899 47.7395L46.9266 47.6661L46.9881 47.5431L48.2374 47.4517C48.2374 47.4522 48.2374 47.4522 48.2374 47.4522V47.4538L48.2884 49.438C48.2884 49.7144 48.2016 49.9932 48.0247 50.2748ZM40.3616 49.8848L40.309 49.9463L40.384 49.9777C40.7933 50.1481 41.2616 50.3421 41.6281 50.4933C41.8115 50.5687 41.9688 50.634 42.0809 50.68L42.2118 50.7338L42.2468 50.7481L42.2558 50.7517L42.2578 50.753H42.2586L42.2819 50.7627L42.3047 50.7526L44.7075 49.7132L44.7116 49.7115L44.7153 49.7091L46.1892 48.7891L46.2524 48.7496L46.1998 48.697C46.1024 48.5992 45.9793 48.503 45.8224 48.4072L45.8211 48.4064C45.2973 48.1039 44.6908 47.9914 44.0048 48.0664C43.3241 48.1357 42.5949 48.3921 41.8176 48.8319L41.8164 48.8327L41.4589 49.0455C40.9624 49.3308 40.5952 49.6104 40.3616 49.8848Z" fill="url(#paint30_linear_1_218)"/>
<path d="M42.2586 50.753H42.2578L42.2558 50.7517L42.2468 50.7481L42.2118 50.7338L42.0809 50.68C41.9688 50.634 41.8115 50.5687 41.6281 50.4933C41.2616 50.3421 40.7933 50.1481 40.384 49.9777L40.309 49.9463L40.3616 49.8848C40.5952 49.6104 40.9624 49.3308 41.4589 49.0455L41.8164 48.8327L41.8176 48.8319C42.5949 48.3921 43.3241 48.1357 44.0048 48.0664C44.6908 47.9914 45.2973 48.1039 45.8211 48.4064L45.8224 48.4072C45.9793 48.503 46.1024 48.5992 46.1998 48.697L46.2524 48.7496L46.1892 48.7891L44.7153 49.7091L44.7116 49.7115L44.7075 49.7132L42.3047 50.7526L42.2819 50.7627L42.2586 50.753ZM42.2586 50.753L42.2815 50.6984M48.0247 50.2748C47.7418 50.735 47.2457 51.1753 46.5287 51.5926L46.1969 51.7801L46.1961 51.7806C45.4804 52.1975 44.7226 52.4878 43.9225 52.6512H43.9217C43.1272 52.8204 42.3446 52.8509 41.5738 52.7441C40.8084 52.6426 40.1195 52.4152 39.5077 52.0614C38.9003 51.7129 38.5151 51.3212 38.3403 50.8891L38.3395 50.8875C38.3122 50.8255 38.2877 50.7301 38.2685 50.6429C38.2592 50.6001 38.2514 50.5602 38.2453 50.5288C38.2441 50.5227 38.2429 50.5166 38.2416 50.5108C38.2388 50.4941 38.2359 50.4799 38.2339 50.4701V50.4697V50.4693V50.4685V50.4672L38.1911 48.406C38.1911 48.4003 38.1919 48.3982 38.1923 48.3974C38.1927 48.397 38.1935 48.3954 38.1952 48.3933L38.7185 48.0909H38.7234L38.7349 48.086L39.6891 47.6772L39.6919 47.6755C39.72 47.6617 39.7555 47.6299 39.7588 47.5785L39.8154 47.3022C39.8162 47.3013 39.8166 47.3005 39.8171 47.2997C39.8179 47.2985 39.8183 47.2981 39.8183 47.2981L39.824 47.2924L39.8276 47.2854C39.8427 47.2589 39.9006 47.1742 39.9626 47.0898C39.9931 47.0482 40.0237 47.0079 40.0498 46.9761C40.0628 46.9602 40.0743 46.9471 40.0836 46.9369C40.0881 46.932 40.0922 46.9284 40.095 46.9255C40.0971 46.9235 40.0983 46.9227 40.0987 46.9223C40.1635 46.8823 41.0256 46.3239 41.1361 46.2505H41.1369L41.143 46.2493L44.0851 45.6456H44.0859L46.1884 45.7732H46.1921C46.1925 45.7732 46.1925 45.7732 46.1929 45.7732L47.0338 46.7246L47.0354 46.7266C47.0354 46.7274 47.0358 46.7287 47.0358 46.7303C47.0358 46.7323 47.0358 46.7344 47.0358 46.7372L46.7994 47.6156L46.7794 47.6902H46.8406L46.8899 47.7395L46.9266 47.6661L46.9881 47.5431L48.2374 47.4517C48.2374 47.4522 48.2374 47.4522 48.2374 47.4522V47.4538L48.2884 49.438C48.2884 49.7144 48.2016 49.9932 48.0247 50.2748Z" stroke="url(#paint31_linear_1_218)" stroke-width="0.290494"/>
<path d="M39.4659 50.0479C38.859 49.6998 38.4746 49.3085 38.2998 48.8772L38.2994 48.8764C38.1212 48.4545 38.1648 48.0184 38.4404 47.5615V47.561C38.7114 47.1078 39.1928 46.6769 39.8923 46.271L40.2583 46.0582V46.0578C40.9798 45.6412 41.7428 45.351 42.5487 45.1875C43.3541 45.0184 44.1424 44.9878 44.9132 45.0946C45.6783 45.1957 46.3635 45.4235 46.9692 45.7765L46.9696 45.7769C47.5761 46.125 47.9609 46.5168 48.1354 46.9476L48.1358 46.948C48.3086 47.3695 48.2593 47.8056 47.9784 48.2629C47.6964 48.7223 47.2003 49.1589 46.4837 49.571H46.4833L46.1519 49.7666C46.1515 49.7666 46.1515 49.7666 46.1515 49.767C45.4301 50.1783 44.6723 50.4685 43.8779 50.6373C43.0782 50.8007 42.2955 50.8317 41.5305 50.7302C40.7654 50.6291 40.0773 50.4013 39.4659 50.0479ZM41.4066 47.0316L41.4053 47.032C40.6545 47.4701 40.1931 47.8973 40.0488 48.318C39.9726 48.532 39.9852 48.7374 40.0892 48.9286C40.1919 49.1173 40.381 49.2869 40.6472 49.4405C41.1661 49.7434 41.771 49.8559 42.4578 49.7809C43.1442 49.7059 43.8738 49.4466 44.6458 49.006L44.647 49.0056L45.0041 48.7932C45.0041 48.7928 45.0041 48.7928 45.0045 48.7928C45.393 48.5699 45.7023 48.3522 45.9314 48.139C46.1601 47.9267 46.3117 47.7155 46.3786 47.5052C46.4462 47.2937 46.4279 47.0919 46.3223 46.904C46.2184 46.7189 46.0317 46.5522 45.7708 46.4014C45.2466 46.0985 44.6426 45.9832 43.961 46.0525C43.2742 46.1218 42.5446 46.381 41.7726 46.8269L41.4066 47.0316Z" fill="url(#paint32_linear_1_218)" stroke="url(#paint33_linear_1_218)" stroke-width="0.3066"/>
<path d="M62.1283 61.345V31.119C62.1283 30.1494 61.6147 29.2368 60.7591 28.752L48.945 22.6025L49.002 22.517L60.8162 28.6665C61.7003 29.1798 62.242 30.1209 62.242 31.119V61.2818L62.1283 61.345Z" fill="#16E09E"/>
<path d="M24.9326 5.17824C25.4744 4.86458 25.9022 5.12121 25.9022 5.7486C25.9022 6.37599 25.4744 7.11743 24.9326 7.43113C24.3908 7.74483 23.963 7.48815 23.963 6.86076C23.963 6.23341 24.4193 5.49193 24.9326 5.17824Z" fill="url(#paint34_linear_1_218)"/>
<path d="M24.9897 5.20688C24.4478 5.52054 24.02 6.26202 24.02 6.88941C24.02 7.17457 24.1056 7.40271 24.2767 7.48827C24.0771 7.40271 23.963 7.17457 23.963 6.83234C23.963 6.20499 24.3908 5.46351 24.9326 5.14982C25.2178 4.97874 25.4744 4.97874 25.6455 5.09279C25.4744 5.03577 25.2463 5.06426 24.9897 5.20688Z" fill="white"/>
<path d="M22.6239 3.8378C23.1657 3.5241 23.5935 3.78077 23.5935 4.40817C23.5935 5.03552 23.1657 5.777 22.6239 6.09069C22.082 6.40435 21.6543 6.14772 21.6543 5.52033C21.6543 4.89294 22.082 4.1515 22.6239 3.8378Z" fill="url(#paint35_linear_1_218)"/>
<path d="M20.2562 2.46909C20.7981 2.15539 21.2258 2.41206 21.2258 3.03945C21.2258 3.6668 20.7981 4.40829 20.2562 4.72194C19.7144 5.03564 19.2867 4.77901 19.2867 4.15161C19.2867 3.55276 19.7144 2.78278 20.2562 2.46909Z" fill="url(#paint36_linear_1_218)"/>
<path d="M24.2488 7.4882L25.4465 8.17262C25.2755 8.05857 25.1614 7.85892 25.1614 7.54523C25.1614 6.91788 25.5891 6.1764 26.131 5.86274C26.3876 5.72012 26.6158 5.69163 26.8154 5.77719L31.9485 8.71445L30.5797 11.1099L15.5225 2.46916C14.8666 2.09844 14.6385 1.24291 15.0092 0.587022C15.3799 -0.0689018 16.2354 -0.29704 16.8914 0.0736799L20.9693 2.41213C20.7982 2.29804 20.5416 2.29804 20.2564 2.46916C19.7146 2.78285 19.2868 3.52429 19.2868 4.15168C19.2868 4.46538 19.4009 4.69352 19.572 4.77907L20.7697 5.46349C20.5986 5.3494 20.4845 5.14979 20.4845 4.8361C20.4845 4.20871 20.9123 3.46727 21.4541 3.15357C21.7108 3.01099 21.9389 2.98246 22.1386 3.06801L23.3363 3.75243C23.1652 3.63838 22.9085 3.63838 22.6233 3.80945C22.0815 4.12315 21.6537 4.86463 21.6537 5.49198C21.6537 5.80568 21.7678 6.03381 21.9389 6.11937L23.1367 6.80379C22.9656 6.68974 22.8515 6.49009 22.8515 6.1764C22.8515 5.54905 23.2793 4.80757 23.8211 4.49387C24.0777 4.35129 24.3059 4.3228 24.5055 4.40835L25.6462 5.06424C25.4751 4.95019 25.2184 4.95019 24.9332 5.12126C24.3914 5.43496 23.9637 6.1764 23.9637 6.80379C23.9637 7.17451 24.0777 7.40265 24.2488 7.4882Z" fill="#BCBEFF"/>
<path d="M22.6809 3.86642C22.1391 4.18011 21.7113 4.92155 21.7113 5.54894C21.7113 5.83411 21.7969 6.06224 21.968 6.1478C21.7683 6.06224 21.6543 5.83411 21.6543 5.49192C21.6543 4.86453 22.082 4.12309 22.6239 3.80939C22.909 3.63828 23.1657 3.63828 23.3368 3.75237C23.1657 3.69534 22.9376 3.72383 22.6809 3.86642Z" fill="white"/>
<path d="M20.3133 2.4977C19.7714 2.8114 19.3437 3.55284 19.3437 4.18023C19.3437 4.46539 19.4292 4.69353 19.6003 4.77909C19.4007 4.69353 19.2867 4.46539 19.2867 4.12321C19.2867 3.49581 19.7144 2.75437 20.2562 2.44068C20.5414 2.26956 20.7981 2.26956 20.9692 2.38365C20.7981 2.35512 20.5699 2.35512 20.3133 2.4977Z" fill="white"/>
<path opacity="0.48" d="M26.1606 5.8627C25.6188 6.1764 25.191 6.91784 25.191 7.54523C25.191 7.85893 25.3051 8.08707 25.4761 8.17262L24.2784 7.48821C24.1073 7.37412 23.9933 7.17451 23.9933 6.86082C23.9933 6.23342 24.421 5.49198 24.9628 5.17829C25.248 5.00717 25.4761 5.00717 25.6758 5.12126L26.845 5.80568C26.6454 5.69159 26.4172 5.72012 26.1606 5.8627Z" fill="url(#paint37_linear_1_218)"/>
<path opacity="0.48" d="M23.8216 4.52222C23.2798 4.83591 22.852 5.57736 22.852 6.20475C22.852 6.51844 22.9661 6.74658 23.1372 6.83214L21.9395 6.14772C21.7683 6.03367 21.6543 5.83403 21.6543 5.52033C21.6543 4.89294 22.082 4.1515 22.6239 3.8378C22.909 3.66673 23.1372 3.66673 23.3368 3.78078L24.506 4.46519C24.3349 4.35115 24.1068 4.37964 23.8216 4.52222Z" fill="url(#paint38_linear_1_218)"/>
<path opacity="0.48" d="M21.4826 3.18219C20.9408 3.49589 20.513 4.23737 20.513 4.86472C20.513 5.17841 20.6271 5.40655 20.7982 5.49211L19.6005 4.80769C19.4294 4.69365 19.3153 4.494 19.3153 4.1803C19.3153 3.55295 19.7431 2.81147 20.2849 2.49778C20.57 2.3267 20.7982 2.3267 20.9978 2.44075L22.167 3.12517C21.9674 3.01112 21.7393 3.01112 21.4826 3.18219Z" fill="url(#paint39_linear_1_218)"/>
<path d="M30.6368 15.3021C30.6368 15.3876 30.6368 15.4446 30.6368 15.5302L33.6026 18.0112L38.4221 19.8078L41.8154 19.0378L45.0665 18.0968L48.3746 15.5587L48.4602 15.5017C48.4602 15.3021 48.4602 15.1024 48.4317 14.9028C49.0019 14.1329 49.6007 13.3629 50.1714 12.5644C50.4278 12.9066 50.656 13.2488 50.8272 13.591L51.2263 13.2773V15.2736C51.2263 15.3021 51.2263 15.3306 51.2263 15.3306V15.4161C51.1692 17.0987 50.0572 18.7812 47.8329 20.0645C43.2702 22.7166 35.9124 22.7166 31.3497 20.093C29.0969 18.7812 27.9562 17.0987 27.9276 15.3876C27.9276 15.3591 27.9276 15.3591 27.9276 15.3306V13.2203L28.3554 13.5625C28.4409 13.3629 28.5835 13.1633 28.6976 12.9351C29.1539 13.8477 29.6672 14.9313 30.6368 15.3021Z" fill="url(#paint40_linear_1_218)"/>
<path d="M47.5765 10.454C47.6336 10.4825 47.6906 10.511 47.7762 10.5681C48.803 11.167 49.6015 11.8514 50.1717 12.5643C49.6015 13.3343 49.0023 14.1042 48.4321 14.9027C48.2609 13.7335 47.4053 12.5928 45.8654 11.7087C42.3864 9.71257 36.7398 9.71257 33.2609 11.7373C31.5499 12.7354 30.6943 14.0187 30.6658 15.3305C29.7248 14.9598 29.2114 13.8761 28.6696 12.9921C29.0974 12.3647 29.6962 11.7373 30.4662 11.1954L30.0669 11.281C30.0669 11.281 32.8046 8.91406 32.9187 8.88553C33.0327 8.85704 38.508 7.40265 38.508 7.40265L44.6963 7.94448L47.5765 10.454Z" fill="url(#paint41_linear_1_218)"/>
<path opacity="0.5" d="M45.6653 10.3114C49.1446 12.3076 49.1446 15.5586 45.6653 17.5833C42.1863 19.608 36.5397 19.608 33.0607 17.6118C29.5815 15.6156 29.5815 12.3646 33.0607 10.3399C36.5397 8.31515 42.1863 8.31515 45.6653 10.3114Z" fill="url(#paint42_linear_1_218)"/>
<path opacity="0.48" d="M45.6368 10.9389C49.1157 12.9351 49.1157 16.1861 45.6368 18.2108C42.1574 20.2355 36.5112 20.2355 33.032 18.2393C29.5529 16.2431 29.5529 12.9921 33.032 10.9674C36.5112 8.94265 42.1574 8.91416 45.6368 10.9389Z" fill="url(#paint43_linear_1_218)"/>
<path d="M47.7754 8.48622C43.2127 5.86261 35.8268 5.89114 31.2925 8.51471C26.7297 11.1669 26.7583 15.4159 31.321 18.0396C35.8839 20.6631 43.2697 20.6346 47.804 18.011C52.3382 15.3589 52.3382 11.1098 47.7754 8.48622ZM45.8365 9.59838C49.3154 11.5946 49.3154 14.8456 45.8365 16.8703C42.3571 18.895 36.7109 18.895 33.2317 16.8988C29.7526 14.9026 29.7526 11.6516 33.2317 9.62692C36.7109 7.60216 42.3286 7.60216 45.8365 9.59838Z" fill="#BCBEFF"/>
<path d="M47.7754 8.48622C43.2127 5.86261 35.8268 5.89114 31.2925 8.51471C26.7297 11.1669 26.7583 15.4159 31.321 18.0396C35.8839 20.6631 43.2697 20.6346 47.804 18.011C52.3382 15.3589 52.3382 11.1098 47.7754 8.48622ZM45.8365 9.59838C49.3154 11.5946 49.3154 14.8456 45.8365 16.8703C42.3571 18.895 36.7109 18.895 33.2317 16.8988C29.7526 14.9026 29.7526 11.6516 33.2317 9.62692C36.7109 7.60216 42.3286 7.60216 45.8365 9.59838Z" fill="#BCBEFF"/>
<path d="M31.2362 17.8399C35.7991 20.4636 43.185 20.435 47.7192 17.8114C50.5142 16.186 51.5976 13.9616 50.9418 11.8513C51.7117 13.9901 50.6564 16.3285 47.7763 17.9825C43.2135 20.6346 35.8562 20.6346 31.2933 18.0111C29.5537 17.0129 28.47 15.7582 28.0423 14.4464C28.4986 15.7011 29.5537 16.8989 31.2362 17.8399Z" fill="white"/>
<path d="M33.1758 9.45577C36.6551 7.43106 42.3013 7.43106 45.7806 9.42728C47.1208 10.1973 47.9479 11.1668 48.2613 12.1649C47.9193 11.2239 47.1208 10.3398 45.8377 9.59835C42.3583 7.60217 36.7121 7.60217 33.2328 9.62689C31.094 10.8531 30.2956 12.5642 30.7518 14.1612C30.1529 12.5071 30.9514 10.739 33.1758 9.45577Z" fill="white"/>
</g>
</g>
<defs>
<linearGradient id="paint0_linear_1_218" x1="15.0826" y1="0.0732318" x2="52.9902" y2="69.7744" gradientUnits="userSpaceOnUse">
<stop stop-color="#7C4EFF"/>
<stop offset="0.904355" stop-color="#7C4EFF" stop-opacity="0"/>
</linearGradient>
<linearGradient id="paint1_linear_1_218" x1="66.403" y1="0.581499" x2="72.0891" y2="11.0367" gradientUnits="userSpaceOnUse">
<stop stop-color="#7C4EFF"/>
<stop offset="0.904355" stop-color="#7C4EFF" stop-opacity="0"/>
</linearGradient>
<linearGradient id="paint2_linear_1_218" x1="24.9524" y1="42.5812" x2="23.9741" y2="40.8941" gradientUnits="userSpaceOnUse">
<stop stop-color="#5761D7"/>
<stop offset="0.1645" stop-color="#5E67DA"/>
<stop offset="0.4051" stop-color="#727AE2"/>
<stop offset="0.6924" stop-color="#9297EE"/>
<stop offset="1" stop-color="#BCBEFF"/>
</linearGradient>
<linearGradient id="paint3_linear_1_218" x1="22.6284" y1="41.2462" x2="21.6501" y2="39.5592" gradientUnits="userSpaceOnUse">
<stop stop-color="#5761D7"/>
<stop offset="0.1645" stop-color="#5E67DA"/>
<stop offset="0.4051" stop-color="#727AE2"/>
<stop offset="0.6924" stop-color="#9297EE"/>
<stop offset="1" stop-color="#BCBEFF"/>
</linearGradient>
<linearGradient id="paint4_linear_1_218" x1="20.2666" y1="39.8881" x2="19.2883" y2="38.201" gradientUnits="userSpaceOnUse">
<stop stop-color="#5761D7"/>
<stop offset="0.1645" stop-color="#5E67DA"/>
<stop offset="0.4051" stop-color="#727AE2"/>
<stop offset="0.6924" stop-color="#9297EE"/>
<stop offset="1" stop-color="#BCBEFF"/>
</linearGradient>
<linearGradient id="paint5_linear_1_218" x1="24.5205" y1="42.7992" x2="25.8945" y2="40.409" gradientUnits="userSpaceOnUse">
<stop stop-color="#16E09E"/>
<stop offset="0.1507" stop-color="#43E3C6"/>
<stop offset="0.3285" stop-color="#45D5DF"/>
<stop offset="0.5199" stop-color="#49BDDD"/>
<stop offset="0.7209" stop-color="#4E9CDB"/>
<stop offset="0.9274" stop-color="#5472D8"/>
<stop offset="1" stop-color="#5761D7"/>
</linearGradient>
<linearGradient id="paint6_linear_1_218" x1="22.198" y1="41.4644" x2="23.572" y2="39.0742" gradientUnits="userSpaceOnUse">
<stop stop-color="#16E09E"/>
<stop offset="0.1507" stop-color="#43E3C6"/>
<stop offset="0.3285" stop-color="#45D5DF"/>
<stop offset="0.5199" stop-color="#49BDDD"/>
<stop offset="0.7209" stop-color="#4E9CDB"/>
<stop offset="0.9274" stop-color="#5472D8"/>
<stop offset="1" stop-color="#5761D7"/>
</linearGradient>
<linearGradient id="paint7_linear_1_218" x1="19.8363" y1="40.1057" x2="21.2103" y2="37.7159" gradientUnits="userSpaceOnUse">
<stop stop-color="#16E09E"/>
<stop offset="0.1507" stop-color="#43E3C6"/>
<stop offset="0.3285" stop-color="#45D5DF"/>
<stop offset="0.5199" stop-color="#49BDDD"/>
<stop offset="0.7209" stop-color="#4E9CDB"/>
<stop offset="0.9274" stop-color="#5472D8"/>
<stop offset="1" stop-color="#5761D7"/>
</linearGradient>
<linearGradient id="paint8_linear_1_218" x1="30.4901" y1="56.0576" x2="48.3245" y2="45.7585" gradientUnits="userSpaceOnUse">
<stop stop-color="#BCBEFF"/>
<stop offset="0.3076" stop-color="#9297EE"/>
<stop offset="0.5949" stop-color="#727AE2"/>
<stop offset="0.8355" stop-color="#5E67DA"/>
<stop offset="1" stop-color="#5761D7"/>
</linearGradient>
<linearGradient id="paint9_linear_1_218" x1="48.1683" y1="43.6845" x2="29.9916" y2="51.7385" gradientUnits="userSpaceOnUse">
<stop stop-color="#5761D7"/>
<stop offset="0.1645" stop-color="#5E67DA"/>
<stop offset="0.4051" stop-color="#727AE2"/>
<stop offset="0.6924" stop-color="#9297EE"/>
<stop offset="1" stop-color="#BCBEFF"/>
</linearGradient>
<linearGradient id="paint10_linear_1_218" x1="36.2295" y1="54.577" x2="42.5116" y2="43.6495" gradientUnits="userSpaceOnUse">
<stop stop-color="#16E09E"/>
<stop offset="0.1507" stop-color="#43E3BD"/>
<stop offset="0.3285" stop-color="#45D5DF"/>
<stop offset="0.5199" stop-color="#49BDDD"/>
<stop offset="0.7209" stop-color="#4E9CDB"/>
<stop offset="0.9274" stop-color="#5472D8"/>
<stop offset="1" stop-color="#5761D7"/>
</linearGradient>
<linearGradient id="paint11_linear_1_218" x1="36.2144" y1="55.2007" x2="42.4961" y2="44.2727" gradientUnits="userSpaceOnUse">
<stop stop-color="#16E09E"/>
<stop offset="0.1507" stop-color="#43E3BD"/>
<stop offset="0.3285" stop-color="#45DFC3"/>
<stop offset="0.5199" stop-color="#49D4DD"/>
<stop offset="0.7209" stop-color="#4E9CDB"/>
<stop offset="0.9274" stop-color="#5472D8"/>
<stop offset="1" stop-color="#5761D7"/>
</linearGradient>
<linearGradient id="paint12_linear_1_218" x1="72.6872" y1="46.0854" x2="-1.33787" y2="46.0854" gradientUnits="userSpaceOnUse">
<stop stop-color="#5761D7"/>
<stop offset="0.1779" stop-color="#5C66D9"/>
<stop offset="0.3876" stop-color="#6A73DF"/>
<stop offset="0.6134" stop-color="#8289E8"/>
<stop offset="0.849" stop-color="#A3A7F5"/>
<stop offset="1" stop-color="#BCBEFF"/>
</linearGradient>
<linearGradient id="paint13_linear_1_218" x1="-17.358" y1="20.2905" x2="98.55" y2="81.567" gradientUnits="userSpaceOnUse">
<stop stop-color="#BCBEFF"/>
<stop offset="0.1659" stop-color="#B6B8FC"/>
<stop offset="0.3956" stop-color="#A4A8F5"/>
<stop offset="0.6625" stop-color="#868DEA"/>
<stop offset="0.9554" stop-color="#5E67DA"/>
<stop offset="1" stop-color="#5761D7"/>
</linearGradient>
<linearGradient id="paint14_linear_1_218" x1="27.1621" y1="40.602" x2="27.1621" y2="43.0048" gradientUnits="userSpaceOnUse">
<stop stop-color="white"/>
<stop offset="1" stop-color="white" stop-opacity="0"/>
</linearGradient>
<linearGradient id="paint15_linear_1_218" x1="35.6957" y1="40.1585" x2="25.2777" y2="40.1585" gradientUnits="userSpaceOnUse">
<stop stop-color="#5761D7"/>
<stop offset="0.1779" stop-color="#5C66D9"/>
<stop offset="0.3876" stop-color="#6A73DF"/>
<stop offset="0.6134" stop-color="#8289E8"/>
<stop offset="0.849" stop-color="#A3A7F5"/>
<stop offset="1" stop-color="#BCBEFF"/>
</linearGradient>
<linearGradient id="paint16_linear_1_218" x1="29.3036" y1="40.0578" x2="28.1785" y2="42.6319" gradientUnits="userSpaceOnUse">
<stop stop-color="white" stop-opacity="0"/>
<stop offset="1" stop-color="white"/>
</linearGradient>
<linearGradient id="paint17_linear_1_218" x1="35.4187" y1="40.1079" x2="35.4187" y2="43.3884" gradientUnits="userSpaceOnUse">
<stop stop-color="white"/>
<stop offset="1" stop-color="white" stop-opacity="0"/>
</linearGradient>
<linearGradient id="paint18_linear_1_218" x1="23.0223" y1="37.3098" x2="39.3351" y2="45.8651" gradientUnits="userSpaceOnUse">
<stop stop-color="#BCBEFF"/>
<stop offset="0.1659" stop-color="#B6B8FC"/>
<stop offset="0.3956" stop-color="#A4A8F5"/>
<stop offset="0.6625" stop-color="#868DEA"/>
<stop offset="0.9554" stop-color="#5E67DA"/>
<stop offset="1" stop-color="#5761D7"/>
</linearGradient>
<linearGradient id="paint19_linear_1_218" x1="28.6804" y1="44.2089" x2="28.5189" y2="38.4303" gradientUnits="userSpaceOnUse">
<stop stop-color="white"/>
<stop offset="1" stop-color="white" stop-opacity="0"/>
</linearGradient>
<linearGradient id="paint20_linear_1_218" x1="38.4771" y1="43.4809" x2="33.2553" y2="43.4809" gradientUnits="userSpaceOnUse">
<stop stop-color="#5761D7"/>
<stop offset="0.1779" stop-color="#5C66D9"/>
<stop offset="0.3876" stop-color="#6A73DF"/>
<stop offset="0.6134" stop-color="#8289E8"/>
<stop offset="0.849" stop-color="#A3A7F5"/>
<stop offset="1" stop-color="#BCBEFF"/>
</linearGradient>
<linearGradient id="paint21_linear_1_218" x1="27.8859" y1="40.2787" x2="47.145" y2="50.4506" gradientUnits="userSpaceOnUse">
<stop stop-color="#BCBEFF"/>
<stop offset="0.1659" stop-color="#B6B8FC"/>
<stop offset="0.3956" stop-color="#A4A8F5"/>
<stop offset="0.6625" stop-color="#868DEA"/>
<stop offset="0.9554" stop-color="#5E67DA"/>
<stop offset="1" stop-color="#5761D7"/>
</linearGradient>
<linearGradient id="paint22_linear_1_218" x1="34.5864" y1="48.3913" x2="34.3978" y2="41.5965" gradientUnits="userSpaceOnUse">
<stop stop-color="white"/>
<stop offset="1" stop-color="white" stop-opacity="0"/>
</linearGradient>
<linearGradient id="paint23_linear_1_218" x1="35.669" y1="46.1771" x2="30.6858" y2="46.1771" gradientUnits="userSpaceOnUse">
<stop stop-color="#5761D7"/>
<stop offset="0.1779" stop-color="#5C66D9"/>
<stop offset="0.3876" stop-color="#6A73DF"/>
<stop offset="0.6134" stop-color="#8289E8"/>
<stop offset="0.849" stop-color="#A3A7F5"/>
<stop offset="1" stop-color="#BCBEFF"/>
</linearGradient>
<linearGradient id="paint24_linear_1_218" x1="32.6115" y1="46.1111" x2="31.7234" y2="47.5911" gradientUnits="userSpaceOnUse">
<stop stop-color="white" stop-opacity="0"/>
<stop offset="1" stop-color="white"/>
</linearGradient>
<linearGradient id="paint25_linear_1_218" x1="36.3511" y1="47.137" x2="36.3511" y2="49.8464" gradientUnits="userSpaceOnUse">
<stop stop-color="white"/>
<stop offset="1" stop-color="white" stop-opacity="0"/>
</linearGradient>
<linearGradient id="paint26_linear_1_218" x1="39.022" y1="45.0154" x2="39.022" y2="47.7163" gradientUnits="userSpaceOnUse">
<stop stop-color="white"/>
<stop offset="1" stop-color="white" stop-opacity="0"/>
</linearGradient>
<linearGradient id="paint27_linear_1_218" x1="42.4849" y1="43.5758" x2="42.4849" y2="46.2978" gradientUnits="userSpaceOnUse">
<stop stop-color="white"/>
<stop offset="1" stop-color="white" stop-opacity="0"/>
</linearGradient>
<linearGradient id="paint28_linear_1_218" x1="41.8321" y1="43.2909" x2="38.3735" y2="43.2909" gradientUnits="userSpaceOnUse">
<stop stop-color="#5761D7"/>
<stop offset="0.1779" stop-color="#5C66D9"/>
<stop offset="0.3876" stop-color="#6A73DF"/>
<stop offset="0.6134" stop-color="#8289E8"/>
<stop offset="0.849" stop-color="#A3A7F5"/>
<stop offset="1" stop-color="#BCBEFF"/>
</linearGradient>
<linearGradient id="paint29_linear_1_218" x1="38.3916" y1="44.9251" x2="35.4361" y2="44.9251" gradientUnits="userSpaceOnUse">
<stop stop-color="#5761D7"/>
<stop offset="0.1779" stop-color="#5C66D9"/>
<stop offset="0.3876" stop-color="#6A73DF"/>
<stop offset="0.6134" stop-color="#8289E8"/>
<stop offset="0.849" stop-color="#A3A7F5"/>
<stop offset="1" stop-color="#BCBEFF"/>
</linearGradient>
<linearGradient id="paint30_linear_1_218" x1="48.1559" y1="47.3702" x2="37.9421" y2="47.3702" gradientUnits="userSpaceOnUse">
<stop stop-color="#5761D7"/>
<stop offset="0.1779" stop-color="#5C66D9"/>
<stop offset="0.3876" stop-color="#6A73DF"/>
<stop offset="0.6134" stop-color="#8289E8"/>
<stop offset="0.849" stop-color="#A3A7F5"/>
<stop offset="1" stop-color="#BCBEFF"/>
</linearGradient>
<linearGradient id="paint31_linear_1_218" x1="41.8889" y1="47.2712" x2="40.7806" y2="49.8" gradientUnits="userSpaceOnUse">
<stop stop-color="white" stop-opacity="0"/>
<stop offset="1" stop-color="white"/>
</linearGradient>
<linearGradient id="paint32_linear_1_218" x1="35.7379" y1="44.5965" x2="51.6681" y2="53.0014" gradientUnits="userSpaceOnUse">
<stop stop-color="#BCBEFF"/>
<stop offset="0.1659" stop-color="#B6B8FC"/>
<stop offset="0.3956" stop-color="#A4A8F5"/>
<stop offset="0.6625" stop-color="#868DEA"/>
<stop offset="0.9554" stop-color="#5E67DA"/>
<stop offset="1" stop-color="#5761D7"/>
</linearGradient>
<linearGradient id="paint33_linear_1_218" x1="41.2777" y1="51.3106" x2="41.1216" y2="45.6869" gradientUnits="userSpaceOnUse">
<stop stop-color="white"/>
<stop offset="1" stop-color="white" stop-opacity="0"/>
</linearGradient>
<linearGradient id="paint34_linear_1_218" x1="24.9492" y1="7.42245" x2="23.9709" y2="5.73527" gradientUnits="userSpaceOnUse">
<stop stop-color="#5761D7"/>
<stop offset="0.1645" stop-color="#5E67DA"/>
<stop offset="0.4051" stop-color="#727AE2"/>
<stop offset="0.6924" stop-color="#9297EE"/>
<stop offset="1" stop-color="#BCBEFF"/>
</linearGradient>
<linearGradient id="paint35_linear_1_218" x1="22.6284" y1="6.08747" x2="21.6501" y2="4.4003" gradientUnits="userSpaceOnUse">
<stop stop-color="#5761D7"/>
<stop offset="0.1645" stop-color="#5E67DA"/>
<stop offset="0.4051" stop-color="#727AE2"/>
<stop offset="0.6924" stop-color="#9297EE"/>
<stop offset="1" stop-color="#BCBEFF"/>
</linearGradient>
<linearGradient id="paint36_linear_1_218" x1="20.265" y1="4.7294" x2="19.2867" y2="3.04223" gradientUnits="userSpaceOnUse">
<stop stop-color="#5761D7"/>
<stop offset="0.1645" stop-color="#5E67DA"/>
<stop offset="0.4051" stop-color="#727AE2"/>
<stop offset="0.6924" stop-color="#9297EE"/>
<stop offset="1" stop-color="#BCBEFF"/>
</linearGradient>
<linearGradient id="paint37_linear_1_218" x1="24.5205" y1="7.64033" x2="25.8945" y2="5.25015" gradientUnits="userSpaceOnUse">
<stop stop-color="#16E09E"/>
<stop offset="0.1507" stop-color="#43E3BD"/>
<stop offset="0.3285" stop-color="#45D5DF"/>
<stop offset="0.5199" stop-color="#49BDDD"/>
<stop offset="0.7209" stop-color="#4E9CDB"/>
<stop offset="0.9274" stop-color="#5472D8"/>
<stop offset="1" stop-color="#5761D7"/>
</linearGradient>
<linearGradient id="paint38_linear_1_218" x1="22.198" y1="6.30539" x2="23.572" y2="3.91517" gradientUnits="userSpaceOnUse">
<stop stop-color="#16E09E"/>
<stop offset="0.1507" stop-color="#43E3B3"/>
<stop offset="0.3285" stop-color="#45D5DF"/>
<stop offset="0.5199" stop-color="#49BDDD"/>
<stop offset="0.7209" stop-color="#4E9CDB"/>
<stop offset="0.9274" stop-color="#5472D8"/>
<stop offset="1" stop-color="#5761D7"/>
</linearGradient>
<linearGradient id="paint39_linear_1_218" x1="19.8347" y1="4.94738" x2="21.2087" y2="2.55721" gradientUnits="userSpaceOnUse">
<stop stop-color="#16E09E"/>
<stop offset="0.1507" stop-color="#43E3C6"/>
<stop offset="0.3285" stop-color="#45D5DF"/>
<stop offset="0.5199" stop-color="#49BDDD"/>
<stop offset="0.7209" stop-color="#4E9CDB"/>
<stop offset="0.9274" stop-color="#5472D8"/>
<stop offset="1" stop-color="#5761D7"/>
</linearGradient>
<linearGradient id="paint40_linear_1_218" x1="30.4885" y1="20.8991" x2="48.3229" y2="10.6001" gradientUnits="userSpaceOnUse">
<stop stop-color="#BCBEFF"/>
<stop offset="0.3076" stop-color="#9297EE"/>
<stop offset="0.5949" stop-color="#727AE2"/>
<stop offset="0.8355" stop-color="#5E67DA"/>
<stop offset="1" stop-color="#5761D7"/>
</linearGradient>
<linearGradient id="paint41_linear_1_218" x1="48.1667" y1="8.52602" x2="29.99" y2="16.5798" gradientUnits="userSpaceOnUse">
<stop stop-color="#5761D7"/>
<stop offset="0.1645" stop-color="#5E67DA"/>
<stop offset="0.4051" stop-color="#727AE2"/>
<stop offset="0.6924" stop-color="#9297EE"/>
<stop offset="1" stop-color="#BCBEFF"/>
</linearGradient>
<linearGradient id="paint42_linear_1_218" x1="36.2279" y1="19.4185" x2="42.51" y2="8.49063" gradientUnits="userSpaceOnUse">
<stop stop-color="#16E09E"/>
<stop offset="0.1507" stop-color="#43E3B3"/>
<stop offset="0.3285" stop-color="#45D5DF"/>
<stop offset="0.5199" stop-color="#49BDDD"/>
<stop offset="0.7209" stop-color="#4E9CDB"/>
<stop offset="0.9274" stop-color="#5472D8"/>
<stop offset="1" stop-color="#5761D7"/>
</linearGradient>
<linearGradient id="paint43_linear_1_218" x1="36.2128" y1="20.0422" x2="42.4945" y2="9.11433" gradientUnits="userSpaceOnUse">
<stop stop-color="#16E09E"/>
<stop offset="0.1507" stop-color="#43E3D0"/>
<stop offset="0.3285" stop-color="#45D5DF"/>
<stop offset="0.5199" stop-color="#49BDDD"/>
<stop offset="0.7209" stop-color="#4E9CDB"/>
<stop offset="0.9274" stop-color="#5472D8"/>
<stop offset="1" stop-color="#5761D7"/>
</linearGradient>
<clipPath id="clip0_1_218">
<rect width="75" height="75" fill="white"/>
</clipPath>
<clipPath id="clip1_1_218">
<rect width="74.1848" height="75" fill="white" transform="translate(0.00167847)"/>
</clipPath>
</defs>
</svg>
