<svg width="75" height="75" viewBox="0 0 75 75" fill="none" xmlns="http://www.w3.org/2000/svg">
<path opacity="0.4" d="M39.9237 73.5718C55.7033 73.5718 68.4951 60.7799 68.4951 45.0004C68.4951 29.2208 55.7033 16.429 39.9237 16.429C24.1441 16.429 11.3523 29.2208 11.3523 45.0004C11.3523 60.7799 24.1441 73.5718 39.9237 73.5718Z" fill="url(#paint0_linear_1_597)"/>
<path opacity="0.4" d="M10.2848 18.2141C12.6518 18.2141 14.5706 16.2953 14.5706 13.9284C14.5706 11.5614 12.6518 9.64264 10.2848 9.64264C7.91791 9.64264 5.99913 11.5614 5.99913 13.9284C5.99913 16.2953 7.91791 18.2141 10.2848 18.2141Z" fill="url(#paint1_linear_1_597)"/>
<g clip-path="url(#clip0_1_597)">
<path d="M58.8508 71.6582C58.614 71.6582 58.3433 71.5908 58.0726 71.4214L34.6586 57.8872C33.6097 57.2782 32.7299 55.6206 32.7299 54.1994V1.72077C32.7299 0.976391 32.9668 0.40119 33.4067 0.130508C33.7789 -0.0725041 34.2187 -0.0386691 34.7262 0.232013L58.1403 13.7662C59.1892 14.3752 60.0689 16.0331 60.0689 17.4542V69.9328C60.0689 70.6771 59.832 71.2524 59.3922 71.5229C59.223 71.5908 59.02 71.6582 58.8508 71.6582ZM33.9142 0.164343C33.745 0.164343 33.6097 0.198179 33.4743 0.265849C33.0683 0.502695 32.8653 1.04406 32.8653 1.72077V54.1994C32.8653 55.5527 33.7112 57.1771 34.7262 57.7519L58.1403 71.2861C58.5801 71.5229 58.9862 71.5566 59.3245 71.3877C59.7305 71.1508 59.9335 70.6097 59.9335 69.9328V17.4542C59.9335 16.1008 59.0876 14.4767 58.0726 13.9015L34.6586 0.367355C34.3879 0.232014 34.151 0.164343 33.9142 0.164343Z" fill="#42E8E0"/>
<path d="M55.501 74.8728L54.2829 71.5567L32.7637 59.1394C31.681 58.5304 30.8013 56.8386 30.8013 55.4174V7.87882L28.6358 1.99149L30.5306 0.90876C30.8689 0.705748 31.3088 0.705748 31.8163 1.01027L56.1101 15.0181C57.1928 15.6271 58.0725 17.3189 58.0725 18.74V72.1999C58.0725 72.9779 57.8018 73.5195 57.4296 73.7564L55.501 74.8728Z" fill="url(#paint2_linear_1_597)"/>
<path d="M54.1818 16.1006L29.8881 2.09282C28.8054 1.48379 27.9256 2.12666 27.9256 3.58157V57.0413C27.9256 58.4962 28.8054 60.1542 29.8881 60.7633L54.1818 74.7712C55.2645 75.3802 56.1443 74.7375 56.1443 73.2821V19.8225C56.1443 18.4014 55.2645 16.7097 54.1818 16.1006Z" fill="#24126A"/>
<path d="M56.1444 73.3163V19.8565C56.1444 18.4016 55.2647 16.7436 54.1819 16.1346L29.8882 2.1268C29.4483 1.88996 29.0423 1.82228 28.7378 1.95763C29.0762 1.68694 29.5837 1.65311 30.125 1.99146L54.4188 15.9993C55.5015 16.6083 56.3812 18.3001 56.3812 19.7211V73.181C56.3812 74.0269 56.0767 74.6359 55.5692 74.8049C55.9075 74.5343 56.1444 74.0269 56.1444 73.3163Z" fill="white"/>
<path opacity="0.51" d="M53.7425 16.4053L30.3285 2.87117C29.2796 2.26214 28.4337 2.90501 28.4337 4.29226V56.7707C28.4337 58.1582 29.2796 59.7821 30.3285 60.3911L53.7425 73.9253C54.7914 74.5343 55.6373 73.8916 55.6373 72.5041V20.0256C55.6373 18.6384 54.7914 17.0143 53.7425 16.4053Z" fill="#453C9E"/>
<path opacity="0.8" d="M53.9779 74.5343C53.741 74.5343 53.4703 74.4669 53.1997 74.2975L29.7856 60.7633C28.7368 60.1543 27.857 58.4967 27.857 57.0755V4.5968C27.857 3.85243 28.0938 3.24339 28.5337 3.00654C28.9059 2.80353 29.3796 2.83737 29.8533 3.10805L53.2674 16.6422C54.3162 17.2512 55.1959 18.9091 55.1959 20.3302V72.8089C55.1959 73.5532 54.9591 74.1622 54.5192 74.3991C54.3162 74.5006 54.147 74.5343 53.9779 74.5343ZM29.0413 3.04038C28.8721 3.04038 28.7368 3.07421 28.6014 3.14188C28.1954 3.37873 27.9924 3.88626 27.9924 4.5968V57.0755C27.9924 58.4288 28.8382 60.019 29.8533 60.628L53.2674 74.1622C53.7072 74.3991 54.1132 74.4328 54.4178 74.2638C54.8237 74.0269 55.0268 73.5195 55.0268 72.8089V20.3302C55.0268 18.9768 54.1809 17.3866 53.1658 16.7775L29.7518 3.24339C29.515 3.10805 29.2781 3.04038 29.0413 3.04038Z" fill="url(#paint3_linear_1_597)"/>
<g opacity="0.3">
<path opacity="0.5" d="M53.1997 16.7098L29.7856 3.17562C28.7368 2.56658 27.8909 3.20945 27.8909 4.5967V57.0755C27.8909 58.4625 28.7368 60.0864 29.7856 60.6954L53.1997 74.2296C54.2486 74.8386 55.0945 74.1959 55.0945 72.8088V20.3301C55.0945 18.9429 54.2486 17.3188 53.1997 16.7098Z" fill="url(#paint4_radial_1_597)"/>
</g>
<path opacity="0.4" d="M52.8283 20.4654C52.8283 20.0594 52.5238 19.5518 52.1854 19.3488C51.8132 19.1458 51.5426 19.315 51.5426 19.721C51.5426 20.1271 51.8471 20.6346 52.1854 20.8376C52.5576 21.0406 52.8283 20.8714 52.8283 20.4654Z" fill="#24126A"/>
<path d="M52.049 20.9052C52.049 20.4992 51.7445 19.9916 51.4062 19.7887C51.034 19.5856 50.7633 19.7548 50.7633 20.1608C50.7633 20.5669 51.0678 21.0744 51.4062 21.2774C51.7783 21.5142 52.049 21.3451 52.049 20.9052Z" fill="#16E09E"/>
<path opacity="0.4" d="M47.2439 17.9954L49.7815 19.4504C50.086 19.6195 50.3567 19.4504 50.3567 19.0105C50.3567 18.6045 50.1199 18.1308 49.7815 17.9278L47.2439 16.4729C46.9394 16.3037 46.6687 16.4729 46.6687 16.9127C46.7025 17.3187 46.9394 17.7924 47.2439 17.9954Z" fill="#24126A"/>
<path d="M46.4665 18.4353L49.0041 19.8902C49.3086 20.0594 49.5794 19.8902 49.5794 19.4503C49.5794 19.0443 49.3425 18.5706 49.0041 18.3676L46.4665 16.9127C46.162 16.7435 45.8913 16.9127 45.8913 17.3525C45.8913 17.7924 46.162 18.2661 46.4665 18.4353Z" fill="#16E09E"/>
<path opacity="0.4" d="M31.9516 9.19822L34.4892 10.6531C34.7937 10.8223 35.0644 10.6531 35.0644 10.2133C35.0644 9.80724 34.8276 9.33355 34.4892 9.13053L31.9516 7.67562C31.647 7.50645 31.3764 7.67562 31.3764 8.11551C31.3764 8.52151 31.647 9.02904 31.9516 9.19822Z" fill="#24126A"/>
<path d="M31.1733 9.63816L33.7109 11.0931C34.0154 11.2622 34.2861 11.0931 34.2861 10.6532C34.2861 10.2472 34.0492 9.77349 33.7109 9.57047L31.1733 8.11557C30.8687 7.94639 30.598 8.11557 30.598 8.55541C30.598 8.9953 30.8349 9.46898 31.1733 9.63816Z" fill="#16E09E"/>
<path opacity="0.4" d="M41.8642 13.4955C41.8642 13.9692 41.5258 14.1722 41.1198 13.9354C40.7138 13.6985 40.3754 13.1234 40.3754 12.6496C40.3754 12.1759 40.7138 11.9729 41.1198 12.2098C41.5258 12.4467 41.8642 13.0218 41.8642 13.4955Z" fill="#24126A"/>
<path d="M41.4591 13.2586C41.4591 13.4616 41.3238 13.5631 41.1208 13.4616C40.9516 13.3602 40.7824 13.0894 40.7824 12.8864C40.7824 12.6834 40.9178 12.5819 41.1208 12.6835C41.29 12.7849 41.4591 13.0556 41.4591 13.2586Z" fill="#16E09E"/>
<path opacity="0.4" d="M49.8147 60.4861C49.8147 60.0123 49.4763 59.4707 49.1041 59.2339C48.6981 58.997 48.3936 59.2002 48.3936 59.6402C48.3936 60.1139 48.6981 60.6551 49.1041 60.8919C49.4763 61.1625 49.8147 60.9598 49.8147 60.4861Z" fill="#16E09E"/>
<path d="M49.4086 61.0614C49.3071 61.0614 49.1718 61.0277 49.0703 60.9598C48.6643 60.7229 48.3259 60.1476 48.3259 59.6739C48.3259 59.437 48.3936 59.268 48.5627 59.1664C48.6981 59.099 48.9011 59.099 49.1041 59.2343C49.5101 59.4712 49.8485 60.046 49.8485 60.5198C49.8485 60.7566 49.7808 60.9261 49.6116 61.0277C49.544 61.0277 49.4763 61.0614 49.4086 61.0614ZM48.7657 59.2001C48.6981 59.2001 48.6304 59.2001 48.5966 59.2343C48.4612 59.3017 48.3936 59.4712 48.3936 59.6739C48.3936 60.1139 48.6981 60.655 49.1041 60.8919C49.2733 60.9935 49.4425 61.0277 49.5778 60.9598C49.7132 60.8919 49.7808 60.7229 49.7808 60.5198C49.7808 60.0802 49.4763 59.5386 49.0703 59.3017C48.9688 59.2343 48.8673 59.2001 48.7657 59.2001Z" fill="#16E09E"/>
<path opacity="0.4" d="M47.4134 59.1327C47.4134 58.659 47.0751 58.1174 46.7029 57.8805C46.2969 57.6437 45.9924 57.8468 45.9924 58.2869C45.9924 58.7606 46.2969 59.3017 46.7029 59.5386C47.0751 59.7755 47.4134 59.5723 47.4134 59.1327Z" fill="#16E09E"/>
<path d="M46.6004 59.9107C46.4989 59.9107 46.3635 59.877 46.262 59.8092C45.856 59.5723 45.5177 58.997 45.5177 58.5233C45.5177 58.2869 45.5853 58.1174 45.7545 58.0158C45.8898 57.9142 46.0928 57.9484 46.2959 58.0837C46.7019 58.3206 47.0403 58.8959 47.0403 59.3691C47.0403 59.606 46.9726 59.7755 46.8034 59.877C46.7357 59.877 46.6681 59.9107 46.6004 59.9107ZM45.9575 58.05C45.8898 58.05 45.8222 58.05 45.7883 58.0837C45.653 58.1511 45.5853 58.3206 45.5853 58.5233C45.5853 58.9633 45.8898 59.5049 46.2959 59.7418C46.465 59.8429 46.6342 59.877 46.7696 59.8092C46.9049 59.7418 46.9726 59.5723 46.9726 59.3691C46.9726 58.9296 46.6681 58.388 46.262 58.1511C46.1605 58.0837 46.059 58.05 45.9575 58.05Z" fill="#16E09E"/>
<path d="M39.1232 57.0347C39.0217 57.0347 38.8863 57.0009 38.7849 56.9331C38.3788 56.6962 38.0405 56.1209 38.0405 55.6472C38.0405 55.4103 38.1081 55.2413 38.2773 55.1397C38.4127 55.0381 38.6157 55.0723 38.8187 55.2076C39.2247 55.4445 39.5631 56.0193 39.5631 56.493C39.5631 56.7299 39.4954 56.8994 39.3262 57.0009C39.2585 57.0009 39.1909 57.0347 39.1232 57.0347ZM38.4803 55.1734C38.4127 55.1734 38.345 55.1734 38.3111 55.2076C38.1758 55.275 38.1081 55.4445 38.1081 55.6472C38.1081 56.0872 38.4127 56.6288 38.8187 56.8652C38.9878 56.9668 39.1571 57.0009 39.2924 56.9331C39.4277 56.8652 39.4954 56.6962 39.4954 56.493C39.4954 56.0535 39.1909 55.5119 38.7849 55.275C38.6833 55.1734 38.5818 55.1734 38.4803 55.1734Z" fill="#16E09E"/>
<path opacity="0.4" d="M41.2884 55.4445C41.2884 54.9707 40.9839 54.4296 40.5779 54.1927C40.1719 53.9559 39.8673 54.159 39.8673 54.5986C39.8673 55.0723 40.1719 55.6139 40.5779 55.8508C40.9501 56.1214 41.2884 55.9182 41.2884 55.4445Z" fill="#16E09E"/>
<path d="M35.7059 56.2229C35.6043 56.2229 35.469 56.1887 35.3675 56.1213C34.9615 55.8845 34.6231 55.3092 34.6231 54.8354C34.6231 54.5986 34.6908 54.4296 34.86 54.328C34.9953 54.2264 35.1983 54.2601 35.4013 54.3954C35.8074 54.6323 36.1457 55.2076 36.1457 55.6813C36.1457 55.9182 36.078 56.0872 35.9089 56.1887C35.8412 56.2229 35.7735 56.2229 35.7059 56.2229ZM35.063 54.3617C34.9953 54.3617 34.9276 54.3617 34.8938 54.3954C34.7585 54.4633 34.6908 54.6323 34.6908 54.8354C34.6908 55.2755 34.9953 55.8166 35.4013 56.0535C35.5705 56.155 35.7397 56.1887 35.8751 56.1213C36.0104 56.0535 36.078 55.8845 36.078 55.6813C36.078 55.2413 35.7735 54.7001 35.3675 54.4633C35.266 54.3954 35.1645 54.3617 35.063 54.3617Z" fill="#16E09E"/>
<path opacity="0.4" d="M38.9883 54.0233C38.9883 53.5495 38.6838 53.0084 38.2777 52.7715C37.8717 52.5347 37.5672 52.7378 37.5672 53.1774C37.5672 53.6511 37.9055 54.1927 38.2777 54.4296C38.6499 54.6665 38.9883 54.497 38.9883 54.0233Z" fill="#16E09E"/>
<path d="M31.7809 55.7151C31.6794 55.7151 31.544 55.6814 31.4425 55.614C31.0365 55.3771 30.6982 54.8018 30.6982 54.328C30.6982 54.0912 30.7658 53.9222 30.935 53.8206C31.0703 53.719 31.2734 53.7527 31.4764 53.888C31.8824 54.1249 32.2207 54.7002 32.2207 55.1739C32.2207 55.4108 32.1531 55.5798 31.9839 55.6814C31.9162 55.7151 31.8486 55.7151 31.7809 55.7151ZM31.138 53.8543C31.0703 53.8543 31.0027 53.8543 30.9689 53.888C30.8335 53.9559 30.7658 54.1249 30.7658 54.328C30.7658 54.7681 31.0703 55.3092 31.4764 55.5461C31.6456 55.6477 31.8147 55.6814 31.9501 55.614C32.0854 55.5461 32.1531 55.3771 32.1531 55.1739C32.1531 54.7339 31.8486 54.1928 31.4425 53.9559C31.3411 53.888 31.2395 53.8543 31.138 53.8543Z" fill="#16E09E"/>
<path opacity="0.4" d="M36.619 52.5684C36.619 52.0946 36.3145 51.5535 35.9085 51.3166C35.5025 51.0798 35.1979 51.2829 35.1979 51.7225C35.1979 52.1962 35.5025 52.7378 35.9085 52.9747C36.2807 53.2116 36.619 53.0421 36.619 52.5684Z" fill="#16E09E"/>
<path opacity="0.4" d="M42.5759 57.0688L44.6737 58.2869C45.012 58.49 45.2828 58.2869 45.2828 57.8131C45.2828 57.3394 45.012 56.832 44.6737 56.6288L42.5759 55.4108C42.2376 55.2081 41.9669 55.4108 41.9669 55.8845C41.9331 56.3245 42.2037 56.8657 42.5759 57.0688Z" fill="#16E09E"/>
<path d="M44.0631 58.8622C43.9954 58.8622 43.8939 58.8285 43.7924 58.7943L41.6946 57.5763C41.3563 57.3736 41.0518 56.832 41.0518 56.3582C41.0518 56.0877 41.1532 55.9182 41.2886 55.8171C41.4239 55.7492 41.5593 55.7492 41.7285 55.8508L43.8262 57.0688C44.1646 57.272 44.4691 57.8132 44.4691 58.2869C44.4691 58.5575 44.3676 58.7269 44.2323 58.8285C44.1646 58.8622 44.0969 58.8622 44.0631 58.8622ZM41.7285 57.5089L43.8262 58.7269C43.9616 58.7943 44.0969 58.8285 44.1984 58.7606C44.3338 58.6927 44.4015 58.5238 44.4015 58.2869C44.4015 57.8469 44.1307 57.3057 43.7924 57.1367L41.6946 55.9182C41.5593 55.8508 41.424 55.8171 41.3224 55.8845C41.1871 55.9524 41.1194 56.1214 41.1194 56.3582C41.1194 56.7983 41.3901 57.3394 41.7285 57.5089Z" fill="#16E09E"/>
<path opacity="0.4" d="M50.1192 47.0928L33.1001 37.2467C31.9497 36.57 31.0023 37.2806 31.0023 38.837C31.0023 40.3934 31.9497 42.1867 33.1001 42.8634L50.1192 52.7093C51.2696 53.3862 52.217 52.6756 52.217 51.1191C52.217 49.5627 51.2696 47.7693 50.1192 47.0928Z" fill="#24126A"/>
<path opacity="0.4" d="M49.0697 47.7019L32.0506 37.8558C30.9001 37.1791 29.9528 37.8897 29.9528 39.4461C29.9528 41.0025 30.9001 42.7958 32.0506 43.4725L49.0697 53.3184C50.2201 53.9953 51.1675 53.2847 51.1675 51.7282C51.1675 50.1717 50.2201 48.3788 49.0697 47.7019Z" fill="#16E09E"/>
<path opacity="0.6" d="M44.5276 46.5938L32.3295 39.4917C31.7869 39.1835 31.3402 39.5071 31.3402 40.216C31.3402 40.9249 31.7869 41.7416 32.3295 42.0498L44.5276 49.1521C45.0701 49.4601 45.5169 49.1364 45.5169 48.4277C45.5169 47.719 45.0701 46.902 44.5276 46.5938Z" fill="#16E09E"/>
<path d="M49.8822 53.6231C49.6115 53.6231 49.307 53.5215 49.0025 53.3526L31.9834 43.5062C30.7991 42.8295 29.8517 41.0024 29.8517 39.446C29.8517 38.6001 30.1224 37.9911 30.5961 37.6866C31.0021 37.4497 31.5097 37.4835 32.0172 37.7881L49.0364 47.634C50.2206 48.3109 51.168 50.138 51.168 51.6945C51.168 52.5404 50.8973 53.1494 50.4236 53.4537C50.2882 53.5889 50.0852 53.6231 49.8822 53.6231ZM31.2051 37.6527C31.0359 37.6527 30.8329 37.6866 30.6976 37.7881C30.2577 38.0588 29.9871 38.6339 29.9871 39.446C29.9871 40.9686 30.9006 42.7619 32.051 43.4048L49.0702 53.251C49.5439 53.5215 50.0176 53.5889 50.3897 53.3526C50.8296 53.0815 51.1003 52.5067 51.1003 51.6945C51.1003 50.1717 50.1868 48.3783 49.0364 47.7356L32.0172 37.8896C31.7126 37.7543 31.442 37.6527 31.2051 37.6527Z" fill="#16E09E"/>
<path opacity="0.6" d="M49.553 52.0158L48.8261 50.8618C48.7509 50.7441 48.6256 50.6734 48.5504 50.6734L48.3499 50.344C48.6757 50.0611 48.6256 49.4022 48.2497 48.7899C47.8236 48.1068 47.1719 47.7536 46.7458 47.9658C46.3197 48.1775 46.3197 48.9076 46.7458 49.5902C47.1218 50.2025 47.7233 50.5557 48.1494 50.438L48.3499 50.7679C48.2998 50.8381 48.2998 50.9558 48.375 51.0973L49.1019 52.2512C49.2021 52.3922 49.3274 52.4867 49.4277 52.4397L49.553 52.369C49.6282 52.322 49.6282 52.1568 49.553 52.0158ZM47.999 49.9671C47.7233 50.1085 47.2722 49.8731 46.9965 49.4255C46.7208 48.9783 46.7208 48.5074 46.9965 48.366C47.2722 48.2245 47.7233 48.4599 47.999 48.9076C48.2747 49.3547 48.2747 49.8256 47.999 49.9671Z" fill="#16E09E"/>
<path d="M23.6885 24.3576L20.1059 22.2919L27.9167 14.126C28.6914 13.3191 29.8856 13.1577 30.8539 13.7064L32.8228 14.8361L23.6885 24.3576Z" fill="#836FEC"/>
<path d="M27.2385 26.4233L23.6558 24.3577L32.79 14.8361L36.3727 16.9018L27.2385 26.4233Z" fill="#F9FBFD"/>
<path d="M30.8209 28.4889L27.2382 26.4232L36.3724 16.9017L39.9551 18.9674L30.8209 28.4889Z" fill="#836FEC"/>
<path d="M34.3717 30.5223L30.789 28.4566L39.9232 18.9673L43.5059 21.033L34.3717 30.5223Z" fill="#F9FBFD"/>
<path d="M37.9545 32.588L34.3719 30.5223L43.5061 21.033L47.0888 23.0987L37.9545 32.588Z" fill="#836FEC"/>
<path d="M41.5045 34.6537L37.9218 32.588L47.056 23.0665L50.6387 25.1321L41.5045 34.6537Z" fill="#F9FBFD"/>
<path d="M45.0544 36.6871L53.5754 27.8111C53.2204 27.101 52.7362 26.4878 52.1552 26.0037L50.6059 25.0999L41.4717 34.6214L45.0544 36.6871Z" fill="#836FEC"/>
<path d="M21.8809 26.9397C20.8803 26.3587 20.0734 24.8417 20.0734 23.5184V22.2596L23.6561 24.3253V25.5841C23.6884 26.9074 22.8815 27.5207 21.8809 26.9397Z" fill="#7D6BD8"/>
<path d="M25.4308 29.0055C24.4303 28.4245 23.6233 26.9075 23.6233 25.5841V24.3254L27.206 26.3911V27.6498C27.2383 28.9732 26.4314 29.5542 25.4308 29.0055Z" fill="#E8E8FD"/>
<path d="M29.0456 31.0711C28.0451 30.4901 27.2382 28.9731 27.2382 27.6498V26.391L30.8209 28.4567V29.7155C30.8209 31.0388 30.0139 31.6198 29.0456 31.0711Z" fill="#7D6BD8"/>
<path d="M32.5965 33.1044C31.5959 32.5234 30.789 31.0065 30.789 29.6831V28.4243L34.3717 30.49V31.7488C34.3717 33.0721 33.5648 33.6854 32.5965 33.1044Z" fill="#E8E8FD"/>
<path d="M36.1474 35.1703C35.1468 34.5893 34.3399 33.0723 34.3399 31.749V30.4902L37.9226 32.5559V33.8147C37.9548 35.138 37.1479 35.7513 36.1474 35.1703Z" fill="#7D6BD8"/>
<path d="M39.7293 37.2358C38.7287 36.6549 37.9218 35.1379 37.9218 33.8145V32.5557L41.5045 34.6214V35.8802C41.5045 37.2035 40.6976 37.8168 39.7293 37.2358Z" fill="#E8E8FD"/>
<path d="M43.2792 39.2692C42.2786 38.6882 41.4717 37.1712 41.4717 35.8479V34.5891L45.0544 36.6548V37.9136C45.0544 39.2369 44.2475 39.8502 43.2792 39.2692Z" fill="#7D6BD8"/>
<path opacity="0.4" d="M23.559 24.2609V25.4874C23.559 26.8107 22.7521 27.424 21.7515 26.843C21.6547 26.8107 21.5901 26.7462 21.4933 26.6816C21.6224 26.7784 21.7515 26.8752 21.8806 26.9398C22.8812 27.5208 23.6881 26.9075 23.6881 25.5842V24.3254L23.559 24.2609Z" fill="url(#paint5_radial_1_597)"/>
<path opacity="0.4" d="M27.1094 26.2941V27.5206C27.1094 28.8439 26.3025 29.4572 25.3019 28.8762C25.2051 28.8439 25.1405 28.7794 25.0437 28.7148C25.1728 28.8116 25.3019 28.9085 25.431 28.973C26.4316 29.554 27.2385 28.9408 27.2385 27.6174V26.3909L27.1094 26.2941Z" fill="url(#paint6_radial_1_597)"/>
<path opacity="0.4" d="M30.6917 28.3597V29.5862C30.6917 30.9096 29.8848 31.5228 28.8843 30.9419C28.7875 30.9096 28.7229 30.845 28.6261 30.7805C28.7552 30.8773 28.8843 30.9741 29.0134 31.0387C30.0139 31.6197 30.8209 31.0064 30.8209 29.6831V28.4243L30.6917 28.3597Z" fill="url(#paint7_radial_1_597)"/>
<path opacity="0.4" d="M34.2426 30.4257V31.6523C34.2426 32.9756 33.4357 33.5888 32.4352 33.0079C32.3383 32.9756 32.2738 32.911 32.1769 32.8465C32.306 32.9433 32.4351 33.0401 32.5642 33.1047C33.5648 33.6857 34.3717 33.0724 34.3717 31.7491V30.4903L34.2426 30.4257Z" fill="url(#paint8_radial_1_597)"/>
<path opacity="0.4" d="M37.825 32.4913V33.7178C37.825 35.0411 37.0181 35.6544 36.0175 35.0734C35.9207 35.0411 35.8561 34.9766 35.7593 34.912C35.8884 35.0089 36.0175 35.1057 36.1466 35.1703C37.1472 35.7512 37.9541 35.138 37.9541 33.8147V32.5559L37.825 32.4913Z" fill="url(#paint9_radial_1_597)"/>
<path opacity="0.4" d="M41.3754 34.5246V35.7511C41.3754 37.0745 40.5685 37.6877 39.5679 37.1067C39.4711 37.0745 39.4065 37.0099 39.3097 36.9453C39.4388 37.0422 39.5679 37.139 39.697 37.2036C40.6976 37.7845 41.5045 37.1713 41.5045 35.8479V34.5892L41.3754 34.5246Z" fill="url(#paint10_radial_1_597)"/>
<path opacity="0.4" d="M44.9258 36.5903V37.8169C44.9258 39.1402 44.1189 39.7534 43.1183 39.1725C43.0215 39.1402 42.9569 39.0756 42.8601 39.0111C42.9892 39.1079 43.1183 39.2047 43.2474 39.2693C44.248 39.8503 45.0549 39.237 45.0549 37.9137V36.6549L44.9258 36.5903Z" fill="url(#paint11_radial_1_597)"/>
<path d="M45.0551 37.9137L54.157 33.1691C54.157 31.7811 54.157 30.3932 54.157 30.3287C54.157 29.425 53.9311 28.5858 53.576 27.8112L45.0551 36.6549V37.9137Z" fill="#5233B9"/>
<path d="M20.1059 22.2596L44.9587 36.8486L53.5765 27.8112L44.9587 36.4693L20.1059 22.2596Z" fill="#F9FBFD"/>
</g>
<defs>
<linearGradient id="paint0_linear_1_597" x1="20.638" y1="7.92171" x2="53.8523" y2="68.9932" gradientUnits="userSpaceOnUse">
<stop stop-color="#7C4EFF"/>
<stop offset="0.904355" stop-color="#7C4EFF" stop-opacity="0"/>
</linearGradient>
<linearGradient id="paint1_linear_1_597" x1="7.39199" y1="8.36655" x2="12.3741" y2="17.5273" gradientUnits="userSpaceOnUse">
<stop stop-color="#7C4EFF"/>
<stop offset="0.904355" stop-color="#7C4EFF" stop-opacity="0"/>
</linearGradient>
<linearGradient id="paint2_linear_1_597" x1="25.2756" y1="3.89941" x2="63.5508" y2="70.2128" gradientUnits="userSpaceOnUse">
<stop stop-color="#BCBEFF"/>
<stop offset="0.151" stop-color="#A3A7F5"/>
<stop offset="0.3866" stop-color="#8289E8"/>
<stop offset="0.6124" stop-color="#6A73DF"/>
<stop offset="0.8221" stop-color="#5C66D9"/>
<stop offset="1" stop-color="#5761D7"/>
</linearGradient>
<linearGradient id="paint3_linear_1_597" x1="59.1264" y1="40.8778" x2="23.8757" y2="36.5451" gradientUnits="userSpaceOnUse">
<stop stop-color="#42E8E0"/>
<stop offset="0.1055" stop-color="#37B6BF"/>
<stop offset="0.2197" stop-color="#2C87A1"/>
<stop offset="0.338" stop-color="#235F87"/>
<stop offset="0.4587" stop-color="#1C3F72"/>
<stop offset="0.5824" stop-color="#162561"/>
<stop offset="0.7105" stop-color="#121355"/>
<stop offset="0.8458" stop-color="#10084E"/>
<stop offset="1" stop-color="#0F054C"/>
</linearGradient>
<radialGradient id="paint4_radial_1_597" cx="0" cy="0" r="1" gradientUnits="userSpaceOnUse" gradientTransform="translate(47.4844 22.7774) scale(120.153 120.153)">
<stop stop-color="#42E8E0"/>
<stop offset="0.1176" stop-color="#35B0BC"/>
<stop offset="0.1886" stop-color="#2F93A9"/>
<stop offset="0.2212" stop-color="#2C87A1"/>
<stop offset="0.3379" stop-color="#235F87"/>
<stop offset="0.4585" stop-color="#1C3E72"/>
<stop offset="0.5823" stop-color="#162561"/>
<stop offset="0.7104" stop-color="#121355"/>
<stop offset="0.8456" stop-color="#10084E"/>
<stop offset="1" stop-color="#0F054C"/>
</radialGradient>
<radialGradient id="paint5_radial_1_597" cx="0" cy="0" r="1" gradientUnits="userSpaceOnUse" gradientTransform="translate(22.5904 25.7254) scale(0.848017 2.56931)">
<stop stop-color="white"/>
<stop offset="0.0656227" stop-color="#D8D8D8"/>
<stop offset="0.1615" stop-color="#A6A6A6"/>
<stop offset="0.2622" stop-color="#797979"/>
<stop offset="0.3658" stop-color="#545454"/>
<stop offset="0.4731" stop-color="#353535"/>
<stop offset="0.5852" stop-color="#1E1E1E"/>
<stop offset="0.7042" stop-color="#0D0D0D"/>
<stop offset="0.835" stop-color="#030303"/>
<stop offset="1"/>
</radialGradient>
<radialGradient id="paint6_radial_1_597" cx="0" cy="0" r="1" gradientUnits="userSpaceOnUse" gradientTransform="translate(26.1408 27.7586) scale(0.848017 2.56931)">
<stop stop-color="white"/>
<stop offset="0.0656227" stop-color="#D8D8D8"/>
<stop offset="0.1615" stop-color="#A6A6A6"/>
<stop offset="0.2622" stop-color="#797979"/>
<stop offset="0.3658" stop-color="#545454"/>
<stop offset="0.4731" stop-color="#353535"/>
<stop offset="0.5852" stop-color="#1E1E1E"/>
<stop offset="0.7042" stop-color="#0D0D0D"/>
<stop offset="0.835" stop-color="#030303"/>
<stop offset="1"/>
</radialGradient>
<radialGradient id="paint7_radial_1_597" cx="0" cy="0" r="1" gradientUnits="userSpaceOnUse" gradientTransform="translate(29.7232 29.8243) scale(0.848017 2.56931)">
<stop stop-color="white"/>
<stop offset="0.0656227" stop-color="#D8D8D8"/>
<stop offset="0.1615" stop-color="#A6A6A6"/>
<stop offset="0.2622" stop-color="#797979"/>
<stop offset="0.3658" stop-color="#545454"/>
<stop offset="0.4731" stop-color="#353535"/>
<stop offset="0.5852" stop-color="#1E1E1E"/>
<stop offset="0.7042" stop-color="#0D0D0D"/>
<stop offset="0.835" stop-color="#030303"/>
<stop offset="1"/>
</radialGradient>
<radialGradient id="paint8_radial_1_597" cx="0" cy="0" r="1" gradientUnits="userSpaceOnUse" gradientTransform="translate(33.2741 31.8903) scale(0.848018 2.56931)">
<stop stop-color="white"/>
<stop offset="0.0656227" stop-color="#D8D8D8"/>
<stop offset="0.1615" stop-color="#A6A6A6"/>
<stop offset="0.2622" stop-color="#797979"/>
<stop offset="0.3658" stop-color="#545454"/>
<stop offset="0.4731" stop-color="#353535"/>
<stop offset="0.5852" stop-color="#1E1E1E"/>
<stop offset="0.7042" stop-color="#0D0D0D"/>
<stop offset="0.835" stop-color="#030303"/>
<stop offset="1"/>
</radialGradient>
<radialGradient id="paint9_radial_1_597" cx="0" cy="0" r="1" gradientUnits="userSpaceOnUse" gradientTransform="translate(36.8564 33.9559) scale(0.848013 2.56931)">
<stop stop-color="white"/>
<stop offset="0.0656227" stop-color="#D8D8D8"/>
<stop offset="0.1615" stop-color="#A6A6A6"/>
<stop offset="0.2622" stop-color="#797979"/>
<stop offset="0.3658" stop-color="#545454"/>
<stop offset="0.4731" stop-color="#353535"/>
<stop offset="0.5852" stop-color="#1E1E1E"/>
<stop offset="0.7042" stop-color="#0D0D0D"/>
<stop offset="0.835" stop-color="#030303"/>
<stop offset="1"/>
</radialGradient>
<radialGradient id="paint10_radial_1_597" cx="0" cy="0" r="1" gradientUnits="userSpaceOnUse" gradientTransform="translate(40.4068 35.9891) scale(0.848013 2.56931)">
<stop stop-color="white"/>
<stop offset="0.0656227" stop-color="#D8D8D8"/>
<stop offset="0.1615" stop-color="#A6A6A6"/>
<stop offset="0.2622" stop-color="#797979"/>
<stop offset="0.3658" stop-color="#545454"/>
<stop offset="0.4731" stop-color="#353535"/>
<stop offset="0.5852" stop-color="#1E1E1E"/>
<stop offset="0.7042" stop-color="#0D0D0D"/>
<stop offset="0.835" stop-color="#030303"/>
<stop offset="1"/>
</radialGradient>
<radialGradient id="paint11_radial_1_597" cx="0" cy="0" r="1" gradientUnits="userSpaceOnUse" gradientTransform="translate(43.9572 38.0549) scale(0.848013 2.5693)">
<stop stop-color="white"/>
<stop offset="0.0656227" stop-color="#D8D8D8"/>
<stop offset="0.1615" stop-color="#A6A6A6"/>
<stop offset="0.2622" stop-color="#797979"/>
<stop offset="0.3658" stop-color="#545454"/>
<stop offset="0.4731" stop-color="#353535"/>
<stop offset="0.5852" stop-color="#1E1E1E"/>
<stop offset="0.7042" stop-color="#0D0D0D"/>
<stop offset="0.835" stop-color="#030303"/>
<stop offset="1"/>
</radialGradient>
<clipPath id="clip0_1_597">
<rect width="40.3481" height="75" fill="white" transform="translate(19.7536)"/>
</clipPath>
</defs>
</svg>
