<svg width="75" height="75" viewBox="0 0 75 75" fill="none" xmlns="http://www.w3.org/2000/svg">
<g clip-path="url(#clip0_1_493)">
<path opacity="0.4" d="M40.6167 75.2637C58.5764 75.2637 73.1355 60.7046 73.1355 42.7449C73.1355 24.7852 58.5764 10.226 40.6167 10.226C22.657 10.226 8.09781 24.7852 8.09781 42.7449C8.09781 60.7046 22.657 75.2637 40.6167 75.2637Z" fill="url(#paint0_linear_1_493)"/>
<path opacity="0.4" d="M6.87673 12.2583C9.57068 12.2583 11.7546 10.0744 11.7546 7.38045C11.7546 4.6865 9.57068 2.50262 6.87673 2.50262C4.18278 2.50262 1.9989 4.6865 1.9989 7.38045C1.9989 10.0744 4.18278 12.2583 6.87673 12.2583Z" fill="url(#paint1_linear_1_493)"/>
<g opacity="0.15">
<path d="M14.9251 45.3031L14.9522 47.8526C14.9522 47.8794 14.9793 47.9339 15.0064 47.9339L42.8614 63.6377C42.9427 63.6922 43.1053 63.6921 43.2138 63.6109L47.7161 60.9528C47.7706 60.9256 47.7974 60.8984 47.7974 60.8443L47.7706 58.2676L45.6007 59.5423L19.9156 45.0588C19.8343 45.0048 19.6715 45.0048 19.563 45.0861L18.017 46.008L14.9251 45.3031Z" fill="url(#paint2_linear_1_493)"/>
<path d="M19.8651 42.5094L47.7201 58.2131C47.8014 58.2672 47.8014 58.3489 47.6928 58.4302L43.1906 61.0882C43.0821 61.1423 42.9191 61.1695 42.8378 61.1154L14.9831 45.4113C14.9017 45.3572 14.9017 45.2759 15.0102 45.1942L19.5125 42.5362C19.621 42.4549 19.7838 42.4549 19.8651 42.5094Z" fill="url(#paint3_linear_1_493)"/>
</g>
<g opacity="0.2">
<path d="M44.3855 27.1313C44.114 24.1207 41.7003 20.6219 38.961 19.3472C37.5776 18.6962 36.4113 18.7234 35.5977 19.2929L34.7569 19.8896H35.0281C34.5941 20.5135 34.4043 21.3813 34.4857 22.4663C34.7298 25.4769 37.1708 28.9757 39.9101 30.2504C40.8593 30.6844 41.7003 30.82 42.4055 30.6573V30.9014L43.2734 30.3047L43.3006 30.2775C44.0872 29.708 44.5209 28.6231 44.3855 27.1313Z" fill="#9FFFD7"/>
<path d="M42.4106 30.9117C44.1679 29.6864 43.8768 26.2328 41.7603 23.1978C39.6441 20.1627 36.5039 18.6957 34.7468 19.9209C32.9896 21.1462 33.2809 24.5998 35.3972 27.6348C37.5135 30.6698 40.6534 32.1369 42.4106 30.9117Z" fill="#16E09E"/>
<path d="M40.6669 30.739C40.1515 30.739 39.5548 30.6034 38.958 30.305C36.517 29.1659 34.3472 26.0468 34.1302 23.3617C34.0217 22.0598 34.3743 21.0291 35.1608 20.4867C35.9203 19.9442 37.0052 19.9714 38.1986 20.5138C40.6397 21.653 42.8095 24.772 43.0265 27.4572C43.1347 28.759 42.7822 29.7897 41.9957 30.3321C41.616 30.6034 41.1819 30.739 40.6669 30.739ZM36.4627 20.2426C35.9745 20.2426 35.5677 20.3782 35.2151 20.6223C34.4828 21.1376 34.1302 22.114 34.2387 23.3617C34.4557 25.9926 36.5983 29.0574 39.0121 30.1965C40.1515 30.739 41.2091 30.739 41.9144 30.2508C42.6465 29.7354 42.9993 28.759 42.8908 27.5114C42.6737 24.8805 40.5311 21.8157 38.1172 20.6765C37.5205 20.3782 36.978 20.2426 36.4627 20.2426Z" fill="#18B271"/>
</g>
<path d="M64 65.1327C66.9291 64.4006 69.994 61.4442 70.8078 58.5419C71.2147 57.0774 70.9976 55.9112 70.3196 55.2059L69.5871 54.4738L69.6144 54.7449C68.9364 54.4193 68.0413 54.3653 66.9836 54.6364C64.0545 55.3689 60.9896 58.3253 60.1758 61.2272C59.8774 62.2308 59.9046 63.0986 60.1758 63.7766L59.9315 63.8039L60.664 64.5632L60.6912 64.5904C61.4233 65.2684 62.5627 65.5127 64 65.1327Z" fill="#9FFFD7"/>
<path d="M67.4851 61.9204C70.1447 59.3486 71.0935 56.015 69.6041 54.4752C68.1151 52.9359 64.7519 53.7728 62.0922 56.3451C59.433 58.9169 58.4843 62.2505 59.9732 63.7903C61.4626 65.3296 64.8255 64.4927 67.4851 61.9204Z" fill="#73F2C8"/>
<path d="M62.3178 63.9937C61.5585 63.9937 60.9073 63.7495 60.4463 63.2885C59.7955 62.6105 59.6325 61.5528 59.9854 60.2781C60.7174 57.7014 63.4572 55.0433 66.0607 54.3926C67.3354 54.067 68.3931 54.2568 69.0715 54.9348C69.7223 55.6128 69.8849 56.6705 69.5325 57.9452C68.8 60.522 66.0607 63.18 63.4572 63.8312C63.0503 63.9397 62.6706 63.9937 62.3178 63.9937ZM67.2269 54.3926C66.8745 54.3926 66.5217 54.4466 66.1152 54.5279C63.5385 55.1791 60.8532 57.7554 60.1207 60.3049C59.7683 61.5256 59.9309 62.5564 60.5276 63.18C61.1516 63.8312 62.1552 63.9938 63.4027 63.6954C65.9794 63.0446 68.6646 60.4679 69.3967 57.9184C69.7496 56.6977 69.5866 55.6673 68.9898 55.0433C68.5829 54.6092 67.9594 54.3926 67.2269 54.3926Z" fill="#18B271"/>
<path d="M36.6402 1.2121L38.7736 0.0103268C38.7964 -0.00268071 38.8545 -0.0061764 38.8675 0.0163836L65.3058 15.6437C65.3903 15.6853 65.4683 15.8207 65.4529 15.95L65.4041 20.9713C65.4074 21.0295 65.398 21.065 65.3529 21.0911L63.1965 22.3059L63.2148 19.8889L38.8338 5.48028C38.7496 5.43866 38.6712 5.3033 38.687 5.174L38.7114 3.44525L36.6402 1.2121Z" fill="url(#paint4_linear_1_493)"/>
<path d="M36.6402 1.2121L38.7736 0.0103268C38.7964 -0.00268071 38.8545 -0.0061764 38.8675 0.0163836L65.3058 15.6437C65.3903 15.6853 65.4683 15.8207 65.4529 15.95L65.4041 20.9713C65.4074 21.0295 65.398 21.065 65.3529 21.0911L63.1965 22.3059L63.2148 19.8889L38.8338 5.48028C38.7496 5.43866 38.6712 5.3033 38.687 5.174L38.7114 3.44525L36.6402 1.2121Z" fill="url(#paint5_radial_1_493)"/>
<path d="M36.6587 6.67171L63.0971 22.2991C63.1813 22.3407 63.2491 22.3016 63.2646 22.1723L63.3134 17.151C63.3065 17.0347 63.2508 16.8863 63.1666 16.8447L36.7281 1.21736C36.6439 1.17574 36.5762 1.2148 36.5607 1.3441L36.5119 6.36542C36.5189 6.48172 36.5615 6.60752 36.6587 6.67171Z" fill="url(#paint6_linear_1_493)"/>
<path d="M63.0842 22.2769L63.0001 22.2352L63.0525 17.2721C63.0456 17.1558 62.9899 17.0074 62.9058 16.9658L36.5514 1.38008L36.5479 1.32196C36.5409 1.20566 36.6312 1.15355 36.7154 1.19517L63.1537 16.8225C63.2379 16.8641 63.3163 16.9995 63.3005 17.1288L63.2517 22.1501C63.2362 22.2794 63.1818 22.3411 63.0842 22.2769Z" fill="white"/>
<path opacity="0.6" d="M40.3401 5.69281L60.9127 18.0893C60.2689 18.6415 59.664 19.2613 59.0986 19.9488L38.3715 7.70162C38.9788 6.92991 39.6381 6.24844 40.3401 5.69281Z" fill="#24126A"/>
<path d="M37.4485 5.16598L62.3739 19.8921C62.4227 19.9242 62.4902 19.8852 62.4739 19.8044L62.4906 18.5313C62.4967 18.4376 62.4447 18.3473 62.3735 18.3283L37.448 3.60215C37.3994 3.57008 37.3317 3.60914 37.3482 3.68983L37.3313 4.96299C37.3347 5.02111 37.3869 5.11135 37.4485 5.16598Z" fill="#24126A"/>
<path d="M37.4611 3.62439L37.9697 3.93234L37.963 4.59796C37.9569 4.6917 38.009 4.78194 38.0802 4.801L62.5101 19.2418L62.5093 19.8137C62.5032 19.9074 62.4581 19.9335 62.4097 19.9013L37.4841 5.17521C37.4355 5.14314 37.3834 5.0529 37.3669 4.97217L37.3838 3.69906C37.3448 3.63138 37.3994 3.56976 37.4611 3.62439Z" fill="#453C9E"/>
<path opacity="0.7" d="M47.099 72.4756L26.3589 60.2058C29.6205 58.353 32.279 53.8402 32.3464 50.1014L32.6828 16.8199C32.7344 12.4287 35.8803 7.09309 39.6964 4.95001L60.4231 17.1972C56.5847 19.3533 53.4613 24.6759 53.4096 29.0671L53.0735 62.3488C53.019 66.11 50.3378 70.6358 47.099 72.4756Z" fill="url(#paint7_linear_1_493)"/>
<path d="M47.099 72.4756L26.3589 60.2058C29.6205 58.353 32.279 53.8402 32.3464 50.1014L32.6828 16.8199C32.7344 12.4287 35.8803 7.09309 39.6964 4.95001L60.4231 17.1972C56.5847 19.3533 53.4613 24.6759 53.4096 29.0671L53.0735 62.3488C53.019 66.11 50.3378 70.6358 47.099 72.4756Z" fill="url(#paint8_linear_1_493)"/>
<path opacity="0.8" d="M39.6884 4.92688L60.4156 17.1741C60.2574 17.2653 60.077 17.3695 59.9323 17.4832L39.2051 5.23601C39.3503 5.12228 39.5307 5.01805 39.6884 4.92688Z" fill="#453C9E"/>
<g opacity="0.8">
<path d="M46.2097 41.0762L50.3111 43.4911L50.3184 43.0354L46.2174 40.6209L46.2097 41.0762Z" fill="white"/>
<path d="M44.1149 39.8484L45.6015 40.7045L45.5868 40.2618L44.1223 39.3928L44.1149 39.8484Z" fill="white"/>
<path d="M42.5047 38.8835L43.5087 39.477L43.5035 38.9989L42.512 38.4282L42.5047 38.8835Z" fill="white"/>
<path d="M48.055 43.2292L50.2805 44.5311L50.2883 44.0755L48.0627 42.7735L48.055 43.2292Z" fill="white"/>
<path d="M44.7134 41.2485L47.4479 42.8581L47.4556 42.4025L44.7212 40.7928L44.7134 41.2485Z" fill="white"/>
<path d="M43.0818 40.2964L44.0859 40.8894L44.0806 40.4114L43.0891 39.8407L43.0818 40.2964Z" fill="white"/>
<path d="M41.5571 39.3719L42.5481 39.9426L42.5335 39.5L41.5648 38.9163L41.5571 39.3719Z" fill="white"/>
<path d="M48.6753 44.6167L50.2858 45.5821L50.2931 45.1268L48.6606 44.1744L48.6753 44.6167Z" fill="white"/>
<path d="M47.4993 43.9399L48.0436 44.2573L48.0509 43.8017L47.5066 43.4842L47.4993 43.9399Z" fill="white"/>
<path d="M45.8677 42.9878L46.8721 43.5809L46.8664 43.1029L45.8754 42.5322L45.8677 42.9878Z" fill="white"/>
<path d="M44.3216 43.1268L50.2632 46.6445L50.2579 46.1665L44.3293 42.6711L44.3216 43.1268Z" fill="white"/>
<path d="M42.2197 41.8763L43.6839 42.7454L43.6916 42.2897L42.227 41.4207L42.2197 41.8763Z" fill="white"/>
<path d="M48.6588 46.7303L50.2559 47.6733L50.2636 47.2177L48.6535 46.2523L48.6588 46.7303Z" fill="white"/>
<path d="M44.8773 44.4956L48.0227 46.3492L48.0304 45.8936L44.885 44.04L44.8773 44.4956Z" fill="white"/>
<path d="M43.2386 43.5427L44.243 44.1362L44.2377 43.6577L43.2463 43.087L43.2386 43.5427Z" fill="white"/>
<path d="M46.9507 46.7863L50.2424 48.7358L50.2497 48.2805L46.9584 46.3306L46.9507 46.7863Z" fill="white"/>
<path d="M43.9368 45.006L46.344 46.4136L46.3383 45.9356L43.9446 44.5503L43.9368 45.006Z" fill="white"/>
<path d="M41.6996 43.6816L43.3325 44.634L43.3402 44.1783L41.7073 43.226L41.6996 43.6816Z" fill="white"/>
<path d="M49.1309 49.1054L50.2325 49.7627L50.2402 49.3071L49.1386 48.6498L49.1309 49.1054Z" fill="white"/>
<path d="M47.0362 47.8773L48.5003 48.7464L48.508 48.2907L47.0439 47.4216L47.0362 47.8773Z" fill="white"/>
<path d="M44.0223 46.0974L46.3938 47.4957L46.4015 47.0401L44.03 45.6422L44.0223 46.0974Z" fill="white"/>
<path d="M46.8082 48.7893L50.2324 50.8128L50.2401 50.3571L46.8159 48.3336L46.8082 48.7893Z" fill="white"/>
<path d="M42.9892 46.5449L46.1834 48.4306L46.1911 47.9749L42.9969 46.0892L42.9892 46.5449Z" fill="white"/>
<path d="M41.379 45.5795L42.3834 46.173L42.3911 45.7173L41.3867 45.1238L41.379 45.5795Z" fill="white"/>
<path d="M39.831 44.6685L40.7997 45.2522L40.8074 44.797L39.8258 44.1905L39.831 44.6685Z" fill="white"/>
<path d="M48.1619 50.6569L50.2057 51.8532L50.2134 51.3975L48.1696 50.2012L48.1619 50.6569Z" fill="white"/>
<path d="M37.9334 36.1697L35.1019 34.4958L35.1096 34.0402L37.941 35.7145L37.9334 36.1697Z" fill="white"/>
<path d="M37.3061 36.8612L35.0806 35.5592L35.0882 35.1036L37.3138 36.4055L37.3061 36.8612Z" fill="white"/>
<path d="M36.6836 37.552L35.0734 36.587L35.0811 36.1313L36.6913 37.0968L36.6836 37.552Z" fill="white"/>
<path d="M37.4176 39.0251L35.0592 37.6495L35.0669 37.1938L37.4252 38.5694L37.4176 39.0251Z" fill="white"/>
<path d="M36.6546 39.6426L35.0574 38.6996L35.0521 38.2216L36.6622 39.187L36.6546 39.6426Z" fill="white"/>
<path d="M37.0748 40.9361L35.0307 39.7398L35.0383 39.2841L37.0825 40.4804L37.0748 40.9361Z" fill="white"/>
<path d="M36.1393 41.4484L35.0378 40.7907L35.0455 40.335L36.147 40.9927L36.1393 41.4484Z" fill="white"/>
<path d="M37.178 43.1013L35.0236 41.8185L35.0312 41.3628L37.1856 42.6457L37.178 43.1013Z" fill="white"/>
<path d="M37.0535 44.0777L35.0093 42.8814L35.017 42.4261L37.0611 43.622L37.0535 44.0777Z" fill="white"/>
<path d="M46.687 49.7663L47.5585 50.2862L47.5663 49.8305L46.6948 49.3106L46.687 49.7663Z" fill="white"/>
<path d="M44.0936 48.2532L46.0532 49.4076L46.061 48.9519L44.1013 47.7975L44.0936 48.2532Z" fill="white"/>
<path d="M41.8065 52.3695L45.0978 54.3191L45.1055 53.8638L41.8142 51.9139L41.8065 52.3695Z" fill="white"/>
<path d="M39.5336 51.0354L40.8523 51.8081L40.8596 51.3524L39.5414 50.5797L39.5336 51.0354Z" fill="white"/>
</g>
<g opacity="0.8">
<path d="M46.3127 30.9985L50.4011 33.3908L50.4088 32.9351L46.3074 30.5203L46.3127 30.9985Z" fill="white"/>
<path d="M44.2127 29.7478L45.6996 30.6039L45.7073 30.1482L44.2204 29.2922L44.2127 29.7478Z" fill="white"/>
<path d="M42.6024 28.7832L43.6069 29.3765L43.6146 28.9209L42.6102 28.3276L42.6024 28.7832Z" fill="white"/>
<path d="M48.167 33.1162L50.3832 34.4535L50.3909 33.9983L48.1747 32.6605L48.167 33.1162Z" fill="white"/>
<path d="M44.804 31.147L47.5381 32.7568L47.5458 32.3011L44.8118 30.6913L44.804 31.147Z" fill="white"/>
<path d="M43.1938 30.1816L44.1978 30.7749L44.1832 30.3323L43.2015 29.726L43.1938 30.1816Z" fill="white"/>
<path d="M41.6477 29.2714L42.6521 29.8646L42.6599 29.409L41.6554 28.8157L41.6477 29.2714Z" fill="white"/>
<path d="M48.7797 34.5385L50.3768 35.4811L50.3845 35.0259L48.7875 34.0828L48.7797 34.5385Z" fill="white"/>
<path d="M47.597 33.8393L48.1543 34.1792L48.162 33.7235L47.6047 33.3837L47.597 33.8393Z" fill="white"/>
<path d="M45.9583 32.8868L46.9627 33.4803L46.9704 33.0246L45.966 32.4316L45.9583 32.8868Z" fill="white"/>
<path d="M44.4193 33.0262L50.3833 36.5314L50.3682 36.0887L44.4266 32.5706L44.4193 33.0262Z" fill="white"/>
<path d="M42.3246 31.798L43.8115 32.6543L43.8192 32.1986L42.3323 31.3424L42.3246 31.798Z" fill="white"/>
<path d="M38.0382 26.0924L35.2068 24.4184L35.2145 23.9628L38.0459 25.6368L38.0382 26.0924Z" fill="white"/>
<path d="M37.4169 26.7831L35.1783 25.4586L35.186 25.003L37.4245 26.3274L37.4169 26.7831Z" fill="white"/>
<path d="M36.7754 27.4515L35.1783 26.5086L35.186 26.053L36.7831 26.9958L36.7754 27.4515Z" fill="white"/>
<path d="M37.5081 28.9245L35.1498 27.5488L35.1574 27.0933L37.5158 28.4689L37.5081 28.9245Z" fill="white"/>
</g>
<path d="M14.7621 44.1475C14.7621 41.1098 12.6465 37.4482 10.0157 35.9291C8.71379 35.1698 7.52039 35.0885 6.6525 35.6039L5.75742 36.1189L6.02866 36.1462C5.56759 36.7157 5.26923 37.5839 5.26923 38.6688C5.26923 41.7065 7.38478 45.3677 10.0157 46.8868C10.9107 47.4022 11.7515 47.592 12.4838 47.5107L12.4567 47.7546L13.3789 47.2124L13.406 47.1851C14.2468 46.6969 14.7621 45.6393 14.7621 44.1475Z" fill="#9FFFD7"/>
<path d="M12.4647 47.7506C14.3197 46.6795 14.3238 43.2138 12.4739 40.0095C10.6239 36.8056 7.62042 35.0764 5.76543 36.1475C3.91043 37.2186 3.90632 40.6843 5.75628 43.8882C7.6062 47.0921 10.6097 48.8213 12.4647 47.7506Z" fill="#73F2C8"/>
<path d="M11.0144 47.5388C10.4177 47.5388 9.76678 47.3486 9.06156 46.9421C6.6748 45.5588 4.74911 42.2228 4.74911 39.4831C4.74911 38.127 5.21019 37.1507 6.02386 36.6625C6.86463 36.1743 7.94954 36.2828 9.11583 36.9608C11.5026 38.3441 13.4283 41.6801 13.4283 44.4194C13.4283 45.7486 12.9672 46.7523 12.1535 47.2404C11.8281 47.4303 11.4212 47.5388 11.0144 47.5388ZM7.19014 36.4999C6.78329 36.4999 6.43071 36.5812 6.10523 36.771C5.31868 37.2319 4.88472 38.1815 4.88472 39.4831C4.88472 42.1683 6.78329 45.4771 9.11583 46.8335C10.2279 47.4843 11.2856 47.5929 12.0722 47.1319C12.8587 46.6706 13.2927 45.7214 13.2927 44.4194C13.2927 41.7346 11.3941 38.4254 9.06156 37.0694C8.41062 36.6897 7.78682 36.4999 7.19014 36.4999Z" fill="#18B271"/>
<path d="M32.2654 60.6591C31.5935 60.2725 31.6039 59.6547 32.2767 59.2665C32.9494 58.8779 34.0094 58.8775 34.6813 59.2644C35.3531 59.651 35.3427 60.2689 34.6699 60.6571C33.9972 61.0457 32.9196 61.0156 32.2654 60.6591Z" fill="url(#paint9_linear_1_493)"/>
<path d="M32.2606 60.5799C32.9325 60.9669 33.9925 60.9665 34.6653 60.5779C34.9711 60.4015 35.1628 60.1686 35.1485 59.932C35.1804 60.1991 35.0064 60.4625 34.6394 60.6747C33.9666 61.0628 32.9067 61.0633 32.2348 60.6767C31.8748 60.4767 31.7159 60.2015 31.7323 59.9475C31.777 60.1661 31.9488 60.393 32.2606 60.5799Z" fill="white"/>
<path d="M32.2582 63.9659C31.5864 63.5793 31.5968 62.9615 32.2695 62.5733C32.9423 62.1847 34.0023 62.1843 34.6741 62.5713C35.346 62.9578 35.3356 63.5757 34.6628 63.9639C33.99 64.3525 32.9301 64.3529 32.2582 63.9659Z" fill="url(#paint10_linear_1_493)"/>
<path d="M32.2582 67.3521C31.5864 66.9651 31.5968 66.3477 32.2695 65.9591C32.9423 65.5709 34.0023 65.5705 34.6741 65.9571C35.346 66.344 35.3356 66.9615 34.6628 67.3501C34.0206 67.7208 32.9301 67.7387 32.2582 67.3521Z" fill="url(#paint11_linear_1_493)"/>
<path d="M35.1683 59.9628L35.1607 58.2547C35.1443 58.5088 35.0009 58.7547 34.6645 58.949C33.9917 59.3376 32.9317 59.3376 32.2599 58.951C31.9481 58.764 31.7762 58.5368 31.7444 58.2697L31.7162 50.9469L35.1324 50.9315L35.1887 72.4281C35.1973 73.3609 34.4211 74.1353 33.4882 74.1438C32.5553 74.1524 31.781 73.3764 31.7725 72.4435L31.7553 66.6226C31.7389 66.8767 31.8978 67.1519 32.2579 67.3519C32.9297 67.7384 33.9896 67.738 34.6625 67.3498C34.9988 67.1555 35.1728 66.8921 35.1587 66.6555L35.1511 64.9475C35.1347 65.2016 34.9912 65.4475 34.6549 65.6418C33.982 66.03 32.9221 66.0304 32.2503 65.6434C31.9384 65.4564 31.7666 65.2296 31.7347 64.9625L31.7271 63.2545C31.7108 63.5085 31.8697 63.7837 32.2297 63.9837C32.9016 64.3703 33.9615 64.3703 34.6343 63.9817C34.9707 63.7874 35.1447 63.524 35.1305 63.2874L35.1229 61.5794C35.1065 61.8334 34.9631 62.0793 34.6267 62.2736C33.9539 62.6618 32.894 62.6622 32.2221 62.2757C31.9103 62.0887 31.7385 61.8615 31.7066 61.5944L31.7038 59.9652C31.6874 60.2193 31.8463 60.4944 32.2063 60.6944C32.8782 61.0814 33.9381 61.081 34.6109 60.6924C35.0085 60.4627 35.1825 60.1993 35.1683 59.9628Z" fill="#BCBEFF"/>
<path d="M32.2536 63.8868C32.9254 64.2737 33.9854 64.2733 34.6581 63.8851C34.9639 63.7083 35.1556 63.4754 35.1415 63.2388C35.1733 63.5059 34.9993 63.7697 34.6323 63.9815C33.9595 64.3701 32.8996 64.3701 32.2277 63.9835C31.8677 63.7835 31.7088 63.5083 31.7251 63.2543C31.7699 63.473 31.9418 63.6998 32.2536 63.8868Z" fill="white"/>
<path d="M32.2536 67.2729C32.9254 67.6594 33.9854 67.6594 34.6581 67.2708C34.964 67.0944 35.1556 66.8611 35.1415 66.6249C35.1733 66.892 34.9993 67.1554 34.6323 67.3672C33.9595 67.7558 32.8996 67.7562 32.2277 67.3692C31.8677 67.1692 31.7088 66.894 31.7251 66.64C31.8005 66.8412 31.9418 67.0859 32.2536 67.2729Z" fill="white"/>
<path opacity="0.48" d="M32.2403 58.9199C32.9122 59.3069 33.9721 59.3064 34.6449 58.9178C34.9813 58.7239 35.1553 58.4601 35.1411 58.2236L35.1487 59.932C35.1324 60.1861 34.9889 60.432 34.6525 60.6263C33.9797 61.0145 32.9198 61.0149 32.2479 60.6279C31.8879 60.4283 31.7467 60.1836 31.7454 59.8987L31.7554 58.2211C31.7567 58.5061 31.9285 58.7329 32.2403 58.9199Z" fill="url(#paint12_linear_1_493)"/>
<path opacity="0.48" d="M32.2546 62.2579C32.9264 62.6449 33.9864 62.6445 34.6592 62.2559C34.9956 62.0616 35.1696 61.7982 35.1554 61.5616L35.163 63.27C35.1466 63.5241 35.0032 63.77 34.6668 63.9643C33.994 64.3525 32.934 64.3529 32.2622 63.9659C31.9021 63.7664 31.7609 63.5217 31.7596 63.2367L31.7697 61.5591C31.7533 61.8132 31.9251 62.0404 32.2546 62.2579Z" fill="url(#paint13_linear_1_493)"/>
<path opacity="0.48" d="M32.2617 65.5946C32.9336 65.9816 33.9935 65.9812 34.6663 65.5926C35.0026 65.3987 35.1767 65.1349 35.1625 64.8987L35.1701 66.6068C35.1537 66.8608 35.0103 67.1068 34.6739 67.3011C34.0011 67.6893 32.9412 67.6897 32.2693 67.3031C31.9093 67.1031 31.768 66.8584 31.7667 66.5739L31.7768 64.8963C31.778 65.1808 31.9193 65.4255 32.2617 65.5946Z" fill="url(#paint14_linear_1_493)"/>
<path d="M39.5937 48.276C39.6852 48.2231 39.7466 48.1878 39.8384 48.1345L40.6628 43.4181L39.6055 37.1379L36.6786 33.9754L33.6566 31.0716L28.8868 29.0956L28.7727 29.0392C28.5586 29.1628 28.3446 29.2864 28.1481 29.4406C26.9693 29.3057 25.7728 29.1401 24.5635 29.0229C24.7715 28.5358 24.9973 28.0792 25.2583 27.6839L24.6747 27.45L26.8154 26.2141C26.846 26.1964 26.8766 26.1788 26.8766 26.1788L26.9683 26.1258C28.8079 25.1453 31.3008 25.2962 34.0541 26.887C39.723 30.138 44.2785 38.0281 44.2899 44.5453C44.2781 47.7732 43.1797 50.0381 41.3628 51.1283C41.3323 51.1458 41.3323 51.1458 41.3014 51.1637L39.0385 52.4701L39.1405 51.7994C38.8734 51.8311 38.5713 51.8018 38.256 51.8209C38.9519 50.7665 39.7962 49.545 39.5937 48.276Z" fill="url(#paint15_linear_1_493)"/>
<path d="M23.9038 33.1127C23.8991 33.0338 23.8944 32.955 23.9026 32.8281C23.9092 31.3564 24.1487 30.0764 24.5601 29.0233C25.739 29.1582 26.9354 29.3238 28.1448 29.441C26.9969 30.3484 26.3034 31.972 26.3088 34.1708C26.3221 39.1376 29.818 45.1926 34.1433 47.6698C36.273 48.8868 38.1788 49.0095 39.6033 48.2283C39.7882 49.4668 38.9439 50.6883 38.3315 51.8167C37.3938 51.7464 36.3503 51.4923 35.2926 51.0021L35.6315 51.3773C35.6315 51.3773 31.3983 49.9071 31.2971 49.8026C31.1959 49.6977 26.2463 44.7268 26.2463 44.7268L22.996 37.7552L23.9038 33.1127Z" fill="url(#paint16_linear_1_493)"/>
<path opacity="0.5" d="M24.934 35.2497C24.9206 30.283 28.4069 28.2702 32.7321 30.7476C37.0574 33.225 40.5533 39.28 40.5668 44.2469C40.5802 49.2133 37.0938 51.2262 32.7685 48.7491C28.4432 46.2716 24.9473 40.2166 24.934 35.2497Z" fill="url(#paint17_linear_1_493)"/>
<path opacity="0.48" d="M25.6251 34.8918C25.6118 29.925 29.098 27.9122 33.4233 30.3895C37.7486 32.8666 41.2444 38.9221 41.2578 43.8885C41.2712 48.8554 37.785 50.8683 33.4597 48.3911C29.1344 45.9136 25.6079 39.8761 25.6251 34.8918Z" fill="url(#paint18_linear_1_493)"/>
<path d="M21.6708 34.1164C21.6823 40.634 26.2858 48.5365 31.9065 51.7746C37.5755 55.0256 42.1145 52.3644 42.1031 45.8472C42.0913 39.3296 37.4879 31.4269 31.8672 28.1888C26.2158 24.9685 21.6593 27.5992 21.6708 34.1164ZM24.064 35.5074C24.0507 30.5406 27.5369 28.5278 31.8622 31.0052C36.1875 33.4823 39.6833 39.5377 39.6967 44.5042C39.7101 49.471 36.2239 51.4839 31.8986 49.0068C27.5733 46.5293 24.095 40.5047 24.064 35.5074Z" fill="#BCBEFF"/>
<path d="M21.6708 34.1164C21.6823 40.634 26.2858 48.5365 31.9065 51.7746C37.5755 55.0256 42.1145 52.3644 42.1031 45.8472C42.0913 39.3296 37.4879 31.4269 31.8672 28.1888C26.2158 24.9685 21.6593 27.5992 21.6708 34.1164ZM24.064 35.5074C24.0507 30.5406 27.5369 28.5278 31.8622 31.0052C36.1875 33.4823 39.6833 39.5377 39.6967 44.5042C39.7101 49.471 36.2239 51.4839 31.8986 49.0068C27.5733 46.5293 24.095 40.5047 24.064 35.5074Z" fill="#BCBEFF"/>
<path d="M41.946 46.062C41.9346 39.5448 37.3311 31.642 31.7103 28.404C28.2369 26.4134 25.1807 26.6285 23.3237 28.6384C25.1406 26.4885 28.3015 26.1722 31.8585 28.2368C37.5275 31.4878 42.0826 39.3777 42.0944 45.8949C42.1009 48.3785 41.4261 50.3175 40.2843 51.5882C41.3476 50.322 41.9785 48.4493 41.946 46.062Z" fill="white"/>
<path d="M31.7497 49.1739C27.4244 46.6968 23.9285 40.6418 23.9151 35.6749C23.911 33.7608 24.4387 32.2735 25.3148 31.3193C24.5175 32.269 24.0639 33.6726 24.0633 35.5079C24.0767 40.4743 27.5726 46.5297 31.8978 49.0069C34.537 50.5413 36.8663 50.3381 38.2963 48.8601C36.8934 50.5263 34.503 50.7649 31.7497 49.1739Z" fill="white"/>
</g>
<defs>
<linearGradient id="paint0_linear_1_493" x1="18.6664" y1="0.543399" x2="56.4696" y2="70.0526" gradientUnits="userSpaceOnUse">
<stop stop-color="#7C4EFF"/>
<stop offset="0.904355" stop-color="#7C4EFF" stop-opacity="0"/>
</linearGradient>
<linearGradient id="paint1_linear_1_493" x1="3.5842" y1="1.05023" x2="9.25467" y2="11.4766" gradientUnits="userSpaceOnUse">
<stop stop-color="#7C4EFF"/>
<stop offset="0.904355" stop-color="#7C4EFF" stop-opacity="0"/>
</linearGradient>
<linearGradient id="paint2_linear_1_493" x1="48.9323" y1="53.8922" x2="18.7718" y2="54.7019" gradientUnits="userSpaceOnUse">
<stop stop-color="#5761D7"/>
<stop offset="0.0397918" stop-color="#5C66D9"/>
<stop offset="0.086699" stop-color="#6A73DF"/>
<stop offset="0.1372" stop-color="#8289E8"/>
<stop offset="0.1899" stop-color="#A3A7F5"/>
<stop offset="0.2237" stop-color="#BCBEFF"/>
</linearGradient>
<linearGradient id="paint3_linear_1_493" x1="39.8627" y1="38.349" x2="28.4118" y2="56.4449" gradientUnits="userSpaceOnUse">
<stop stop-color="#C0BFF6"/>
<stop offset="0.2938" stop-color="#C5C4F7"/>
<stop offset="0.6399" stop-color="#D3D2F9"/>
<stop offset="1" stop-color="#E9E9FD"/>
</linearGradient>
<linearGradient id="paint4_linear_1_493" x1="60.097" y1="25.3765" x2="46.2867" y2="-0.0988151" gradientUnits="userSpaceOnUse">
<stop stop-color="#5761D7"/>
<stop offset="0.0397918" stop-color="#5C66D9"/>
<stop offset="0.086699" stop-color="#6A73DF"/>
<stop offset="0.1372" stop-color="#8289E8"/>
<stop offset="0.1899" stop-color="#A3A7F5"/>
<stop offset="0.2237" stop-color="#BCBEFF"/>
</linearGradient>
<radialGradient id="paint5_radial_1_493" cx="0" cy="0" r="1" gradientUnits="userSpaceOnUse" gradientTransform="translate(68.8162 19.9215) rotate(-179.417) scale(23.375 23.375)">
<stop stop-color="#16E09E"/>
<stop offset="0.0167089" stop-color="#43E0DE"/>
<stop offset="0.1117" stop-color="#47D1C0"/>
<stop offset="0.2141" stop-color="#4BB1C7"/>
<stop offset="0.3237" stop-color="#4E7FBE"/>
<stop offset="0.4431" stop-color="#506BB7"/>
<stop offset="0.5775" stop-color="#525CB3"/>
<stop offset="0.7389" stop-color="#5354B0"/>
<stop offset="1" stop-color="#5351AF"/>
</radialGradient>
<linearGradient id="paint6_linear_1_493" x1="42.8058" y1="25.293" x2="52.3586" y2="7.07836" gradientUnits="userSpaceOnUse">
<stop stop-color="#C0BFF6"/>
<stop offset="0.2938" stop-color="#C5C4F7"/>
<stop offset="0.6399" stop-color="#D3D2F9"/>
<stop offset="1" stop-color="#E9E9FD"/>
</linearGradient>
<linearGradient id="paint7_linear_1_493" x1="28.7808" y1="63.7243" x2="58.6537" y2="12.0292" gradientUnits="userSpaceOnUse">
<stop stop-color="#C0BFF6"/>
<stop offset="0.1172" stop-color="#D0CFF9"/>
<stop offset="0.2627" stop-color="#E9E9FD"/>
<stop offset="0.5143" stop-color="#C0BFF6"/>
<stop offset="0.6217" stop-color="#D0CFF9"/>
<stop offset="0.755" stop-color="#E9E9FD"/>
<stop offset="1" stop-color="#C0BFF6"/>
</linearGradient>
<linearGradient id="paint8_linear_1_493" x1="25.206" y1="13.3882" x2="62.5743" y2="64.4011" gradientUnits="userSpaceOnUse">
<stop stop-color="#5761D7"/>
<stop offset="0.1779" stop-color="#5C66D9"/>
<stop offset="0.3876" stop-color="#6A73DF"/>
<stop offset="0.6134" stop-color="#8289E8"/>
<stop offset="0.849" stop-color="#A3A7F5"/>
<stop offset="1" stop-color="#BCBEFF"/>
</linearGradient>
<linearGradient id="paint9_linear_1_493" x1="34.6617" y1="59.2518" x2="33.4581" y2="61.3456" gradientUnits="userSpaceOnUse">
<stop stop-color="#5761D7"/>
<stop offset="0.1645" stop-color="#5E67DA"/>
<stop offset="0.4051" stop-color="#727AE2"/>
<stop offset="0.6924" stop-color="#9297EE"/>
<stop offset="1" stop-color="#BCBEFF"/>
</linearGradient>
<linearGradient id="paint10_linear_1_493" x1="34.6679" y1="62.5684" x2="33.4643" y2="64.6618" gradientUnits="userSpaceOnUse">
<stop stop-color="#5761D7"/>
<stop offset="0.1645" stop-color="#5E67DA"/>
<stop offset="0.4051" stop-color="#727AE2"/>
<stop offset="0.6924" stop-color="#9297EE"/>
<stop offset="1" stop-color="#BCBEFF"/>
</linearGradient>
<linearGradient id="paint11_linear_1_493" x1="34.6766" y1="65.9432" x2="33.4731" y2="68.0371" gradientUnits="userSpaceOnUse">
<stop stop-color="#5761D7"/>
<stop offset="0.1645" stop-color="#5E67DA"/>
<stop offset="0.4051" stop-color="#727AE2"/>
<stop offset="0.6924" stop-color="#9297EE"/>
<stop offset="1" stop-color="#BCBEFF"/>
</linearGradient>
<linearGradient id="paint12_linear_1_493" x1="35.162" y1="59.578" x2="31.7482" y2="59.5845" gradientUnits="userSpaceOnUse">
<stop stop-color="#16E09E"/>
<stop offset="0.1507" stop-color="#43E3BD"/>
<stop offset="0.3285" stop-color="#45D5DF"/>
<stop offset="0.5199" stop-color="#49BDDD"/>
<stop offset="0.7209" stop-color="#4E9CDB"/>
<stop offset="0.9274" stop-color="#5472D8"/>
<stop offset="1" stop-color="#5761D7"/>
</linearGradient>
<linearGradient id="paint13_linear_1_493" x1="35.172" y1="62.8953" x2="31.7581" y2="62.9014" gradientUnits="userSpaceOnUse">
<stop stop-color="#16E09E"/>
<stop offset="0.1507" stop-color="#43E3B3"/>
<stop offset="0.3285" stop-color="#45D5DF"/>
<stop offset="0.5199" stop-color="#49BDDD"/>
<stop offset="0.7209" stop-color="#4E9CDB"/>
<stop offset="0.9274" stop-color="#5472D8"/>
<stop offset="1" stop-color="#5761D7"/>
</linearGradient>
<linearGradient id="paint14_linear_1_493" x1="35.1749" y1="66.269" x2="31.761" y2="66.2755" gradientUnits="userSpaceOnUse">
<stop stop-color="#16E09E"/>
<stop offset="0.1507" stop-color="#43E3C6"/>
<stop offset="0.3285" stop-color="#45D5DF"/>
<stop offset="0.5199" stop-color="#49BDDD"/>
<stop offset="0.7209" stop-color="#4E9CDB"/>
<stop offset="0.9274" stop-color="#5472D8"/>
<stop offset="1" stop-color="#5761D7"/>
</linearGradient>
<linearGradient id="paint15_linear_1_493" x1="45.6874" y1="44.9696" x2="23.6014" y2="32.221" gradientUnits="userSpaceOnUse">
<stop stop-color="#BCBEFF"/>
<stop offset="0.3076" stop-color="#9297EE"/>
<stop offset="0.5949" stop-color="#727AE2"/>
<stop offset="0.8355" stop-color="#5E67DA"/>
<stop offset="1" stop-color="#5761D7"/>
</linearGradient>
<linearGradient id="paint16_linear_1_493" x1="21.4711" y1="33.6736" x2="41.3613" y2="48.1795" gradientUnits="userSpaceOnUse">
<stop stop-color="#5761D7"/>
<stop offset="0.1645" stop-color="#5E67DA"/>
<stop offset="0.4051" stop-color="#727AE2"/>
<stop offset="0.6924" stop-color="#9297EE"/>
<stop offset="1" stop-color="#BCBEFF"/>
</linearGradient>
<linearGradient id="paint17_linear_1_493" x1="40.5432" y1="39.7316" x2="24.9351" y2="39.7609" gradientUnits="userSpaceOnUse">
<stop stop-color="#16E09E"/>
<stop offset="0.1507" stop-color="#43E3B3"/>
<stop offset="0.3285" stop-color="#45D5DF"/>
<stop offset="0.5199" stop-color="#49BDDD"/>
<stop offset="0.7209" stop-color="#4E9CDB"/>
<stop offset="0.9274" stop-color="#5472D8"/>
<stop offset="1" stop-color="#5761D7"/>
</linearGradient>
<linearGradient id="paint18_linear_1_493" x1="41.222" y1="39.3615" x2="25.6139" y2="39.3907" gradientUnits="userSpaceOnUse">
<stop stop-color="#16E09E"/>
<stop offset="0.1507" stop-color="#43E3D0"/>
<stop offset="0.3285" stop-color="#45D5DF"/>
<stop offset="0.5199" stop-color="#49BDDD"/>
<stop offset="0.7209" stop-color="#4E9CDB"/>
<stop offset="0.9274" stop-color="#5472D8"/>
<stop offset="1" stop-color="#5761D7"/>
</linearGradient>
<clipPath id="clip0_1_493">
<rect width="75" height="75" fill="white"/>
</clipPath>
</defs>
</svg>
