<svg width="75" height="75" viewBox="0 0 75 75" fill="none" xmlns="http://www.w3.org/2000/svg">
<g clip-path="url(#clip0_1_904)">
<path opacity="0.4" d="M34.6406 75.0001C53.1531 75.0001 68.1605 59.9927 68.1605 41.4802C68.1605 22.9677 53.1531 7.96039 34.6406 7.96039C16.1281 7.96039 1.12076 22.9677 1.12076 41.4802C1.12076 59.9927 16.1281 75.0001 34.6406 75.0001Z" fill="url(#paint0_linear_1_904)"/>
<path opacity="0.4" d="M68.166 10.056C70.9429 10.056 73.194 7.80485 73.194 5.02798C73.194 2.2511 70.9429 0 68.166 0C65.3892 0 63.1381 2.2511 63.1381 5.02798C63.1381 7.80485 65.3892 10.056 68.166 10.056Z" fill="url(#paint1_linear_1_904)"/>
<g clip-path="url(#clip1_1_904)">
<path d="M35.2086 65.8577C34.0806 65.8577 32.9531 65.5892 32.0938 65.1061L15.5 55.547C14.6408 55.0639 14.1574 54.3659 14.1574 53.6674C14.1574 52.9694 14.6408 52.2713 15.5 51.7882L32.0938 42.2292C33.8125 41.2089 36.6047 41.2089 38.377 42.2292L54.9706 51.7882C55.83 52.2713 56.3135 52.9694 56.3135 53.6674C56.3135 54.3659 55.83 55.0639 54.9706 55.547L38.377 65.1061C37.5177 65.6432 36.3901 65.8577 35.2086 65.8577ZM32.255 64.8911C33.9197 65.8577 36.551 65.8577 38.2157 64.8911L54.8097 55.3325C55.5614 54.9026 55.9913 54.3118 55.9913 53.6674C55.9913 53.023 55.5614 52.4863 54.8097 52.0027L38.2157 42.4437C36.551 41.4771 33.9197 41.4771 32.255 42.4437L15.6611 52.0027C14.9092 52.4326 14.4797 53.023 14.4797 53.6674C14.4797 54.3118 14.9092 54.849 15.6611 55.3325L32.255 64.8911Z" fill="#16E09E"/>
<path opacity="0.4" d="M56.7961 49.9624V44.2699L55.7754 43.6791C55.5072 45.4515 53.4127 46.6326 51.6403 46.8476L39.7726 53.8289L34.5632 55.7085L17.9695 47.1698L18.3454 46.9548C16.9491 46.3104 16.1436 44.807 15.3918 43.4105L14.2641 44.0549L13.6197 44.2163V50.016C13.6197 50.7677 14.103 51.4658 15.0696 52.0566L31.6635 61.6156C33.5966 62.7435 36.765 62.7435 38.6983 61.6156L55.2923 52.0566C56.2589 51.5198 56.742 50.7677 56.742 50.0697C56.7961 50.016 56.7961 50.016 56.7961 49.9624Z" fill="#16E09E"/>
<path d="M56.7961 44.9141V41.1553L55.7754 40.5645C55.5072 42.3364 53.4127 43.518 51.6403 43.7329L39.7726 50.7139L34.5632 52.5935L17.9695 44.0551L18.3454 43.8402C16.9491 43.1958 16.1436 41.692 15.3918 40.2959L14.2641 40.9403L13.6197 41.1012V44.9677C13.6197 45.7198 14.103 46.4179 15.0696 47.0087L31.6635 56.5673C33.5966 57.6952 36.765 57.6952 38.6983 56.5673L55.2923 47.0087C56.2589 46.4715 56.742 45.7198 56.742 45.0218C56.7961 44.9677 56.7961 44.9677 56.7961 44.9141Z" fill="url(#paint2_linear_1_904)"/>
<path opacity="0.3" d="M51.6403 43.7863L39.7721 50.7677L35.2612 52.3787V57.4805C36.55 57.4805 37.8389 57.2119 38.8055 56.6211L55.3991 47.0625C56.3657 46.5253 56.8492 45.7737 56.8492 45.0752C56.8492 45.0216 56.8492 45.0216 56.8492 44.9679V41.2087L55.8826 40.6719H55.7749C55.4527 42.3902 53.3586 43.5182 51.6403 43.7863Z" fill="#7C4EFF"/>
<path d="M31.716 52.755L15.1222 43.196C13.1889 42.068 13.1889 40.2424 15.1222 39.1145L31.716 29.5556C33.6492 28.4279 36.8176 28.4279 38.7509 29.5556L55.3449 39.1145C57.2781 40.2424 57.2781 42.068 55.3449 43.196L38.7509 52.755C36.8176 53.8825 33.6492 53.8825 31.716 52.755Z" fill="url(#paint3_linear_1_904)"/>
<path d="M31.716 52.755L15.1222 43.196C13.1889 42.068 13.1889 40.2424 15.1222 39.1145L31.716 29.5556C33.6492 28.4279 36.8176 28.4279 38.7509 29.5556L55.3449 39.1145C57.2781 40.2424 57.2781 42.068 55.3449 43.196L38.7509 52.755C36.8176 53.8825 33.6492 53.8825 31.716 52.755Z" fill="#5C30D7"/>
<g opacity="0.51">
<path d="M31.716 52.755L15.1222 43.196C13.1889 42.068 13.1889 40.2424 15.1222 39.1145L31.716 29.5556C33.6492 28.4279 36.8176 28.4279 38.7509 29.5556L55.3449 39.1145C57.2781 40.2424 57.2781 42.068 55.3449 43.196L38.7509 52.755C36.8176 53.8825 33.6492 53.8825 31.716 52.755Z" fill="#453C9E"/>
</g>
<path d="M55.3434 43.196L38.7494 52.7546C36.8162 53.8825 33.6477 53.8825 31.7145 52.7546L15.1206 43.196C14.2614 42.7125 13.7781 42.068 13.6707 41.37C13.5633 42.1757 14.0466 43.0347 15.1206 43.6255L31.7145 53.1845C33.6477 54.312 36.8162 54.312 38.7494 53.1845L55.3434 43.6255C56.4173 42.981 56.9004 42.1757 56.7932 41.37C56.6859 42.068 56.2024 42.7125 55.3434 43.196Z" fill="white"/>
<mask id="mask0_1_904" style="mask-type:alpha" maskUnits="userSpaceOnUse" x="13" y="28" width="44" height="26">
<path d="M31.716 52.7547L15.1222 43.1961C13.1889 42.0681 13.1889 40.2421 15.1222 39.1146L31.716 29.5556C33.6492 28.4279 36.8176 28.4279 38.7509 29.5556L55.3449 39.1146C57.2781 40.2421 57.2781 42.0681 55.3449 43.1961L38.7509 52.7547C36.8176 53.8826 33.6492 53.8826 31.716 52.7547Z" fill="#453C9E"/>
</mask>
<g mask="url(#mask0_1_904)">
<g opacity="0.2">
<path d="M23.0698 41.746V61.5621C23.0698 61.9915 23.3383 62.421 23.8753 62.6896L40.3619 72.195C41.5431 72.893 43.6377 72.7858 44.9801 71.98C45.7318 71.5506 46.1077 70.9598 46.1077 70.4226V50.6069L23.0698 41.746Z" fill="url(#paint4_linear_1_904)"/>
<path opacity="0.3" d="M41.5988 72.6246C42.7264 72.7855 44.0152 72.571 44.9818 72.0338C45.7339 71.6044 46.1098 71.0136 46.1098 70.4764V50.6603L41.6525 48.942H41.5452V72.6246H41.5988Z" fill="#5C30D7"/>
<path d="M40.3626 52.3789L23.876 42.8739C22.6945 42.1754 22.8556 40.9943 24.1982 40.1885C25.5944 39.3832 27.6351 39.3296 28.8165 39.974L45.303 49.479C46.4846 50.177 46.3232 51.3586 44.9808 52.1639C43.6383 52.9696 41.5437 53.0769 40.3626 52.3789Z" fill="url(#paint5_linear_1_904)"/>
</g>
</g>
<path opacity="0.5" d="M41.3686 49.0002L26.5608 40.4627C25.4997 39.8354 25.6444 38.7745 26.8503 38.0509C28.1043 37.3273 29.9372 37.2791 30.9984 37.8578L45.8062 46.3953C46.8676 47.0225 46.7226 48.0838 45.5167 48.807C44.3108 49.5306 42.43 49.627 41.3686 49.0002Z" fill="#5C30D7"/>
<path d="M25.8355 17.8593V35.6575C25.8355 36.0434 26.0767 36.4293 26.559 36.6707L41.3667 45.2082C42.4281 45.835 44.3094 45.7386 45.5152 45.015C46.1902 44.6291 46.528 44.0987 46.528 43.6164V25.8179L25.8355 17.8593Z" fill="url(#paint6_linear_1_904)"/>
<path opacity="0.3" d="M42.4788 45.594C43.4919 45.7385 44.6492 45.5454 45.5178 45.0631C46.1928 44.6772 46.5305 44.1468 46.5305 43.6645V25.866L42.5269 24.3225H42.4306V45.594H42.4788Z" fill="#5C30D7"/>
<path d="M41.3686 27.4094L26.5608 18.872C25.4997 18.245 25.6444 17.1838 26.8503 16.4603C28.1043 15.7368 29.9372 15.6886 30.9984 16.2674L45.8062 24.8048C46.8676 25.4319 46.7226 26.493 45.5167 27.2165C44.3108 27.9401 42.43 28.0365 41.3686 27.4094Z" fill="url(#paint7_linear_1_904)"/>
<path d="M42.8604 26.2519C42.1368 26.2519 41.5582 25.673 41.5582 24.9495V12.9392C41.5582 10.238 39.5805 6.81344 37.2651 5.46289L33.8888 3.48526C32.9725 2.95468 32.2007 2.85823 31.6701 3.14763C31.1395 3.43703 30.8501 4.20878 30.8501 5.22171V13.1321C30.8501 13.8556 30.2713 14.4344 29.5478 14.4344C28.8243 14.4344 28.2455 13.8556 28.2455 13.1321V5.22171C28.2455 3.19586 28.969 1.70062 30.3196 0.928868C31.6701 0.157115 33.3584 0.253569 35.0947 1.2665L38.471 3.24408C41.6064 5.07699 44.0663 9.32161 44.0663 12.9392V24.9495C44.1145 25.7213 43.5359 26.2519 42.8604 26.2519Z" fill="url(#paint8_linear_1_904)"/>
</g>
</g>
<defs>
<linearGradient id="paint0_linear_1_904" x1="12.0147" y1="-2.02027" x2="50.9815" y2="69.6285" gradientUnits="userSpaceOnUse">
<stop stop-color="#7C4EFF"/>
<stop offset="0.904355" stop-color="#7C4EFF" stop-opacity="0"/>
</linearGradient>
<linearGradient id="paint1_linear_1_904" x1="64.7722" y1="-1.4971" x2="70.6172" y2="9.25022" gradientUnits="userSpaceOnUse">
<stop stop-color="#7C4EFF"/>
<stop offset="0.904355" stop-color="#7C4EFF" stop-opacity="0"/>
</linearGradient>
<linearGradient id="paint2_linear_1_904" x1="17.9464" y1="33.6829" x2="52.1904" y2="53.4537" gradientUnits="userSpaceOnUse">
<stop stop-color="#BCBEFF"/>
<stop offset="0.2271" stop-color="#AAADF8"/>
<stop offset="0.6802" stop-color="#7C83E5"/>
<stop offset="1" stop-color="#5761D7"/>
</linearGradient>
<linearGradient id="paint3_linear_1_904" x1="13.6513" y1="41.1563" x2="56.8118" y2="41.1563" gradientUnits="userSpaceOnUse">
<stop stop-color="#E9E9FD"/>
<stop offset="0.3601" stop-color="#D3D2F9"/>
<stop offset="0.7062" stop-color="#C5C4F7"/>
<stop offset="1" stop-color="#C0BFF6"/>
</linearGradient>
<linearGradient id="paint4_linear_1_904" x1="25.9674" y1="57.1961" x2="49.0046" y2="57.1961" gradientUnits="userSpaceOnUse">
<stop stop-color="#BCBEFF"/>
<stop offset="0.1443" stop-color="#B4B7FC"/>
<stop offset="0.3696" stop-color="#9EA2F3"/>
<stop offset="0.6461" stop-color="#7A81E5"/>
<stop offset="0.873" stop-color="#5761D7"/>
</linearGradient>
<linearGradient id="paint5_linear_1_904" x1="1.68939" y1="46.1915" x2="58.5379" y2="46.1915" gradientUnits="userSpaceOnUse">
<stop stop-color="#E9E9FD"/>
<stop offset="0.3601" stop-color="#D3D2F9"/>
<stop offset="0.7062" stop-color="#C5C4F7"/>
<stop offset="1" stop-color="#C0BFF6"/>
</linearGradient>
<linearGradient id="paint6_linear_1_904" x1="28.4381" y1="31.747" x2="49.1295" y2="31.747" gradientUnits="userSpaceOnUse">
<stop stop-color="#C9BCFF"/>
<stop offset="0.1443" stop-color="#C7B4FC"/>
<stop offset="0.3696" stop-color="#AF9EF3"/>
<stop offset="0.6461" stop-color="#897AE5"/>
<stop offset="0.873" stop-color="#7157D7"/>
</linearGradient>
<linearGradient id="paint7_linear_1_904" x1="6.63318" y1="21.8627" x2="57.6941" y2="21.8627" gradientUnits="userSpaceOnUse">
<stop stop-color="#E9E9FD"/>
<stop offset="0.3601" stop-color="#D3D2F9"/>
<stop offset="0.7062" stop-color="#C5C4F7"/>
<stop offset="1" stop-color="#C0BFF6"/>
</linearGradient>
<linearGradient id="paint8_linear_1_904" x1="20.7391" y1="12.5181" x2="57.7185" y2="18.8689" gradientUnits="userSpaceOnUse">
<stop stop-color="#BDBCFF"/>
<stop offset="0.1443" stop-color="#C2B4FC"/>
<stop offset="0.3696" stop-color="#AA9EF3"/>
<stop offset="0.6461" stop-color="#8F7AE5"/>
<stop offset="0.873" stop-color="#6957D7"/>
</linearGradient>
<clipPath id="clip0_1_904">
<rect width="75" height="75" fill="white"/>
</clipPath>
<clipPath id="clip1_1_904">
<rect width="72.462" height="72.462" fill="white" transform="translate(0.999451 0.0733032)"/>
</clipPath>
</defs>
</svg>
