<svg width="113" height="114" viewBox="0 0 113 114" fill="none" xmlns="http://www.w3.org/2000/svg">
<rect x="31.75" y="10" width="0.5" height="25" fill="url(#paint0_linear_5403_84483)"/>
<circle cx="32" cy="10" r="1" fill="#16E09E"/>
<g filter="url(#filter0_f_5403_84483)">
<circle cx="32" cy="10" r="1" fill="#16E09E"/>
</g>
<g filter="url(#filter1_f_5403_84483)">
<circle cx="32" cy="10" r="1" fill="#16E09E"/>
</g>
<g filter="url(#filter2_f_5403_84483)">
<circle cx="32" cy="10" r="1" fill="#16E09E"/>
</g>
<g filter="url(#filter3_f_5403_84483)">
<circle cx="32" cy="10" r="1" fill="#16E09E"/>
</g>
<g opacity="0.5">
<g opacity="0.11">
<path d="M60.1648 71.065C58.3734 70.02 56.1342 70.02 54.293 71.065L19.4105 91.1684C18.8632 91.467 18.8632 92.2632 19.4105 92.6115L54.5916 112.914C56.1839 113.859 58.1744 113.859 59.7667 112.914L94.9976 92.6115C95.5449 92.313 95.5449 91.5168 94.9976 91.1684L60.1648 71.065Z" fill="url(#paint1_linear_5403_84483)"/>
</g>
<g opacity="0.11">
<path d="M60.1648 65.1436C58.3734 64.0986 56.1342 64.0986 54.293 65.1436L19.4105 85.2471C18.8632 85.5456 18.8632 86.3418 19.4105 86.6901L54.5916 106.993C56.1839 107.938 58.1744 107.938 59.7667 106.993L94.9976 86.6901C95.5449 86.3916 95.5449 85.5954 94.9976 85.2471L60.1648 65.1436Z" fill="url(#paint2_linear_5403_84483)"/>
</g>
<g opacity="0.11">
<path d="M60.1648 59.272C58.3734 58.227 56.1342 58.227 54.293 59.272L19.4105 79.3755C18.8632 79.674 18.8632 80.4702 19.4105 80.8185L54.5916 101.121C56.1839 102.067 58.1744 102.067 59.7667 101.121L94.9976 80.8185C95.5449 80.52 95.5449 79.7238 94.9976 79.3755L60.1648 59.272Z" fill="url(#paint3_linear_5403_84483)"/>
</g>
<g opacity="0.11">
<path d="M60.1648 53.3999C58.3734 52.355 56.1342 52.355 54.293 53.3999L19.4105 73.5034C18.8632 73.802 18.8632 74.5982 19.4105 74.9465L54.5916 95.249C56.1839 96.1945 58.1744 96.1945 59.7667 95.249L94.9976 74.9465C95.5449 74.6479 95.5449 73.8517 94.9976 73.5034L60.1648 53.3999Z" fill="url(#paint4_linear_5403_84483)"/>
</g>
<path opacity="0.11" d="M94.9978 73.5034L60.1651 53.3999C58.3737 52.355 56.1344 52.355 54.2933 53.3999L19.4108 73.5034C19.1122 73.6527 19.0127 73.9513 19.0127 74.2001V91.8155C19.0127 92.114 19.162 92.3628 19.4108 92.5121L54.5918 112.815C56.1842 113.76 58.1746 113.76 59.767 112.815L94.9978 92.5121C95.2964 92.3628 95.3959 92.0643 95.3959 91.8155V74.2001C95.3959 73.9513 95.2964 73.7024 94.9978 73.5034Z" fill="url(#paint5_linear_5403_84483)"/>
</g>
<g opacity="0.11">
<path d="M60.1648 46.732C58.3734 45.687 56.1342 45.687 54.293 46.732L19.4105 66.8354C18.8632 67.134 18.8632 67.9302 19.4105 68.2785L54.5916 88.581C56.1839 89.5265 58.1744 89.5265 59.7667 88.581L94.9976 68.2785C95.5449 67.9799 95.5449 67.1838 94.9976 66.8354L60.1648 46.732Z" fill="url(#paint6_linear_5403_84483)"/>
</g>
<g opacity="0.11">
<path d="M60.1648 40.8604C58.3734 39.8154 56.1342 39.8154 54.293 40.8604L19.4105 60.9639C18.8632 61.2624 18.8632 62.0586 19.4105 62.4069L54.5916 82.7094C56.1839 83.6549 58.1744 83.6549 59.7667 82.7094L94.9976 62.4069C95.5449 62.1084 95.5449 61.3122 94.9976 60.9639L60.1648 40.8604Z" fill="url(#paint7_linear_5403_84483)"/>
</g>
<g opacity="0.11">
<path d="M60.1648 34.9883C58.3734 33.9433 56.1342 33.9433 54.293 34.9883L19.4105 55.0918C18.8632 55.3904 18.8632 56.1865 19.4105 56.5349L54.5916 76.8374C56.1839 77.7828 58.1744 77.7828 59.7667 76.8374L94.9976 56.5349C95.5449 56.2363 95.5449 55.4401 94.9976 55.0918L60.1648 34.9883Z" fill="url(#paint8_linear_5403_84483)"/>
</g>
<g opacity="0.11">
<path d="M60.1648 29.1167C58.3734 28.0718 56.1342 28.0718 54.293 29.1167L19.4105 49.2202C18.8632 49.5188 18.8632 50.3149 19.4105 50.6633L54.5916 70.9658C56.1839 71.9112 58.1744 71.9112 59.7667 70.9658L94.9976 50.6633C95.5449 50.3647 95.5449 49.5685 94.9976 49.2202L60.1648 29.1167Z" fill="url(#paint9_linear_5403_84483)"/>
</g>
<path opacity="0.11" d="M94.9978 49.2202L60.1651 29.1167C58.3737 28.0718 56.1344 28.0718 54.2933 29.1167L19.4108 49.2202C19.1122 49.3695 19.0127 49.668 19.0127 49.9169V67.5323C19.0127 67.8308 19.162 68.0796 19.4108 68.2289L54.5918 88.5314C56.1842 89.4769 58.1746 89.4769 59.767 88.5314L94.9978 68.2289C95.2964 68.0796 95.3959 67.7811 95.3959 67.5323V49.9169C95.3959 49.668 95.2964 49.3695 94.9978 49.2202Z" fill="url(#paint10_linear_5403_84483)"/>
<g opacity="0.11">
<path d="M60.1648 22.3995C58.3734 21.3545 56.1342 21.3545 54.293 22.3995L19.4105 42.5029C18.8632 42.8015 18.8632 43.5977 19.4105 43.946L54.5916 64.2485C56.1839 65.194 58.1744 65.194 59.7667 64.2485L94.9976 43.946C95.5449 43.6474 95.5449 42.8512 94.9976 42.5029L60.1648 22.3995Z" fill="url(#paint11_linear_5403_84483)"/>
</g>
<g opacity="0.11">
<path d="M60.1648 16.5274C58.3734 15.4824 56.1342 15.4824 54.293 16.5274L19.4105 36.6308C18.8632 36.9294 18.8632 37.7256 19.4105 38.0739L54.5916 58.3764C56.1839 59.3219 58.1744 59.3219 59.7667 58.3764L94.9976 38.0739C95.5449 37.7754 95.5449 36.9792 94.9976 36.6308L60.1648 16.5274Z" fill="url(#paint12_linear_5403_84483)"/>
</g>
<g opacity="0.11">
<path d="M60.1648 10.6553C58.3734 9.61034 56.1342 9.61034 54.293 10.6553L19.4105 30.7588C18.8632 31.0573 18.8632 31.8535 19.4105 32.2019L54.5916 52.5044C56.1839 53.4498 58.1744 53.4498 59.7667 52.5044L94.9976 32.2019C95.5449 31.9033 95.5449 31.1071 94.9976 30.7588L60.1648 10.6553Z" fill="url(#paint13_linear_5403_84483)"/>
</g>
<g opacity="0.11">
<path d="M60.1648 4.78374C58.3734 3.73875 56.1342 3.73875 54.293 4.78374L19.4105 24.8872C18.8632 25.1858 18.8632 25.9819 19.4105 26.3303L54.5916 46.6328C56.1839 47.5782 58.1744 47.5782 59.7667 46.6328L94.9976 26.3303C95.5449 26.0317 95.5449 25.2355 94.9976 24.8872L60.1648 4.78374Z" fill="url(#paint14_linear_5403_84483)"/>
</g>
<path opacity="0.5" d="M94.9978 24.8872L60.1651 4.78374C58.3737 3.73875 56.1344 3.73875 54.2933 4.78374L19.4108 24.8872C19.1122 25.0365 19.0127 25.3351 19.0127 25.5839V43.1993C19.0127 43.4978 19.162 43.7466 19.4108 43.8959L54.5918 64.1984C56.1842 65.1439 58.1746 65.1439 59.767 64.1984L94.9978 43.8959C95.2964 43.7466 95.3959 43.4481 95.3959 43.1993V25.5839C95.3959 25.3351 95.2964 25.0365 94.9978 24.8872Z" fill="url(#paint15_linear_5403_84483)"/>
<g opacity="0.11">
<path d="M60.1648 4.78374C58.3734 3.73875 56.1342 3.73875 54.293 4.78374L19.4105 24.8872C18.8632 25.1858 18.8632 25.9819 19.4105 26.3303L54.5916 46.6328C56.1839 47.5782 58.1744 47.5782 59.7667 46.6328L94.9976 26.3303C95.5449 26.0317 95.5449 25.2355 94.9976 24.8872L60.1648 4.78374Z" fill="url(#paint16_linear_5403_84483)"/>
</g>
<g opacity="0.5">
<path d="M58.4725 16.3281C57.7261 15.8802 56.7806 15.8802 55.9844 16.3281L40.3595 25.3348C40.1107 25.4841 40.1107 25.8324 40.3595 25.9817L56.0342 35.0382C56.7308 35.4363 57.6265 35.4363 58.3232 35.0382L74.0477 25.9817C74.2965 25.8324 74.2965 25.4841 74.0477 25.3348L58.4725 16.3281Z" fill="#B0FFE5"/>
</g>
<path d="M40.3604 25.8827L55.9854 16.8759C56.7318 16.4281 57.6773 16.4281 58.4735 16.8759L74.0984 25.8827C74.0984 25.8827 74.0984 25.9324 74.1482 25.9324C74.3472 25.7832 74.3472 25.4846 74.0984 25.3353L58.4735 16.3286C57.727 15.8807 56.7816 15.8807 55.9854 16.3286L40.3604 25.3353C40.1116 25.4348 40.1116 25.7334 40.3604 25.8827Z" fill="#16E09E"/>
<path d="M94.9978 25.5339L59.767 45.8364C58.1746 46.7819 56.1842 46.7819 54.5918 45.8364L19.4108 25.5339C19.2615 25.4344 19.162 25.3349 19.1122 25.2354C18.9132 25.5837 19.0127 26.131 19.4108 26.3301L54.5918 46.6326C56.1842 47.5781 58.1746 47.5781 59.767 46.6326L94.9978 26.3301C95.3959 26.0813 95.4954 25.5837 95.2964 25.2354C95.2466 25.3349 95.1471 25.4344 94.9978 25.5339Z" fill="url(#paint17_linear_5403_84483)"/>
<path d="M27.6992 36.5985L28.4219 37.0235V36.5559L27.6992 36.1309V36.5985Z" fill="#16E09E"/>
<path d="M27.6992 39.9565L28.4219 40.3816V37.491L27.6992 37.0659V39.9565Z" fill="#16E09E"/>
<path d="M27.6992 41.572L28.4219 41.9971V40.8494L27.6992 40.4243V41.572Z" fill="#16E09E"/>
<path d="M27.6992 43.2298L28.4219 43.6548V42.5071L27.6992 42.082V43.2298Z" fill="#16E09E"/>
<path d="M26.5938 37.576L27.3164 38.001V36.8533L26.5938 36.4282V37.576Z" fill="#16E09E"/>
<path d="M26.5938 39.7863L27.3164 40.2114V38.511L26.5938 38.0859V39.7863Z" fill="#16E09E"/>
<path d="M26.5938 41.8271L27.3164 42.2522V40.8069L26.5938 40.3818V41.8271Z" fill="#16E09E"/>
<path d="M27.6992 44.8875L28.4219 45.3126V44.1648L27.6992 43.7397V44.8875Z" fill="#16E09E"/>
<path d="M26.5938 35.9608L27.3164 36.3858V35.9182L26.5938 35.4932V35.9608Z" fill="#16E09E"/>
<path d="M27.1465 46.2054L28.4217 46.928V46.4604L27.1465 45.7378V46.2054Z" fill="#16E09E"/>
<rect x="40.5" y="35" width="1" height="50" fill="url(#paint18_linear_5403_84483)"/>
<circle cx="41" cy="35" r="2" fill="#16E09E"/>
<g filter="url(#filter4_f_5403_84483)">
<circle cx="41" cy="35" r="2" fill="#16E09E"/>
</g>
<g filter="url(#filter5_f_5403_84483)">
<circle cx="41" cy="35" r="2" fill="#16E09E"/>
</g>
<g filter="url(#filter6_f_5403_84483)">
<circle cx="41" cy="35" r="2" fill="#16E09E"/>
</g>
<g filter="url(#filter7_f_5403_84483)">
<circle cx="41" cy="35" r="2" fill="#16E09E"/>
</g>
<rect x="102.75" y="19" width="0.5" height="25" fill="url(#paint19_linear_5403_84483)"/>
<circle cx="103" cy="19" r="1" fill="#16E09E"/>
<g filter="url(#filter8_f_5403_84483)">
<circle cx="103" cy="19" r="1" fill="#16E09E"/>
</g>
<g filter="url(#filter9_f_5403_84483)">
<circle cx="103" cy="19" r="1" fill="#16E09E"/>
</g>
<g filter="url(#filter10_f_5403_84483)">
<circle cx="103" cy="19" r="1" fill="#16E09E"/>
</g>
<g filter="url(#filter11_f_5403_84483)">
<circle cx="103" cy="19" r="1" fill="#16E09E"/>
</g>
<rect x="9.75" y="54" width="0.5" height="25" fill="url(#paint20_linear_5403_84483)"/>
<circle cx="10" cy="54" r="1" fill="#16E09E"/>
<g filter="url(#filter12_f_5403_84483)">
<circle cx="10" cy="54" r="1" fill="#16E09E"/>
</g>
<g filter="url(#filter13_f_5403_84483)">
<circle cx="10" cy="54" r="1" fill="#16E09E"/>
</g>
<g filter="url(#filter14_f_5403_84483)">
<circle cx="10" cy="54" r="1" fill="#16E09E"/>
</g>
<g filter="url(#filter15_f_5403_84483)">
<circle cx="10" cy="54" r="1" fill="#16E09E"/>
</g>
<rect x="85.5" y="46" width="1" height="50" fill="url(#paint21_linear_5403_84483)"/>
<circle cx="86" cy="46" r="2" fill="#16E09E"/>
<g filter="url(#filter16_f_5403_84483)">
<circle cx="86" cy="46" r="2" fill="#16E09E"/>
</g>
<g filter="url(#filter17_f_5403_84483)">
<circle cx="86" cy="46" r="2" fill="#16E09E"/>
</g>
<g filter="url(#filter18_f_5403_84483)">
<circle cx="86" cy="46" r="2" fill="#16E09E"/>
</g>
<g filter="url(#filter19_f_5403_84483)">
<circle cx="86" cy="46" r="2" fill="#16E09E"/>
</g>
<defs>
<filter id="filter0_f_5403_84483" x="29.5" y="7.5" width="5" height="5" filterUnits="userSpaceOnUse" color-interpolation-filters="sRGB">
<feFlood flood-opacity="0" result="BackgroundImageFix"/>
<feBlend mode="normal" in="SourceGraphic" in2="BackgroundImageFix" result="shape"/>
<feGaussianBlur stdDeviation="0.75" result="effect1_foregroundBlur_5403_84483"/>
</filter>
<filter id="filter1_f_5403_84483" x="28" y="6" width="8" height="8" filterUnits="userSpaceOnUse" color-interpolation-filters="sRGB">
<feFlood flood-opacity="0" result="BackgroundImageFix"/>
<feBlend mode="normal" in="SourceGraphic" in2="BackgroundImageFix" result="shape"/>
<feGaussianBlur stdDeviation="1.5" result="effect1_foregroundBlur_5403_84483"/>
</filter>
<filter id="filter2_f_5403_84483" x="25" y="3" width="14" height="14" filterUnits="userSpaceOnUse" color-interpolation-filters="sRGB">
<feFlood flood-opacity="0" result="BackgroundImageFix"/>
<feBlend mode="normal" in="SourceGraphic" in2="BackgroundImageFix" result="shape"/>
<feGaussianBlur stdDeviation="3" result="effect1_foregroundBlur_5403_84483"/>
</filter>
<filter id="filter3_f_5403_84483" x="22" y="0" width="20" height="20" filterUnits="userSpaceOnUse" color-interpolation-filters="sRGB">
<feFlood flood-opacity="0" result="BackgroundImageFix"/>
<feBlend mode="normal" in="SourceGraphic" in2="BackgroundImageFix" result="shape"/>
<feGaussianBlur stdDeviation="4.5" result="effect1_foregroundBlur_5403_84483"/>
</filter>
<filter id="filter4_f_5403_84483" x="36" y="30" width="10" height="10" filterUnits="userSpaceOnUse" color-interpolation-filters="sRGB">
<feFlood flood-opacity="0" result="BackgroundImageFix"/>
<feBlend mode="normal" in="SourceGraphic" in2="BackgroundImageFix" result="shape"/>
<feGaussianBlur stdDeviation="1.5" result="effect1_foregroundBlur_5403_84483"/>
</filter>
<filter id="filter5_f_5403_84483" x="33" y="27" width="16" height="16" filterUnits="userSpaceOnUse" color-interpolation-filters="sRGB">
<feFlood flood-opacity="0" result="BackgroundImageFix"/>
<feBlend mode="normal" in="SourceGraphic" in2="BackgroundImageFix" result="shape"/>
<feGaussianBlur stdDeviation="3" result="effect1_foregroundBlur_5403_84483"/>
</filter>
<filter id="filter6_f_5403_84483" x="27" y="21" width="28" height="28" filterUnits="userSpaceOnUse" color-interpolation-filters="sRGB">
<feFlood flood-opacity="0" result="BackgroundImageFix"/>
<feBlend mode="normal" in="SourceGraphic" in2="BackgroundImageFix" result="shape"/>
<feGaussianBlur stdDeviation="6" result="effect1_foregroundBlur_5403_84483"/>
</filter>
<filter id="filter7_f_5403_84483" x="21" y="15" width="40" height="40" filterUnits="userSpaceOnUse" color-interpolation-filters="sRGB">
<feFlood flood-opacity="0" result="BackgroundImageFix"/>
<feBlend mode="normal" in="SourceGraphic" in2="BackgroundImageFix" result="shape"/>
<feGaussianBlur stdDeviation="9" result="effect1_foregroundBlur_5403_84483"/>
</filter>
<filter id="filter8_f_5403_84483" x="100.5" y="16.5" width="5" height="5" filterUnits="userSpaceOnUse" color-interpolation-filters="sRGB">
<feFlood flood-opacity="0" result="BackgroundImageFix"/>
<feBlend mode="normal" in="SourceGraphic" in2="BackgroundImageFix" result="shape"/>
<feGaussianBlur stdDeviation="0.75" result="effect1_foregroundBlur_5403_84483"/>
</filter>
<filter id="filter9_f_5403_84483" x="99" y="15" width="8" height="8" filterUnits="userSpaceOnUse" color-interpolation-filters="sRGB">
<feFlood flood-opacity="0" result="BackgroundImageFix"/>
<feBlend mode="normal" in="SourceGraphic" in2="BackgroundImageFix" result="shape"/>
<feGaussianBlur stdDeviation="1.5" result="effect1_foregroundBlur_5403_84483"/>
</filter>
<filter id="filter10_f_5403_84483" x="96" y="12" width="14" height="14" filterUnits="userSpaceOnUse" color-interpolation-filters="sRGB">
<feFlood flood-opacity="0" result="BackgroundImageFix"/>
<feBlend mode="normal" in="SourceGraphic" in2="BackgroundImageFix" result="shape"/>
<feGaussianBlur stdDeviation="3" result="effect1_foregroundBlur_5403_84483"/>
</filter>
<filter id="filter11_f_5403_84483" x="93" y="9" width="20" height="20" filterUnits="userSpaceOnUse" color-interpolation-filters="sRGB">
<feFlood flood-opacity="0" result="BackgroundImageFix"/>
<feBlend mode="normal" in="SourceGraphic" in2="BackgroundImageFix" result="shape"/>
<feGaussianBlur stdDeviation="4.5" result="effect1_foregroundBlur_5403_84483"/>
</filter>
<filter id="filter12_f_5403_84483" x="7.5" y="51.5" width="5" height="5" filterUnits="userSpaceOnUse" color-interpolation-filters="sRGB">
<feFlood flood-opacity="0" result="BackgroundImageFix"/>
<feBlend mode="normal" in="SourceGraphic" in2="BackgroundImageFix" result="shape"/>
<feGaussianBlur stdDeviation="0.75" result="effect1_foregroundBlur_5403_84483"/>
</filter>
<filter id="filter13_f_5403_84483" x="6" y="50" width="8" height="8" filterUnits="userSpaceOnUse" color-interpolation-filters="sRGB">
<feFlood flood-opacity="0" result="BackgroundImageFix"/>
<feBlend mode="normal" in="SourceGraphic" in2="BackgroundImageFix" result="shape"/>
<feGaussianBlur stdDeviation="1.5" result="effect1_foregroundBlur_5403_84483"/>
</filter>
<filter id="filter14_f_5403_84483" x="3" y="47" width="14" height="14" filterUnits="userSpaceOnUse" color-interpolation-filters="sRGB">
<feFlood flood-opacity="0" result="BackgroundImageFix"/>
<feBlend mode="normal" in="SourceGraphic" in2="BackgroundImageFix" result="shape"/>
<feGaussianBlur stdDeviation="3" result="effect1_foregroundBlur_5403_84483"/>
</filter>
<filter id="filter15_f_5403_84483" x="0" y="44" width="20" height="20" filterUnits="userSpaceOnUse" color-interpolation-filters="sRGB">
<feFlood flood-opacity="0" result="BackgroundImageFix"/>
<feBlend mode="normal" in="SourceGraphic" in2="BackgroundImageFix" result="shape"/>
<feGaussianBlur stdDeviation="4.5" result="effect1_foregroundBlur_5403_84483"/>
</filter>
<filter id="filter16_f_5403_84483" x="81" y="41" width="10" height="10" filterUnits="userSpaceOnUse" color-interpolation-filters="sRGB">
<feFlood flood-opacity="0" result="BackgroundImageFix"/>
<feBlend mode="normal" in="SourceGraphic" in2="BackgroundImageFix" result="shape"/>
<feGaussianBlur stdDeviation="1.5" result="effect1_foregroundBlur_5403_84483"/>
</filter>
<filter id="filter17_f_5403_84483" x="78" y="38" width="16" height="16" filterUnits="userSpaceOnUse" color-interpolation-filters="sRGB">
<feFlood flood-opacity="0" result="BackgroundImageFix"/>
<feBlend mode="normal" in="SourceGraphic" in2="BackgroundImageFix" result="shape"/>
<feGaussianBlur stdDeviation="3" result="effect1_foregroundBlur_5403_84483"/>
</filter>
<filter id="filter18_f_5403_84483" x="72" y="32" width="28" height="28" filterUnits="userSpaceOnUse" color-interpolation-filters="sRGB">
<feFlood flood-opacity="0" result="BackgroundImageFix"/>
<feBlend mode="normal" in="SourceGraphic" in2="BackgroundImageFix" result="shape"/>
<feGaussianBlur stdDeviation="6" result="effect1_foregroundBlur_5403_84483"/>
</filter>
<filter id="filter19_f_5403_84483" x="66" y="26" width="40" height="40" filterUnits="userSpaceOnUse" color-interpolation-filters="sRGB">
<feFlood flood-opacity="0" result="BackgroundImageFix"/>
<feBlend mode="normal" in="SourceGraphic" in2="BackgroundImageFix" result="shape"/>
<feGaussianBlur stdDeviation="9" result="effect1_foregroundBlur_5403_84483"/>
</filter>
<linearGradient id="paint0_linear_5403_84483" x1="32" y1="10" x2="32" y2="35" gradientUnits="userSpaceOnUse">
<stop stop-color="#16E09E"/>
<stop offset="1" stop-color="#16E09E" stop-opacity="0"/>
</linearGradient>
<linearGradient id="paint1_linear_5403_84483" x1="45.0839" y1="110.721" x2="52.9825" y2="67.8482" gradientUnits="userSpaceOnUse">
<stop stop-color="#5761D7"/>
<stop offset="0.1779" stop-color="#5C66D9"/>
<stop offset="0.3876" stop-color="#6A73DF"/>
<stop offset="0.6134" stop-color="#8289E8"/>
<stop offset="0.849" stop-color="#A3A7F5"/>
<stop offset="1" stop-color="#BCBEFF"/>
</linearGradient>
<linearGradient id="paint2_linear_5403_84483" x1="45.0839" y1="104.8" x2="52.9825" y2="61.9268" gradientUnits="userSpaceOnUse">
<stop stop-color="#5761D7"/>
<stop offset="0.1779" stop-color="#5C66D9"/>
<stop offset="0.3876" stop-color="#6A73DF"/>
<stop offset="0.6134" stop-color="#8289E8"/>
<stop offset="0.849" stop-color="#A3A7F5"/>
<stop offset="1" stop-color="#BCBEFF"/>
</linearGradient>
<linearGradient id="paint3_linear_5403_84483" x1="45.0839" y1="98.9282" x2="52.9825" y2="56.0552" gradientUnits="userSpaceOnUse">
<stop stop-color="#5761D7"/>
<stop offset="0.1779" stop-color="#5C66D9"/>
<stop offset="0.3876" stop-color="#6A73DF"/>
<stop offset="0.6134" stop-color="#8289E8"/>
<stop offset="0.849" stop-color="#A3A7F5"/>
<stop offset="1" stop-color="#BCBEFF"/>
</linearGradient>
<linearGradient id="paint4_linear_5403_84483" x1="45.0839" y1="93.0561" x2="52.9825" y2="50.1831" gradientUnits="userSpaceOnUse">
<stop stop-color="#5761D7"/>
<stop offset="0.1779" stop-color="#5C66D9"/>
<stop offset="0.3876" stop-color="#6A73DF"/>
<stop offset="0.6134" stop-color="#8289E8"/>
<stop offset="0.849" stop-color="#A3A7F5"/>
<stop offset="1" stop-color="#BCBEFF"/>
</linearGradient>
<linearGradient id="paint5_linear_5403_84483" x1="45.0881" y1="109.446" x2="60.207" y2="51.0676" gradientUnits="userSpaceOnUse">
<stop stop-color="#5761D7"/>
<stop offset="0.1779" stop-color="#5C66D9"/>
<stop offset="0.3876" stop-color="#6A73DF"/>
<stop offset="0.6134" stop-color="#8289E8"/>
<stop offset="0.849" stop-color="#A3A7F5"/>
<stop offset="1" stop-color="#BCBEFF"/>
</linearGradient>
<linearGradient id="paint6_linear_5403_84483" x1="45.0839" y1="86.3881" x2="52.9825" y2="43.5151" gradientUnits="userSpaceOnUse">
<stop stop-color="#5761D7"/>
<stop offset="0.1779" stop-color="#5C66D9"/>
<stop offset="0.3876" stop-color="#6A73DF"/>
<stop offset="0.6134" stop-color="#8289E8"/>
<stop offset="0.849" stop-color="#A3A7F5"/>
<stop offset="1" stop-color="#BCBEFF"/>
</linearGradient>
<linearGradient id="paint7_linear_5403_84483" x1="45.0839" y1="80.5165" x2="52.9825" y2="37.6436" gradientUnits="userSpaceOnUse">
<stop stop-color="#5761D7"/>
<stop offset="0.1779" stop-color="#5C66D9"/>
<stop offset="0.3876" stop-color="#6A73DF"/>
<stop offset="0.6134" stop-color="#8289E8"/>
<stop offset="0.849" stop-color="#A3A7F5"/>
<stop offset="1" stop-color="#BCBEFF"/>
</linearGradient>
<linearGradient id="paint8_linear_5403_84483" x1="45.0839" y1="74.6445" x2="52.9825" y2="31.7715" gradientUnits="userSpaceOnUse">
<stop stop-color="#5761D7"/>
<stop offset="0.1779" stop-color="#5C66D9"/>
<stop offset="0.3876" stop-color="#6A73DF"/>
<stop offset="0.6134" stop-color="#8289E8"/>
<stop offset="0.849" stop-color="#A3A7F5"/>
<stop offset="1" stop-color="#BCBEFF"/>
</linearGradient>
<linearGradient id="paint9_linear_5403_84483" x1="45.0839" y1="68.7729" x2="52.9825" y2="25.8999" gradientUnits="userSpaceOnUse">
<stop stop-color="#5761D7"/>
<stop offset="0.1779" stop-color="#5C66D9"/>
<stop offset="0.3876" stop-color="#6A73DF"/>
<stop offset="0.6134" stop-color="#8289E8"/>
<stop offset="0.849" stop-color="#A3A7F5"/>
<stop offset="1" stop-color="#BCBEFF"/>
</linearGradient>
<linearGradient id="paint10_linear_5403_84483" x1="45.0881" y1="85.1624" x2="60.207" y2="26.7844" gradientUnits="userSpaceOnUse">
<stop stop-color="#5761D7"/>
<stop offset="0.1779" stop-color="#5C66D9"/>
<stop offset="0.3876" stop-color="#6A73DF"/>
<stop offset="0.6134" stop-color="#8289E8"/>
<stop offset="0.849" stop-color="#A3A7F5"/>
<stop offset="1" stop-color="#BCBEFF"/>
</linearGradient>
<linearGradient id="paint11_linear_5403_84483" x1="45.0839" y1="62.0556" x2="52.9825" y2="19.1826" gradientUnits="userSpaceOnUse">
<stop stop-color="#5761D7"/>
<stop offset="0.1779" stop-color="#5C66D9"/>
<stop offset="0.3876" stop-color="#6A73DF"/>
<stop offset="0.6134" stop-color="#8289E8"/>
<stop offset="0.849" stop-color="#A3A7F5"/>
<stop offset="1" stop-color="#BCBEFF"/>
</linearGradient>
<linearGradient id="paint12_linear_5403_84483" x1="45.0839" y1="56.1835" x2="52.9825" y2="13.3106" gradientUnits="userSpaceOnUse">
<stop stop-color="#5761D7"/>
<stop offset="0.1779" stop-color="#5C66D9"/>
<stop offset="0.3876" stop-color="#6A73DF"/>
<stop offset="0.6134" stop-color="#8289E8"/>
<stop offset="0.849" stop-color="#A3A7F5"/>
<stop offset="1" stop-color="#BCBEFF"/>
</linearGradient>
<linearGradient id="paint13_linear_5403_84483" x1="45.0839" y1="50.3115" x2="52.9825" y2="7.43849" gradientUnits="userSpaceOnUse">
<stop stop-color="#5761D7"/>
<stop offset="0.1779" stop-color="#5C66D9"/>
<stop offset="0.3876" stop-color="#6A73DF"/>
<stop offset="0.6134" stop-color="#8289E8"/>
<stop offset="0.849" stop-color="#A3A7F5"/>
<stop offset="1" stop-color="#BCBEFF"/>
</linearGradient>
<linearGradient id="paint14_linear_5403_84483" x1="45.0839" y1="44.4399" x2="52.9825" y2="1.56691" gradientUnits="userSpaceOnUse">
<stop stop-color="#5761D7"/>
<stop offset="0.1779" stop-color="#5C66D9"/>
<stop offset="0.3876" stop-color="#6A73DF"/>
<stop offset="0.6134" stop-color="#8289E8"/>
<stop offset="0.849" stop-color="#A3A7F5"/>
<stop offset="1" stop-color="#BCBEFF"/>
</linearGradient>
<linearGradient id="paint15_linear_5403_84483" x1="45.0881" y1="60.8294" x2="60.207" y2="2.45142" gradientUnits="userSpaceOnUse">
<stop stop-color="#5761D7"/>
<stop offset="0.1779" stop-color="#5C66D9"/>
<stop offset="0.3876" stop-color="#6A73DF"/>
<stop offset="0.6134" stop-color="#8289E8"/>
<stop offset="0.849" stop-color="#A3A7F5"/>
<stop offset="1" stop-color="#BCBEFF"/>
</linearGradient>
<linearGradient id="paint16_linear_5403_84483" x1="45.0839" y1="44.4399" x2="52.9825" y2="1.56691" gradientUnits="userSpaceOnUse">
<stop stop-color="#5761D7"/>
<stop offset="0.1779" stop-color="#5C66D9"/>
<stop offset="0.3876" stop-color="#6A73DF"/>
<stop offset="0.6134" stop-color="#8289E8"/>
<stop offset="0.849" stop-color="#A3A7F5"/>
<stop offset="1" stop-color="#BCBEFF"/>
</linearGradient>
<linearGradient id="paint17_linear_5403_84483" x1="45.0881" y1="45.8616" x2="47.1948" y2="23.4502" gradientUnits="userSpaceOnUse">
<stop stop-color="#5761D7"/>
<stop offset="0.1779" stop-color="#5C66D9"/>
<stop offset="0.3876" stop-color="#6A73DF"/>
<stop offset="0.6134" stop-color="#8289E8"/>
<stop offset="0.849" stop-color="#A3A7F5"/>
<stop offset="1" stop-color="#BCBEFF"/>
</linearGradient>
<linearGradient id="paint18_linear_5403_84483" x1="41" y1="35" x2="41" y2="85" gradientUnits="userSpaceOnUse">
<stop stop-color="#16E09E"/>
<stop offset="1" stop-color="#16E09E" stop-opacity="0"/>
</linearGradient>
<linearGradient id="paint19_linear_5403_84483" x1="103" y1="19" x2="103" y2="44" gradientUnits="userSpaceOnUse">
<stop stop-color="#16E09E"/>
<stop offset="1" stop-color="#16E09E" stop-opacity="0"/>
</linearGradient>
<linearGradient id="paint20_linear_5403_84483" x1="10" y1="54" x2="10" y2="79" gradientUnits="userSpaceOnUse">
<stop stop-color="#16E09E"/>
<stop offset="1" stop-color="#16E09E" stop-opacity="0"/>
</linearGradient>
<linearGradient id="paint21_linear_5403_84483" x1="86" y1="46" x2="86" y2="96" gradientUnits="userSpaceOnUse">
<stop stop-color="#16E09E"/>
<stop offset="1" stop-color="#16E09E" stop-opacity="0"/>
</linearGradient>
</defs>
</svg>
