<svg width="75" height="75" viewBox="0 0 75 75" fill="none" xmlns="http://www.w3.org/2000/svg">
<path opacity="0.4" d="M38.4347 72.9341C56.0136 72.9341 70.2642 58.6836 70.2642 41.1046C70.2642 23.5256 56.0136 9.27509 38.4347 9.27509C20.8557 9.27509 6.60516 23.5256 6.60516 41.1046C6.60516 58.6836 20.8557 72.9341 38.4347 72.9341Z" fill="url(#paint0_linear_1_660)"/>
<path opacity="0.4" d="M5.41277 11.2651C8.04962 11.2651 10.1872 9.12752 10.1872 6.49067C10.1872 3.85383 8.04962 1.71625 5.41277 1.71625C2.77593 1.71625 0.638346 3.85383 0.638346 6.49067C0.638346 9.12752 2.77593 11.2651 5.41277 11.2651Z" fill="url(#paint1_linear_1_660)"/>
<path d="M51.8038 4.41969C51.5914 4.27813 51.3085 4.24272 50.9544 4.34891L33.401 9.23271L18.3956 22.3978L15.8829 24.592C15.0336 25.3352 14.4319 26.6092 14.5381 27.6002L16.5907 50.5681C16.9446 54.4258 18.5018 57.2571 20.9083 58.7081L24.872 61.0082L24.8012 59.805L26.2522 59.9821L33.401 60.7961L42.8856 48.7988C47.0262 43.5612 49.7512 37.0139 50.2466 31.1744L52.1575 7.4986L55.4137 6.54308L51.8038 4.41969Z" fill="#CFCEF9"/>
<path fill-rule="evenodd" clip-rule="evenodd" d="M21.0223 26.3855L37.0849 11.3562L33.4397 9.23285L15.8862 24.5921C15.6309 24.8242 15.406 25.102 15.2216 25.4055C14.7694 26.0927 14.5037 26.9143 14.5773 27.6002L16.6299 50.5682C16.9838 54.4259 18.5409 57.2572 20.9475 58.7082L24.9112 61.0083L24.8404 59.8051L26.2914 59.9822C26.5398 57.0837 27.3481 54.379 28.1787 51.5995C28.413 50.8153 28.6491 50.0255 28.8748 49.2234C30.7712 40.8908 26.2054 34.0976 21.5796 27.2153C21.3938 26.9389 21.2079 26.6623 21.0223 26.3855Z" fill="url(#paint2_linear_1_660)"/>
<path d="M21.1592 58.8496C18.8235 57.3986 17.3371 54.6028 17.0186 50.8513L14.966 27.8832C14.8952 26.8923 15.4614 25.6183 16.3108 24.8751L18.8235 22.6809L33.8289 9.51581L51.3822 4.63196C51.7009 4.52581 51.9838 4.56118 52.2316 4.70274L55.452 6.57842H55.4874L51.8779 4.45503C51.6655 4.31347 51.3822 4.27806 51.0285 4.38425L33.475 9.26805L18.4696 22.4332L15.9569 24.6273C15.1075 25.3705 14.5059 26.6446 14.6121 27.6355L16.6647 50.6038C17.0186 54.4611 18.5758 57.2924 20.9823 58.7434L21.1592 58.8496Z" fill="#9A9EF2"/>
<path d="M37.0829 11.3562L19.5296 26.7154C18.6803 27.4587 18.0787 28.7327 18.1848 29.7236L20.2374 52.6916C20.6975 57.9649 23.4225 61.3623 27.5985 61.8223L37.0829 62.8842L46.5677 50.8869C50.7083 45.6493 53.4333 39.102 53.9287 33.2625L55.9813 7.88796C56.0521 6.82625 55.4859 6.18922 54.6365 6.43697L37.0829 11.3562Z" fill="#554FC1"/>
<path d="M20.2383 52.7271L18.1857 29.7591C18.1149 28.7681 18.6811 27.4941 19.5305 26.7509L37.0838 11.3916L54.6374 6.5078C54.9557 6.43702 55.2036 6.43702 55.416 6.54317C55.1682 6.22467 54.7791 6.08311 54.3187 6.22467L36.7655 11.1085L19.212 26.4678C18.3626 27.2109 17.761 28.485 17.8671 29.4759L19.9198 52.4442C20.2383 55.8062 21.4415 58.3896 23.3526 59.9468C21.6185 58.3541 20.5214 55.877 20.2383 52.7271Z" fill="#9A9EF2"/>
<path d="M25.8666 26.9987L23.8848 28.7328C23.2124 29.3344 22.7523 30.3253 22.8231 31.1038L24.451 49.1881C24.7341 52.2318 25.9374 54.4615 27.8485 55.5938L30.9628 57.3986L30.892 56.4433L32.0599 56.5849C32.3076 53.6829 33.2631 50.9933 34.0771 48.1266C35.9528 40.022 30.0427 33.7934 25.8666 26.9987Z" fill="#352784"/>
<path d="M52.1611 12.8425C51.9845 12.7363 51.772 12.7009 51.4887 12.7717L37.6867 16.5938L25.8665 26.9631C30.0425 33.7579 35.9526 39.9866 34.077 48.0908C33.263 50.9574 32.2721 53.647 32.0597 56.5491L37.6867 57.186L45.1539 47.7371C48.41 43.5964 50.5689 38.4647 50.9226 33.8642L52.4444 15.2136L54.9924 14.4704L52.1611 12.8425Z" fill="#3D3BA8"/>
<path d="M23.1379 29.7588L26.2523 31.67L40.5496 18.2924L37.6834 16.6291L23.8811 28.7325C23.5626 29.0156 23.3149 29.3695 23.1379 29.7588Z" fill="#4947BA"/>
<path d="M40.5504 18.2929L26.7482 30.3962C26.0758 30.9978 25.6157 31.9889 25.6865 32.7675L27.3145 50.8518C27.7037 54.9925 29.8272 57.682 33.083 58.0358L40.5504 58.8852L48.0176 49.4362C51.2733 45.2956 53.4322 40.1639 53.7863 35.5633L55.414 15.6032C55.4848 14.7539 55.0248 14.2584 54.3524 14.4707L40.5504 18.2929Z" fill="#352785"/>
<g opacity="0.3">
<path opacity="0.4" d="M43.4878 21.159L29.6856 33.2622C29.0132 33.8642 28.5531 34.8549 28.6239 35.6335L30.2519 53.7178C30.6411 57.8585 32.7645 60.5481 36.0204 60.9022L43.4878 61.7512L50.955 52.3022C54.2108 48.1616 56.3696 43.0299 56.7237 38.4293L58.3514 18.4694C58.4222 17.62 57.9623 17.1246 57.2899 17.3369L43.4878 21.159Z" fill="#16E09E"/>
</g>
<path d="M43.593 61.9637L36.0195 61.1142C32.6575 60.7251 30.4279 57.9647 30.0386 53.7178L28.4106 35.6335C28.3399 34.784 28.8 33.7225 29.5431 33.0855L43.3805 20.9466L57.2534 17.0891C57.6075 16.983 57.9612 17.0537 58.2091 17.2661C58.4924 17.5138 58.6336 17.9385 58.5982 18.4693L56.9705 38.4293C56.581 43.0299 54.4222 48.2678 51.131 52.4084L43.593 61.9637ZM43.593 21.3359L29.8263 33.4038C29.1892 33.97 28.7645 34.8903 28.8353 35.5981L30.4633 53.6824C30.8172 57.7168 32.9052 60.3356 36.0549 60.6897L43.4159 61.5037L50.8127 52.1252C54.033 48.0554 56.1919 42.8886 56.5456 38.3585L58.1737 18.3985C58.2091 18.0093 58.1028 17.7261 57.9258 17.5492C57.7491 17.4076 57.5367 17.443 57.395 17.4784L43.593 21.3359Z" fill="url(#paint3_linear_1_660)"/>
<mask id="mask0_1_660" style="mask-type:alpha" maskUnits="userSpaceOnUse" x="42" y="38" width="32" height="19">
<path d="M73.5686 56.9736C73.4977 56.9736 73.4623 56.9736 73.3915 56.9382L43.0269 39.4205C42.8499 39.3142 42.8145 39.1018 42.8853 38.9247C42.9915 38.7481 43.204 38.7127 43.381 38.7835L73.7456 56.3012C73.9227 56.4075 73.9581 56.6199 73.8872 56.797C73.8164 56.9028 73.6748 56.9736 73.5686 56.9736Z" fill="url(#paint4_linear_1_660)"/>
</mask>
<g mask="url(#mask0_1_660)">
<path d="M73.5686 56.9736C73.4977 56.9736 73.4623 56.9736 73.3915 56.9382L43.0269 39.4205C42.8499 39.3142 42.8145 39.1018 42.8853 38.9247C42.9915 38.7481 43.204 38.7127 43.381 38.7835L73.7456 56.3012C73.9227 56.4075 73.9581 56.6199 73.8872 56.797C73.8164 56.9028 73.6748 56.9736 73.5686 56.9736Z" fill="url(#paint5_linear_1_660)"/>
</g>
<defs>
<linearGradient id="paint0_linear_1_660" x1="16.9498" y1="-0.20227" x2="53.9516" y2="67.8334" gradientUnits="userSpaceOnUse">
<stop stop-color="#7C4EFF"/>
<stop offset="0.904355" stop-color="#7C4EFF" stop-opacity="0"/>
</linearGradient>
<linearGradient id="paint1_linear_1_660" x1="2.19003" y1="0.294644" x2="7.74031" y2="10.5" gradientUnits="userSpaceOnUse">
<stop stop-color="#7C4EFF"/>
<stop offset="0.904355" stop-color="#7C4EFF" stop-opacity="0"/>
</linearGradient>
<linearGradient id="paint2_linear_1_660" x1="26.2984" y1="15.7839" x2="4.59111" y2="28.7003" gradientUnits="userSpaceOnUse">
<stop stop-color="#BCBEFF"/>
<stop offset="0.1659" stop-color="#B6B8FC"/>
<stop offset="0.3956" stop-color="#A4A8F5"/>
<stop offset="0.6625" stop-color="#868DEA"/>
<stop offset="0.9554" stop-color="#5E67DA"/>
<stop offset="1" stop-color="#5761D7"/>
</linearGradient>
<linearGradient id="paint3_linear_1_660" x1="28.4061" y1="39.42" x2="58.6105" y2="39.42" gradientUnits="userSpaceOnUse">
<stop stop-color="#5472D8"/>
<stop offset="0.2791" stop-color="#4E9CDB"/>
<stop offset="0.4801" stop-color="#49BDDD"/>
<stop offset="0.6715" stop-color="#45DFBA"/>
<stop offset="0.8493" stop-color="#43E3A9"/>
<stop offset="1" stop-color="#16E09E"/>
</linearGradient>
<linearGradient id="paint4_linear_1_660" x1="73.9234" y1="47.837" x2="42.8427" y2="47.837" gradientUnits="userSpaceOnUse">
<stop/>
<stop offset="1" stop-color="white"/>
</linearGradient>
<linearGradient id="paint5_linear_1_660" x1="42.8539" y1="47.8282" x2="73.9282" y2="47.8282" gradientUnits="userSpaceOnUse">
<stop stop-color="#5472D8"/>
<stop offset="0.2791" stop-color="#4E9CDB"/>
<stop offset="0.4801" stop-color="#49BDDD"/>
<stop offset="0.6715" stop-color="#45DFBA"/>
<stop offset="0.8493" stop-color="#43E3A9"/>
<stop offset="1" stop-color="#16E09E"/>
</linearGradient>
</defs>
</svg>
