<svg width="110" height="110" viewBox="0 0 110 110" fill="none" xmlns="http://www.w3.org/2000/svg">
<g opacity="0.2">
<path d="M40.4569 42.6473C40.5558 42.9936 39.8962 43.2409 39.352 43.0595L28.7158 39.4152L44.7444 23.7C45.437 23.0239 46.9705 22.793 48.1743 23.2053L75.4822 32.5552L69.1829 38.7391C68.7707 39.1513 69.3643 39.646 70.1559 39.5636C71.3597 39.4317 72.6294 39.5471 73.7508 39.9264C76.2738 40.7839 77.0818 42.6803 75.5317 44.1149C74.1135 45.4176 71.1453 45.8794 68.7707 45.1538C67.5009 44.7745 66.627 44.1479 66.2147 43.4223C65.9509 42.9936 64.912 42.9276 64.4997 43.3234L58.1839 49.5072L47.5642 45.8794C47.02 45.6815 47.086 45.2198 47.6796 45.1043C48.9164 44.8405 50.0048 44.3128 50.6479 43.5707C51.8022 42.268 50.9942 40.4376 48.8834 39.5966C46.2615 38.5412 42.7161 39.0029 41.133 40.553C40.4734 41.2126 40.259 41.9382 40.4569 42.6473Z" fill="url(#paint0_linear_5403_84330)"/>
<path d="M69.1835 38.739L75.4828 32.5552V39.9758L74.9551 40.5035C74.6088 40.2726 74.2131 40.0912 73.7513 39.9263C72.63 39.5471 71.3603 39.4316 70.1565 39.5635C69.3649 39.646 68.7713 39.1513 69.1835 38.739Z" fill="url(#paint1_linear_5403_84330)"/>
<path d="M76.2738 49.6061C76.4057 50.2492 76.1748 50.9253 75.5317 51.5355C74.1135 52.8382 71.1453 53.2999 68.7707 52.5744C67.5009 52.1951 66.627 51.5685 66.2147 50.8429C65.9509 50.4141 64.912 50.3482 64.4997 50.7439L58.1839 56.9278L47.5642 53.2999C47.2509 53.1845 47.1519 52.9866 47.2179 52.8217V46.5719C44.9093 46.1926 42.4028 46.7368 41.133 47.9736C40.4734 48.6332 40.259 49.3588 40.4569 50.0678C40.5558 50.4141 39.8962 50.6615 39.352 50.4801L28.7158 46.8357V39.4151L39.352 43.0595C39.8962 43.2409 40.5558 42.9935 40.4569 42.6472C40.259 41.9381 40.4734 41.2126 41.133 40.553C42.7161 39.0029 46.2615 38.5411 48.8834 39.5965C50.9942 40.4375 51.8022 42.2679 50.6479 43.5707C50.0048 44.3127 48.9164 44.8404 47.6796 45.1043C47.086 45.2197 47.02 45.6814 47.5642 45.8793L58.1839 49.5072L64.4997 43.3233C64.912 42.9276 65.9509 42.9935 66.2147 43.4223C66.627 44.1478 67.5009 44.7745 68.7707 45.1537C71.1453 45.8793 74.1135 45.4176 75.5317 44.1149C75.944 43.7191 76.1913 43.2903 76.2738 42.8616V49.6061Z" fill="url(#paint2_linear_5403_84330)"/>
<path d="M64.5003 50.7432L58.1846 56.927V49.5064L64.5003 43.3225C64.7147 43.1247 65.094 43.0422 65.4568 43.0587V50.4793C65.094 50.4628 64.7147 50.5453 64.5003 50.7432Z" fill="url(#paint3_linear_5403_84330)"/>
<path d="M58.1839 49.5072V56.9278L47.5642 53.2999C47.2509 53.1845 47.1519 52.9866 47.2179 52.8217V46.5719C44.9093 46.1926 42.4028 46.7368 41.133 47.9736C40.4734 48.6332 40.259 49.3588 40.4569 50.0678C40.5558 50.4141 39.8962 50.6615 39.352 50.4801L28.7158 46.8357V39.4151L39.352 43.0595C39.8962 43.2409 40.5558 42.9935 40.4569 42.6472C40.259 41.9381 40.4734 41.2126 41.133 40.553C42.7161 39.0029 46.2615 38.5411 48.8834 39.5965C50.9942 40.4375 51.8022 42.2679 50.6479 43.5707C50.0048 44.3127 48.9164 44.8404 47.6796 45.1043C47.086 45.2197 47.02 45.6814 47.5642 45.8793L58.1839 49.5072Z" fill="url(#paint4_linear_5403_84330)"/>
<path d="M28.7158 39.4146L38.5935 42.7951L28.7158 39.4146Z" fill="url(#paint5_linear_5403_84330)"/>
<path d="M47.2005 46.5549C44.9084 46.1921 42.4019 46.7363 41.1321 47.9731C40.4725 48.6327 40.2581 49.3583 40.456 50.0674C40.522 50.2652 40.2251 50.4301 40.1592 50.4631V43.0425C40.3736 42.96 40.5055 42.8116 40.456 42.6467C40.2581 41.9376 40.4725 41.2121 41.1321 40.5525C42.7152 39.0024 46.2606 38.5407 48.8825 39.596C50.9933 40.437 51.8013 42.2675 50.647 43.5702C50.0039 44.3122 48.9155 44.8399 47.6787 45.1038C47.2995 45.1697 47.1511 45.3841 47.2005 45.5655V46.5549Z" fill="url(#paint6_linear_5403_84330)"/>
<g style="mix-blend-mode:color-dodge">
<path opacity="0.2" d="M69.1829 38.4094L75.1194 32.5884L75.4822 32.7203L69.1829 38.9042C69.1719 38.9151 69.1609 38.9261 69.1499 38.9371C69.018 38.7887 69.0015 38.5908 69.1829 38.4094Z" fill="url(#paint7_radial_5403_84330)"/>
<path opacity="0.2" d="M76.2899 42.4492C76.3888 43.0594 76.1415 43.7025 75.5313 44.2796C74.1132 45.5824 71.1449 46.0441 68.7703 45.3185C67.5006 44.9392 66.6266 44.3126 66.2143 43.587C65.9505 43.1583 64.9116 43.0923 64.4993 43.4881L58.1836 49.672L47.5638 46.0441C47.1516 45.8957 47.0856 45.5989 47.333 45.4175C47.3824 45.4669 47.4649 45.4999 47.5638 45.5494L58.1836 49.1773L64.4993 42.9934C64.9116 42.5976 65.9505 42.6636 66.2143 43.0923C66.6266 43.8179 67.5006 44.4445 68.7703 44.8238C71.1449 45.5494 74.1132 45.0877 75.5313 43.7849C75.9766 43.3562 76.2239 42.9109 76.2899 42.4492Z" fill="url(#paint8_radial_5403_84330)"/>
<path opacity="0.2" d="M40.4569 42.8127C40.5558 43.159 39.8962 43.4063 39.352 43.2249L28.7158 39.5806L29.0951 39.2178L39.352 42.7302C39.7643 42.8786 40.2425 42.7632 40.4074 42.5488C40.4184 42.6368 40.4349 42.7247 40.4569 42.8127Z" fill="url(#paint9_radial_5403_84330)"/>
<path opacity="0.2" d="M48.8838 39.7611C46.2619 38.7058 42.7164 39.1675 41.1334 40.7176C40.7046 41.1463 40.4738 41.6081 40.4078 42.0533C40.3253 41.4432 40.5562 40.8 41.1334 40.2229C42.7164 38.6728 46.2619 38.2111 48.8838 39.2664C50.4669 39.8931 51.3079 41.0804 51.1595 42.1852C51.044 41.2288 50.2195 40.2888 48.8838 39.7611Z" fill="url(#paint10_radial_5403_84330)"/>
</g>
</g>
<g opacity="0.2">
<path d="M33.4655 64.0199C34.0757 64.0528 34.3395 64.4981 33.9107 64.7454L25.2039 69.775L2.74413 56.7971C1.75472 56.2365 1.75472 55.313 2.72765 54.7523L25.0555 41.8569L33.8943 46.9689C34.4714 47.2987 35.4608 47.1008 35.5103 46.6226C35.5928 45.93 36.0875 45.2374 37.0109 44.7097C39.0557 43.5224 42.4197 43.5554 44.448 44.7922C46.2949 45.9135 46.3444 47.6945 44.5635 48.8323C43.6235 49.4425 42.3373 49.7723 41.0345 49.8217C40.243 49.8547 39.8802 50.4319 40.4574 50.7617L49.2962 55.8572L40.6058 60.8702C40.1606 61.1341 39.402 60.9692 39.336 60.6229C39.2041 59.8643 38.594 59.1222 37.5056 58.5616C35.5928 57.5887 32.3277 57.5722 30.3983 58.5286C28.0072 59.7324 27.9248 61.8267 30.1345 63.1129C31.0579 63.6571 32.2452 63.9539 33.4655 64.0199Z" fill="url(#paint11_linear_5403_84330)"/>
<path d="M45.8315 47.1504V53.8619L40.4557 50.7618C39.8785 50.432 40.2413 49.8548 41.0328 49.8218C42.3356 49.7723 43.6218 49.4425 44.5618 48.8324C45.3038 48.3542 45.7326 47.7605 45.8315 47.1504Z" fill="url(#paint12_linear_5403_84330)"/>
<path d="M49.2985 55.8569V63.4095L48.9357 63.4919L40.6082 68.2906C40.1629 68.5544 39.4044 68.3895 39.3384 68.0432C39.2065 67.2847 38.5963 66.5426 37.508 65.982C36.5845 65.5202 35.3643 65.2729 34.1275 65.2399V64.4319C34.1275 64.4209 34.1275 64.4154 34.1275 64.4154V64.3989C34.0945 64.2175 33.8471 64.0361 33.4679 64.0196C32.2476 63.9537 31.0603 63.6568 30.1368 63.1127C27.9271 61.8264 28.0096 59.7321 30.4007 58.5284C32.33 57.5719 35.5951 57.5884 37.508 58.5613C38.5963 59.122 39.2065 59.8641 39.3384 60.6226C39.4044 60.9689 40.1629 61.1338 40.6082 60.87L49.2985 55.8569Z" fill="url(#paint13_linear_5403_84330)"/>
<path d="M25.2047 69.7748V77.1954L2.74499 64.2175C2.18432 63.9042 1.95346 63.4755 2.01943 63.0467L2.00293 63.0632V55.791C2.01942 56.1538 2.26677 56.5166 2.74499 56.7969L25.2047 69.7748Z" fill="url(#paint14_linear_5403_84330)"/>
<path d="M34.1273 64.4326V65.2406V71.8368C34.1273 71.8368 34.1273 71.8422 34.1273 71.8532V71.9027H34.1108C34.1108 71.9852 34.0448 72.0841 33.9129 72.1666L25.2061 77.1961V69.7755L33.9129 64.7459C34.0613 64.6635 34.1273 64.548 34.1273 64.4326Z" fill="url(#paint15_linear_5403_84330)"/>
<g style="mix-blend-mode:color-dodge">
<path opacity="0.2" d="M33.9096 65.0749L25.2027 70.1045L2.74294 57.1266C2.09982 56.7638 1.88545 56.2361 2.06685 55.7744C2.18228 56.0218 2.39665 56.2691 2.74294 56.467L25.2027 69.4448L33.8601 64.4483C34.1734 64.5967 34.2394 64.8935 33.9096 65.0749Z" fill="url(#paint16_radial_5403_84330)"/>
<path opacity="0.2" d="M45.8311 46.853C45.996 47.6611 45.5673 48.5185 44.5614 49.1617C43.6214 49.7718 42.3352 50.1016 41.0324 50.1511C40.7521 50.1676 40.5212 50.25 40.3563 50.3655C39.9276 50.0357 40.2739 49.5245 41.0324 49.4915C42.3352 49.442 43.6214 49.1122 44.5614 48.5021C45.3034 48.0403 45.7157 47.4467 45.8311 46.853Z" fill="url(#paint17_radial_5403_84330)"/>
<path opacity="0.2" d="M48.7184 55.8569L49.2956 56.1867L40.6052 61.1998C40.16 61.4636 39.4014 61.2987 39.3355 60.9524C39.2035 60.1939 38.5934 59.4518 37.505 58.8911C35.5922 57.9182 32.3271 57.9017 30.3977 58.8582C29.3094 59.4023 28.6992 60.1279 28.5673 60.8865C28.3859 59.9135 28.9961 58.9076 30.3977 58.1986C32.3271 57.2421 35.5922 57.2586 37.505 58.2315C38.5934 58.7922 39.2035 59.5343 39.3355 60.2928C39.4014 60.6391 40.16 60.804 40.6052 60.5402L48.7184 55.8569Z" fill="url(#paint18_radial_5403_84330)"/>
</g>
</g>
<g opacity="0.2">
<path d="M77.4117 46.8366C76.8016 46.8037 76.5377 46.3584 76.9665 46.1111L85.6733 41.0815L108.133 54.0594C109.122 54.6201 109.123 55.5435 108.15 56.1042L85.8218 68.9996L76.983 63.8876C76.4058 63.5578 75.4164 63.7557 75.3669 64.2339C75.301 64.9265 74.7898 65.6191 73.8663 66.1468C71.8215 67.3341 68.4575 67.3011 66.4292 66.0643C64.5823 64.943 64.5328 63.162 66.3138 62.0242C67.2702 61.414 68.5399 61.0842 69.8427 61.0348C70.6507 61.0018 70.997 60.4411 70.4198 60.0948L61.5811 54.9993L70.2714 49.9863C70.7167 49.7224 71.4752 49.8873 71.5412 50.2336C71.6731 51.0087 72.2832 51.7343 73.3716 52.2949C75.301 53.2679 78.5495 53.2843 80.4789 52.3279C82.87 51.1241 82.9689 49.0299 80.7427 47.7436C79.8193 47.1994 78.632 46.9026 77.4117 46.8366Z" fill="url(#paint19_linear_5403_84330)"/>
<path opacity="0.5" d="M76.7539 53.0369V46.4243C76.7704 46.6222 77.0178 46.8201 77.4135 46.8366C78.6338 46.9025 79.8211 47.1994 80.7445 47.7435C82.9707 49.0298 82.8718 51.124 80.4807 52.3278C79.4748 52.8225 78.1061 53.0534 76.7539 53.0369Z" fill="url(#paint20_linear_5403_84330)"/>
<path d="M108.151 63.5243L85.8232 76.4197V68.9991L108.151 56.1037C108.646 55.8069 108.893 55.4276 108.877 55.0483H108.893V62.469H108.877C108.893 62.8482 108.646 63.2275 108.151 63.5243Z" fill="url(#paint21_linear_5403_84330)"/>
<path d="M65.0605 64.3985H65.0275L61.5811 62.4196V54.999L70.4198 60.0945C70.997 60.4408 70.6507 61.0015 69.8427 61.0345C68.5399 61.0839 67.2702 61.4137 66.3138 62.0239C65.2914 62.6835 64.8791 63.5575 65.0605 64.3985Z" fill="url(#paint22_linear_5403_84330)"/>
<path d="M85.8243 68.9999V76.4205L76.9855 71.3085C76.7052 71.1436 76.3094 71.1106 75.9961 71.1766V63.756C76.3094 63.69 76.7052 63.723 76.9855 63.8879L85.8243 68.9999Z" fill="url(#paint23_linear_5403_84330)"/>
<path d="M75.9927 63.7554V71.176C75.6629 71.242 75.3991 71.4069 75.3661 71.6542C75.3001 72.3468 74.7889 73.0394 73.8655 73.5671C71.8207 74.7544 68.4567 74.7214 66.4284 73.4846C65.4225 72.8745 64.9607 72.0665 65.0267 71.2749V64.3985H65.0597C65.2081 65.0086 65.6533 65.6023 66.4284 66.064C68.4567 67.3008 71.8207 67.3338 73.8655 66.1465C74.7889 65.6188 75.3001 64.9262 75.3661 64.2336C75.3991 63.9862 75.6629 63.8213 75.9927 63.7554Z" fill="url(#paint24_linear_5403_84330)"/>
<g style="mix-blend-mode:color-dodge">
<path opacity="0.2" d="M70.4198 60.4248L61.5811 55.3293L62.1582 54.9995L70.4198 59.7652C70.7826 59.9796 70.7826 60.2929 70.5188 60.4908C70.4858 60.4688 70.4528 60.4468 70.4198 60.4248Z" fill="url(#paint25_radial_5403_84330)"/>
<path opacity="0.2" d="M76.9666 46.4412L77.0161 46.4082C77.1315 46.4577 77.2634 46.4907 77.4118 46.5071C78.6321 46.5731 79.8194 46.8699 80.7429 47.4141C81.9632 48.1067 82.4744 49.0631 82.3094 49.9701C82.1775 49.2775 81.6663 48.6014 80.7429 48.0737C79.8194 47.5295 78.6321 47.2327 77.4118 47.1668C76.8017 47.1338 76.5379 46.6885 76.9666 46.4412Z" fill="url(#paint26_radial_5403_84330)"/>
</g>
<path style="mix-blend-mode:color-dodge" opacity="0.2" d="M85.7564 68.6207V69.2803L76.9836 64.2178C76.4064 63.8879 75.417 64.0858 75.3676 64.564C75.3016 65.2566 74.7904 65.9492 73.8669 66.4769C71.8222 67.6642 68.4581 67.6312 66.4298 66.3945C65.358 65.7349 64.8962 64.8609 65.0447 64.0034C65.1766 64.6465 65.6383 65.2566 66.4298 65.7349C68.4581 66.9716 71.8222 67.0046 73.8669 65.8173C74.7904 65.2896 75.3016 64.597 75.3676 63.9044C75.417 63.4262 76.4064 63.2283 76.9836 63.5581L85.7564 68.6207Z" fill="url(#paint27_radial_5403_84330)"/>
<path style="mix-blend-mode:color-dodge" opacity="0.2" d="M85.8228 69.3296L85.7568 69.2802V68.6205L85.8228 68.67L108.151 55.7746C108.48 55.5767 108.711 55.3459 108.81 55.082C108.992 55.5602 108.777 56.0714 108.151 56.4342L85.8228 69.3296Z" fill="url(#paint28_radial_5403_84330)"/>
</g>
<g opacity="0.2">
<path d="M69.6283 68.6367C69.5623 68.2739 70.2549 68.0431 70.7661 68.2409L81.0395 72.2316L63.4774 87.3861C62.7023 88.0458 61.1523 88.2271 59.9979 87.7819L33.6465 77.5415L40.5724 71.572C41.0176 71.1927 40.4735 70.665 39.6654 70.731C38.4616 70.8134 37.1919 70.665 36.1035 70.2363C33.6795 69.2963 33.0528 67.3834 34.7513 65.9983C36.3014 64.745 39.3191 64.3822 41.6113 65.1738C42.8481 65.6025 43.6561 66.2621 44.0024 66.9877C44.2003 67.4494 45.2391 67.5319 45.6844 67.1526L52.6103 61.1831L62.8672 65.1738C63.3784 65.3716 63.2795 65.8334 62.6694 65.9323C61.4161 66.1632 60.2783 66.6414 59.5527 67.367C58.2665 68.6367 58.8931 70.4836 60.9214 71.3906C63.4279 72.5284 67.0228 72.1821 68.7543 70.698C69.4798 70.0549 69.7602 69.3293 69.6283 68.6367Z" fill="url(#paint29_linear_5403_84330)"/>
<path d="M81.0395 72.2319V79.6526L63.4774 94.8071C62.7023 95.4667 61.1523 95.6481 59.9979 95.2029L33.6465 84.9624V77.5418L59.9979 87.7823C61.1523 88.2275 62.7023 88.0461 63.4774 87.3865L81.0395 72.2319Z" fill="url(#paint30_linear_5403_84330)"/>
<path d="M40.5727 71.5723L34.5867 76.7338C34.0096 76.2061 33.7457 75.5794 33.8117 74.9528V67.9609C33.9436 68.8514 34.7351 69.6924 36.1038 70.2366C37.1922 70.6653 38.4619 70.8138 39.6657 70.7313C40.4737 70.6653 41.0179 71.193 40.5727 71.5723Z" fill="url(#paint31_linear_5403_84330)"/>
<path d="M63.1647 65.6357V72.001C62.3732 71.9021 61.6146 71.7042 60.922 71.3909C58.8937 70.4839 58.2671 68.637 59.5533 67.3672C60.2789 66.6416 61.4167 66.1634 62.67 65.9326C62.9503 65.8996 63.1152 65.7677 63.1647 65.6357Z" fill="url(#paint32_linear_5403_84330)"/>
<g style="mix-blend-mode:color-dodge">
<path d="M69.6435 68.8184C69.6325 68.8515 69.627 68.8847 69.627 68.9178C69.638 68.8847 69.6435 68.8515 69.6435 68.8184Z" fill="url(#paint33_radial_5403_84330)"/>
<path opacity="0.2" d="M62.67 65.6026C62.769 65.5861 62.8514 65.5696 62.9174 65.5366C63.3626 65.751 63.2472 66.1797 62.67 66.2622C61.4168 66.4931 60.2789 66.9713 59.5534 67.6968C59.1906 68.0431 58.9927 68.4554 58.9103 68.8677C58.8113 68.2245 59.0092 67.5814 59.5534 67.0372C60.2789 66.3117 61.4168 65.8334 62.67 65.6026Z" fill="url(#paint34_radial_5403_84330)"/>
<path opacity="0.2" d="M33.8283 67.73C33.9932 68.571 34.7848 69.379 36.104 69.9067C37.1923 70.3354 38.4621 70.4839 39.6659 70.4014C40.4739 70.3354 41.0181 70.8631 40.5728 71.2424L40.5399 71.2754C40.342 71.127 40.0287 71.028 39.6659 71.061C38.4621 71.1435 37.1923 70.9951 36.104 70.5663C34.4385 69.9067 33.6139 68.8018 33.8283 67.73Z" fill="url(#paint35_radial_5403_84330)"/>
<path opacity="0.2" d="M80.5118 72.3638L81.0395 72.5617L63.4774 87.7162C62.7023 88.3758 61.1523 88.5572 59.9979 88.112L33.6465 77.8715L34.1742 77.4098L59.9979 87.4524C61.1523 87.8976 62.7023 87.7162 63.4774 87.0566L80.5118 72.3638Z" fill="url(#paint36_radial_5403_84330)"/>
</g>
</g>
<g opacity="0.4">
<path d="M40.4569 30.6473C40.5558 30.9936 39.8962 31.2409 39.352 31.0595L28.7158 27.4152L44.7444 11.7C45.437 11.0239 46.9705 10.793 48.1743 11.2053L75.4822 20.5552L69.1829 26.7391C68.7707 27.1513 69.3643 27.646 70.1559 27.5636C71.3597 27.4317 72.6294 27.5471 73.7508 27.9264C76.2738 28.7839 77.0818 30.6803 75.5317 32.1149C74.1135 33.4176 71.1453 33.8794 68.7707 33.1538C67.5009 32.7745 66.627 32.1479 66.2147 31.4223C65.9509 30.9936 64.912 30.9276 64.4997 31.3234L58.1839 37.5072L47.5642 33.8794C47.02 33.6815 47.086 33.2198 47.6796 33.1043C48.9164 32.8405 50.0048 32.3128 50.6479 31.5707C51.8022 30.268 50.9942 28.4376 48.8834 27.5966C46.2615 26.5412 42.7161 27.0029 41.133 28.553C40.4734 29.2126 40.259 29.9382 40.4569 30.6473Z" fill="url(#paint37_linear_5403_84330)"/>
<path d="M69.1835 26.739L75.4828 20.5552V27.9758L74.9551 28.5035C74.6088 28.2726 74.2131 28.0912 73.7513 27.9263C72.63 27.5471 71.3603 27.4316 70.1565 27.5635C69.3649 27.646 68.7713 27.1513 69.1835 26.739Z" fill="url(#paint38_linear_5403_84330)"/>
<path d="M76.2738 37.6061C76.4057 38.2492 76.1748 38.9253 75.5317 39.5355C74.1135 40.8382 71.1453 41.2999 68.7707 40.5744C67.5009 40.1951 66.627 39.5685 66.2147 38.8429C65.9509 38.4141 64.912 38.3482 64.4997 38.7439L58.1839 44.9278L47.5642 41.2999C47.2509 41.1845 47.1519 40.9866 47.2179 40.8217V34.5719C44.9093 34.1926 42.4028 34.7368 41.133 35.9736C40.4734 36.6332 40.259 37.3588 40.4569 38.0678C40.5558 38.4141 39.8962 38.6615 39.352 38.4801L28.7158 34.8357V27.4151L39.352 31.0595C39.8962 31.2409 40.5558 30.9935 40.4569 30.6472C40.259 29.9381 40.4734 29.2126 41.133 28.553C42.7161 27.0029 46.2615 26.5411 48.8834 27.5965C50.9942 28.4375 51.8022 30.2679 50.6479 31.5707C50.0048 32.3127 48.9164 32.8404 47.6796 33.1043C47.086 33.2197 47.02 33.6814 47.5642 33.8793L58.1839 37.5072L64.4997 31.3233C64.912 30.9276 65.9509 30.9935 66.2147 31.4223C66.627 32.1478 67.5009 32.7745 68.7707 33.1537C71.1453 33.8793 74.1135 33.4176 75.5317 32.1149C75.944 31.7191 76.1913 31.2903 76.2738 30.8616V37.6061Z" fill="url(#paint39_linear_5403_84330)"/>
<path d="M64.5003 38.7432L58.1846 44.927V37.5064L64.5003 31.3225C64.7147 31.1247 65.094 31.0422 65.4568 31.0587V38.4793C65.094 38.4628 64.7147 38.5453 64.5003 38.7432Z" fill="url(#paint40_linear_5403_84330)"/>
<path d="M58.1839 37.5072V44.9278L47.5642 41.2999C47.2509 41.1845 47.1519 40.9866 47.2179 40.8217V34.5719C44.9093 34.1926 42.4028 34.7368 41.133 35.9736C40.4734 36.6332 40.259 37.3588 40.4569 38.0678C40.5558 38.4141 39.8962 38.6615 39.352 38.4801L28.7158 34.8357V27.4151L39.352 31.0595C39.8962 31.2409 40.5558 30.9935 40.4569 30.6472C40.259 29.9381 40.4734 29.2126 41.133 28.553C42.7161 27.0029 46.2615 26.5411 48.8834 27.5965C50.9942 28.4375 51.8022 30.2679 50.6479 31.5707C50.0048 32.3127 48.9164 32.8404 47.6796 33.1043C47.086 33.2197 47.02 33.6814 47.5642 33.8793L58.1839 37.5072Z" fill="url(#paint41_linear_5403_84330)"/>
<path d="M28.7158 27.4146L38.5935 30.7951L28.7158 27.4146Z" fill="url(#paint42_linear_5403_84330)"/>
<path d="M47.2005 34.5549C44.9084 34.1921 42.4019 34.7363 41.1321 35.9731C40.4725 36.6327 40.2581 37.3583 40.456 38.0674C40.522 38.2652 40.2251 38.4301 40.1592 38.4631V31.0425C40.3736 30.96 40.5055 30.8116 40.456 30.6467C40.2581 29.9376 40.4725 29.2121 41.1321 28.5525C42.7152 27.0024 46.2606 26.5407 48.8825 27.596C50.9933 28.437 51.8013 30.2675 50.647 31.5702C50.0039 32.3122 48.9155 32.8399 47.6787 33.1038C47.2995 33.1697 47.1511 33.3841 47.2005 33.5655V34.5549Z" fill="url(#paint43_linear_5403_84330)"/>
<g style="mix-blend-mode:color-dodge">
<path opacity="0.2" d="M69.1829 26.4094L75.1194 20.5884L75.4822 20.7203L69.1829 26.9042C69.1719 26.9151 69.1609 26.9261 69.1499 26.9371C69.018 26.7887 69.0015 26.5908 69.1829 26.4094Z" fill="url(#paint44_radial_5403_84330)"/>
<path opacity="0.2" d="M76.2899 30.4492C76.3888 31.0594 76.1415 31.7025 75.5313 32.2796C74.1132 33.5824 71.1449 34.0441 68.7703 33.3185C67.5006 32.9392 66.6266 32.3126 66.2143 31.587C65.9505 31.1583 64.9116 31.0923 64.4993 31.4881L58.1836 37.672L47.5638 34.0441C47.1516 33.8957 47.0856 33.5989 47.333 33.4175C47.3824 33.4669 47.4649 33.4999 47.5638 33.5494L58.1836 37.1773L64.4993 30.9934C64.9116 30.5976 65.9505 30.6636 66.2143 31.0923C66.6266 31.8179 67.5006 32.4445 68.7703 32.8238C71.1449 33.5494 74.1132 33.0877 75.5313 31.7849C75.9766 31.3562 76.2239 30.9109 76.2899 30.4492Z" fill="url(#paint45_radial_5403_84330)"/>
<path opacity="0.2" d="M40.4569 30.8127C40.5558 31.159 39.8962 31.4063 39.352 31.2249L28.7158 27.5806L29.0951 27.2178L39.352 30.7302C39.7643 30.8786 40.2425 30.7632 40.4074 30.5488C40.4184 30.6368 40.4349 30.7247 40.4569 30.8127Z" fill="url(#paint46_radial_5403_84330)"/>
<path opacity="0.2" d="M48.8838 27.7611C46.2619 26.7058 42.7164 27.1675 41.1334 28.7176C40.7046 29.1463 40.4738 29.6081 40.4078 30.0533C40.3253 29.4432 40.5562 28.8 41.1334 28.2229C42.7164 26.6728 46.2619 26.2111 48.8838 27.2664C50.4669 27.8931 51.3079 29.0804 51.1595 30.1852C51.044 29.2288 50.2195 28.2888 48.8838 27.7611Z" fill="url(#paint47_radial_5403_84330)"/>
</g>
</g>
<g opacity="0.4">
<path d="M33.4655 52.5438C34.0757 52.5768 34.3395 53.022 33.9107 53.2694L25.2039 58.2989L2.74413 45.321C1.75472 44.7604 1.75472 43.8369 2.72765 43.2762L25.0555 30.3809L33.8943 35.4928C34.4714 35.8226 35.4608 35.6248 35.5103 35.1465C35.5928 34.454 36.0875 33.7614 37.0109 33.2337C39.0557 32.0464 42.4197 32.0794 44.448 33.3161C46.2949 34.4375 46.3444 36.2184 44.5635 37.3562C43.6235 37.9664 42.3373 38.2962 41.0345 38.3457C40.243 38.3786 39.8802 38.9558 40.4574 39.2856L49.2962 44.3811L40.6058 49.3941C40.1606 49.658 39.402 49.4931 39.336 49.1468C39.2041 48.3882 38.594 47.6462 37.5056 47.0855C35.5928 46.1126 32.3277 46.0961 30.3983 47.0525C28.0072 48.2563 27.9248 50.3506 30.1345 51.6368C31.0579 52.181 32.2452 52.4778 33.4655 52.5438Z" fill="url(#paint48_linear_5403_84330)"/>
<path d="M45.8315 35.6743V42.3859L40.4557 39.2857C39.8785 38.9559 40.2413 38.3787 41.0328 38.3457C42.3356 38.2963 43.6218 37.9665 44.5618 37.3563C45.3038 36.8781 45.7326 36.2845 45.8315 35.6743Z" fill="url(#paint49_linear_5403_84330)"/>
<path d="M49.2985 44.3809V51.9334L48.9357 52.0159L40.6082 56.8145C40.1629 57.0784 39.4044 56.9135 39.3384 56.5672C39.2065 55.8086 38.5963 55.0666 37.508 54.5059C36.5845 54.0442 35.3643 53.7968 34.1275 53.7638V52.9558C34.1275 52.9448 34.1275 52.9393 34.1275 52.9393V52.9228C34.0945 52.7414 33.8471 52.56 33.4679 52.5435C32.2476 52.4776 31.0603 52.1808 30.1368 51.6366C27.9271 50.3503 28.0096 48.2561 30.4007 47.0523C32.33 46.0958 35.5951 46.1123 37.508 47.0853C38.5963 47.6459 39.2065 48.388 39.3384 49.1465C39.4044 49.4928 40.1629 49.6577 40.6082 49.3939L49.2985 44.3809Z" fill="url(#paint50_linear_5403_84330)"/>
<path d="M25.2047 58.2987V65.7193L2.74499 52.7415C2.18432 52.4282 1.95346 51.9994 2.01943 51.5707L2.00293 51.5872V44.3149C2.01942 44.6777 2.26677 45.0405 2.74499 45.3208L25.2047 58.2987Z" fill="url(#paint51_linear_5403_84330)"/>
<path d="M34.1273 52.9565V53.7646V60.3607C34.1273 60.3607 34.1273 60.3662 34.1273 60.3772V60.4266H34.1108C34.1108 60.5091 34.0448 60.608 33.9129 60.6905L25.2061 65.72V58.2994L33.9129 53.2699C34.0613 53.1874 34.1273 53.072 34.1273 52.9565Z" fill="url(#paint52_linear_5403_84330)"/>
<g style="mix-blend-mode:color-dodge">
<path opacity="0.2" d="M33.9096 53.5989L25.2027 58.6284L2.74294 45.6505C2.09982 45.2878 1.88545 44.7601 2.06685 44.2983C2.18228 44.5457 2.39665 44.793 2.74294 44.9909L25.2027 57.9688L33.8601 52.9722C34.1734 53.1206 34.2394 53.4175 33.9096 53.5989Z" fill="url(#paint53_radial_5403_84330)"/>
<path opacity="0.2" d="M45.8311 35.377C45.996 36.185 45.5673 37.0425 44.5614 37.6856C43.6214 38.2957 42.3352 38.6255 41.0324 38.675C40.7521 38.6915 40.5212 38.774 40.3563 38.8894C39.9276 38.5596 40.2739 38.0484 41.0324 38.0154C42.3352 37.9659 43.6214 37.6361 44.5614 37.026C45.3034 36.5643 45.7157 35.9706 45.8311 35.377Z" fill="url(#paint54_radial_5403_84330)"/>
<path opacity="0.2" d="M48.7184 44.3809L49.2956 44.7107L40.6052 49.7237C40.16 49.9876 39.4014 49.8226 39.3355 49.4764C39.2035 48.7178 38.5934 47.9757 37.505 47.4151C35.5922 46.4421 32.3271 46.4257 30.3977 47.3821C29.3094 47.9263 28.6992 48.6518 28.5673 49.4104C28.3859 48.4375 28.9961 47.4316 30.3977 46.7225C32.3271 45.766 35.5922 45.7825 37.505 46.7555C38.5934 47.3161 39.2035 48.0582 39.3355 48.8167C39.4014 49.163 40.16 49.3279 40.6052 49.0641L48.7184 44.3809Z" fill="url(#paint55_radial_5403_84330)"/>
</g>
</g>
<g opacity="0.4">
<path d="M77.4117 35.3606C76.8016 35.3276 76.5377 34.8824 76.9665 34.635L85.6733 29.6055L108.133 42.5833C109.122 43.144 109.123 44.0674 108.15 44.6281L85.8218 57.5235L76.983 52.4115C76.4058 52.0817 75.4164 52.2796 75.3669 52.7578C75.301 53.4504 74.7898 54.143 73.8663 54.6707C71.8215 55.858 68.4575 55.825 66.4292 54.5882C64.5823 53.4669 64.5328 51.6859 66.3138 50.5481C67.2702 49.938 68.5399 49.6082 69.8427 49.5587C70.6507 49.5257 70.997 48.965 70.4198 48.6188L61.5811 43.5233L70.2714 38.5102C70.7167 38.2464 71.4752 38.4113 71.5412 38.7576C71.6731 39.5326 72.2832 40.2582 73.3716 40.8189C75.301 41.7918 78.5495 41.8083 80.4789 40.8518C82.87 39.648 82.9689 37.5538 80.7427 36.2675C79.8193 35.7234 78.632 35.4265 77.4117 35.3606Z" fill="url(#paint56_linear_5403_84330)"/>
<path opacity="0.5" d="M76.7539 41.5608V34.9482C76.7704 35.1461 77.0178 35.344 77.4135 35.3605C78.6338 35.4265 79.8211 35.7233 80.7445 36.2675C82.9707 37.5537 82.8718 39.648 80.4807 40.8518C79.4748 41.3465 78.1061 41.5773 76.7539 41.5608Z" fill="url(#paint57_linear_5403_84330)"/>
<path d="M108.151 52.0483L85.8232 64.9437V57.523L108.151 44.6276C108.646 44.3308 108.893 43.9515 108.877 43.5723H108.893V50.9929H108.877C108.893 51.3722 108.646 51.7514 108.151 52.0483Z" fill="url(#paint58_linear_5403_84330)"/>
<path d="M65.0605 52.9224H65.0275L61.5811 50.9436V43.5229L70.4198 48.6184C70.997 48.9647 70.6507 49.5254 69.8427 49.5584C68.5399 49.6079 67.2702 49.9377 66.3138 50.5478C65.2914 51.2074 64.8791 52.0814 65.0605 52.9224Z" fill="url(#paint59_linear_5403_84330)"/>
<path d="M85.8243 57.5238V64.9444L76.9855 59.8324C76.7052 59.6675 76.3094 59.6346 75.9961 59.7005V52.2799C76.3094 52.2139 76.7052 52.2469 76.9855 52.4118L85.8243 57.5238Z" fill="url(#paint60_linear_5403_84330)"/>
<path d="M75.9927 52.2793V59.6999C75.6629 59.7659 75.3991 59.9308 75.3661 60.1781C75.3001 60.8707 74.7889 61.5633 73.8655 62.091C71.8207 63.2783 68.4567 63.2453 66.4284 62.0086C65.4225 61.3984 64.9607 60.5904 65.0267 59.7989V52.9224H65.0597C65.2081 53.5326 65.6533 54.1262 66.4284 54.5879C68.4567 55.8247 71.8207 55.8577 73.8655 54.6704C74.7889 54.1427 75.3001 53.4501 75.3661 52.7575C75.3991 52.5102 75.6629 52.3453 75.9927 52.2793Z" fill="url(#paint61_linear_5403_84330)"/>
<g style="mix-blend-mode:color-dodge">
<path opacity="0.2" d="M70.4198 48.9487L61.5811 43.8532L62.1582 43.5234L70.4198 48.2891C70.7826 48.5035 70.7826 48.8168 70.5188 49.0147C70.4858 48.9927 70.4528 48.9707 70.4198 48.9487Z" fill="url(#paint62_radial_5403_84330)"/>
<path opacity="0.2" d="M76.9666 34.9651L77.0161 34.9321C77.1315 34.9816 77.2634 35.0146 77.4118 35.0311C78.6321 35.097 79.8194 35.3939 80.7429 35.938C81.9632 36.6306 82.4744 37.5871 82.3094 38.494C82.1775 37.8014 81.6663 37.1253 80.7429 36.5976C79.8194 36.0535 78.6321 35.7566 77.4118 35.6907C76.8017 35.6577 76.5379 35.2125 76.9666 34.9651Z" fill="url(#paint63_radial_5403_84330)"/>
</g>
<path style="mix-blend-mode:color-dodge" opacity="0.2" d="M85.7564 57.1446V57.8042L76.9836 52.7417C76.4064 52.4119 75.417 52.6098 75.3676 53.088C75.3016 53.7806 74.7904 54.4732 73.8669 55.0008C71.8222 56.1881 68.4581 56.1552 66.4298 54.9184C65.358 54.2588 64.8962 53.3848 65.0447 52.5273C65.1766 53.1704 65.6383 53.7806 66.4298 54.2588C68.4581 55.4956 71.8222 55.5285 73.8669 54.3412C74.7904 53.8135 75.3016 53.121 75.3676 52.4284C75.417 51.9501 76.4064 51.7523 76.9836 52.0821L85.7564 57.1446Z" fill="url(#paint64_radial_5403_84330)"/>
<path style="mix-blend-mode:color-dodge" opacity="0.2" d="M85.8228 57.8536L85.7568 57.8041V57.1445L85.8228 57.1939L108.151 44.2986C108.48 44.1007 108.711 43.8698 108.81 43.606C108.992 44.0842 108.777 44.5954 108.151 44.9582L85.8228 57.8536Z" fill="url(#paint65_radial_5403_84330)"/>
</g>
<g opacity="0.4">
<path d="M69.6283 57.1606C69.5623 56.7978 70.2549 56.567 70.7661 56.7649L81.0395 60.7555L63.4774 75.9101C62.7023 76.5697 61.1523 76.7511 59.9979 76.3058L33.6465 66.0654L40.5724 60.0959C41.0176 59.7166 40.4735 59.1889 39.6654 59.2549C38.4616 59.3374 37.1919 59.1889 36.1035 58.7602C33.6795 57.8202 33.0528 55.9074 34.7513 54.5222C36.3014 53.2689 39.3191 52.9061 41.6113 53.6977C42.8481 54.1264 43.6561 54.786 44.0024 55.5116C44.2003 55.9733 45.2391 56.0558 45.6844 55.6765L52.6103 49.707L62.8672 53.6977C63.3784 53.8956 63.2795 54.3573 62.6694 54.4562C61.4161 54.6871 60.2783 55.1653 59.5527 55.8909C58.2665 57.1606 58.8931 59.0075 60.9214 59.9145C63.4279 61.0523 67.0228 60.706 68.7543 59.2219C69.4798 58.5788 69.7602 57.8532 69.6283 57.1606Z" fill="url(#paint66_linear_5403_84330)"/>
<path d="M81.0395 60.7559V68.1765L63.4774 83.331C62.7023 83.9907 61.1523 84.172 59.9979 83.7268L33.6465 73.4864V66.0657L59.9979 76.3062C61.1523 76.7514 62.7023 76.57 63.4774 75.9104L81.0395 60.7559Z" fill="url(#paint67_linear_5403_84330)"/>
<path d="M40.5727 60.0962L34.5867 65.2577C34.0096 64.73 33.7457 64.1034 33.8117 63.4767V56.4849C33.9436 57.3753 34.7351 58.2163 36.1038 58.7605C37.1922 59.1893 38.4619 59.3377 39.6657 59.2552C40.4737 59.1893 41.0179 59.717 40.5727 60.0962Z" fill="url(#paint68_linear_5403_84330)"/>
<path d="M63.1647 54.1597V60.5249C62.3732 60.426 61.6146 60.2281 60.922 59.9148C58.8937 59.0078 58.2671 57.1609 59.5533 55.8911C60.2789 55.1656 61.4167 54.6874 62.67 54.4565C62.9503 54.4235 63.1152 54.2916 63.1647 54.1597Z" fill="url(#paint69_linear_5403_84330)"/>
<g style="mix-blend-mode:color-dodge">
<path d="M69.6435 57.3423C69.6325 57.3754 69.627 57.4086 69.627 57.4417C69.638 57.4086 69.6435 57.3754 69.6435 57.3423Z" fill="url(#paint70_radial_5403_84330)"/>
<path opacity="0.2" d="M62.67 54.1265C62.769 54.11 62.8514 54.0935 62.9174 54.0605C63.3626 54.2749 63.2472 54.7037 62.67 54.7861C61.4168 55.017 60.2789 55.4952 59.5534 56.2208C59.1906 56.5671 58.9927 56.9793 58.9103 57.3916C58.8113 56.7485 59.0092 56.1053 59.5534 55.5612C60.2789 54.8356 61.4168 54.3574 62.67 54.1265Z" fill="url(#paint71_radial_5403_84330)"/>
<path opacity="0.2" d="M33.8283 56.2539C33.9932 57.0949 34.7848 57.9029 36.104 58.4306C37.1923 58.8594 38.4621 59.0078 39.6659 58.9253C40.4739 58.8594 41.0181 59.3871 40.5728 59.7663L40.5399 59.7993C40.342 59.6509 40.0287 59.552 39.6659 59.5849C38.4621 59.6674 37.1923 59.519 36.104 59.0902C34.4385 58.4306 33.6139 57.3258 33.8283 56.2539Z" fill="url(#paint72_radial_5403_84330)"/>
<path opacity="0.2" d="M80.5118 60.8877L81.0395 61.0856L63.4774 76.2401C62.7023 76.8998 61.1523 77.0811 59.9979 76.6359L33.6465 66.3955L34.1742 65.9337L59.9979 75.9763C61.1523 76.4215 62.7023 76.2401 63.4774 75.5805L80.5118 60.8877Z" fill="url(#paint73_radial_5403_84330)"/>
</g>
</g>
<g opacity="0.8">
<path d="M40.4569 19.6473C40.5558 19.9936 39.8962 20.2409 39.352 20.0595L28.7158 16.4152L44.7444 0.69996C45.437 0.0238586 46.9705 -0.207005 48.1743 0.205252L75.4822 9.55523L69.1829 15.7391C68.7707 16.1513 69.3643 16.646 70.1559 16.5636C71.3597 16.4317 72.6294 16.5471 73.7508 16.9264C76.2738 17.7839 77.0818 19.6803 75.5317 21.1149C74.1135 22.4176 71.1453 22.8794 68.7707 22.1538C67.5009 21.7745 66.627 21.1479 66.2147 20.4223C65.9509 19.9936 64.912 19.9276 64.4997 20.3234L58.1839 26.5072L47.5642 22.8794C47.02 22.6815 47.086 22.2198 47.6796 22.1043C48.9164 21.8405 50.0048 21.3128 50.6479 20.5707C51.8022 19.268 50.9942 17.4376 48.8834 16.5966C46.2615 15.5412 42.7161 16.0029 41.133 17.553C40.4734 18.2126 40.259 18.9382 40.4569 19.6473Z" fill="url(#paint74_linear_5403_84330)"/>
<path d="M69.1835 15.739L75.4828 9.55518V16.9758L74.9551 17.5035C74.6088 17.2726 74.2131 17.0912 73.7513 16.9263C72.63 16.5471 71.3603 16.4316 70.1565 16.5635C69.3649 16.646 68.7713 16.1513 69.1835 15.739Z" fill="url(#paint75_linear_5403_84330)"/>
<path d="M76.2738 26.6061C76.4057 27.2492 76.1748 27.9253 75.5317 28.5355C74.1135 29.8382 71.1453 30.2999 68.7707 29.5744C67.5009 29.1951 66.627 28.5685 66.2147 27.8429C65.9509 27.4141 64.912 27.3482 64.4997 27.7439L58.1839 33.9278L47.5642 30.2999C47.2509 30.1845 47.1519 29.9866 47.2179 29.8217V23.5719C44.9093 23.1926 42.4028 23.7368 41.133 24.9736C40.4734 25.6332 40.259 26.3588 40.4569 27.0678C40.5558 27.4141 39.8962 27.6615 39.352 27.4801L28.7158 23.8357V16.4151L39.352 20.0595C39.8962 20.2409 40.5558 19.9935 40.4569 19.6472C40.259 18.9381 40.4734 18.2126 41.133 17.553C42.7161 16.0029 46.2615 15.5411 48.8834 16.5965C50.9942 17.4375 51.8022 19.2679 50.6479 20.5707C50.0048 21.3127 48.9164 21.8404 47.6796 22.1043C47.086 22.2197 47.02 22.6814 47.5642 22.8793L58.1839 26.5072L64.4997 20.3233C64.912 19.9276 65.9509 19.9935 66.2147 20.4223C66.627 21.1478 67.5009 21.7745 68.7707 22.1537C71.1453 22.8793 74.1135 22.4176 75.5317 21.1149C75.944 20.7191 76.1913 20.2903 76.2738 19.8616V26.6061Z" fill="url(#paint76_linear_5403_84330)"/>
<path d="M64.5003 27.7432L58.1846 33.927V26.5064L64.5003 20.3225C64.7147 20.1247 65.094 20.0422 65.4568 20.0587V27.4793C65.094 27.4628 64.7147 27.5453 64.5003 27.7432Z" fill="url(#paint77_linear_5403_84330)"/>
<path d="M58.1839 26.5072V33.9278L47.5642 30.2999C47.2509 30.1845 47.1519 29.9866 47.2179 29.8217V23.5719C44.9093 23.1926 42.4028 23.7368 41.133 24.9736C40.4734 25.6332 40.259 26.3588 40.4569 27.0678C40.5558 27.4141 39.8962 27.6615 39.352 27.4801L28.7158 23.8357V16.4151L39.352 20.0595C39.8962 20.2409 40.5558 19.9935 40.4569 19.6472C40.259 18.9381 40.4734 18.2126 41.133 17.553C42.7161 16.0029 46.2615 15.5411 48.8834 16.5965C50.9942 17.4375 51.8022 19.2679 50.6479 20.5707C50.0048 21.3127 48.9164 21.8404 47.6796 22.1043C47.086 22.2197 47.02 22.6814 47.5642 22.8793L58.1839 26.5072Z" fill="url(#paint78_linear_5403_84330)"/>
<path d="M28.7158 16.4146L38.5935 19.7951L28.7158 16.4146Z" fill="url(#paint79_linear_5403_84330)"/>
<path d="M47.2005 23.5549C44.9084 23.1921 42.4019 23.7363 41.1321 24.9731C40.4725 25.6327 40.2581 26.3583 40.456 27.0674C40.522 27.2652 40.2251 27.4301 40.1592 27.4631V20.0425C40.3736 19.96 40.5055 19.8116 40.456 19.6467C40.2581 18.9376 40.4725 18.2121 41.1321 17.5525C42.7152 16.0024 46.2606 15.5407 48.8825 16.596C50.9933 17.437 51.8013 19.2675 50.647 20.5702C50.0039 21.3122 48.9155 21.8399 47.6787 22.1038C47.2995 22.1697 47.1511 22.3841 47.2005 22.5655V23.5549Z" fill="url(#paint80_linear_5403_84330)"/>
<g style="mix-blend-mode:color-dodge">
<path opacity="0.2" d="M69.1829 15.4092L75.1194 9.58813L75.4822 9.72005L69.1829 15.9039C69.1719 15.9149 69.1609 15.9259 69.1499 15.9369C69.018 15.7885 69.0015 15.5906 69.1829 15.4092Z" fill="url(#paint81_radial_5403_84330)"/>
<path opacity="0.2" d="M76.2899 19.4492C76.3888 20.0594 76.1415 20.7025 75.5313 21.2796C74.1132 22.5824 71.1449 23.0441 68.7703 22.3185C67.5006 21.9392 66.6266 21.3126 66.2143 20.587C65.9505 20.1583 64.9116 20.0923 64.4993 20.4881L58.1836 26.672L47.5638 23.0441C47.1516 22.8957 47.0856 22.5989 47.333 22.4175C47.3824 22.4669 47.4649 22.4999 47.5638 22.5494L58.1836 26.1773L64.4993 19.9934C64.9116 19.5976 65.9505 19.6636 66.2143 20.0923C66.6266 20.8179 67.5006 21.4445 68.7703 21.8238C71.1449 22.5494 74.1132 22.0877 75.5313 20.7849C75.9766 20.3562 76.2239 19.9109 76.2899 19.4492Z" fill="url(#paint82_radial_5403_84330)"/>
<path opacity="0.2" d="M40.4569 19.8122C40.5558 20.1585 39.8962 20.4058 39.352 20.2244L28.7158 16.5801L29.0951 16.2173L39.352 19.7297C39.7643 19.8781 40.2425 19.7627 40.4074 19.5483C40.4184 19.6363 40.4349 19.7242 40.4569 19.8122Z" fill="url(#paint83_radial_5403_84330)"/>
<path opacity="0.2" d="M48.8838 16.7611C46.2619 15.7058 42.7164 16.1675 41.1334 17.7176C40.7046 18.1463 40.4738 18.6081 40.4078 19.0533C40.3253 18.4432 40.5562 17.8 41.1334 17.2229C42.7164 15.6728 46.2619 15.2111 48.8838 16.2664C50.4669 16.8931 51.3079 18.0804 51.1595 19.1852C51.044 18.2288 50.2195 17.2888 48.8838 16.7611Z" fill="url(#paint84_radial_5403_84330)"/>
</g>
</g>
<path d="M33.4655 41.0682C34.0757 41.1012 34.3395 41.5464 33.9107 41.7938L25.2039 46.8233L2.74413 33.8455C1.75472 33.2848 1.75472 32.3613 2.72765 31.8007L25.0555 18.9053L33.8943 24.0173C34.4714 24.3471 35.4608 24.1492 35.5103 23.671C35.5928 22.9784 36.0875 22.2858 37.0109 21.7581C39.0557 20.5708 42.4197 20.6038 44.448 21.8405C46.2949 22.9619 46.3444 24.7428 44.5635 25.8807C43.6235 26.4908 42.3373 26.8206 41.0345 26.8701C40.243 26.9031 39.8802 27.4802 40.4574 27.81L49.2962 32.9055L40.6058 37.9186C40.1606 38.1824 39.402 38.0175 39.336 37.6712C39.2041 36.9126 38.594 36.1706 37.5056 35.6099C35.5928 34.637 32.3277 34.6205 30.3983 35.5769C28.0072 36.7807 27.9248 38.875 30.1345 40.1612C31.0579 40.7054 32.2452 41.0022 33.4655 41.0682Z" fill="url(#paint85_linear_5403_84330)"/>
<path d="M45.8315 24.1992V30.9108L40.4557 27.8106C39.8785 27.4808 40.2413 26.9036 41.0328 26.8706C42.3356 26.8212 43.6218 26.4914 44.5618 25.8812C45.3038 25.403 45.7326 24.8094 45.8315 24.1992Z" fill="url(#paint86_linear_5403_84330)"/>
<path d="M49.2985 32.9053V40.4578L48.9357 40.5403L40.6082 45.3389C40.1629 45.6028 39.4044 45.4379 39.3384 45.0916C39.2065 44.333 38.5963 43.591 37.508 43.0303C36.5845 42.5686 35.3643 42.3212 34.1275 42.2882V41.4802C34.1275 41.4692 34.1275 41.4637 34.1275 41.4637V41.4472C34.0945 41.2658 33.8471 41.0844 33.4679 41.068C32.2476 41.002 31.0603 40.7052 30.1368 40.161C27.9271 38.8748 28.0096 36.7805 30.4007 35.5767C32.33 34.6203 35.5951 34.6368 37.508 35.6097C38.5963 36.1703 39.2065 36.9124 39.3384 37.671C39.4044 38.0173 40.1629 38.1822 40.6082 37.9183L49.2985 32.9053Z" fill="url(#paint87_linear_5403_84330)"/>
<path d="M25.2047 46.8231V54.2437L2.74499 41.2659C2.18432 40.9526 1.95346 40.5238 2.01943 40.0951L2.00293 40.1116V32.8394C2.01942 33.2021 2.26677 33.5649 2.74499 33.8453L25.2047 46.8231Z" fill="url(#paint88_linear_5403_84330)"/>
<path d="M34.1273 41.4805V42.2885V48.8846C34.1273 48.8846 34.1273 48.8901 34.1273 48.9011V48.9506H34.1108C34.1108 49.033 34.0448 49.132 33.9129 49.2144L25.2061 54.2439V46.8233L33.9129 41.7938C34.0613 41.7113 34.1273 41.5959 34.1273 41.4805Z" fill="url(#paint89_linear_5403_84330)"/>
<g style="mix-blend-mode:color-dodge">
<path opacity="0.2" d="M33.9096 42.1233L25.2027 47.1528L2.74294 34.175C2.09982 33.8122 1.88545 33.2845 2.06685 32.8228C2.18228 33.0701 2.39665 33.3175 2.74294 33.5153L25.2027 46.4932L33.8601 41.4966C34.1734 41.645 34.2394 41.9419 33.9096 42.1233Z" fill="url(#paint90_radial_5403_84330)"/>
<path opacity="0.2" d="M45.8311 23.9014C45.996 24.7094 45.5673 25.5669 44.5614 26.21C43.6214 26.8201 42.3352 27.15 41.0324 27.1994C40.7521 27.2159 40.5212 27.2984 40.3563 27.4138C39.9276 27.084 40.2739 26.5728 41.0324 26.5398C42.3352 26.4903 43.6214 26.1605 44.5614 25.5504C45.3034 25.0887 45.7157 24.495 45.8311 23.9014Z" fill="url(#paint91_radial_5403_84330)"/>
<path opacity="0.2" d="M48.7184 32.9048L49.2956 33.2346L40.6052 38.2476C40.16 38.5115 39.4014 38.3466 39.3355 38.0003C39.2035 37.2417 38.5934 36.4997 37.505 35.939C35.5922 34.9661 32.3271 34.9496 30.3977 35.906C29.3094 36.4502 28.6992 37.1758 28.5673 37.9343C28.3859 36.9614 28.9961 35.9555 30.3977 35.2464C32.3271 34.29 35.5922 34.3065 37.505 35.2794C38.5934 35.8401 39.2035 36.5821 39.3355 37.3407C39.4014 37.687 40.16 37.8519 40.6052 37.588L48.7184 32.9048Z" fill="url(#paint92_radial_5403_84330)"/>
</g>
<path d="M77.4117 23.8855C76.8016 23.8525 76.5377 23.4073 76.9665 23.1599L85.6733 18.1304L108.133 31.1082C109.122 31.6689 109.123 32.5923 108.15 33.153L85.8218 46.0484L76.983 40.9364C76.4058 40.6066 75.4164 40.8045 75.3669 41.2827C75.301 41.9753 74.7898 42.6679 73.8663 43.1956C71.8215 44.3829 68.4575 44.3499 66.4292 43.1131C64.5823 41.9918 64.5328 40.2108 66.3138 39.073C67.2702 38.4629 68.5399 38.1331 69.8427 38.0836C70.6507 38.0506 70.997 37.49 70.4198 37.1437L61.5811 32.0482L70.2714 27.0351C70.7167 26.7713 71.4752 26.9362 71.5412 27.2825C71.6731 28.0575 72.2832 28.7831 73.3716 29.3438C75.301 30.3167 78.5495 30.3332 80.4789 29.3767C82.87 28.1729 82.9689 26.0787 80.7427 24.7924C79.8193 24.2483 78.632 23.9514 77.4117 23.8855Z" fill="url(#paint93_linear_5403_84330)"/>
<path opacity="0.5" d="M76.7539 30.0857V23.4731C76.7704 23.671 77.0178 23.8689 77.4135 23.8854C78.6338 23.9514 79.8211 24.2482 80.7445 24.7924C82.9707 26.0786 82.8718 28.1729 80.4807 29.3767C79.4748 29.8714 78.1061 30.1022 76.7539 30.0857Z" fill="url(#paint94_linear_5403_84330)"/>
<path d="M108.151 40.5732L85.8232 53.4686V46.0479L108.151 33.1525C108.646 32.8557 108.893 32.4764 108.877 32.0972H108.893V39.5178H108.877C108.893 39.8971 108.646 40.2763 108.151 40.5732Z" fill="url(#paint95_linear_5403_84330)"/>
<path d="M65.0605 41.4473H65.0275L61.5811 39.4685V32.0479L70.4198 37.1433C70.997 37.4896 70.6507 38.0503 69.8427 38.0833C68.5399 38.1328 67.2702 38.4626 66.3138 39.0727C65.2914 39.7323 64.8791 40.6063 65.0605 41.4473Z" fill="url(#paint96_linear_5403_84330)"/>
<path d="M85.8243 46.0487V53.4693L76.9855 48.3573C76.7052 48.1924 76.3094 48.1595 75.9961 48.2254V40.8048C76.3094 40.7388 76.7052 40.7718 76.9855 40.9367L85.8243 46.0487Z" fill="url(#paint97_linear_5403_84330)"/>
<path d="M75.9927 40.8042V48.2248C75.6629 48.2908 75.3991 48.4557 75.3661 48.703C75.3001 49.3956 74.7889 50.0882 73.8655 50.6159C71.8207 51.8032 68.4567 51.7702 66.4284 50.5335C65.4225 49.9233 64.9607 49.1153 65.0267 48.3238V41.4473H65.0597C65.2081 42.0575 65.6533 42.6511 66.4284 43.1128C68.4567 44.3496 71.8207 44.3826 73.8655 43.1953C74.7889 42.6676 75.3001 41.975 75.3661 41.2824C75.3991 41.0351 75.6629 40.8702 75.9927 40.8042Z" fill="url(#paint98_linear_5403_84330)"/>
<g style="mix-blend-mode:color-dodge">
<path opacity="0.2" d="M70.4198 37.4732L61.5811 32.3777L62.1582 32.0479L70.4198 36.8135C70.7826 37.0279 70.7826 37.3412 70.5188 37.5391C70.4858 37.5171 70.4528 37.4951 70.4198 37.4732Z" fill="url(#paint99_radial_5403_84330)"/>
<path opacity="0.2" d="M76.9666 23.4895L77.0161 23.4565C77.1315 23.506 77.2634 23.539 77.4118 23.5555C78.6321 23.6214 79.8194 23.9183 80.7429 24.4624C81.9632 25.155 82.4744 26.1115 82.3094 27.0184C82.1775 26.3258 81.6663 25.6497 80.7429 25.1221C79.8194 24.5779 78.6321 24.2811 77.4118 24.2151C76.8017 24.1821 76.5379 23.7369 76.9666 23.4895Z" fill="url(#paint100_radial_5403_84330)"/>
</g>
<path style="mix-blend-mode:color-dodge" opacity="0.2" d="M85.7564 45.6695V46.3291L76.9836 41.2666C76.4064 40.9368 75.417 41.1347 75.3676 41.6129C75.3016 42.3055 74.7904 42.9981 73.8669 43.5257C71.8222 44.713 68.4581 44.6801 66.4298 43.4433C65.358 42.7837 64.8962 41.9097 65.0447 41.0522C65.1766 41.6953 65.6383 42.3055 66.4298 42.7837C68.4581 44.0205 71.8222 44.0534 73.8669 42.8661C74.7904 42.3384 75.3016 41.6459 75.3676 40.9533C75.417 40.475 76.4064 40.2772 76.9836 40.607L85.7564 45.6695Z" fill="url(#paint101_radial_5403_84330)"/>
<path style="mix-blend-mode:color-dodge" opacity="0.2" d="M85.8228 46.3785L85.7568 46.329V45.6694L85.8228 45.7188L108.151 32.8235C108.48 32.6256 108.711 32.3947 108.81 32.1309C108.992 32.6091 108.777 33.1203 108.151 33.4831L85.8228 46.3785Z" fill="url(#paint102_radial_5403_84330)"/>
<path d="M69.6283 45.685C69.5623 45.3223 70.2549 45.0914 70.7661 45.2893L81.0395 49.2799L63.4774 64.4345C62.7023 65.0941 61.1523 65.2755 59.9979 64.8302L33.6465 54.5898L40.5724 48.6203C41.0176 48.241 40.4735 47.7134 39.6654 47.7793C38.4616 47.8618 37.1919 47.7134 36.1035 47.2846C33.6795 46.3447 33.0528 44.4318 34.7513 43.0466C36.3014 41.7933 39.3191 41.4306 41.6113 42.2221C42.8481 42.6508 43.6561 43.3105 44.0024 44.036C44.2003 44.4977 45.2391 44.5802 45.6844 44.2009L52.6103 38.2314L62.8672 42.2221C63.3784 42.42 63.2795 42.8817 62.6694 42.9806C61.4161 43.2115 60.2783 43.6897 59.5527 44.4153C58.2665 45.685 58.8931 47.532 60.9214 48.4389C63.4279 49.5768 67.0228 49.2305 68.7543 47.7463C69.4798 47.1032 69.7602 46.3776 69.6283 45.685Z" fill="url(#paint103_linear_5403_84330)"/>
<path d="M81.0395 49.2803V56.7009L63.4774 71.8555C62.7023 72.5151 61.1523 72.6965 59.9979 72.2512L33.6465 62.0108V54.5901L59.9979 64.8306C61.1523 65.2758 62.7023 65.0944 63.4774 64.4348L81.0395 49.2803Z" fill="url(#paint104_linear_5403_84330)"/>
<path d="M40.5727 48.6206L34.5867 53.7821C34.0096 53.2544 33.7457 52.6278 33.8117 52.0012V45.0093C33.9436 45.8998 34.7351 46.7408 36.1038 47.2849C37.1922 47.7137 38.4619 47.8621 39.6657 47.7796C40.4737 47.7137 41.0179 48.2414 40.5727 48.6206Z" fill="url(#paint105_linear_5403_84330)"/>
<path d="M63.1647 42.6841V49.0493C62.3732 48.9504 61.6146 48.7525 60.922 48.4392C58.8937 47.5322 58.2671 45.6853 59.5533 44.4156C60.2789 43.69 61.4167 43.2118 62.67 42.9809C62.9503 42.9479 63.1152 42.816 63.1647 42.6841Z" fill="url(#paint106_linear_5403_84330)"/>
<g style="mix-blend-mode:color-dodge">
<path d="M69.6435 45.8667C69.6325 45.8998 69.627 45.933 69.627 45.9661C69.638 45.933 69.6435 45.8998 69.6435 45.8667Z" fill="url(#paint107_radial_5403_84330)"/>
<path opacity="0.2" d="M62.67 42.6509C62.769 42.6344 62.8514 42.6179 62.9174 42.585C63.3626 42.7993 63.2472 43.2281 62.67 43.3105C61.4168 43.5414 60.2789 44.0196 59.5534 44.7452C59.1906 45.0915 58.9927 45.5037 58.9103 45.916C58.8113 45.2729 59.0092 44.6298 59.5534 44.0856C60.2789 43.36 61.4168 42.8818 62.67 42.6509Z" fill="url(#paint108_radial_5403_84330)"/>
<path opacity="0.2" d="M33.8283 44.7783C33.9932 45.6193 34.7848 46.4273 36.104 46.955C37.1923 47.3838 38.4621 47.5322 39.6659 47.4497C40.4739 47.3838 41.0181 47.9115 40.5728 48.2907L40.5399 48.3237C40.342 48.1753 40.0287 48.0764 39.6659 48.1094C38.4621 48.1918 37.1923 48.0434 36.104 47.6146C34.4385 46.955 33.6139 45.8502 33.8283 44.7783Z" fill="url(#paint109_radial_5403_84330)"/>
<path opacity="0.2" d="M80.5118 49.4116L81.0395 49.6095L63.4774 64.7641C62.7023 65.4237 61.1523 65.6051 59.9979 65.1598L33.6465 54.9194L34.1742 54.4577L59.9979 64.5002C61.1523 64.9455 62.7023 64.7641 63.4774 64.1045L80.5118 49.4116Z" fill="url(#paint110_radial_5403_84330)"/>
</g>
<defs>
<linearGradient id="paint0_linear_5403_84330" x1="48" y1="55" x2="59.5" y2="16.5" gradientUnits="userSpaceOnUse">
<stop stop-color="#0DB880"/>
<stop offset="0.369792" stop-color="#16E09E"/>
<stop offset="0.713542" stop-color="#A3F5C4"/>
<stop offset="1" stop-color="#BCFFDB"/>
</linearGradient>
<linearGradient id="paint1_linear_5403_84330" x1="70" y1="43.5" x2="79.4756" y2="35.7487" gradientUnits="userSpaceOnUse">
<stop stop-color="#0DB880"/>
<stop offset="0.369792" stop-color="#16E09E"/>
<stop offset="0.713542" stop-color="#A3F5C4"/>
<stop offset="1" stop-color="#BCFFDB"/>
</linearGradient>
<linearGradient id="paint2_linear_5403_84330" x1="67" y1="52.9998" x2="67.204" y2="37.3978" gradientUnits="userSpaceOnUse">
<stop stop-color="#0DB880"/>
<stop offset="0.369792" stop-color="#16E09E"/>
<stop offset="0.713542" stop-color="#A3F5C4"/>
<stop offset="1" stop-color="#BCFFDB"/>
</linearGradient>
<linearGradient id="paint3_linear_5403_84330" x1="62" y1="52.9998" x2="72.6162" y2="44.3804" gradientUnits="userSpaceOnUse">
<stop stop-color="#0DB880"/>
<stop offset="0.369792" stop-color="#16E09E"/>
<stop offset="0.713542" stop-color="#A3F5C4"/>
<stop offset="1" stop-color="#BCFFDB"/>
</linearGradient>
<linearGradient id="paint4_linear_5403_84330" x1="47.5" y1="53.0002" x2="58.8606" y2="19.1242" gradientUnits="userSpaceOnUse">
<stop stop-color="#0DB880"/>
<stop offset="0.369792" stop-color="#16E09E"/>
<stop offset="0.713542" stop-color="#A3F5C4"/>
<stop offset="1" stop-color="#BCFFDB"/>
</linearGradient>
<linearGradient id="paint5_linear_5403_84330" x1="19.003" y1="40.9152" x2="47.4323" y2="34.5499" gradientUnits="userSpaceOnUse">
<stop stop-color="#6B24D6"/>
<stop offset="1" stop-color="#A56EF4"/>
</linearGradient>
<linearGradient id="paint6_linear_5403_84330" x1="47" y1="45" x2="54.1004" y2="26.1786" gradientUnits="userSpaceOnUse">
<stop stop-color="#0DB880"/>
<stop offset="0.369792" stop-color="#16E09E"/>
<stop offset="0.713542" stop-color="#A3F5C4"/>
<stop offset="1" stop-color="#BCFFDB"/>
</linearGradient>
<radialGradient id="paint7_radial_5403_84330" cx="0" cy="0" r="1" gradientUnits="userSpaceOnUse" gradientTransform="translate(73.8661 35.9854) scale(3.16613 3.16613)">
<stop stop-color="white"/>
<stop offset="1"/>
</radialGradient>
<radialGradient id="paint8_radial_5403_84330" cx="0" cy="0" r="1" gradientUnits="userSpaceOnUse" gradientTransform="translate(70.98 47.957) scale(7.7999 7.7999)">
<stop stop-color="white"/>
<stop offset="1"/>
</radialGradient>
<radialGradient id="paint9_radial_5403_84330" cx="0" cy="0" r="1" gradientUnits="userSpaceOnUse" gradientTransform="translate(34.5534 41.1966) scale(4.36992 4.36993)">
<stop stop-color="white"/>
<stop offset="1"/>
</radialGradient>
<radialGradient id="paint10_radial_5403_84330" cx="0" cy="0" r="1" gradientUnits="userSpaceOnUse" gradientTransform="translate(45.7506 40.6516) scale(3.92469 3.92468)">
<stop stop-color="white"/>
<stop offset="1"/>
</radialGradient>
<linearGradient id="paint11_linear_5403_84330" x1="11.5026" y1="76.3247" x2="20.3232" y2="39.2164" gradientUnits="userSpaceOnUse">
<stop stop-color="#5761D7"/>
<stop offset="0.1779" stop-color="#5C66D9"/>
<stop offset="0.3876" stop-color="#6A73DF"/>
<stop offset="0.6134" stop-color="#8289E8"/>
<stop offset="0.849" stop-color="#A3A7F5"/>
<stop offset="1" stop-color="#BCBEFF"/>
</linearGradient>
<linearGradient id="paint12_linear_5403_84330" x1="40.052" y1="57.2916" x2="45.8443" y2="47.6813" gradientUnits="userSpaceOnUse">
<stop stop-color="#5761D7"/>
<stop offset="0.1779" stop-color="#5C66D9"/>
<stop offset="0.3876" stop-color="#6A73DF"/>
<stop offset="0.6134" stop-color="#8289E8"/>
<stop offset="0.849" stop-color="#A3A7F5"/>
<stop offset="1" stop-color="#BCBEFF"/>
</linearGradient>
<linearGradient id="paint13_linear_5403_84330" x1="29.9408" y1="69.782" x2="41.3632" y2="52.2612" gradientUnits="userSpaceOnUse">
<stop stop-color="#5761D7"/>
<stop offset="0.1779" stop-color="#5C66D9"/>
<stop offset="0.3876" stop-color="#6A73DF"/>
<stop offset="0.6134" stop-color="#8289E8"/>
<stop offset="0.849" stop-color="#A3A7F5"/>
<stop offset="1" stop-color="#BCBEFF"/>
</linearGradient>
<linearGradient id="paint14_linear_5403_84330" x1="12.0968" y1="73.9455" x2="27.0784" y2="51.228" gradientUnits="userSpaceOnUse">
<stop stop-color="#5761D7"/>
<stop offset="0.1779" stop-color="#5C66D9"/>
<stop offset="0.3876" stop-color="#6A73DF"/>
<stop offset="0.6134" stop-color="#8289E8"/>
<stop offset="0.849" stop-color="#A3A7F5"/>
<stop offset="1" stop-color="#BCBEFF"/>
</linearGradient>
<linearGradient id="paint15_linear_5403_84330" x1="20.1567" y1="80.6913" x2="37.2453" y2="72.5339" gradientUnits="userSpaceOnUse">
<stop stop-color="#5761D7"/>
<stop offset="0.1779" stop-color="#5C66D9"/>
<stop offset="0.3876" stop-color="#6A73DF"/>
<stop offset="0.6134" stop-color="#8289E8"/>
<stop offset="0.849" stop-color="#A3A7F5"/>
<stop offset="1" stop-color="#BCBEFF"/>
</linearGradient>
<radialGradient id="paint16_radial_5403_84330" cx="0" cy="0" r="1" gradientUnits="userSpaceOnUse" gradientTransform="translate(13.643 61.7769) scale(16.9355 16.9355)">
<stop stop-color="white"/>
<stop offset="1"/>
</radialGradient>
<radialGradient id="paint17_radial_5403_84330" cx="0" cy="0" r="1" gradientUnits="userSpaceOnUse" gradientTransform="translate(43.0772 48.601) scale(2.22619 2.22619)">
<stop stop-color="white"/>
<stop offset="1"/>
</radialGradient>
<radialGradient id="paint18_radial_5403_84330" cx="0" cy="0" r="1" gradientUnits="userSpaceOnUse" gradientTransform="translate(34.8996 57.0772) scale(7.53606 7.53605)">
<stop stop-color="white"/>
<stop offset="1"/>
</radialGradient>
<linearGradient id="paint19_linear_5403_84330" x1="71.0836" y1="75.5493" x2="79.9043" y2="38.441" gradientUnits="userSpaceOnUse">
<stop stop-color="#5761D7"/>
<stop offset="0.1779" stop-color="#5C66D9"/>
<stop offset="0.3876" stop-color="#6A73DF"/>
<stop offset="0.6134" stop-color="#8289E8"/>
<stop offset="0.849" stop-color="#A3A7F5"/>
<stop offset="1" stop-color="#BCBEFF"/>
</linearGradient>
<linearGradient id="paint20_linear_5403_84330" x1="81.7855" y1="56.8252" x2="77.2655" y2="46.4263" gradientUnits="userSpaceOnUse">
<stop stop-color="#5761D7"/>
<stop offset="0.1779" stop-color="#5C66D9"/>
<stop offset="0.3876" stop-color="#6A73DF"/>
<stop offset="0.6134" stop-color="#8289E8"/>
<stop offset="0.849" stop-color="#A3A7F5"/>
<stop offset="1" stop-color="#BCBEFF"/>
</linearGradient>
<linearGradient id="paint21_linear_5403_84330" x1="72.7659" y1="82.2721" x2="107.919" y2="56.3558" gradientUnits="userSpaceOnUse">
<stop stop-color="#5761D7"/>
<stop offset="0.1779" stop-color="#5C66D9"/>
<stop offset="0.3876" stop-color="#6A73DF"/>
<stop offset="0.6134" stop-color="#8289E8"/>
<stop offset="0.849" stop-color="#A3A7F5"/>
<stop offset="1" stop-color="#BCBEFF"/>
</linearGradient>
<linearGradient id="paint22_linear_5403_84330" x1="69.7907" y1="69.7815" x2="63.9716" y2="54.4127" gradientUnits="userSpaceOnUse">
<stop stop-color="#5761D7"/>
<stop offset="0.1779" stop-color="#5C66D9"/>
<stop offset="0.3876" stop-color="#6A73DF"/>
<stop offset="0.6134" stop-color="#8289E8"/>
<stop offset="0.849" stop-color="#A3A7F5"/>
<stop offset="1" stop-color="#BCBEFF"/>
</linearGradient>
<linearGradient id="paint23_linear_5403_84330" x1="80.2718" y1="74.4928" x2="89.9092" y2="64.0568" gradientUnits="userSpaceOnUse">
<stop stop-color="#5761D7"/>
<stop offset="0.1779" stop-color="#5C66D9"/>
<stop offset="0.3876" stop-color="#6A73DF"/>
<stop offset="0.6134" stop-color="#8289E8"/>
<stop offset="0.849" stop-color="#A3A7F5"/>
<stop offset="1" stop-color="#BCBEFF"/>
</linearGradient>
<linearGradient id="paint24_linear_5403_84330" x1="75.8565" y1="85.5226" x2="70.2263" y2="62.6369" gradientUnits="userSpaceOnUse">
<stop stop-color="#5761D7"/>
<stop offset="0.1779" stop-color="#5C66D9"/>
<stop offset="0.3876" stop-color="#6A73DF"/>
<stop offset="0.6134" stop-color="#8289E8"/>
<stop offset="0.849" stop-color="#A3A7F5"/>
<stop offset="1" stop-color="#BCBEFF"/>
</linearGradient>
<radialGradient id="paint25_radial_5403_84330" cx="0" cy="0" r="1" gradientUnits="userSpaceOnUse" gradientTransform="translate(67.8474 57.638) scale(5.079 5.07901)">
<stop stop-color="white"/>
<stop offset="1"/>
</radialGradient>
<radialGradient id="paint26_radial_5403_84330" cx="0" cy="0" r="1" gradientUnits="userSpaceOnUse" gradientTransform="translate(81.0892 47.0348) scale(3.46295)">
<stop stop-color="white"/>
<stop offset="1"/>
</radialGradient>
<radialGradient id="paint27_radial_5403_84330" cx="0" cy="0" r="1" gradientUnits="userSpaceOnUse" gradientTransform="translate(68.7385 68.9175) scale(11.8235)">
<stop stop-color="white"/>
<stop offset="1"/>
</radialGradient>
<radialGradient id="paint28_radial_5403_84330" cx="0" cy="0" r="1" gradientUnits="userSpaceOnUse" gradientTransform="translate(100.862 62.9974) scale(12.6316 12.6316)">
<stop stop-color="white"/>
<stop offset="1"/>
</radialGradient>
<linearGradient id="paint29_linear_5403_84330" x1="43.1685" y1="94.3239" x2="51.341" y2="58.4923" gradientUnits="userSpaceOnUse">
<stop stop-color="#5761D7"/>
<stop offset="0.1779" stop-color="#5C66D9"/>
<stop offset="0.3876" stop-color="#6A73DF"/>
<stop offset="0.6134" stop-color="#8289E8"/>
<stop offset="0.849" stop-color="#A3A7F5"/>
<stop offset="1" stop-color="#BCBEFF"/>
</linearGradient>
<linearGradient id="paint30_linear_5403_84330" x1="34.1042" y1="85.8411" x2="60.4842" y2="56.8957" gradientUnits="userSpaceOnUse">
<stop stop-color="#5761D7"/>
<stop offset="0.1779" stop-color="#5C66D9"/>
<stop offset="0.3876" stop-color="#6A73DF"/>
<stop offset="0.6134" stop-color="#8289E8"/>
<stop offset="0.849" stop-color="#A3A7F5"/>
<stop offset="1" stop-color="#BCBEFF"/>
</linearGradient>
<linearGradient id="paint31_linear_5403_84330" x1="40.6464" y1="85.841" x2="34.8604" y2="67.7555" gradientUnits="userSpaceOnUse">
<stop stop-color="#5761D7"/>
<stop offset="0.1779" stop-color="#5C66D9"/>
<stop offset="0.3876" stop-color="#6A73DF"/>
<stop offset="0.6134" stop-color="#8289E8"/>
<stop offset="0.849" stop-color="#A3A7F5"/>
<stop offset="1" stop-color="#BCBEFF"/>
</linearGradient>
<linearGradient id="paint32_linear_5403_84330" x1="58.7924" y1="75.2537" x2="64.7688" y2="67.344" gradientUnits="userSpaceOnUse">
<stop stop-color="#5761D7"/>
<stop offset="0.1779" stop-color="#5C66D9"/>
<stop offset="0.3876" stop-color="#6A73DF"/>
<stop offset="0.6134" stop-color="#8289E8"/>
<stop offset="0.849" stop-color="#A3A7F5"/>
<stop offset="1" stop-color="#BCBEFF"/>
</linearGradient>
<radialGradient id="paint33_radial_5403_84330" cx="0" cy="0" r="1" gradientUnits="userSpaceOnUse" gradientTransform="translate(69.6435 68.8681) scale(0.0331387 0.0331472)">
<stop stop-color="white"/>
<stop offset="1"/>
</radialGradient>
<radialGradient id="paint34_radial_5403_84330" cx="0" cy="0" r="1" gradientUnits="userSpaceOnUse" gradientTransform="translate(60.988 67.2021) scale(1.81393)">
<stop stop-color="white"/>
<stop offset="1"/>
</radialGradient>
<radialGradient id="paint35_radial_5403_84330" cx="0" cy="0" r="1" gradientUnits="userSpaceOnUse" gradientTransform="translate(36.7471 69.8242) scale(2.57248 2.57248)">
<stop stop-color="white"/>
<stop offset="1"/>
</radialGradient>
<radialGradient id="paint36_radial_5403_84330" cx="0" cy="0" r="1" gradientUnits="userSpaceOnUse" gradientTransform="translate(50.0378 80.9057) scale(17.6776)">
<stop stop-color="white"/>
<stop offset="1"/>
</radialGradient>
<linearGradient id="paint37_linear_5403_84330" x1="48" y1="43" x2="59.5" y2="4.5" gradientUnits="userSpaceOnUse">
<stop stop-color="#0DB880"/>
<stop offset="0.369792" stop-color="#16E09E"/>
<stop offset="0.713542" stop-color="#A3F5C4"/>
<stop offset="1" stop-color="#BCFFDB"/>
</linearGradient>
<linearGradient id="paint38_linear_5403_84330" x1="70" y1="31.5" x2="79.4756" y2="23.7487" gradientUnits="userSpaceOnUse">
<stop stop-color="#0DB880"/>
<stop offset="0.369792" stop-color="#16E09E"/>
<stop offset="0.713542" stop-color="#A3F5C4"/>
<stop offset="1" stop-color="#BCFFDB"/>
</linearGradient>
<linearGradient id="paint39_linear_5403_84330" x1="67" y1="40.9998" x2="67.204" y2="25.3978" gradientUnits="userSpaceOnUse">
<stop stop-color="#0DB880"/>
<stop offset="0.369792" stop-color="#16E09E"/>
<stop offset="0.713542" stop-color="#A3F5C4"/>
<stop offset="1" stop-color="#BCFFDB"/>
</linearGradient>
<linearGradient id="paint40_linear_5403_84330" x1="62" y1="40.9998" x2="72.6162" y2="32.3804" gradientUnits="userSpaceOnUse">
<stop stop-color="#0DB880"/>
<stop offset="0.369792" stop-color="#16E09E"/>
<stop offset="0.713542" stop-color="#A3F5C4"/>
<stop offset="1" stop-color="#BCFFDB"/>
</linearGradient>
<linearGradient id="paint41_linear_5403_84330" x1="47.5" y1="41.0002" x2="58.8606" y2="7.12421" gradientUnits="userSpaceOnUse">
<stop stop-color="#0DB880"/>
<stop offset="0.369792" stop-color="#16E09E"/>
<stop offset="0.713542" stop-color="#A3F5C4"/>
<stop offset="1" stop-color="#BCFFDB"/>
</linearGradient>
<linearGradient id="paint42_linear_5403_84330" x1="19.003" y1="28.9152" x2="47.4323" y2="22.5499" gradientUnits="userSpaceOnUse">
<stop stop-color="#6B24D6"/>
<stop offset="1" stop-color="#A56EF4"/>
</linearGradient>
<linearGradient id="paint43_linear_5403_84330" x1="47" y1="33" x2="54.1004" y2="14.1786" gradientUnits="userSpaceOnUse">
<stop stop-color="#0DB880"/>
<stop offset="0.369792" stop-color="#16E09E"/>
<stop offset="0.713542" stop-color="#A3F5C4"/>
<stop offset="1" stop-color="#BCFFDB"/>
</linearGradient>
<radialGradient id="paint44_radial_5403_84330" cx="0" cy="0" r="1" gradientUnits="userSpaceOnUse" gradientTransform="translate(73.8661 23.9854) scale(3.16613 3.16613)">
<stop stop-color="white"/>
<stop offset="1"/>
</radialGradient>
<radialGradient id="paint45_radial_5403_84330" cx="0" cy="0" r="1" gradientUnits="userSpaceOnUse" gradientTransform="translate(70.98 35.957) scale(7.7999 7.7999)">
<stop stop-color="white"/>
<stop offset="1"/>
</radialGradient>
<radialGradient id="paint46_radial_5403_84330" cx="0" cy="0" r="1" gradientUnits="userSpaceOnUse" gradientTransform="translate(34.5534 29.1966) scale(4.36992 4.36993)">
<stop stop-color="white"/>
<stop offset="1"/>
</radialGradient>
<radialGradient id="paint47_radial_5403_84330" cx="0" cy="0" r="1" gradientUnits="userSpaceOnUse" gradientTransform="translate(45.7506 28.6516) scale(3.92469 3.92468)">
<stop stop-color="white"/>
<stop offset="1"/>
</radialGradient>
<linearGradient id="paint48_linear_5403_84330" x1="11.5026" y1="64.8486" x2="20.3232" y2="27.7403" gradientUnits="userSpaceOnUse">
<stop stop-color="#5761D7"/>
<stop offset="0.1779" stop-color="#5C66D9"/>
<stop offset="0.3876" stop-color="#6A73DF"/>
<stop offset="0.6134" stop-color="#8289E8"/>
<stop offset="0.849" stop-color="#A3A7F5"/>
<stop offset="1" stop-color="#BCBEFF"/>
</linearGradient>
<linearGradient id="paint49_linear_5403_84330" x1="40.052" y1="45.8155" x2="45.8443" y2="36.2052" gradientUnits="userSpaceOnUse">
<stop stop-color="#5761D7"/>
<stop offset="0.1779" stop-color="#5C66D9"/>
<stop offset="0.3876" stop-color="#6A73DF"/>
<stop offset="0.6134" stop-color="#8289E8"/>
<stop offset="0.849" stop-color="#A3A7F5"/>
<stop offset="1" stop-color="#BCBEFF"/>
</linearGradient>
<linearGradient id="paint50_linear_5403_84330" x1="29.9408" y1="58.306" x2="41.3632" y2="40.7852" gradientUnits="userSpaceOnUse">
<stop stop-color="#5761D7"/>
<stop offset="0.1779" stop-color="#5C66D9"/>
<stop offset="0.3876" stop-color="#6A73DF"/>
<stop offset="0.6134" stop-color="#8289E8"/>
<stop offset="0.849" stop-color="#A3A7F5"/>
<stop offset="1" stop-color="#BCBEFF"/>
</linearGradient>
<linearGradient id="paint51_linear_5403_84330" x1="12.0968" y1="62.4695" x2="27.0784" y2="39.7519" gradientUnits="userSpaceOnUse">
<stop stop-color="#5761D7"/>
<stop offset="0.1779" stop-color="#5C66D9"/>
<stop offset="0.3876" stop-color="#6A73DF"/>
<stop offset="0.6134" stop-color="#8289E8"/>
<stop offset="0.849" stop-color="#A3A7F5"/>
<stop offset="1" stop-color="#BCBEFF"/>
</linearGradient>
<linearGradient id="paint52_linear_5403_84330" x1="20.1567" y1="69.2152" x2="37.2453" y2="61.0578" gradientUnits="userSpaceOnUse">
<stop stop-color="#5761D7"/>
<stop offset="0.1779" stop-color="#5C66D9"/>
<stop offset="0.3876" stop-color="#6A73DF"/>
<stop offset="0.6134" stop-color="#8289E8"/>
<stop offset="0.849" stop-color="#A3A7F5"/>
<stop offset="1" stop-color="#BCBEFF"/>
</linearGradient>
<radialGradient id="paint53_radial_5403_84330" cx="0" cy="0" r="1" gradientUnits="userSpaceOnUse" gradientTransform="translate(13.643 50.3008) scale(16.9355 16.9355)">
<stop stop-color="white"/>
<stop offset="1"/>
</radialGradient>
<radialGradient id="paint54_radial_5403_84330" cx="0" cy="0" r="1" gradientUnits="userSpaceOnUse" gradientTransform="translate(43.0772 37.1249) scale(2.22619 2.22619)">
<stop stop-color="white"/>
<stop offset="1"/>
</radialGradient>
<radialGradient id="paint55_radial_5403_84330" cx="0" cy="0" r="1" gradientUnits="userSpaceOnUse" gradientTransform="translate(34.8996 45.6011) scale(7.53606 7.53605)">
<stop stop-color="white"/>
<stop offset="1"/>
</radialGradient>
<linearGradient id="paint56_linear_5403_84330" x1="71.0836" y1="64.0732" x2="79.9043" y2="26.965" gradientUnits="userSpaceOnUse">
<stop stop-color="#5761D7"/>
<stop offset="0.1779" stop-color="#5C66D9"/>
<stop offset="0.3876" stop-color="#6A73DF"/>
<stop offset="0.6134" stop-color="#8289E8"/>
<stop offset="0.849" stop-color="#A3A7F5"/>
<stop offset="1" stop-color="#BCBEFF"/>
</linearGradient>
<linearGradient id="paint57_linear_5403_84330" x1="81.7855" y1="45.3491" x2="77.2655" y2="34.9502" gradientUnits="userSpaceOnUse">
<stop stop-color="#5761D7"/>
<stop offset="0.1779" stop-color="#5C66D9"/>
<stop offset="0.3876" stop-color="#6A73DF"/>
<stop offset="0.6134" stop-color="#8289E8"/>
<stop offset="0.849" stop-color="#A3A7F5"/>
<stop offset="1" stop-color="#BCBEFF"/>
</linearGradient>
<linearGradient id="paint58_linear_5403_84330" x1="72.7659" y1="70.7961" x2="107.919" y2="44.8797" gradientUnits="userSpaceOnUse">
<stop stop-color="#5761D7"/>
<stop offset="0.1779" stop-color="#5C66D9"/>
<stop offset="0.3876" stop-color="#6A73DF"/>
<stop offset="0.6134" stop-color="#8289E8"/>
<stop offset="0.849" stop-color="#A3A7F5"/>
<stop offset="1" stop-color="#BCBEFF"/>
</linearGradient>
<linearGradient id="paint59_linear_5403_84330" x1="69.7907" y1="58.3054" x2="63.9716" y2="42.9367" gradientUnits="userSpaceOnUse">
<stop stop-color="#5761D7"/>
<stop offset="0.1779" stop-color="#5C66D9"/>
<stop offset="0.3876" stop-color="#6A73DF"/>
<stop offset="0.6134" stop-color="#8289E8"/>
<stop offset="0.849" stop-color="#A3A7F5"/>
<stop offset="1" stop-color="#BCBEFF"/>
</linearGradient>
<linearGradient id="paint60_linear_5403_84330" x1="80.2718" y1="63.0167" x2="89.9092" y2="52.5807" gradientUnits="userSpaceOnUse">
<stop stop-color="#5761D7"/>
<stop offset="0.1779" stop-color="#5C66D9"/>
<stop offset="0.3876" stop-color="#6A73DF"/>
<stop offset="0.6134" stop-color="#8289E8"/>
<stop offset="0.849" stop-color="#A3A7F5"/>
<stop offset="1" stop-color="#BCBEFF"/>
</linearGradient>
<linearGradient id="paint61_linear_5403_84330" x1="75.8565" y1="74.0465" x2="70.2263" y2="51.1608" gradientUnits="userSpaceOnUse">
<stop stop-color="#5761D7"/>
<stop offset="0.1779" stop-color="#5C66D9"/>
<stop offset="0.3876" stop-color="#6A73DF"/>
<stop offset="0.6134" stop-color="#8289E8"/>
<stop offset="0.849" stop-color="#A3A7F5"/>
<stop offset="1" stop-color="#BCBEFF"/>
</linearGradient>
<radialGradient id="paint62_radial_5403_84330" cx="0" cy="0" r="1" gradientUnits="userSpaceOnUse" gradientTransform="translate(67.8474 46.1619) scale(5.079 5.07901)">
<stop stop-color="white"/>
<stop offset="1"/>
</radialGradient>
<radialGradient id="paint63_radial_5403_84330" cx="0" cy="0" r="1" gradientUnits="userSpaceOnUse" gradientTransform="translate(81.0892 35.5588) scale(3.46295)">
<stop stop-color="white"/>
<stop offset="1"/>
</radialGradient>
<radialGradient id="paint64_radial_5403_84330" cx="0" cy="0" r="1" gradientUnits="userSpaceOnUse" gradientTransform="translate(68.7385 57.4414) scale(11.8235)">
<stop stop-color="white"/>
<stop offset="1"/>
</radialGradient>
<radialGradient id="paint65_radial_5403_84330" cx="0" cy="0" r="1" gradientUnits="userSpaceOnUse" gradientTransform="translate(100.862 51.5213) scale(12.6316 12.6316)">
<stop stop-color="white"/>
<stop offset="1"/>
</radialGradient>
<linearGradient id="paint66_linear_5403_84330" x1="43.1685" y1="82.8478" x2="51.341" y2="47.0162" gradientUnits="userSpaceOnUse">
<stop stop-color="#5761D7"/>
<stop offset="0.1779" stop-color="#5C66D9"/>
<stop offset="0.3876" stop-color="#6A73DF"/>
<stop offset="0.6134" stop-color="#8289E8"/>
<stop offset="0.849" stop-color="#A3A7F5"/>
<stop offset="1" stop-color="#BCBEFF"/>
</linearGradient>
<linearGradient id="paint67_linear_5403_84330" x1="34.1042" y1="74.365" x2="60.4842" y2="45.4196" gradientUnits="userSpaceOnUse">
<stop stop-color="#5761D7"/>
<stop offset="0.1779" stop-color="#5C66D9"/>
<stop offset="0.3876" stop-color="#6A73DF"/>
<stop offset="0.6134" stop-color="#8289E8"/>
<stop offset="0.849" stop-color="#A3A7F5"/>
<stop offset="1" stop-color="#BCBEFF"/>
</linearGradient>
<linearGradient id="paint68_linear_5403_84330" x1="40.6464" y1="74.3649" x2="34.8604" y2="56.2794" gradientUnits="userSpaceOnUse">
<stop stop-color="#5761D7"/>
<stop offset="0.1779" stop-color="#5C66D9"/>
<stop offset="0.3876" stop-color="#6A73DF"/>
<stop offset="0.6134" stop-color="#8289E8"/>
<stop offset="0.849" stop-color="#A3A7F5"/>
<stop offset="1" stop-color="#BCBEFF"/>
</linearGradient>
<linearGradient id="paint69_linear_5403_84330" x1="58.7924" y1="63.7776" x2="64.7688" y2="55.868" gradientUnits="userSpaceOnUse">
<stop stop-color="#5761D7"/>
<stop offset="0.1779" stop-color="#5C66D9"/>
<stop offset="0.3876" stop-color="#6A73DF"/>
<stop offset="0.6134" stop-color="#8289E8"/>
<stop offset="0.849" stop-color="#A3A7F5"/>
<stop offset="1" stop-color="#BCBEFF"/>
</linearGradient>
<radialGradient id="paint70_radial_5403_84330" cx="0" cy="0" r="1" gradientUnits="userSpaceOnUse" gradientTransform="translate(69.6435 57.392) scale(0.0331387 0.0331472)">
<stop stop-color="white"/>
<stop offset="1"/>
</radialGradient>
<radialGradient id="paint71_radial_5403_84330" cx="0" cy="0" r="1" gradientUnits="userSpaceOnUse" gradientTransform="translate(60.988 55.7261) scale(1.81393)">
<stop stop-color="white"/>
<stop offset="1"/>
</radialGradient>
<radialGradient id="paint72_radial_5403_84330" cx="0" cy="0" r="1" gradientUnits="userSpaceOnUse" gradientTransform="translate(36.7471 58.3482) scale(2.57248 2.57248)">
<stop stop-color="white"/>
<stop offset="1"/>
</radialGradient>
<radialGradient id="paint73_radial_5403_84330" cx="0" cy="0" r="1" gradientUnits="userSpaceOnUse" gradientTransform="translate(50.0378 69.4297) scale(17.6776)">
<stop stop-color="white"/>
<stop offset="1"/>
</radialGradient>
<linearGradient id="paint74_linear_5403_84330" x1="48" y1="32" x2="59.5" y2="-6.5" gradientUnits="userSpaceOnUse">
<stop stop-color="#0DB880"/>
<stop offset="0.369792" stop-color="#16E09E"/>
<stop offset="0.713542" stop-color="#A3F5C4"/>
<stop offset="1" stop-color="#BCFFDB"/>
</linearGradient>
<linearGradient id="paint75_linear_5403_84330" x1="70" y1="20.5" x2="79.4756" y2="12.7487" gradientUnits="userSpaceOnUse">
<stop stop-color="#0DB880"/>
<stop offset="0.369792" stop-color="#16E09E"/>
<stop offset="0.713542" stop-color="#A3F5C4"/>
<stop offset="1" stop-color="#BCFFDB"/>
</linearGradient>
<linearGradient id="paint76_linear_5403_84330" x1="67" y1="29.9998" x2="67.204" y2="14.3978" gradientUnits="userSpaceOnUse">
<stop stop-color="#0DB880"/>
<stop offset="0.369792" stop-color="#16E09E"/>
<stop offset="0.713542" stop-color="#A3F5C4"/>
<stop offset="1" stop-color="#BCFFDB"/>
</linearGradient>
<linearGradient id="paint77_linear_5403_84330" x1="62" y1="29.9998" x2="72.6162" y2="21.3804" gradientUnits="userSpaceOnUse">
<stop stop-color="#0DB880"/>
<stop offset="0.369792" stop-color="#16E09E"/>
<stop offset="0.713542" stop-color="#A3F5C4"/>
<stop offset="1" stop-color="#BCFFDB"/>
</linearGradient>
<linearGradient id="paint78_linear_5403_84330" x1="47.5" y1="30.0002" x2="58.8606" y2="-3.87579" gradientUnits="userSpaceOnUse">
<stop stop-color="#0DB880"/>
<stop offset="0.369792" stop-color="#16E09E"/>
<stop offset="0.713542" stop-color="#A3F5C4"/>
<stop offset="1" stop-color="#BCFFDB"/>
</linearGradient>
<linearGradient id="paint79_linear_5403_84330" x1="19.003" y1="17.9152" x2="47.4323" y2="11.5499" gradientUnits="userSpaceOnUse">
<stop stop-color="#6B24D6"/>
<stop offset="1" stop-color="#A56EF4"/>
</linearGradient>
<linearGradient id="paint80_linear_5403_84330" x1="47" y1="22" x2="54.1004" y2="3.1786" gradientUnits="userSpaceOnUse">
<stop stop-color="#0DB880"/>
<stop offset="0.369792" stop-color="#16E09E"/>
<stop offset="0.713542" stop-color="#A3F5C4"/>
<stop offset="1" stop-color="#BCFFDB"/>
</linearGradient>
<radialGradient id="paint81_radial_5403_84330" cx="0" cy="0" r="1" gradientUnits="userSpaceOnUse" gradientTransform="translate(73.8661 12.9851) scale(3.16613 3.16613)">
<stop stop-color="white"/>
<stop offset="1"/>
</radialGradient>
<radialGradient id="paint82_radial_5403_84330" cx="0" cy="0" r="1" gradientUnits="userSpaceOnUse" gradientTransform="translate(70.98 24.957) scale(7.7999 7.7999)">
<stop stop-color="white"/>
<stop offset="1"/>
</radialGradient>
<radialGradient id="paint83_radial_5403_84330" cx="0" cy="0" r="1" gradientUnits="userSpaceOnUse" gradientTransform="translate(34.5534 18.1961) scale(4.36992 4.36993)">
<stop stop-color="white"/>
<stop offset="1"/>
</radialGradient>
<radialGradient id="paint84_radial_5403_84330" cx="0" cy="0" r="1" gradientUnits="userSpaceOnUse" gradientTransform="translate(45.7506 17.6516) scale(3.92469 3.92468)">
<stop stop-color="white"/>
<stop offset="1"/>
</radialGradient>
<linearGradient id="paint85_linear_5403_84330" x1="11.5026" y1="53.373" x2="20.3232" y2="16.2648" gradientUnits="userSpaceOnUse">
<stop stop-color="#5761D7"/>
<stop offset="0.1779" stop-color="#5C66D9"/>
<stop offset="0.3876" stop-color="#6A73DF"/>
<stop offset="0.6134" stop-color="#8289E8"/>
<stop offset="0.849" stop-color="#A3A7F5"/>
<stop offset="1" stop-color="#BCBEFF"/>
</linearGradient>
<linearGradient id="paint86_linear_5403_84330" x1="40.052" y1="34.3404" x2="45.8443" y2="24.7301" gradientUnits="userSpaceOnUse">
<stop stop-color="#5761D7"/>
<stop offset="0.1779" stop-color="#5C66D9"/>
<stop offset="0.3876" stop-color="#6A73DF"/>
<stop offset="0.6134" stop-color="#8289E8"/>
<stop offset="0.849" stop-color="#A3A7F5"/>
<stop offset="1" stop-color="#BCBEFF"/>
</linearGradient>
<linearGradient id="paint87_linear_5403_84330" x1="29.9408" y1="46.8304" x2="41.3632" y2="29.3096" gradientUnits="userSpaceOnUse">
<stop stop-color="#5761D7"/>
<stop offset="0.1779" stop-color="#5C66D9"/>
<stop offset="0.3876" stop-color="#6A73DF"/>
<stop offset="0.6134" stop-color="#8289E8"/>
<stop offset="0.849" stop-color="#A3A7F5"/>
<stop offset="1" stop-color="#BCBEFF"/>
</linearGradient>
<linearGradient id="paint88_linear_5403_84330" x1="12.0968" y1="50.9939" x2="27.0784" y2="28.2763" gradientUnits="userSpaceOnUse">
<stop stop-color="#5761D7"/>
<stop offset="0.1779" stop-color="#5C66D9"/>
<stop offset="0.3876" stop-color="#6A73DF"/>
<stop offset="0.6134" stop-color="#8289E8"/>
<stop offset="0.849" stop-color="#A3A7F5"/>
<stop offset="1" stop-color="#BCBEFF"/>
</linearGradient>
<linearGradient id="paint89_linear_5403_84330" x1="20.1567" y1="57.7391" x2="37.2453" y2="49.5817" gradientUnits="userSpaceOnUse">
<stop stop-color="#5761D7"/>
<stop offset="0.1779" stop-color="#5C66D9"/>
<stop offset="0.3876" stop-color="#6A73DF"/>
<stop offset="0.6134" stop-color="#8289E8"/>
<stop offset="0.849" stop-color="#A3A7F5"/>
<stop offset="1" stop-color="#BCBEFF"/>
</linearGradient>
<radialGradient id="paint90_radial_5403_84330" cx="0" cy="0" r="1" gradientUnits="userSpaceOnUse" gradientTransform="translate(13.643 38.8252) scale(16.9355 16.9355)">
<stop stop-color="white"/>
<stop offset="1"/>
</radialGradient>
<radialGradient id="paint91_radial_5403_84330" cx="0" cy="0" r="1" gradientUnits="userSpaceOnUse" gradientTransform="translate(43.0772 25.6493) scale(2.22619 2.22619)">
<stop stop-color="white"/>
<stop offset="1"/>
</radialGradient>
<radialGradient id="paint92_radial_5403_84330" cx="0" cy="0" r="1" gradientUnits="userSpaceOnUse" gradientTransform="translate(34.8996 34.1251) scale(7.53606 7.53605)">
<stop stop-color="white"/>
<stop offset="1"/>
</radialGradient>
<linearGradient id="paint93_linear_5403_84330" x1="71.0836" y1="52.5981" x2="79.9043" y2="15.4899" gradientUnits="userSpaceOnUse">
<stop stop-color="#5761D7"/>
<stop offset="0.1779" stop-color="#5C66D9"/>
<stop offset="0.3876" stop-color="#6A73DF"/>
<stop offset="0.6134" stop-color="#8289E8"/>
<stop offset="0.849" stop-color="#A3A7F5"/>
<stop offset="1" stop-color="#BCBEFF"/>
</linearGradient>
<linearGradient id="paint94_linear_5403_84330" x1="81.7855" y1="33.874" x2="77.2655" y2="23.4751" gradientUnits="userSpaceOnUse">
<stop stop-color="#5761D7"/>
<stop offset="0.1779" stop-color="#5C66D9"/>
<stop offset="0.3876" stop-color="#6A73DF"/>
<stop offset="0.6134" stop-color="#8289E8"/>
<stop offset="0.849" stop-color="#A3A7F5"/>
<stop offset="1" stop-color="#BCBEFF"/>
</linearGradient>
<linearGradient id="paint95_linear_5403_84330" x1="72.7659" y1="59.321" x2="107.919" y2="33.4046" gradientUnits="userSpaceOnUse">
<stop stop-color="#5761D7"/>
<stop offset="0.1779" stop-color="#5C66D9"/>
<stop offset="0.3876" stop-color="#6A73DF"/>
<stop offset="0.6134" stop-color="#8289E8"/>
<stop offset="0.849" stop-color="#A3A7F5"/>
<stop offset="1" stop-color="#BCBEFF"/>
</linearGradient>
<linearGradient id="paint96_linear_5403_84330" x1="69.7907" y1="46.8303" x2="63.9716" y2="31.4616" gradientUnits="userSpaceOnUse">
<stop stop-color="#5761D7"/>
<stop offset="0.1779" stop-color="#5C66D9"/>
<stop offset="0.3876" stop-color="#6A73DF"/>
<stop offset="0.6134" stop-color="#8289E8"/>
<stop offset="0.849" stop-color="#A3A7F5"/>
<stop offset="1" stop-color="#BCBEFF"/>
</linearGradient>
<linearGradient id="paint97_linear_5403_84330" x1="80.2718" y1="51.5416" x2="89.9092" y2="41.1056" gradientUnits="userSpaceOnUse">
<stop stop-color="#5761D7"/>
<stop offset="0.1779" stop-color="#5C66D9"/>
<stop offset="0.3876" stop-color="#6A73DF"/>
<stop offset="0.6134" stop-color="#8289E8"/>
<stop offset="0.849" stop-color="#A3A7F5"/>
<stop offset="1" stop-color="#BCBEFF"/>
</linearGradient>
<linearGradient id="paint98_linear_5403_84330" x1="75.8565" y1="62.5714" x2="70.2263" y2="39.6857" gradientUnits="userSpaceOnUse">
<stop stop-color="#5761D7"/>
<stop offset="0.1779" stop-color="#5C66D9"/>
<stop offset="0.3876" stop-color="#6A73DF"/>
<stop offset="0.6134" stop-color="#8289E8"/>
<stop offset="0.849" stop-color="#A3A7F5"/>
<stop offset="1" stop-color="#BCBEFF"/>
</linearGradient>
<radialGradient id="paint99_radial_5403_84330" cx="0" cy="0" r="1" gradientUnits="userSpaceOnUse" gradientTransform="translate(67.8474 34.6863) scale(5.079 5.07901)">
<stop stop-color="white"/>
<stop offset="1"/>
</radialGradient>
<radialGradient id="paint100_radial_5403_84330" cx="0" cy="0" r="1" gradientUnits="userSpaceOnUse" gradientTransform="translate(81.0892 24.0832) scale(3.46295)">
<stop stop-color="white"/>
<stop offset="1"/>
</radialGradient>
<radialGradient id="paint101_radial_5403_84330" cx="0" cy="0" r="1" gradientUnits="userSpaceOnUse" gradientTransform="translate(68.7385 45.9663) scale(11.8235)">
<stop stop-color="white"/>
<stop offset="1"/>
</radialGradient>
<radialGradient id="paint102_radial_5403_84330" cx="0" cy="0" r="1" gradientUnits="userSpaceOnUse" gradientTransform="translate(100.862 40.0462) scale(12.6316 12.6316)">
<stop stop-color="white"/>
<stop offset="1"/>
</radialGradient>
<linearGradient id="paint103_linear_5403_84330" x1="43.1685" y1="71.3722" x2="51.341" y2="35.5406" gradientUnits="userSpaceOnUse">
<stop stop-color="#5761D7"/>
<stop offset="0.1779" stop-color="#5C66D9"/>
<stop offset="0.3876" stop-color="#6A73DF"/>
<stop offset="0.6134" stop-color="#8289E8"/>
<stop offset="0.849" stop-color="#A3A7F5"/>
<stop offset="1" stop-color="#BCBEFF"/>
</linearGradient>
<linearGradient id="paint104_linear_5403_84330" x1="34.1042" y1="62.8894" x2="60.4842" y2="33.944" gradientUnits="userSpaceOnUse">
<stop stop-color="#5761D7"/>
<stop offset="0.1779" stop-color="#5C66D9"/>
<stop offset="0.3876" stop-color="#6A73DF"/>
<stop offset="0.6134" stop-color="#8289E8"/>
<stop offset="0.849" stop-color="#A3A7F5"/>
<stop offset="1" stop-color="#BCBEFF"/>
</linearGradient>
<linearGradient id="paint105_linear_5403_84330" x1="40.6464" y1="62.8893" x2="34.8604" y2="44.8038" gradientUnits="userSpaceOnUse">
<stop stop-color="#5761D7"/>
<stop offset="0.1779" stop-color="#5C66D9"/>
<stop offset="0.3876" stop-color="#6A73DF"/>
<stop offset="0.6134" stop-color="#8289E8"/>
<stop offset="0.849" stop-color="#A3A7F5"/>
<stop offset="1" stop-color="#BCBEFF"/>
</linearGradient>
<linearGradient id="paint106_linear_5403_84330" x1="58.7924" y1="52.3021" x2="64.7688" y2="44.3924" gradientUnits="userSpaceOnUse">
<stop stop-color="#5761D7"/>
<stop offset="0.1779" stop-color="#5C66D9"/>
<stop offset="0.3876" stop-color="#6A73DF"/>
<stop offset="0.6134" stop-color="#8289E8"/>
<stop offset="0.849" stop-color="#A3A7F5"/>
<stop offset="1" stop-color="#BCBEFF"/>
</linearGradient>
<radialGradient id="paint107_radial_5403_84330" cx="0" cy="0" r="1" gradientUnits="userSpaceOnUse" gradientTransform="translate(69.6435 45.9164) scale(0.0331387 0.0331472)">
<stop stop-color="white"/>
<stop offset="1"/>
</radialGradient>
<radialGradient id="paint108_radial_5403_84330" cx="0" cy="0" r="1" gradientUnits="userSpaceOnUse" gradientTransform="translate(60.988 44.2505) scale(1.81393)">
<stop stop-color="white"/>
<stop offset="1"/>
</radialGradient>
<radialGradient id="paint109_radial_5403_84330" cx="0" cy="0" r="1" gradientUnits="userSpaceOnUse" gradientTransform="translate(36.7471 46.8726) scale(2.57248 2.57248)">
<stop stop-color="white"/>
<stop offset="1"/>
</radialGradient>
<radialGradient id="paint110_radial_5403_84330" cx="0" cy="0" r="1" gradientUnits="userSpaceOnUse" gradientTransform="translate(50.0378 57.9536) scale(17.6776)">
<stop stop-color="white"/>
<stop offset="1"/>
</radialGradient>
</defs>
</svg>
