<svg width="110" height="110" viewBox="0 0 110 110" fill="none" xmlns="http://www.w3.org/2000/svg">
<g clip-path="url(#clip0_5403_84124)">
<path d="M48.2696 66.8449C53.1928 66.8449 57.1838 62.8539 57.1838 57.9308C57.1838 53.0076 53.1928 49.0166 48.2696 49.0166C43.3465 49.0166 39.3555 53.0076 39.3555 57.9308C39.3555 62.8539 43.3465 66.8449 48.2696 66.8449Z" fill="url(#paint0_linear_5403_84124)"/>
<path d="M87.917 70.1895C87.917 87.4974 77.5714 101.617 64.8833 101.617C52.1302 101.617 41.8496 87.5624 41.8496 70.1895C41.8496 52.8817 52.1952 47.6764 64.8833 47.6764C77.5714 47.6113 87.917 52.8167 87.917 70.1895Z" fill="url(#paint1_radial_5403_84124)"/>
<path d="M87.917 70.1895C87.917 87.4974 77.5714 101.617 64.8833 101.617C52.1302 101.617 41.8496 87.5624 41.8496 70.1895C41.8496 52.8817 52.1952 47.6764 64.8833 47.6764C77.5714 47.6113 87.917 52.8167 87.917 70.1895Z" fill="url(#paint2_linear_5403_84124)"/>
<path d="M64.8155 66.0913C73.5119 66.0913 80.5617 62.0129 80.5617 56.9819C80.5617 51.951 73.5119 47.8726 64.8155 47.8726C56.1192 47.8726 49.0693 51.951 49.0693 56.9819C49.0693 62.0129 56.1192 66.0913 64.8155 66.0913Z" fill="#7C4EFF"/>
<path opacity="0.5" d="M64.8155 66.0913C73.5119 66.0913 80.5617 62.0129 80.5617 56.9819C80.5617 51.951 73.5119 47.8726 64.8155 47.8726C56.1192 47.8726 49.0693 51.951 49.0693 56.9819C49.0693 62.0129 56.1192 66.0913 64.8155 66.0913Z" fill="url(#paint3_radial_5403_84124)"/>
<path d="M53.6913 52.9474C59.8076 49.3688 69.8279 49.3688 75.9442 52.9474C78.4818 54.444 79.9783 56.2659 80.4338 58.1528C81.0845 55.42 79.5879 52.6221 75.9442 50.54C69.8279 46.9613 59.8076 46.9613 53.6913 50.54C50.1126 52.6221 48.616 55.4851 49.2017 58.1528C49.6571 56.2659 51.1537 54.444 53.6913 52.9474Z" fill="#5F56AA"/>
<path d="M56.0308 29.9202C58.6181 25.4389 58.6217 20.5972 56.0387 19.1059C53.4557 17.6145 49.2644 20.0384 46.677 24.5197C44.0897 29.001 44.0861 33.8427 46.6691 35.3341C49.252 36.8254 53.4434 34.4015 56.0308 29.9202Z" fill="#BCBEFF"/>
<path d="M65.7242 58.8038C78.7328 58.8038 89.2784 48.2582 89.2784 35.2495C89.2784 22.2409 78.7328 11.6953 65.7242 11.6953C52.7155 11.6953 42.1699 22.2409 42.1699 35.2495C42.1699 48.2582 52.7155 58.8038 65.7242 58.8038Z" fill="url(#paint4_radial_5403_84124)"/>
<path d="M65.7242 58.8038C78.7328 58.8038 89.2784 48.2582 89.2784 35.2495C89.2784 22.2409 78.7328 11.6953 65.7242 11.6953C52.7155 11.6953 42.1699 22.2409 42.1699 35.2495C42.1699 48.2582 52.7155 58.8038 65.7242 58.8038Z" fill="url(#paint5_linear_5403_84124)"/>
<path d="M58.4431 46.4408C57.8575 51.0606 54.3439 52.492 50.6351 49.6941C46.9263 46.8312 44.3887 40.845 45.0393 36.1602C45.6249 31.5405 49.1386 30.109 52.8474 32.9069C56.4911 35.7698 59.0287 41.821 58.4431 46.4408Z" fill="#7C4EFF"/>
<path opacity="0.5" d="M58.4431 46.4408C57.8575 51.0606 54.3439 52.492 50.6351 49.6941C46.9263 46.8312 44.3887 40.845 45.0393 36.1602C45.6249 31.5405 49.1386 30.109 52.8474 32.9069C56.4911 35.7698 59.0287 41.821 58.4431 46.4408Z" fill="url(#paint6_radial_5403_84124)"/>
<path d="M55.3854 42.4072C55.1902 44.099 53.8888 44.6195 52.5224 43.5784C51.156 42.5374 50.2451 40.3251 50.5054 38.6984C50.7006 37.0067 52.0019 36.4861 53.3683 37.5272C54.6696 38.5032 55.5806 40.7155 55.3854 42.4072Z" fill="#16E09E"/>
<path d="M52.3895 48.9791C48.6807 46.1161 46.1431 40.13 46.7938 35.4452C47.054 33.5582 47.7698 32.1918 48.8108 31.4761C46.8588 31.6713 45.4273 33.298 45.0369 36.1609C44.4513 40.7807 46.9239 46.8319 50.6327 49.6948C52.845 51.3866 54.9271 51.5167 56.4237 50.4756C55.1874 50.5407 53.821 50.0852 52.3895 48.9791Z" fill="#5F56AA"/>
<path d="M50.958 49.4997C47.2492 46.6368 44.7116 40.6506 45.3623 35.9658C45.6225 33.8186 46.5335 32.3871 47.7698 31.6714C46.3383 32.257 45.2972 33.7535 45.0369 36.0959C44.4513 40.7157 46.9239 46.7669 50.6327 49.6299C52.6498 51.1264 54.5367 51.4517 55.9682 50.6709C54.6018 51.2565 52.7799 50.9312 50.958 49.4997Z" fill="#5F56AA"/>
<path d="M90.1896 85.0915C95.1127 85.0915 99.1037 81.1005 99.1037 76.1774C99.1037 71.2542 95.1127 67.2632 90.1896 67.2632C85.2664 67.2632 81.2754 71.2542 81.2754 76.1774C81.2754 81.1005 85.2664 85.0915 90.1896 85.0915Z" fill="url(#paint7_radial_5403_84124)"/>
<path d="M90.1896 85.0915C95.1127 85.0915 99.1037 81.1005 99.1037 76.1774C99.1037 71.2542 95.1127 67.2632 90.1896 67.2632C85.2664 67.2632 81.2754 71.2542 81.2754 76.1774C81.2754 81.1005 85.2664 85.0915 90.1896 85.0915Z" fill="url(#paint8_linear_5403_84124)"/>
<path d="M98.7839 76.3072C98.7839 78.8448 97.027 81.903 94.8148 83.1392C92.6025 84.3755 90.8457 83.3995 90.8457 80.8619C90.8457 78.3243 92.6025 75.2661 94.8148 74.0299C97.027 72.7936 98.7839 73.7696 98.7839 76.3072Z" fill="#7C4EFF"/>
<path opacity="0.5" d="M98.7839 76.3072C98.7839 78.8448 97.027 81.903 94.8148 83.1392C92.6025 84.3755 90.8457 83.3995 90.8457 80.8619C90.8457 78.3243 92.6025 75.2661 94.8148 74.0299C97.027 72.7936 98.7839 73.7696 98.7839 76.3072Z" fill="url(#paint9_radial_5403_84124)"/>
<path d="M96.7011 73.5088C97.0264 73.9643 97.2216 74.6149 97.2216 75.4608C97.2216 77.9984 95.4648 81.0566 93.2525 82.2928C92.6019 82.6832 91.9512 82.8784 91.4307 82.8134C92.0813 83.7894 93.3827 83.9846 94.8792 83.1387C97.0915 81.9024 98.8483 78.8443 98.8483 76.3067C98.7832 74.5499 97.9374 73.5739 96.7011 73.5088Z" fill="#5F56AA"/>
<path d="M85.5759 43.9043L77.1172 48.7844V38.9592L85.5759 34.0142V43.9043Z" fill="#7C4EFF"/>
<path opacity="0.8" d="M84.3396 34.795V43.1886L77.1172 47.3529V48.7844L85.5759 43.9043V34.0142L84.3396 34.795Z" fill="#5F56AA"/>
<path d="M78.7447 41.6266L77.9639 42.0821V41.2362L78.7447 40.7808V41.6266Z" fill="#16E09E"/>
<path d="M80.3046 39.6102L79.5889 40.0006V39.1547L80.3046 38.6992V39.6102Z" fill="#16E09E"/>
<path d="M81.9325 39.805L81.2168 40.1954V39.3495L81.9325 38.894V39.805Z" fill="#16E09E"/>
<path d="M81.9325 42.0822L81.2168 42.5377V41.6267L81.9325 41.2363V42.0822Z" fill="#16E09E"/>
<path d="M80.9579 43.839L80.2422 44.2945V43.4486L80.9579 42.9932V43.839Z" fill="#16E09E"/>
<path d="M83.6255 41.1066L82.8447 41.5621V40.7162L83.6255 40.2607V41.1066Z" fill="#16E09E"/>
<path d="M96.32 101.228C95.344 104.352 90.3338 110.468 87.1456 109.492C83.9573 108.516 84.0223 100.903 84.9333 97.7799C85.9093 94.6567 89.1626 92.8348 92.3509 93.8108C95.4741 94.7868 97.296 98.1052 96.32 101.228Z" fill="url(#paint10_radial_5403_84124)"/>
<path d="M96.32 101.228C95.344 104.352 90.3338 110.468 87.1456 109.492C83.9573 108.516 84.0223 100.903 84.9333 97.7799C85.9093 94.6567 89.1626 92.8348 92.3509 93.8108C95.4741 94.7868 97.296 98.1052 96.32 101.228Z" fill="url(#paint11_linear_5403_84124)"/>
<path d="M90.2648 93.8749C91.8914 93.7448 94.0386 94.7208 94.9496 96.0872C95.9256 97.4536 95.34 98.6248 93.7133 98.82C92.0866 98.9501 89.9394 97.9741 89.0285 96.6077C88.0525 95.2413 88.6381 94.005 90.2648 93.8749Z" fill="#251C72"/>
<path opacity="0.5" d="M90.2648 93.8749C91.8914 93.7448 94.0386 94.7208 94.9496 96.0872C95.9256 97.4536 95.34 98.6248 93.7133 98.82C92.0866 98.9501 89.9394 97.9741 89.0285 96.6077C88.0525 95.2413 88.6381 94.005 90.2648 93.8749Z" fill="url(#paint12_radial_5403_84124)"/>
<path d="M88.5728 95.4365C88.8331 95.1762 89.2886 95.0461 89.8091 94.9811C91.4358 94.8509 93.583 95.8269 94.4939 97.1933C94.7542 97.5837 94.9494 98.0392 94.9494 98.3645C95.535 97.844 95.6 96.9981 94.9494 96.0872C93.9734 94.7208 91.8912 93.7448 90.2645 93.8749C89.1584 94.005 88.5078 94.5906 88.5728 95.4365Z" fill="#5F56AA"/>
<path opacity="0.6" d="M94.9436 90.0998C95.1386 89.9049 95.1386 89.6449 94.9436 89.4499C94.7486 89.255 94.4887 89.255 94.2937 89.4499C94.0987 89.6449 94.0987 89.9049 94.2937 90.0998C94.4237 90.2948 94.7486 90.2948 94.9436 90.0998Z" fill="#16E09E"/>
<path d="M100.347 89.3205C100.803 88.8651 100.868 88.1493 100.412 87.6288C99.9569 87.1733 99.2411 87.1083 98.7206 87.5637C98.2651 88.0192 98.2001 88.7349 98.6555 89.2555C99.1761 89.776 99.8918 89.776 100.347 89.3205Z" fill="#16E09E"/>
<path opacity="0.6" d="M97.4177 95.9572C97.6779 95.6969 97.6779 95.3065 97.4177 95.0463C97.1574 94.786 96.767 94.786 96.5067 95.0463C96.2465 95.3065 96.2465 95.6969 96.5067 95.9572C96.7019 96.2175 97.1574 96.2175 97.4177 95.9572Z" fill="#16E09E"/>
<path d="M98.9153 93.7439C99.1102 93.5489 99.1102 93.2889 98.9153 93.094C98.7203 92.899 98.4603 92.899 98.2654 93.094C98.0704 93.2889 98.0704 93.5489 98.2654 93.7439C98.4603 93.8739 98.7203 93.9388 98.9153 93.7439Z" fill="#16E09E"/>
<path d="M99.3034 94.7853C99.4334 94.6553 99.4334 94.4604 99.3034 94.3304C99.1734 94.2004 98.9784 94.2004 98.8485 94.3304C98.7185 94.4604 98.7185 94.6553 98.8485 94.7853C98.9784 94.9153 99.1734 94.9153 99.3034 94.7853Z" fill="#16E09E"/>
<path opacity="0.6" d="M95.9196 85.9367C96.1799 85.6764 96.1799 85.286 95.9196 85.0258C95.6593 84.7655 95.2689 84.7655 95.0087 85.0258C94.7484 85.286 94.7484 85.6764 95.0087 85.9367C95.2039 86.197 95.6593 86.197 95.9196 85.9367Z" fill="#16E09E"/>
<path d="M94.6194 87.499C95.0098 87.1085 95.0098 86.5229 94.6845 86.1325C94.2941 85.7421 93.7085 85.7421 93.3181 86.0675C92.9277 86.4579 92.9277 87.0435 93.253 87.4339C93.6434 87.8243 94.229 87.8894 94.6194 87.499Z" fill="#16E09E"/>
<path style="mix-blend-mode:multiply" opacity="0.5" d="M85.108 41.0163C85.108 41.0163 85.6492 38.5809 85.6492 34.522C85.6492 26.9152 80.3575 15.3096 68.6617 14.2874C56.9659 13.2651 52.7266 16.6325 52.7266 16.6325C52.7266 16.6325 56.7254 9.41664 71.2474 11.1905C84.6269 12.8442 88.9264 27.3362 88.7159 33.4997C88.5656 38.8215 88.0545 41.9183 88.0545 41.9183L85.108 41.0163Z" fill="url(#paint13_linear_5403_84124)"/>
<path d="M81.8906 36.0853C83.5743 35.1232 85.0776 35.033 86.16 35.6343C86.19 35.6343 88.2045 36.7769 88.2345 36.8069C89.3169 37.4383 87.543 37.4383 87.543 39.3626C87.543 43.2411 84.807 47.9615 81.4095 49.9158C79.7559 50.8779 80.4474 52.2911 79.3349 51.6597C79.3049 51.6597 77.531 50.5472 77.5009 50.5171C76.4486 49.8858 75.7871 48.5328 75.7871 46.6386C75.7871 42.76 78.5231 38.0396 81.8906 36.0853Z" fill="url(#paint14_linear_5403_84124)"/>
<path d="M83.904 37.2884C87.2715 35.3341 90.0075 36.8975 90.0075 40.7761C90.0075 44.6546 87.2715 49.375 83.904 51.3294C80.5366 53.2837 77.7705 51.7202 77.7705 47.8417C77.7705 43.9631 80.5366 39.2427 83.904 37.2884Z" fill="url(#paint15_linear_5403_84124)"/>
<path d="M84.1154 40.3546C85.1376 39.7833 86.0396 39.6932 86.7011 40.0539C86.7011 40.084 89.0763 41.437 89.1064 41.437C89.7678 41.8279 88.6854 41.8279 88.6854 43.0004C88.6854 45.3456 87.0318 48.1718 84.9873 49.3444C83.9951 49.9458 84.416 50.7876 83.7546 50.3967C83.7245 50.3967 81.4996 49.0738 81.4695 49.0438C80.8381 48.6529 80.4473 47.8411 80.4473 46.6986C80.4473 44.3835 82.1009 41.5272 84.1154 40.3546Z" fill="#D1C8FB"/>
<path d="M86.4892 41.7375C88.5337 40.5649 90.1873 41.497 90.1873 43.8421C90.1873 46.1873 88.5337 49.0135 86.4892 50.1861C84.4447 51.3888 82.791 50.4267 82.791 48.1116C82.791 45.7664 84.4447 42.9101 86.4892 41.7375Z" fill="#A591F8"/>
<path style="mix-blend-mode:multiply" opacity="0.5" d="M58.9806 60.2588C55.974 60.2588 53.6589 59.7176 53.4785 59.6875L53.8092 58.3346C53.8694 58.3646 60.514 59.898 65.8658 57.643C70.8869 55.5384 77.1708 49.1944 77.2309 49.1343L78.2231 50.0964C77.9525 50.367 71.6686 56.711 66.407 58.9359C63.9416 59.9581 61.2657 60.2588 58.9806 60.2588Z" fill="url(#paint16_linear_5403_84124)"/>
<path d="M58.7714 59.627C55.7347 59.627 53.4197 59.0858 53.2393 59.0557L53.57 57.7027C53.6301 57.7027 60.2748 59.2662 65.6266 57.0112C70.6476 54.8765 76.9315 48.5626 76.9916 48.5024L77.9838 49.4646C77.7132 49.7352 71.4294 56.0792 66.1678 58.274C63.7023 59.3263 61.0264 59.627 58.7714 59.627Z" fill="#25054D"/>
<path d="M54.6816 60.0184C54.5814 60.0184 54.4812 60.0084 54.381 59.9883L51.3743 59.3569C50.5926 59.1765 50.0815 58.3948 50.2619 57.6131C50.4122 56.8314 51.1939 56.3202 51.9757 56.5006L54.9823 57.132C55.7941 57.2824 56.2751 58.0641 56.1248 58.8458C55.9745 59.5373 55.3731 60.0184 54.6816 60.0184Z" fill="#25054D"/>
<path d="M85.6497 40.2345C85.6497 40.2345 86.1608 37.7992 86.1608 33.7402C86.1608 26.0733 80.8691 14.4376 69.1132 13.3853C57.3272 12.3631 53.0879 15.7305 53.0879 15.7305C53.0879 15.7305 57.1168 8.48452 71.6989 10.2885C85.1686 11.9121 89.4681 26.4942 89.2576 32.6879C89.1073 38.0698 88.5962 41.1666 88.5962 41.1666L85.6497 40.2345Z" fill="#D1C8FB"/>
<g style="mix-blend-mode:multiply">
<path d="M85.6497 40.2344C85.6497 40.2344 86.1608 37.799 86.1608 33.74C86.1608 26.0731 80.8691 14.4375 69.1132 13.3852C57.3272 12.3629 53.0879 15.7303 53.0879 15.7303C53.0879 15.7303 53.3284 15.3094 53.8997 14.678C55.6135 13.8061 60.4541 11.942 69.5642 12.7538C81.3201 13.8061 87.0929 25.6221 87.0929 33.259C87.0929 36.5663 86.5216 39.4526 86.3111 40.4448L85.6497 40.2344Z" fill="#5F56AA"/>
</g>
<path d="M56.5707 23.2138L15.3032 -0.430748C14.6403 -0.817459 14.0326 -0.817461 13.5354 -0.54124L10.9941 0.95036L12.6515 2.16573V3.4916L11.7123 3.87831L11.7676 54.2059L14.585 56.9129L24.1423 62.382L53.4218 78.6791C53.4218 78.6791 54.5266 78.6791 54.6924 78.6791C54.7476 78.6791 54.8029 78.5134 54.8581 78.3476L56.1287 79.0658L55.742 80.9994L58.3385 79.5078C58.891 79.1763 59.2777 78.4581 59.2777 77.3532V28.2963C59.2224 26.3075 58.0623 24.0425 56.5707 23.2138ZM55.4658 75.9169L15.7451 53.1562C15.4137 52.9905 15.1375 52.4381 15.1375 51.9961V3.54684L23.5898 8.96079L54.1952 26.9704L55.0791 28.3515L55.5763 50.2835L55.4658 75.9169Z" fill="url(#paint17_linear_5403_84124)"/>
<path opacity="0.6" d="M58.3946 25.2026L54.417 27.4676L54.9694 28.3516L55.4666 50.2836L55.4114 75.8617L54.6932 75.4197C54.6932 76.1931 55.6876 80.1155 55.6876 80.9441L57.7869 79.7288L58.2841 79.4526C58.8365 79.1211 59.2233 78.4029 59.2233 77.298V28.2411C59.2233 27.2467 58.8918 26.1418 58.3946 25.2026Z" fill="#4F3FAF"/>
<path d="M53.9192 24.7608L12.6517 1.11626C11.2154 0.287596 10 1.17151 10 3.10506V52.162C10 54.0956 11.1601 56.3606 12.6517 57.2445L53.9192 80.8891C55.3556 81.7177 56.571 80.8338 56.571 78.9003V29.8433C56.571 27.8545 55.3556 25.5895 53.9192 24.7608ZM54.1402 77.4087C54.1402 77.8506 53.864 78.0716 53.5325 77.8506L13.0384 54.648C12.707 54.4823 12.4307 53.9298 12.4307 53.4879V4.59666C12.4307 4.1547 12.707 3.93372 13.0384 4.1547L53.5325 27.3573C53.864 27.523 54.1402 28.0755 54.1402 28.5174V77.4087Z" fill="url(#paint18_linear_5403_84124)"/>
<path d="M53.9192 24.7608L12.6517 1.11626C11.2154 0.287596 10 1.17151 10 3.10506V52.162C10 54.0956 11.1601 56.3606 12.6517 57.2445L53.9192 80.8891C55.3556 81.7177 56.571 80.8338 56.571 78.9003V29.8433C56.571 27.8545 55.3556 25.5895 53.9192 24.7608ZM54.1402 77.4087C54.1402 77.8506 53.864 78.0716 53.5325 77.8506L13.0384 54.648C12.707 54.4823 12.4307 53.9298 12.4307 53.4879V4.59666C12.4307 4.1547 12.707 3.93372 13.0384 4.1547L53.5325 27.3573C53.864 27.523 54.1402 28.0755 54.1402 28.5174V77.4087Z" fill="url(#paint19_linear_5403_84124)"/>
<path d="M15.6901 53.1009C15.3586 52.9352 15.0824 52.3827 15.0824 51.9408V5.31455L13.0384 4.09917C12.7069 3.93344 12.4307 4.09918 12.4307 4.54113V53.4876C12.4307 53.9296 12.7069 54.4268 13.0384 54.6477L53.5325 77.8503C53.8639 78.0161 54.1401 77.8503 54.1401 77.4084V75.1434L15.6901 53.1009Z" fill="#251C72"/>
<path opacity="0.4" d="M54.1401 77.4085C54.1401 77.8505 53.8639 78.0715 53.5325 77.8505L13.0384 54.6479C12.7069 54.4821 12.4307 53.9297 12.4307 53.4877V4.59652C12.4307 4.15456 12.7069 3.93358 13.0384 4.15456L53.5325 27.3572C53.8639 27.5229 54.1401 28.0754 54.1401 28.5173V77.4085Z" fill="#16E09E"/>
</g>
<defs>
<linearGradient id="paint0_linear_5403_84124" x1="45.4416" y1="65.6512" x2="50.7987" y2="49.1571" gradientUnits="userSpaceOnUse">
<stop stop-color="#5761D7"/>
<stop offset="0.1779" stop-color="#5C66D9"/>
<stop offset="0.3876" stop-color="#6A73DF"/>
<stop offset="0.6134" stop-color="#8289E8"/>
<stop offset="0.849" stop-color="#A3A7F5"/>
<stop offset="1" stop-color="#BCBEFF"/>
</linearGradient>
<radialGradient id="paint1_radial_5403_84124" cx="0" cy="0" r="1" gradientUnits="userSpaceOnUse" gradientTransform="translate(78.4458 65.4722) scale(39.6357 53.9547)">
<stop stop-color="#C0BFF6"/>
<stop offset="1" stop-color="#393091"/>
</radialGradient>
<linearGradient id="paint2_linear_5403_84124" x1="57.5759" y1="98.0052" x2="75.9055" y2="49.8073" gradientUnits="userSpaceOnUse">
<stop stop-color="#5761D7"/>
<stop offset="0.1779" stop-color="#5C66D9"/>
<stop offset="0.3876" stop-color="#6A73DF"/>
<stop offset="0.6134" stop-color="#8289E8"/>
<stop offset="0.849" stop-color="#A3A7F5"/>
<stop offset="1" stop-color="#BCBEFF"/>
</linearGradient>
<radialGradient id="paint3_radial_5403_84124" cx="0" cy="0" r="1" gradientUnits="userSpaceOnUse" gradientTransform="translate(64.2238 65.6967) scale(30.6789 30.6789)">
<stop stop-color="#16E09E"/>
<stop offset="0.1055" stop-color="#37BFA7"/>
<stop offset="0.4587" stop-color="#2A76E4"/>
<stop offset="0.7105" stop-color="#6951FD"/>
<stop offset="0.8458" stop-color="#7C4EFF"/>
<stop offset="1" stop-color="#3C04DB"/>
</radialGradient>
<radialGradient id="paint4_radial_5403_84124" cx="0" cy="0" r="1" gradientUnits="userSpaceOnUse" gradientTransform="translate(80.4272 31.789) scale(39.7572)">
<stop stop-color="#C0BFF6"/>
<stop offset="1" stop-color="#393091"/>
</radialGradient>
<linearGradient id="paint5_linear_5403_84124" x1="58.2517" y1="55.6496" x2="72.4068" y2="12.0665" gradientUnits="userSpaceOnUse">
<stop stop-color="#5761D7"/>
<stop offset="0.1779" stop-color="#5C66D9"/>
<stop offset="0.3876" stop-color="#6A73DF"/>
<stop offset="0.6134" stop-color="#8289E8"/>
<stop offset="0.849" stop-color="#A3A7F5"/>
<stop offset="1" stop-color="#BCBEFF"/>
</linearGradient>
<radialGradient id="paint6_radial_5403_84124" cx="0" cy="0" r="1" gradientUnits="userSpaceOnUse" gradientTransform="translate(58.4293 37.4426) scale(19.5278 19.5278)">
<stop stop-color="#16E09E"/>
<stop offset="0.05911" stop-color="#3CCDB3"/>
<stop offset="0.359375" stop-color="#2277B0"/>
<stop offset="0.770833" stop-color="#2043CC"/>
<stop offset="1" stop-color="#2D30FF"/>
</radialGradient>
<radialGradient id="paint7_radial_5403_84124" cx="0" cy="0" r="1" gradientUnits="userSpaceOnUse" gradientTransform="translate(95.4758 70.3159) rotate(11.1976) scale(18.6363 18.6363)">
<stop stop-color="#C0BFF6"/>
<stop offset="1" stop-color="#393091"/>
</radialGradient>
<linearGradient id="paint8_linear_5403_84124" x1="87.3616" y1="83.8978" x2="92.7186" y2="67.4037" gradientUnits="userSpaceOnUse">
<stop stop-color="#5761D7"/>
<stop offset="0.1779" stop-color="#5C66D9"/>
<stop offset="0.3876" stop-color="#6A73DF"/>
<stop offset="0.6134" stop-color="#8289E8"/>
<stop offset="0.849" stop-color="#A3A7F5"/>
<stop offset="1" stop-color="#BCBEFF"/>
</linearGradient>
<radialGradient id="paint9_radial_5403_84124" cx="0" cy="0" r="1" gradientUnits="userSpaceOnUse" gradientTransform="translate(93.1544 77.1904) scale(16.6435 16.6435)">
<stop stop-color="#16E09E"/>
<stop offset="0.1055" stop-color="#37BFAF"/>
<stop offset="0.338" stop-color="#2277B0"/>
<stop offset="0.78125" stop-color="#2043CC"/>
<stop offset="1" stop-color="#2D30FF"/>
</radialGradient>
<radialGradient id="paint10_radial_5403_84124" cx="0" cy="0" r="1" gradientUnits="userSpaceOnUse" gradientTransform="translate(94.3598 96.5487) rotate(16.7569) scale(16.8481)">
<stop stop-color="#C0BFF6"/>
<stop offset="1" stop-color="#393091"/>
</radialGradient>
<linearGradient id="paint11_linear_5403_84124" x1="88.5531" y1="108.522" x2="94.486" y2="94.6434" gradientUnits="userSpaceOnUse">
<stop stop-color="#5761D7"/>
<stop offset="0.1779" stop-color="#5C66D9"/>
<stop offset="0.3876" stop-color="#6A73DF"/>
<stop offset="0.6134" stop-color="#8289E8"/>
<stop offset="0.849" stop-color="#A3A7F5"/>
<stop offset="1" stop-color="#BCBEFF"/>
</linearGradient>
<radialGradient id="paint12_radial_5403_84124" cx="0" cy="0" r="1" gradientUnits="userSpaceOnUse" gradientTransform="translate(91.1872 97.499) rotate(-95.1063) scale(10.9338 10.9338)">
<stop stop-color="#16E09E"/>
<stop offset="0.1055" stop-color="#37BFA7"/>
<stop offset="0.338542" stop-color="#2277B0"/>
<stop offset="0.75" stop-color="#2043CC"/>
<stop offset="1" stop-color="#2D30FF"/>
</radialGradient>
<linearGradient id="paint13_linear_5403_84124" x1="70.6461" y1="0.336617" x2="98.3672" y2="24.991" gradientUnits="userSpaceOnUse">
<stop stop-color="white"/>
<stop offset="1" stop-color="#BCBEC0"/>
</linearGradient>
<linearGradient id="paint14_linear_5403_84124" x1="81.4696" y1="53.3734" x2="91.602" y2="39.7835" gradientUnits="userSpaceOnUse">
<stop stop-color="#2A0B83"/>
<stop offset="0.6" stop-color="#7C4EFF"/>
<stop offset="0.9" stop-color="#2B1176"/>
</linearGradient>
<linearGradient id="paint15_linear_5403_84124" x1="89.8271" y1="36.3864" x2="70.5546" y2="30.6137" gradientUnits="userSpaceOnUse">
<stop stop-color="#33128F"/>
<stop offset="1" stop-color="#7C4EFF"/>
</linearGradient>
<linearGradient id="paint16_linear_5403_84124" x1="53.4785" y1="47.9316" x2="78.2231" y2="47.9316" gradientUnits="userSpaceOnUse">
<stop stop-color="white"/>
<stop offset="1" stop-color="#BCBEC0"/>
</linearGradient>
<linearGradient id="paint17_linear_5403_84124" x1="20.5219" y1="40.1203" x2="59.6054" y2="40.1203" gradientUnits="userSpaceOnUse">
<stop stop-color="#BCBEFF"/>
<stop offset="0.1659" stop-color="#B6B8FC"/>
<stop offset="0.3956" stop-color="#A4A8F5"/>
<stop offset="0.6625" stop-color="#868DEA"/>
<stop offset="0.9554" stop-color="#5E67DA"/>
<stop offset="1" stop-color="#5761D7"/>
</linearGradient>
<linearGradient id="paint18_linear_5403_84124" x1="10.0265" y1="40.9972" x2="56.5672" y2="40.9972" gradientUnits="userSpaceOnUse">
<stop stop-color="#BCBEFF"/>
<stop offset="0.1659" stop-color="#B6B8FC"/>
<stop offset="0.3956" stop-color="#A4A8F5"/>
<stop offset="0.6625" stop-color="#868DEA"/>
<stop offset="0.9554" stop-color="#5E67DA"/>
<stop offset="1" stop-color="#5761D7"/>
</linearGradient>
<linearGradient id="paint19_linear_5403_84124" x1="3.59851" y1="40.9972" x2="87.5653" y2="40.9972" gradientUnits="userSpaceOnUse">
<stop stop-color="#706EC4"/>
<stop offset="0.119792" stop-color="#6D6BC2"/>
<stop offset="0.401042" stop-color="#5651AC"/>
<stop offset="0.760417" stop-color="#463F9D"/>
<stop offset="1" stop-color="#3C3494"/>
</linearGradient>
<clipPath id="clip0_5403_84124">
<rect width="110" height="110" fill="white"/>
</clipPath>
</defs>
</svg>
