<svg width="149" height="37" viewBox="0 0 149 37" fill="none" xmlns="http://www.w3.org/2000/svg">
<path d="M49.6324 22.4883C48.7566 22.4883 47.9848 22.3027 47.3168 21.9316C46.6637 21.5457 46.159 21.0262 45.8027 20.373V27.0082H42.2402V10.5762H45.3352V12.4687C45.7656 11.8008 46.3074 11.2813 46.9605 10.9102C47.6137 10.5391 48.3781 10.3535 49.2539 10.3535C50.293 10.3535 51.2207 10.6281 52.0371 11.1773C52.8684 11.7117 53.5141 12.4316 53.9742 13.3371C54.4492 14.2426 54.6867 15.2594 54.6867 16.3875C54.6867 17.5453 54.4715 18.5844 54.041 19.5047C53.6105 20.425 53.0094 21.1523 52.2375 21.6867C51.4805 22.2211 50.6121 22.4883 49.6324 22.4883ZM48.4301 19.4824C48.9348 19.4824 49.3875 19.3414 49.7883 19.0594C50.1891 18.7625 50.5008 18.384 50.7234 17.9238C50.9461 17.4488 51.0574 16.9293 51.0574 16.3652C51.0574 15.5043 50.7902 14.7918 50.2559 14.2277C49.7363 13.6637 49.0684 13.3816 48.252 13.3816C47.7621 13.3816 47.2871 13.5301 46.827 13.827C46.3816 14.109 46.0402 14.4949 45.8027 14.9848V17.3895C46.0402 17.9832 46.3965 18.4805 46.8715 18.8813C47.3613 19.282 47.8809 19.4824 48.4301 19.4824Z" fill="#050505"/>
<path d="M63.8969 13.6266C63.0359 13.6414 62.2566 13.7824 61.559 14.0496C60.8613 14.3168 60.3566 14.7176 60.0449 15.252V22.2656H56.4824V10.5762H59.7555V12.9363C60.1562 12.1496 60.6758 11.5336 61.314 11.0883C61.9523 10.643 62.6203 10.4129 63.318 10.398C63.6148 10.398 63.8078 10.4055 63.8969 10.4203V13.6266Z" fill="#050505"/>
<path d="M70.8768 22.4883C69.5408 22.4883 68.4053 22.2063 67.4701 21.6422C66.5498 21.0781 65.8448 20.3359 65.3549 19.4156C64.8651 18.4953 64.6201 17.5008 64.6201 16.432C64.6201 15.3484 64.8651 14.3465 65.3549 13.4262C65.8448 12.5059 66.5573 11.7637 67.4924 11.1996C68.4276 10.6355 69.5557 10.3535 70.8768 10.3535C72.1979 10.3535 73.326 10.6355 74.2612 11.1996C75.1963 11.7637 75.9088 12.5059 76.3987 13.4262C76.8885 14.3465 77.1334 15.3484 77.1334 16.432C77.1334 17.5008 76.8885 18.4953 76.3987 19.4156C75.9088 20.3359 75.1963 21.0781 74.2612 21.6422C73.326 22.2063 72.1979 22.4883 70.8768 22.4883ZM68.2717 16.432C68.2717 17.3375 68.5166 18.0723 69.0065 18.6363C69.5112 19.2004 70.1346 19.4824 70.8768 19.4824C71.6041 19.4824 72.2127 19.2004 72.7026 18.6363C73.2073 18.0723 73.4596 17.3375 73.4596 16.432C73.4596 15.5266 73.2073 14.7918 72.7026 14.2277C72.2127 13.6637 71.6041 13.3816 70.8768 13.3816C70.1346 13.3816 69.5112 13.6637 69.0065 14.2277C68.5166 14.7918 68.2717 15.5266 68.2717 16.432Z" fill="#050505"/>
<path d="M80.8944 10.5762L82.9651 13.8715L83.1878 14.2945L83.4104 13.8715L85.4811 10.5762H89.1549L85.2362 16.3875L89.244 22.2656H85.5702L83.3882 18.9926L83.1878 18.5695L82.9874 18.9926L80.8053 22.2656H77.1315L81.1393 16.4543L77.2206 10.5762H80.8944Z" fill="#050505"/>
<path d="M90.5352 24.0246C91.1438 24.2176 91.6559 24.3141 92.0716 24.3141C92.4872 24.3141 92.8138 24.1656 93.0513 23.8688C93.3036 23.5719 93.5263 23.0375 93.7192 22.2656L89.2661 10.5762H92.9399L95.6563 18.6141L97.972 10.5762H101.334L96.8809 24.1582C96.5692 25.123 96.0052 25.9023 95.1888 26.4961C94.3872 27.1047 93.4446 27.409 92.361 27.409C91.7376 27.409 91.129 27.2977 90.5352 27.075V24.0246Z" fill="#050505"/>
<path d="M109.745 22.4883C108.854 22.4883 108.075 22.3027 107.407 21.9316C106.739 21.5457 106.212 21.0113 105.826 20.3285V22.2656H102.731V6.01172H106.294V12.491C106.665 11.823 107.177 11.3035 107.83 10.9324C108.483 10.5465 109.248 10.3535 110.124 10.3535C111.118 10.3535 111.994 10.6281 112.751 11.1773C113.523 11.7266 114.124 12.4613 114.554 13.3816C114.985 14.302 115.2 15.3336 115.2 16.4766C115.2 17.6047 114.963 18.6289 114.488 19.5492C114.013 20.4547 113.36 21.1746 112.528 21.709C111.712 22.2285 110.784 22.4883 109.745 22.4883ZM108.743 19.4824C109.574 19.4824 110.25 19.193 110.769 18.6141C111.289 18.0352 111.549 17.3227 111.549 16.4766C111.549 15.9273 111.43 15.4152 111.192 14.9402C110.97 14.4652 110.658 14.0867 110.257 13.8047C109.871 13.5227 109.426 13.3816 108.921 13.3816C108.357 13.3816 107.838 13.5746 107.363 13.9605C106.888 14.3465 106.531 14.8289 106.294 15.4078V17.857C106.531 18.3617 106.873 18.7625 107.318 19.0594C107.778 19.3414 108.253 19.4824 108.743 19.4824Z" fill="#484848"/>
<path d="M124.388 13.6266C123.527 13.6414 122.748 13.7824 122.05 14.0496C121.352 14.3168 120.848 14.7176 120.536 15.252V22.2656H116.974V10.5762H120.247V12.9363C120.647 12.1496 121.167 11.5336 121.805 11.0883C122.443 10.643 123.111 10.4129 123.809 10.398C124.106 10.398 124.299 10.4055 124.388 10.4203V13.6266Z" fill="#484848"/>
<path d="M131.368 22.4883C130.032 22.4883 128.896 22.2063 127.961 21.6422C127.041 21.0781 126.336 20.3359 125.846 19.4156C125.356 18.4953 125.111 17.5008 125.111 16.432C125.111 15.3484 125.356 14.3465 125.846 13.4262C126.336 12.5059 127.048 11.7637 127.984 11.1996C128.919 10.6355 130.047 10.3535 131.368 10.3535C132.689 10.3535 133.817 10.6355 134.752 11.1996C135.687 11.7637 136.4 12.5059 136.89 13.4262C137.38 14.3465 137.625 15.3484 137.625 16.432C137.625 17.5008 137.38 18.4953 136.89 19.4156C136.4 20.3359 135.687 21.0781 134.752 21.6422C133.817 22.2063 132.689 22.4883 131.368 22.4883ZM128.763 16.432C128.763 17.3375 129.008 18.0723 129.498 18.6363C130.002 19.2004 130.626 19.4824 131.368 19.4824C132.095 19.4824 132.704 19.2004 133.194 18.6363C133.698 18.0723 133.951 17.3375 133.951 16.432C133.951 15.5266 133.698 14.7918 133.194 14.2277C132.704 13.6637 132.095 13.3816 131.368 13.3816C130.626 13.3816 130.002 13.6637 129.498 14.2277C129.008 14.7918 128.763 15.5266 128.763 16.432Z" fill="#484848"/>
<path d="M143.867 22.4883C142.857 22.4883 141.878 22.325 140.928 21.9984C139.993 21.657 139.198 21.1746 138.545 20.5512L139.77 18.3023C141.21 19.3563 142.538 19.8832 143.755 19.8832C144.216 19.8832 144.572 19.809 144.824 19.6605C145.077 19.5121 145.203 19.282 145.203 18.9703C145.203 18.6438 145.032 18.4137 144.691 18.2801C144.349 18.1316 143.845 17.9609 143.177 17.768C142.286 17.4711 141.544 17.1816 140.95 16.8996C140.356 16.6176 139.911 16.2762 139.614 15.8754C139.317 15.4746 139.169 14.9402 139.169 14.2723C139.169 13.0996 139.607 12.157 140.482 11.4445C141.358 10.7172 142.546 10.3535 144.045 10.3535C144.846 10.3535 145.626 10.4797 146.383 10.732C147.155 10.9844 147.875 11.4074 148.543 12.0012L147.162 14.2277C146.494 13.7676 145.9 13.4336 145.381 13.2258C144.861 13.018 144.357 12.9141 143.867 12.9141C143.481 12.9141 143.154 12.9883 142.887 13.1367C142.62 13.2703 142.486 13.5078 142.486 13.8492C142.486 14.1758 142.635 14.4207 142.932 14.584C143.229 14.7324 143.689 14.8957 144.312 15.0738C145.262 15.3559 146.056 15.6453 146.695 15.9422C147.348 16.2242 147.83 16.5805 148.142 17.0109C148.468 17.4266 148.632 17.9832 148.632 18.6809C148.632 19.8684 148.201 20.8035 147.34 21.4863C146.479 22.1543 145.321 22.4883 143.867 22.4883Z" fill="#484848"/>
<path fill-rule="evenodd" clip-rule="evenodd" d="M6.34375 2.34375C4.13461 2.34375 2.34375 4.13461 2.34375 6.34375V15.8906V22.9531V33.3281C2.34375 34.985 3.6869 36.3281 5.34375 36.3281H10.5469H10.75C15.1683 36.3281 18.75 32.7464 18.75 28.3281V26.4375C18.75 26.3762 18.7482 26.3153 18.7445 26.2549C23.5265 24.5673 26.9531 20.008 26.9531 14.6484C26.9531 7.85275 21.4441 2.34375 14.6484 2.34375H6.34375Z" fill="#FF7D7D"/>
<path fill-rule="evenodd" clip-rule="evenodd" d="M24.75 12.375C24.75 19.2095 19.2095 24.75 12.375 24.75C11.7387 24.75 11.1137 24.702 10.5033 24.6094H8.20312V32.8125H3C1.34315 32.8125 0 31.4694 0 29.8125V24.6094V12.375V3C0 1.34315 1.34315 0 3 0H12.3047C12.3164 0 12.3281 1.63404e-05 12.3398 4.90118e-05C12.3515 1.63444e-05 12.3633 0 12.375 0C19.2095 0 24.75 5.54048 24.75 12.375Z" fill="#F8E329"/>
<circle cx="12.3047" cy="12.3047" r="4.10156" fill="#FF7D7D"/>
<path d="M8.20312 24.0234C8.20312 21.7582 10.0395 19.9219 12.3047 19.9219V19.9219C14.5699 19.9219 16.4062 21.7582 16.4062 24.0234V24.8798C16.4062 29.2609 12.8547 32.8125 8.47356 32.8125H8.20312V24.0234Z" fill="#FF7D7D"/>
</svg>
