<svg width="173" height="33" viewBox="0 0 173 33" fill="none" xmlns="http://www.w3.org/2000/svg">
<path d="M110.702 31.739C108.313 31.739 106.24 31.3134 104.483 30.4622C102.725 29.611 101.352 28.4302 100.364 26.92C99.4029 25.3823 98.9224 23.5975 98.9224 21.5655C98.9224 19.0942 99.5127 16.8975 100.693 14.9754C101.874 13.0258 103.508 11.4881 105.595 10.3623C107.682 9.2365 110.071 8.6736 112.762 8.6736C115.288 8.6736 117.471 9.20905 119.311 10.2799C121.178 11.3508 122.523 12.8336 123.347 14.7283L116.675 17.8998C116.263 16.8563 115.672 16.1012 114.903 15.6344C114.162 15.1676 113.311 14.9342 112.35 14.9342C111.306 14.9342 110.359 15.2088 109.508 15.758C108.684 16.2797 108.039 16.9936 107.572 17.8998C107.105 18.8059 106.872 19.8768 106.872 21.1125C106.872 22.403 107.242 23.4465 107.984 24.2428C108.725 25.0391 109.81 25.4372 111.238 25.4372C112.254 25.4372 113.16 25.2175 113.956 24.7782C114.78 24.3114 115.48 23.5563 116.057 22.5129L121.782 25.9727C120.711 27.785 119.201 29.1991 117.251 30.2151C115.329 31.231 113.146 31.739 110.702 31.739Z" fill="#F9FBFD"/>
<path d="M130.539 27.579L132.269 17.8586L142.689 9.04429H152.575L140.136 19.7944L135.687 23.0483L130.539 27.579ZM122.919 31.3683L129.015 0.806641H136.841L130.745 31.3683H122.919ZM139.477 31.3683L134.328 22.8012L139.847 16.8289L148.62 31.3683H139.477Z" fill="#F9FBFD"/>
<path d="M158.359 31.739C156.382 31.739 154.515 31.5331 152.757 31.1212C151 30.6819 149.641 30.1601 148.68 29.556L151.522 24.078C152.565 24.737 153.787 25.245 155.187 25.602C156.588 25.9589 157.947 26.1374 159.265 26.1374C160.556 26.1374 161.476 26.0001 162.025 25.7255C162.574 25.4235 162.848 25.0253 162.848 24.5311C162.848 24.0917 162.56 23.776 161.984 23.5837C161.434 23.3641 160.72 23.1856 159.842 23.0483C158.963 22.911 158.029 22.7325 157.041 22.5129C156.08 22.2932 155.16 21.9774 154.281 21.5655C153.403 21.1536 152.675 20.577 152.098 19.8356C151.549 19.0668 151.275 18.0508 151.275 16.7877C151.275 15.0029 151.796 13.5064 152.84 12.2982C153.883 11.09 155.297 10.1838 157.082 9.57974C158.894 8.97565 160.926 8.6736 163.178 8.6736C164.771 8.6736 166.308 8.82462 167.791 9.12667C169.274 9.42872 170.564 9.86806 171.663 10.4447L168.903 15.9227C167.805 15.2637 166.679 14.8244 165.526 14.6047C164.372 14.3576 163.288 14.234 162.272 14.234C160.981 14.234 160.061 14.3988 159.512 14.7283C158.963 15.0578 158.688 15.4559 158.688 15.9227C158.688 16.3346 158.963 16.6641 159.512 16.9112C160.089 17.1309 160.803 17.3231 161.654 17.4879C162.533 17.6252 163.466 17.8037 164.455 18.0233C165.443 18.2155 166.363 18.5176 167.214 18.9295C168.093 19.3414 168.807 19.918 169.356 20.6594C169.933 21.4008 170.221 22.403 170.221 23.6661C170.221 25.4235 169.686 26.9063 168.615 28.1145C167.571 29.3226 166.157 30.2288 164.372 30.8329C162.588 31.437 160.583 31.739 158.359 31.739Z" fill="#F9FBFD"/>
<path d="M10.5332 31.7383C8.94057 31.7383 7.41661 31.3401 5.96129 30.5438C4.50597 29.7475 3.32524 28.5942 2.4191 27.084C1.54042 25.5738 1.10107 23.734 1.10107 21.5648C1.10107 19.6976 1.41685 17.9814 2.0484 16.4162C2.67996 14.8511 3.54491 13.4919 4.64326 12.3386C5.76908 11.1853 7.05964 10.2929 8.51496 9.66137C9.99774 9.00236 11.5629 8.67285 13.2104 8.67285C15.0227 8.67285 16.5741 9.02982 17.8647 9.74374C19.1827 10.4302 20.1438 11.556 20.7479 13.1212C21.352 14.6589 21.4893 16.7457 21.1598 19.3818C20.9126 21.8806 20.3223 24.0635 19.3887 25.9307C18.4551 27.7979 17.2469 29.2395 15.7641 30.2555C14.2813 31.244 12.5377 31.7383 10.5332 31.7383ZM13.2516 25.4365C14.295 25.4365 15.2149 25.1756 16.0112 24.6539C16.8075 24.1322 17.4254 23.4045 17.8647 22.4709C18.3315 21.5373 18.5649 20.4527 18.5649 19.217C18.5649 17.9265 18.1942 16.8968 17.4528 16.1279C16.7114 15.3316 15.668 14.9335 14.3225 14.9335C13.3065 14.9335 12.3867 15.2081 11.5629 15.7572C10.7666 16.2789 10.135 17.0066 9.66823 17.9402C9.22889 18.8738 9.00922 19.9584 9.00922 21.1941C9.00922 22.4846 9.37991 23.5144 10.1213 24.2832C10.8627 25.052 11.9061 25.4365 13.2516 25.4365ZM16.5467 31.3676L17.3292 27.6194L18.812 20.2468L19.8005 12.8741L20.5831 9.04354H28.4089L23.9606 31.3676H16.5467Z" fill="#F9FBFD"/>
<path d="M37.7303 31.7383C35.7533 31.7383 33.8861 31.5323 32.1287 31.1205C30.3713 30.6811 29.0121 30.1594 28.0511 29.5553L30.8931 24.0773C31.9365 24.7363 33.1584 25.2443 34.5588 25.6012C35.9592 25.9582 37.3184 26.1367 38.6365 26.1367C39.927 26.1367 40.8469 25.9994 41.3961 25.7248C41.9452 25.4227 42.2198 25.0246 42.2198 24.5303C42.2198 24.091 41.9315 23.7752 41.3549 23.583C40.8057 23.3633 40.0918 23.1848 39.2131 23.0476C38.3344 22.9103 37.4008 22.7318 36.4123 22.5121C35.4512 22.2924 34.5314 21.9767 33.6527 21.5648C32.774 21.1529 32.0463 20.5763 31.4697 19.8349C30.9205 19.066 30.6459 18.05 30.6459 16.7869C30.6459 15.0021 31.1676 13.5056 32.2111 12.2974C33.2545 11.0892 34.6686 10.1831 36.4535 9.57899C38.2658 8.9749 40.2977 8.67285 42.5493 8.67285C44.1419 8.67285 45.6796 8.82387 47.1624 9.12592C48.6452 9.42797 49.9358 9.86731 51.0341 10.4439L48.2745 15.922C47.1762 15.263 46.0503 14.8236 44.8971 14.604C43.7438 14.3568 42.6592 14.2333 41.6432 14.2333C40.3526 14.2333 39.4328 14.398 38.8836 14.7275C38.3344 15.057 38.0598 15.4552 38.0598 15.922C38.0598 16.3339 38.3344 16.6634 38.8836 16.9105C39.4602 17.1302 40.1741 17.3224 41.0254 17.4871C41.9041 17.6244 42.8377 17.8029 43.8262 18.0226C44.8147 18.2148 45.7346 18.5168 46.5858 18.9287C47.4645 19.3406 48.1784 19.9172 48.7276 20.6586C49.3042 21.4 49.5925 22.4023 49.5925 23.6654C49.5925 25.4227 49.0571 26.9055 47.9862 28.1137C46.9428 29.3219 45.5286 30.228 43.7438 30.8321C41.959 31.4362 39.9545 31.7383 37.7303 31.7383Z" fill="#F9FBFD"/>
<path d="M63.8149 20.0872C63.8182 20.0656 63.8199 20.0549 63.8215 20.0454C63.9996 18.9646 64.9295 18.1686 66.0248 18.1593C66.0344 18.1592 66.0453 18.1592 66.0671 18.1592H83.7052C83.73 18.1592 83.7423 18.1592 83.7523 18.1593C84.9211 18.1714 85.8112 19.2111 85.6429 20.3678C85.6415 20.3777 85.6395 20.3899 85.6357 20.4144V20.4144C85.6324 20.4359 85.6307 20.4467 85.6291 20.4561C85.451 21.537 84.5212 22.333 83.4258 22.3423C83.4162 22.3424 83.4053 22.3424 83.3835 22.3424H65.7454C65.7207 22.3424 65.7083 22.3424 65.6983 22.3423C64.5295 22.3302 63.6394 21.2904 63.8077 20.1337C63.8092 20.1238 63.8111 20.1116 63.8149 20.0872V20.0872Z" fill="#7C4EFF"/>
<path d="M63.9211 31.7391C61.5596 31.7391 59.5002 31.3135 57.7429 30.4623C55.9855 29.6111 54.6263 28.4303 53.6652 26.9201C52.7042 25.3824 52.2236 23.5976 52.2236 21.5656C52.2236 19.0943 52.814 16.8976 53.9947 14.9755C55.1755 13.0259 56.7955 11.4882 58.8549 10.3624C60.9144 9.2366 63.2758 8.6737 65.9393 8.6737C68.3282 8.6737 79.7128 8.34546 87.2748 9.14993C92.7451 9.79349 94.5411 11.9413 95.5022 13.4515C96.4633 14.9618 96.9438 16.7466 96.9438 18.806C96.9438 21.2773 96.3534 23.4877 95.1727 25.4373C93.992 27.3869 91.6188 31.1921 86.953 31.5139C79.8741 32.0021 66.5846 31.7391 63.9211 31.7391ZM64.3742 25.5197C65.4176 25.5197 81.1904 25.4373 84.2178 25.4373C86.953 25.4373 87.8549 23.4466 88.2943 22.513C88.7611 21.5794 88.9944 20.481 88.9944 19.2179C88.9944 17.9822 88.5619 14.9755 85.1832 14.9755C82.484 14.9755 66.8317 14.8931 65.4863 14.8931C64.4428 14.8931 63.5229 15.154 62.7266 15.6757C61.9303 16.1974 61.2988 16.9388 60.832 17.8999C60.3926 18.8335 60.173 19.9318 60.173 21.1949C60.173 22.513 60.5437 23.5701 61.2851 24.3664C62.0264 25.1353 63.0561 25.5197 64.3742 25.5197Z" fill="#F9FBFD"/>
</svg>
