<svg width="182" height="155" viewBox="0 0 182 155" fill="none" xmlns="http://www.w3.org/2000/svg">
<path opacity="0.8" d="M63.9251 138.884C62.3073 138.884 60.814 138.573 59.6318 137.888L4.37834 105.968C3.25834 105.346 2.63612 104.413 2.63612 103.417C2.63612 102.235 3.50722 100.991 5.06278 100.119L112.272 38.2082C115.134 36.5282 119.552 36.3415 122.041 37.8349L177.294 69.7549C178.414 70.3771 179.036 71.3105 179.036 72.306C179.036 73.4882 178.165 74.7327 176.61 75.6038L69.4007 137.515C67.8451 138.386 65.854 138.884 63.9251 138.884ZM59.8184 137.577C62.2451 138.946 66.4762 138.759 69.2762 137.204L176.485 75.2927C177.916 74.4838 178.725 73.3638 178.725 72.306C178.725 71.4349 178.165 70.626 177.17 70.066L121.916 38.146C119.49 36.7771 115.259 36.9015 112.459 38.5193L5.24945 100.431C3.81834 101.239 3.00945 102.359 3.00945 103.417C3.00945 104.288 3.56945 105.097 4.56501 105.657L59.8184 137.577Z" fill="#16E09E"/>
<path d="M181.214 47.002L173.001 48.4331L122.228 19.1264C119.677 17.6331 115.259 17.8197 112.272 19.5619L15.143 75.5621L0.582962 78.0509V83.2154C0.582962 84.1487 1.14296 85.0821 2.32519 85.7043L59.632 118.807C62.1831 120.3 66.6009 120.113 69.5875 118.371L178.85 55.2776C180.406 54.3442 181.277 53.2242 181.277 52.1042V47.002H181.214Z" fill="url(#paint0_linear_123_12362)"/>
<path d="M59.6313 113.642L2.32455 80.5397C-0.226568 79.0464 0.0845478 76.4953 3.009 74.8153L112.271 11.784C115.196 10.104 119.676 9.91737 122.227 11.3485L179.534 44.4508C182.085 45.9441 181.774 48.4952 178.849 50.1752L69.5869 113.206C66.6002 114.949 62.1824 115.135 59.6313 113.642Z" fill="#24126A"/>
<path d="M178.787 50.1752L69.5872 113.206C66.6628 114.886 62.1828 115.073 59.6317 113.642L2.3249 80.5397C1.32934 79.9797 0.769339 79.1708 0.644894 78.3619C0.458227 79.4197 1.01823 80.4775 2.3249 81.2241L59.6317 114.326C62.1828 115.82 66.6006 115.633 69.5872 113.891L178.85 50.7974C180.592 49.8018 181.401 48.433 181.276 47.2507C181.09 48.3085 180.281 49.3041 178.787 50.1752Z" fill="white"/>
<path opacity="0.51" d="M59.7564 112.335L4.50294 80.4151C2.01404 78.984 2.32516 76.4951 5.18739 74.8773L112.396 12.9661C115.259 11.3483 119.552 11.1616 122.041 12.5928L177.294 44.5128C179.783 45.9439 179.472 48.4328 176.61 50.0506L69.4008 111.962C66.4764 113.58 62.183 113.766 59.7564 112.335Z" fill="#453C9E"/>
<path opacity="0.3" d="M89.1656 77.9116C82.0868 77.9116 75.008 76.3322 69.5948 73.2198C64.3666 70.2004 61.4518 66.159 61.4518 61.8389C61.4518 57.5188 64.3204 53.4774 69.5948 50.458C80.3749 44.1869 97.9101 44.1869 108.69 50.458C113.918 53.4774 116.833 57.5188 116.833 61.8389C116.833 66.159 113.965 70.2004 108.69 73.2198C103.323 76.3786 96.2444 77.9116 89.1656 77.9116ZM89.1656 45.9521C82.1331 45.9521 75.0542 47.485 69.6873 50.6438C64.5054 53.6632 61.6369 57.6582 61.6369 61.8854C61.6369 66.1126 64.5054 70.1075 69.6873 73.1269C80.4212 79.3516 97.91 79.3516 108.644 73.1269C113.826 70.1075 116.694 66.1126 116.694 61.8854C116.694 57.6582 113.826 53.6632 108.644 50.6438C103.277 47.485 96.1982 45.9521 89.1656 45.9521Z" fill="#16E09E" stroke="#16E09E" stroke-width="0.267974"/>
<path opacity="0.3" d="M89.1748 84.1643C79.3558 84.1643 69.5368 81.9707 62.0282 77.648C54.7762 73.4544 50.7331 67.8414 50.7331 61.8412C50.7331 55.8411 54.7121 50.228 62.0282 46.0344C76.9813 37.3245 101.304 37.3245 116.257 46.0344C123.509 50.228 127.552 55.8411 127.552 61.8412C127.552 67.8414 123.573 73.4544 116.257 77.648C108.813 82.0352 98.9939 84.1643 89.1748 84.1643ZM89.1748 39.7762C79.42 39.7762 69.601 41.9052 62.1565 46.2924C54.9688 50.4861 50.9898 56.0346 50.9898 61.9057C50.9898 67.7768 54.9688 73.3254 62.1565 77.519C77.0455 86.1644 101.304 86.1644 116.193 77.519C123.381 73.3254 127.36 67.7768 127.36 61.9057C127.36 56.0346 123.381 50.4861 116.193 46.2924C108.749 41.9052 98.9297 39.7762 89.1748 39.7762Z" fill="#16E09E" stroke="#16E09E" stroke-width="0.267974"/>
<path d="M89.1653 71.659C84.8253 71.659 80.4853 70.7037 77.1504 68.7932C73.9525 66.9281 72.1708 64.4717 72.1708 61.8333C72.1708 59.1949 73.9525 56.7385 77.1504 54.8734C83.7746 51.0523 94.5104 51.0523 101.135 54.8734C104.333 56.7385 106.114 59.1949 106.114 61.8333C106.114 64.4717 104.333 66.9281 101.135 68.7932C97.8453 70.7037 93.5053 71.659 89.1653 71.659Z" fill="#16E09E"/>
<path opacity="0.8" d="M89.1653 71.6589C78.8704 71.6589 72.6176 66.7461 72.1708 62.7265C72.1708 59.1535 72.1708 57.367 72.1708 53.794C72.1708 51.1556 73.9525 48.6992 77.1504 46.8341C83.7746 43.013 94.5104 43.013 101.135 46.8341C104.333 48.6992 106.114 51.1556 106.114 53.794C106.114 56.8759 106.114 59.6001 106.114 62.7265C105.221 67.1927 98.9684 71.6589 89.1653 71.6589Z" fill="url(#paint1_linear_123_12362)"/>
<path opacity="0.8" d="M89.1425 44.4146C93.4246 44.4146 97.6828 45.3583 100.911 47.2202C104.036 49.0432 105.668 51.3785 105.668 53.7944C105.668 56.0594 104.233 58.2526 101.478 60.02L100.91 60.3677C97.7054 62.229 93.4476 63.1733 89.1649 63.1733C84.8841 63.1733 80.6264 62.2297 77.3749 60.3677H77.3759C74.2501 58.5447 72.6173 56.2105 72.6171 53.7944C72.6171 51.3783 74.249 49.0424 77.3749 47.2192C80.6029 45.3577 84.8608 44.4146 89.1425 44.4146Z" fill="url(#paint2_linear_123_12362)" stroke="url(#paint3_linear_123_12362)" stroke-width="0.893248"/>
<path opacity="0.8" d="M89.1425 44.4146C93.4246 44.4146 97.6828 45.3583 100.911 47.2202C104.036 49.0432 105.668 51.3785 105.668 53.7944C105.668 56.0594 104.233 58.2526 101.478 60.02L100.91 60.3677C97.7054 62.229 93.4476 63.1733 89.1649 63.1733C84.8841 63.1733 80.6264 62.2297 77.3749 60.3677H77.3759C74.2501 58.5447 72.6173 56.2105 72.6171 53.7944C72.6171 51.3783 74.249 49.0424 77.3749 47.2192C80.6029 45.3577 84.8608 44.4146 89.1425 44.4146Z" stroke="url(#paint4_linear_123_12362)" stroke-width="0.893248"/>
<path opacity="0.8" d="M63.9251 112.087C62.3073 112.087 60.814 111.775 59.6318 111.091L4.37834 79.1709C3.25834 78.5487 2.63612 77.6154 2.63612 76.6198C2.63612 75.4376 3.50722 74.1932 5.06278 73.322L112.272 11.4108C115.134 9.73082 119.552 9.54415 122.041 11.0375L177.294 42.9575C178.414 43.5798 179.036 44.5131 179.036 45.5087C179.036 46.6909 178.165 47.9353 176.61 48.8064L69.4007 110.718C67.8451 111.589 65.854 112.087 63.9251 112.087ZM59.8184 110.78C62.2451 112.149 66.4762 111.962 69.2762 110.407L176.485 48.4953C177.916 47.6864 178.725 46.5664 178.725 45.5087C178.725 44.6375 178.165 43.8287 177.17 43.2687L121.916 11.3486C119.49 9.97971 115.259 10.1042 112.459 11.7219L5.24945 73.6332C3.81834 74.442 3.00945 75.562 3.00945 76.6198C3.00945 77.4909 3.56945 78.2998 4.56501 78.8598L59.8184 110.78Z" fill="url(#paint5_linear_123_12362)"/>
<path opacity="0.4" d="M165.472 48.3707C164.601 48.8685 163.232 48.8685 162.423 48.3707C161.552 47.8729 161.552 47.064 162.423 46.6285C163.294 46.1307 164.663 46.1307 165.472 46.6285C166.281 47.1262 166.281 47.9351 165.472 48.3707Z" fill="#24126A"/>
<path opacity="0.4" d="M153.836 39.9087L159.81 43.3309C160.556 43.7665 160.432 44.5132 159.623 44.9487C158.752 45.4465 157.507 45.5087 156.761 45.0732L150.787 41.6509C150.041 41.2154 150.165 40.4687 150.974 40.0331C151.783 39.5354 153.09 39.4731 153.836 39.9087Z" fill="#24126A"/>
<path opacity="0.4" d="M120.237 20.1218L126.21 23.5441C126.957 23.9796 126.832 24.7263 126.023 25.1618C125.152 25.6596 123.908 25.7218 123.161 25.2863L117.188 21.8641C116.441 21.4285 116.565 20.6818 117.374 20.2463C118.183 19.7485 119.49 19.6863 120.237 20.1218Z" fill="#24126A"/>
<path d="M165.472 46.2552C164.601 46.753 163.232 46.753 162.423 46.2552C161.552 45.7574 161.552 44.9485 162.423 44.513C163.294 44.0152 164.663 44.0152 165.472 44.513C166.281 44.9485 166.281 45.7574 165.472 46.2552Z" fill="#16E09E"/>
<path d="M153.836 37.7307L159.81 41.153C160.556 41.5885 160.432 42.3352 159.623 42.7707C158.752 43.2685 157.507 43.3307 156.761 42.8952L150.787 39.473C150.041 39.0374 150.165 38.2907 150.974 37.8552C151.783 37.4196 153.09 37.3574 153.836 37.7307Z" fill="#16E09E"/>
<path d="M120.237 17.9443L126.21 21.3666C126.957 21.8021 126.832 22.5488 126.023 22.9844C125.152 23.4821 123.908 23.5444 123.161 23.1088L117.188 19.6866C116.441 19.251 116.565 18.5043 117.374 18.0688C118.183 17.571 119.49 17.5088 120.237 17.9443Z" fill="#16E09E"/>
<defs>
<linearGradient id="paint0_linear_123_12362" x1="0.616811" y1="68.9667" x2="181.241" y2="68.9667" gradientUnits="userSpaceOnUse">
<stop stop-color="#BCBEFF"/>
<stop offset="0.151" stop-color="#A3A7F5"/>
<stop offset="0.3866" stop-color="#8289E8"/>
<stop offset="0.6124" stop-color="#6A73DF"/>
<stop offset="0.8221" stop-color="#5C66D9"/>
<stop offset="1" stop-color="#5761D7"/>
</linearGradient>
<linearGradient id="paint1_linear_123_12362" x1="72.1735" y1="53.7997" x2="106.122" y2="53.7997" gradientUnits="userSpaceOnUse">
<stop stop-color="#5761D7"/>
<stop offset="0.0725775" stop-color="#5472D8"/>
<stop offset="0.2791" stop-color="#4ECADB"/>
<stop offset="0.4801" stop-color="#49DDDD"/>
<stop offset="0.6715" stop-color="#45DFC3"/>
<stop offset="0.8493" stop-color="#43E3A0"/>
<stop offset="1" stop-color="#16E09E"/>
</linearGradient>
<linearGradient id="paint2_linear_123_12362" x1="72.179" y1="53.7874" x2="106.116" y2="53.7874" gradientUnits="userSpaceOnUse">
<stop stop-color="#5761D7"/>
<stop offset="0.0725775" stop-color="#5472D8"/>
<stop offset="0.2791" stop-color="#4E9CDB"/>
<stop offset="0.4801" stop-color="#49D4DD"/>
<stop offset="0.6715" stop-color="#45DFC3"/>
<stop offset="0.8493" stop-color="#43E3B3"/>
<stop offset="1" stop-color="#16E09E"/>
</linearGradient>
<linearGradient id="paint3_linear_123_12362" x1="89.1425" y1="43.9683" x2="89.1425" y2="63.6197" gradientUnits="userSpaceOnUse">
<stop stop-color="#5478D9"/>
<stop offset="1" stop-color="#16E09E"/>
</linearGradient>
<linearGradient id="paint4_linear_123_12362" x1="89.1425" y1="43.9683" x2="89.1425" y2="63.6197" gradientUnits="userSpaceOnUse">
<stop stop-color="#5478D9"/>
<stop offset="1" stop-color="#16E09E"/>
</linearGradient>
<linearGradient id="paint5_linear_123_12362" x1="116.087" y1="94.5202" x2="65.6672" y2="27.6107" gradientUnits="userSpaceOnUse">
<stop stop-color="#16E09E"/>
<stop offset="0.1055" stop-color="#37BFA7"/>
<stop offset="0.2197" stop-color="#2C93A1"/>
<stop offset="0.338" stop-color="#235F87"/>
<stop offset="0.4587" stop-color="#1C3F72"/>
<stop offset="0.5824" stop-color="#162561"/>
<stop offset="0.7105" stop-color="#121355"/>
<stop offset="0.8458" stop-color="#10084E"/>
<stop offset="1" stop-color="#0F054C"/>
</linearGradient>
</defs>
</svg>
