<svg width="119" height="169" viewBox="0 0 119 169" fill="none" xmlns="http://www.w3.org/2000/svg">
<path d="M59.3586 168.167C56.2821 168.167 53.2121 167.491 50.8718 166.146L5.21677 139.823C2.92251 138.504 1.66034 136.732 1.66034 134.835C1.66034 132.944 2.92251 131.172 5.21677 129.846L50.8718 103.523C55.5524 100.826 63.1648 100.826 67.8454 103.523L113.5 129.846C115.795 131.172 117.057 132.937 117.057 134.835C117.057 136.725 115.795 138.497 113.5 139.823L67.8454 166.146C65.5051 167.491 62.4351 168.167 59.3586 168.167ZM59.3586 101.823C56.3412 101.823 53.3304 102.486 51.0362 103.806L5.38111 130.128C3.19204 131.388 1.98903 133.062 1.98903 134.828C1.98903 136.6 3.19204 138.268 5.38111 139.535L51.0362 165.857C55.6247 168.502 63.0925 168.502 67.681 165.857L113.336 139.535C115.525 138.274 116.728 136.6 116.728 134.835C116.728 133.069 115.525 131.395 113.336 130.128L67.681 103.806C65.3868 102.486 62.3694 101.823 59.3586 101.823Z" fill="#16E09E"/>
<path opacity="0.4" d="M118.72 126.301V120.991L115.861 122.297C116.939 115.792 107.42 130.647 104.501 131.054L71.7901 150.155L57.5118 151.134L11.9422 131.822L12.994 131.218C9.10233 129.4 6.99871 125.244 4.89509 121.457L1.82514 123.282L0.00418091 121.161V126.472C0.00418091 128.494 1.33867 130.522 4.0142 132.058L49.6693 158.38C55.0138 161.459 63.7109 161.459 69.0554 158.38L114.71 132.058C117.34 130.542 118.674 128.559 118.72 126.57C118.72 126.472 118.714 126.387 118.72 126.301Z" fill="#16E09E"/>
<path d="M118.72 121.443V115.286L115.861 113.698C115.052 118.575 109.307 121.785 104.501 122.454L71.7901 141.556L57.5118 146.702L11.9422 123.222L12.994 122.612C9.10233 120.793 6.99871 116.638 4.89509 112.851L1.82514 114.676L0.00418091 115.188V121.614C0.00418091 123.636 1.33867 125.664 4.0142 127.2L49.6693 153.523C55.0138 156.601 63.7109 156.601 69.0554 153.523L114.71 127.2C117.34 125.684 118.674 123.701 118.72 121.712C118.72 121.621 118.714 121.535 118.72 121.443Z" fill="url(#paint0_linear_123_12420)"/>
<path d="M118.72 121.443V115.286L115.861 113.698C115.052 118.575 109.307 121.785 104.501 122.454L71.7901 141.556L57.5118 146.702L11.9422 123.222L12.994 122.612C9.10233 120.793 6.99871 116.638 4.89509 112.851L1.82514 114.676L0.00418091 115.188V121.614C0.00418091 123.636 1.33867 125.664 4.0142 127.2L49.6693 153.523C55.0138 156.601 63.7109 156.601 69.0554 153.523L114.71 127.2C117.34 125.684 118.674 123.701 118.72 121.712C118.72 121.621 118.714 121.535 118.72 121.443Z" fill="url(#paint1_linear_123_12420)"/>
<path opacity="0.3" d="M104.502 122.455L71.7909 141.556L59.3664 146.04V155.834C62.8768 155.834 66.3872 155.066 69.0628 153.523L114.718 127.201C117.347 125.684 118.682 123.702 118.728 121.713C118.728 121.621 118.728 121.536 118.721 121.444L118.728 125.619V115.287L116.111 113.836H115.835C114.941 118.634 109.255 121.792 104.502 122.455Z" fill="#7C4EFF"/>
<path d="M49.6634 147.195L4.00838 120.872C-1.33613 117.794 -1.33613 112.779 4.00838 109.694L49.6634 83.3712C55.0079 80.2926 63.7051 80.2926 69.0496 83.3712L114.705 109.694C120.049 112.772 120.049 117.787 114.705 120.872L69.0496 147.195C63.7116 150.28 55.0145 150.28 49.6634 147.195Z" fill="url(#paint2_linear_123_12420)"/>
<path d="M54.3185 131.88L30.5739 118.194C27.7932 116.592 27.7932 113.98 30.5739 112.378L54.3185 98.692C57.0992 97.0903 61.622 97.0903 64.4027 98.692L88.1473 112.378C90.928 113.98 90.928 116.586 88.1473 118.194L64.4027 131.88C61.622 133.489 57.0992 133.489 54.3185 131.88Z" fill="#7C4EFF"/>
<path d="M54.3185 131.88L30.5739 118.194C27.7932 116.592 27.7932 113.98 30.5739 112.378L54.3185 98.692C57.0992 97.0903 61.622 97.0903 64.4027 98.692L88.1473 112.378C90.928 113.98 90.928 116.586 88.1473 118.194L64.4027 131.88C61.622 133.489 57.0992 133.489 54.3185 131.88Z" fill="url(#paint3_radial_123_12420)"/>
<path d="M29.6591 117.544C29.922 117.315 30.2244 117.098 30.5728 116.894L54.3174 103.208C57.0981 101.606 61.6209 101.606 64.4016 103.208L88.1462 116.894C88.4946 117.098 88.8036 117.315 89.0599 117.544C90.8809 115.949 90.5719 113.776 88.1462 112.378L64.4016 98.692C61.6209 97.0903 57.0981 97.0903 54.3174 98.692L30.5728 112.378C28.1405 113.783 27.8381 115.949 29.6591 117.544Z" fill="url(#paint4_radial_123_12420)"/>
<path d="M59.3594 148.022C55.9936 148.022 52.6212 147.28 50.0575 145.803L6.54546 120.721C4.04084 119.277 2.66034 117.347 2.66034 115.286C2.66034 113.225 4.04084 111.295 6.54546 109.851L50.0509 84.7694C55.1784 81.8089 63.5272 81.8155 68.6547 84.7694L112.167 109.851C114.671 111.295 116.052 113.225 116.052 115.286C116.052 117.347 114.671 119.277 112.167 120.721L68.6613 145.803C66.0975 147.287 62.7317 148.022 59.3594 148.022ZM50.1889 145.587C55.2508 148.501 63.4812 148.501 68.5364 145.587L112.042 120.505C114.468 119.107 115.795 117.256 115.795 115.286C115.795 113.317 114.461 111.466 112.042 110.068L68.5298 84.986C63.468 82.0715 55.2376 82.0715 50.1824 84.986L6.67694 110.068C4.25121 111.466 2.92329 113.317 2.92329 115.286C2.92329 117.256 4.25777 119.107 6.6835 120.505L50.1889 145.587Z" fill="#5351AF"/>
<path d="M59.3605 140.565C56.7573 140.565 54.1541 139.994 52.1688 138.852L18.6095 119.507C16.6703 118.391 15.5987 116.888 15.5987 115.286C15.5987 113.685 16.6703 112.188 18.6095 111.065L52.1688 91.7208C56.1328 89.4365 62.5817 89.4365 66.5523 91.7208L100.112 111.065C102.051 112.188 103.122 113.685 103.122 115.286C103.122 116.888 102.051 118.385 100.112 119.507L66.5523 138.852C64.567 139.994 61.9638 140.565 59.3605 140.565ZM59.3605 90.257C56.8033 90.257 54.2461 90.8215 52.3003 91.944L18.741 111.289C16.8806 112.359 15.8551 113.783 15.8551 115.286C15.8551 116.789 16.8806 118.214 18.741 119.284L52.3003 138.628C56.192 140.873 62.5291 140.873 66.4208 138.628L99.98 119.284C101.84 118.214 102.866 116.796 102.866 115.286C102.866 113.783 101.84 112.359 99.98 111.289L66.4208 91.944C64.4749 90.8215 61.9177 90.257 59.3605 90.257Z" fill="#5351AF"/>
<g opacity="0.4">
<path d="M54.3185 131.88L30.5739 118.194C27.7932 116.592 27.7932 113.98 30.5739 112.378L54.3185 98.692C57.0992 97.0903 61.622 97.0903 64.4027 98.692L88.1473 112.378C90.928 113.98 90.928 116.586 88.1473 118.194L64.4027 131.88C61.622 133.489 57.0992 133.489 54.3185 131.88Z" fill="#16E09E"/>
</g>
<path d="M114.711 120.879L69.0564 147.201C63.7119 150.28 55.0148 150.28 49.6703 147.201L4.01521 120.879C1.62892 119.501 0.307584 117.735 0.0512053 115.936C-0.264337 118.168 1.057 120.466 4.01521 122.166L49.6703 148.488C55.0148 151.567 63.7119 151.567 69.0564 148.488L114.711 122.166C117.67 120.459 118.984 118.168 118.669 115.936C118.419 117.735 117.098 119.501 114.711 120.879Z" fill="white"/>
<path opacity="0.4" d="M114.71 91.8984L69.0552 65.5761C63.7107 62.4975 55.0135 62.4909 49.669 65.5761L4.01396 91.8984C-1.33054 94.977 -1.33054 99.9921 4.01396 103.077L49.669 129.4C55.0135 132.478 63.7107 132.478 69.0552 129.4L114.71 103.077C120.055 99.9986 120.055 94.9836 114.71 91.8984Z" fill="#16E09E"/>
<path d="M58.9993 126.649C56.5341 126.649 54.0755 126.111 52.202 125.028L44.3463 120.446C42.5122 119.389 41.4998 117.971 41.4998 116.455C41.4998 114.938 42.5122 113.521 44.3463 112.464L52.9251 107.422C56.6721 105.263 62.7726 105.263 66.5197 107.422L74.3754 112.004C76.2095 113.061 77.2219 114.479 77.2219 115.995C77.2219 117.512 76.2095 118.929 74.3754 119.986L65.7966 125.028C63.9231 126.111 61.4645 126.649 58.9993 126.649ZM52.3334 124.804C56.0082 126.925 61.9969 126.925 65.6717 124.804L74.2505 119.763C76.0057 118.752 76.972 117.413 76.972 115.989C76.972 114.571 76.0057 113.232 74.2505 112.214L66.3948 107.632C62.72 105.512 56.7313 105.512 53.0566 107.632L44.4843 112.674C42.7291 113.685 41.7628 115.024 41.7628 116.448C41.7628 117.866 42.7291 119.212 44.4843 120.223L52.3334 124.804Z" fill="#16E09E"/>
<path opacity="0.4" d="M78.5558 109.156V104.902L76.2615 105.946C77.1227 100.734 69.4971 112.635 67.1634 112.956L68.9515 112.214L57.513 112.996L49.7231 114.026L50.5645 113.54C47.442 112.083 45.7657 108.755 44.0762 105.716L41.6176 107.18L40.1582 105.486V109.74C40.1582 111.361 41.2297 112.982 43.3728 114.217L51.2285 118.798C55.508 121.266 62.4763 121.266 66.7624 118.798L75.3412 113.757C77.4448 112.543 78.5163 110.954 78.5492 109.359C78.5558 109.293 78.5558 109.228 78.5558 109.156Z" fill="#16E09E"/>
<path d="M78.5566 105.27V100.333L76.2623 99.0598C75.6181 102.966 71.0098 105.539 67.1642 106.07L68.9522 105.329L57.5138 109.451L49.7239 107.14L50.5653 106.655C47.4428 105.197 45.7664 101.869 44.077 98.8301L41.6184 100.294L40.159 100.701V105.847C40.159 107.469 41.2305 109.09 43.3736 110.324L51.2293 114.906C55.5088 117.374 62.4771 117.374 66.7632 114.906L75.342 109.864C77.4456 108.65 78.5171 107.062 78.55 105.466C78.5566 105.407 78.5566 105.335 78.5566 105.27Z" fill="url(#paint5_linear_123_12420)"/>
<path d="M78.5566 105.27V100.333L76.2623 99.0598C75.6181 102.966 71.0098 105.539 67.1642 106.07L68.9522 105.329L57.5138 109.451L49.7239 107.14L50.5653 106.655C47.4428 105.197 45.7664 101.869 44.077 98.8301L41.6184 100.294L40.159 100.701V105.847C40.159 107.469 41.2305 109.09 43.3736 110.324L51.2293 114.906C55.5088 117.374 62.4771 117.374 66.7632 114.906L75.342 109.864C77.4456 108.65 78.5171 107.062 78.55 105.466C78.5566 105.407 78.5566 105.335 78.5566 105.27Z" fill="url(#paint6_linear_123_12420)"/>
<path opacity="0.3" d="M67.1644 106.077L68.9525 105.335L58.9998 108.926V116.777C61.8134 116.777 64.6269 116.159 66.77 114.925L75.3488 109.884C77.4524 108.67 78.524 107.081 78.5568 105.486C78.5568 105.414 78.5568 105.342 78.5503 105.27L78.5568 108.611V100.333L76.4598 99.1714H76.2429C75.5263 103.011 70.9772 105.545 67.1644 106.077Z" fill="#7C4EFF"/>
<path d="M51.2353 109.851L43.3796 105.27C39.1 102.801 39.1 98.7841 43.3796 96.316L51.9584 91.2747C56.2379 88.8066 63.2062 88.8066 67.4923 91.2747L75.348 95.8565C79.6275 98.3246 79.6275 102.342 75.348 104.81L66.7692 109.851C62.483 112.319 55.5148 112.319 51.2353 109.851Z" fill="url(#paint7_linear_123_12420)"/>
<path d="M59.0462 110.462C56.5547 110.462 54.0633 109.917 52.1634 108.821L45.2544 104.79C43.4006 103.72 42.3816 102.289 42.3816 100.766C42.3816 99.237 43.4006 97.8126 45.2544 96.7426L52.7945 92.3118C56.5876 90.1259 62.7604 90.1259 66.5601 92.3118L73.4691 96.3422C75.3229 97.4121 76.3419 98.8431 76.3419 100.366C76.3419 101.895 75.3229 103.32 73.4691 104.39L65.929 108.821C64.0291 109.917 61.5377 110.462 59.0462 110.462ZM52.2686 108.643C56.0091 110.796 62.0899 110.796 65.8238 108.643L73.364 104.213C75.152 103.182 76.1381 101.817 76.1381 100.366C76.1381 98.9153 75.152 97.55 73.364 96.5194L66.4549 92.489C62.721 90.336 56.6336 90.336 52.8997 92.489L45.3596 96.9198C43.5715 97.9504 42.5854 99.3157 42.5854 100.766C42.5854 102.217 43.5715 103.582 45.3596 104.613L52.2686 108.643Z" fill="#5351AF"/>
<path d="M75.3427 104.81L66.7639 109.851C62.4843 112.319 55.5161 112.319 51.23 109.851L43.3743 105.269C41.4613 104.166 40.4029 102.755 40.1991 101.304C39.9493 103.096 41.0011 104.934 43.3743 106.3L51.23 110.882C55.5095 113.35 62.4777 113.35 66.7639 110.882L75.3427 105.84C77.7092 104.475 78.7676 102.637 78.5178 100.845C78.314 102.296 77.2622 103.707 75.3427 104.81Z" fill="white"/>
<path opacity="0.4" d="M49.7292 109.694L50.4523 109.596C50.3537 109.55 50.2551 109.497 50.1565 109.445L49.7292 109.694Z" fill="#16E09E"/>
<path opacity="0.4" d="M67.683 108.421H67.6436L67.1637 108.618C67.3149 108.598 67.4858 108.526 67.683 108.421Z" fill="#16E09E"/>
<path opacity="0.4" d="M76.32 101.581C76.3331 101.417 76.3331 101.286 76.32 101.167C76.3068 101.299 76.2936 101.443 76.2608 101.608L76.32 101.581Z" fill="#16E09E"/>
<path opacity="0.8" d="M78.5555 104.817C78.5555 104.889 78.5555 104.955 78.5555 105.027C78.5226 106.622 77.4511 108.211 75.3474 109.425L66.7686 114.466C62.4891 116.934 55.5209 116.934 51.2347 114.466L43.379 109.884C41.236 108.65 40.1645 107.029 40.1645 105.408V105.861C40.1645 107.482 41.236 109.103 43.379 110.337L51.2347 114.919C55.5143 117.387 62.4825 117.387 66.7686 114.919L75.3474 109.878C77.4511 108.663 78.5226 107.075 78.5555 105.48C78.5555 105.408 78.5555 105.335 78.5489 105.263H78.5555V104.817Z" fill="#16E09E"/>
<path opacity="0.4" d="M78.5558 101.232V96.9788L76.2615 98.0225C77.1227 92.8106 69.4971 104.711 67.1634 105.033L68.9515 104.291L57.513 105.072L49.7231 106.103L50.5645 105.617C47.442 104.16 45.7657 100.832 44.0762 97.7928L41.6176 99.2566L40.1582 97.5631V101.817C40.1582 103.438 41.2297 105.059 43.3728 106.293L51.2285 110.875C55.508 113.343 62.4763 113.343 66.7624 110.875L75.3412 105.834C77.4448 104.62 78.5163 103.031 78.5492 101.436C78.5558 101.37 78.5558 101.305 78.5558 101.232Z" fill="#16E09E"/>
<path d="M78.5566 97.3464V92.4102L76.2623 91.1367C75.6181 95.0424 71.0098 97.6156 67.1642 98.1473L68.9522 97.4055L57.5138 101.528L49.7239 99.2172L50.5653 98.7315C47.4428 97.2742 45.7664 93.9462 44.077 90.907L41.6184 92.3708L40.159 92.7778V97.9241C40.159 99.5454 41.2305 101.167 43.3736 102.401L51.2293 106.983C55.5088 109.451 62.4771 109.451 66.7632 106.983L75.342 101.941C77.4456 100.727 78.5171 99.1385 78.55 97.5434C78.5566 97.4843 78.5566 97.4121 78.5566 97.3464Z" fill="url(#paint8_linear_123_12420)"/>
<path d="M78.5566 97.3464V92.4102L76.2623 91.1367C75.6181 95.0424 71.0098 97.6156 67.1642 98.1473L68.9522 97.4055L57.5138 101.528L49.7239 99.2172L50.5653 98.7315C47.4428 97.2742 45.7664 93.9462 44.077 90.907L41.6184 92.3708L40.159 92.7778V97.9241C40.159 99.5454 41.2305 101.167 43.3736 102.401L51.2293 106.983C55.5088 109.451 62.4771 109.451 66.7632 106.983L75.342 101.941C77.4456 100.727 78.5171 99.1385 78.55 97.5434C78.5566 97.4843 78.5566 97.4121 78.5566 97.3464Z" fill="url(#paint9_linear_123_12420)"/>
<path opacity="0.3" d="M67.1644 98.1536L68.9525 97.4118L58.9998 101.002V108.853C61.8134 108.853 64.6269 108.236 66.77 107.002L75.3488 101.961C77.4524 100.746 78.524 99.1579 78.5568 97.5628C78.5568 97.4906 78.5568 97.4184 78.5503 97.3462L78.5568 100.687V92.4099L76.4598 91.248H76.2429C75.5263 95.0881 70.9772 97.6219 67.1644 98.1536Z" fill="#7C4EFF"/>
<path d="M51.2355 101.928L43.3798 97.3462C39.1002 94.8781 39.1002 90.8608 43.3798 88.3926L51.9586 83.3513C56.2381 80.8832 63.2063 80.8832 67.4925 83.3513L75.3482 87.9331C79.6277 90.4013 79.6277 94.4186 75.3482 96.8867L66.7693 101.928C62.4832 104.396 55.515 104.396 51.2355 101.928Z" fill="url(#paint10_linear_123_12420)"/>
<path d="M59.0462 102.539C56.5547 102.539 54.0633 101.994 52.1634 100.898L45.2544 96.8672C43.4006 95.7972 42.3816 94.3662 42.3816 92.8433C42.3816 91.3139 43.4006 89.8895 45.2544 88.8195L52.7945 84.3887C56.5876 82.2028 62.7604 82.2028 66.5601 84.3887L73.4691 88.4191C75.3229 89.489 76.3419 90.92 76.3419 92.4429C76.3419 93.9724 75.3229 95.3968 73.4691 96.4668L65.929 100.898C64.0291 101.994 61.5377 102.539 59.0462 102.539ZM52.2686 100.72C56.0091 102.873 62.0899 102.873 65.8238 100.72L73.364 96.2895C75.152 95.259 76.1381 93.8936 76.1381 92.4429C76.1381 90.9922 75.152 89.6269 73.364 88.5963L66.4549 84.5659C62.721 82.4129 56.6336 82.4129 52.8997 84.5659L45.3596 88.9967C43.5715 90.0273 42.5854 91.3927 42.5854 92.8433C42.5854 94.294 43.5715 95.6594 45.3596 96.69L52.2686 100.72Z" fill="#5351AF"/>
<path d="M75.3427 96.8869L66.7639 101.928C62.4843 104.396 55.5161 104.396 51.23 101.928L43.3743 97.3464C41.4613 96.2436 40.4029 94.8323 40.1991 93.3816C39.9493 95.1736 41.0011 97.0116 43.3743 98.377L51.23 102.959C55.5095 105.427 62.4777 105.427 66.7639 102.959L75.3427 97.9175C77.7092 96.5521 78.7676 94.7141 78.5178 92.9221C78.314 94.3728 77.2622 95.7841 75.3427 96.8869Z" fill="white"/>
<path opacity="0.4" d="M49.7292 101.771L50.4523 101.672C50.3537 101.626 50.2551 101.574 50.1565 101.521L49.7292 101.771Z" fill="#16E09E"/>
<path opacity="0.4" d="M67.683 100.497H67.6436L67.1637 100.694C67.3149 100.675 67.4858 100.602 67.683 100.497Z" fill="#16E09E"/>
<path opacity="0.4" d="M76.32 93.6578C76.3331 93.4935 76.3331 93.362 76.32 93.2437C76.3068 93.3751 76.2936 93.5198 76.2608 93.6841L76.32 93.6578Z" fill="#16E09E"/>
<path opacity="0.8" d="M78.5555 96.8931C78.5555 96.9653 78.5555 97.0309 78.5555 97.1031C78.5226 98.6982 77.4511 100.287 75.3474 101.501L66.7686 106.542C62.4891 109.011 55.5209 109.011 51.2347 106.542L43.379 101.961C41.236 100.727 40.1645 99.1052 40.1645 97.4838V97.9368C40.1645 99.5581 41.236 101.179 43.379 102.414L51.2347 106.995C55.5143 109.463 62.4825 109.463 66.7686 106.995L75.3474 101.954C77.4511 100.74 78.5226 99.1511 78.5555 97.556C78.5555 97.4838 78.5555 97.4116 78.5489 97.3394H78.5555V96.8931Z" fill="#16E09E"/>
<path opacity="0.4" d="M78.5558 93.3098V89.0562L76.2615 90.0999C77.1227 84.888 69.4971 96.7888 67.1634 97.1105L68.9515 96.3687L57.513 97.1499L49.7231 98.1805L50.5645 97.6947C47.442 96.2375 45.7657 92.9094 44.0762 89.8702L41.6176 91.334L40.1582 89.6405V93.894C40.1582 95.5154 41.2297 97.1367 43.3728 98.3708L51.2285 102.953C55.508 105.421 62.4763 105.421 66.7624 102.953L75.3412 97.9113C77.4448 96.6969 78.5163 95.1084 78.5492 93.5133C78.5558 93.4477 78.5558 93.3755 78.5558 93.3098Z" fill="#16E09E"/>
<path d="M78.5566 89.4236V84.4873L76.2623 83.2139C75.6181 87.1196 71.0098 89.6927 67.1642 90.2244L68.9522 89.4827L57.5138 93.605L49.7239 91.2944L50.5653 90.8086C47.4428 89.3514 45.7664 86.0233 44.077 82.9841L41.6184 84.448L40.159 84.8549V90.0012C40.159 91.6226 41.2305 93.244 43.3736 94.478L51.2293 99.0598C55.5088 101.528 62.4771 101.528 66.7632 99.0598L75.342 94.0185C77.4456 92.8041 78.5171 91.2156 78.55 89.6205C78.5566 89.5614 78.5566 89.4892 78.5566 89.4236Z" fill="url(#paint11_linear_123_12420)"/>
<path d="M78.5566 89.4236V84.4873L76.2623 83.2139C75.6181 87.1196 71.0098 89.6927 67.1642 90.2244L68.9522 89.4827L57.5138 93.605L49.7239 91.2944L50.5653 90.8086C47.4428 89.3514 45.7664 86.0233 44.077 82.9841L41.6184 84.448L40.159 84.8549V90.0012C40.159 91.6226 41.2305 93.244 43.3736 94.478L51.2293 99.0598C55.5088 101.528 62.4771 101.528 66.7632 99.0598L75.342 94.0185C77.4456 92.8041 78.5171 91.2156 78.55 89.6205C78.5566 89.5614 78.5566 89.4892 78.5566 89.4236Z" fill="url(#paint12_linear_123_12420)"/>
<path opacity="0.3" d="M67.1644 90.2246L68.9525 89.4829L58.9998 93.0735V100.924C61.8134 100.924 64.6269 100.307 66.77 99.0731L75.3488 94.0318C77.4524 92.8175 78.524 91.2289 78.5568 89.6338C78.5568 89.5616 78.5568 89.4894 78.5503 89.4172L78.5568 92.7584V84.4809L76.4598 83.3191H76.2429C75.5263 87.1657 70.9772 89.6995 67.1644 90.2246Z" fill="#7C4EFF"/>
<path d="M51.2353 94.0054L43.3796 89.4236C39.1 86.9554 39.1 82.9382 43.3796 80.47L51.9584 75.4287C56.2379 72.9606 63.2062 72.9606 67.4923 75.4287L75.348 80.0105C79.6275 82.4787 79.6275 86.4959 75.348 88.9641L66.7692 94.0054C62.483 96.4735 55.5148 96.4735 51.2353 94.0054Z" fill="url(#paint13_linear_123_12420)"/>
<path d="M59.0462 94.616C56.5547 94.616 54.0633 94.0712 52.1634 92.975L45.2544 88.9446C43.4006 87.8746 42.3816 86.4436 42.3816 84.9207C42.3816 83.3913 43.4006 81.9668 45.2544 80.8969L52.7945 76.4661C56.5876 74.2802 62.7604 74.2802 66.5601 76.4661L73.4691 80.4965C75.3229 81.5664 76.3419 82.9974 76.3419 84.5203C76.3419 86.0498 75.3229 87.4742 73.4691 88.5442L65.929 92.975C64.0291 94.0712 61.5377 94.616 59.0462 94.616ZM52.2686 92.7977C56.0025 94.9508 62.0899 94.9508 65.8238 92.7977L73.364 88.3669C75.152 87.3363 76.1381 85.971 76.1381 84.5203C76.1381 83.0696 75.152 81.7043 73.364 80.6737L66.4549 76.6433C62.721 74.4902 56.6336 74.4902 52.8997 76.6433L45.3596 81.0741C43.5715 82.1047 42.5854 83.47 42.5854 84.9207C42.5854 86.3714 43.5715 87.7368 45.3596 88.7673L52.2686 92.7977Z" fill="#5351AF"/>
<path d="M75.3427 88.9638L66.7639 94.0051C62.4843 96.4732 55.5161 96.4732 51.23 94.0051L43.3743 89.4233C41.4613 88.3205 40.4029 86.9092 40.1991 85.4585C39.9493 87.244 41.0011 89.0885 43.3743 90.4539L51.23 95.0357C55.5095 97.5038 62.4777 97.5038 66.7639 95.0357L75.3427 89.9944C77.7092 88.629 78.7676 86.791 78.5178 84.999C78.314 86.4497 77.2622 87.861 75.3427 88.9638Z" fill="white"/>
<path opacity="0.4" d="M49.7292 93.8484L50.4523 93.7498C50.3537 93.7038 50.2551 93.6512 50.1565 93.5986L49.7292 93.8484Z" fill="#16E09E"/>
<path opacity="0.4" d="M67.683 92.5747H67.6436L67.1637 92.7719C67.3149 92.7522 67.4858 92.6799 67.683 92.5747Z" fill="#16E09E"/>
<path opacity="0.4" d="M76.32 85.7352C76.3331 85.5709 76.3331 85.4394 76.32 85.321C76.3068 85.4525 76.2936 85.5972 76.2608 85.7615L76.32 85.7352Z" fill="#16E09E"/>
<path opacity="0.8" d="M78.5555 88.9709C78.5555 89.0432 78.5555 89.1088 78.5555 89.181C78.5226 90.7761 77.4511 92.3646 75.3474 93.579L66.7686 98.6203C62.4891 101.088 55.5209 101.088 51.2347 98.6203L43.379 94.0385C41.236 92.8044 40.1645 91.1831 40.1645 89.5617V90.0146C40.1645 91.636 41.236 93.2574 43.379 94.4914L51.2347 99.0732C55.5143 101.541 62.4825 101.541 66.7686 99.0732L75.3474 94.0319C77.4511 92.8176 78.5226 91.229 78.5555 89.6339C78.5555 89.5617 78.5555 89.4895 78.5489 89.4173H78.5555V88.9709Z" fill="#16E09E"/>
<path opacity="0.4" d="M78.5558 85.3865V81.1329L76.2615 82.1766C77.1227 76.9646 69.4971 88.8655 67.1634 89.1871L68.9515 88.4454L57.513 89.2265L49.7231 90.2571L50.5645 89.7714C47.442 88.3141 45.7657 84.9861 44.0762 81.9469L41.6176 83.4107L40.1582 81.7171V85.9707C40.1582 87.5921 41.2297 89.2134 43.3728 90.4475L51.2285 95.0293C55.508 97.4974 62.4763 97.4974 66.7624 95.0293L75.3412 89.988C77.4448 88.7736 78.5163 87.1851 78.5492 85.59C78.5558 85.5243 78.5558 85.4521 78.5558 85.3865Z" fill="#16E09E"/>
<path d="M78.5566 81.5005V76.5642L76.2623 75.2908C75.6181 79.1965 71.0098 81.7696 67.1642 82.3013L68.9522 81.5596L57.5138 85.6819L49.7239 83.3713L50.5653 82.8855C47.4428 81.4283 45.7664 78.1003 44.077 75.061L41.6184 76.5248L40.159 76.9318V82.0781C40.159 83.6995 41.2305 85.3208 43.3736 86.5549L51.2293 91.1367C55.5088 93.6048 62.4771 93.6048 66.7632 91.1367L75.342 86.0954C77.4456 84.881 78.5171 83.2925 78.55 81.6974C78.5566 81.6383 78.5566 81.5661 78.5566 81.5005Z" fill="url(#paint14_linear_123_12420)"/>
<path d="M78.5566 81.5005V76.5642L76.2623 75.2908C75.6181 79.1965 71.0098 81.7696 67.1642 82.3013L68.9522 81.5596L57.5138 85.6819L49.7239 83.3713L50.5653 82.8855C47.4428 81.4283 45.7664 78.1003 44.077 75.061L41.6184 76.5248L40.159 76.9318V82.0781C40.159 83.6995 41.2305 85.3208 43.3736 86.5549L51.2293 91.1367C55.5088 93.6048 62.4771 93.6048 66.7632 91.1367L75.342 86.0954C77.4456 84.881 78.5171 83.2925 78.55 81.6974C78.5566 81.6383 78.5566 81.5661 78.5566 81.5005Z" fill="url(#paint15_linear_123_12420)"/>
<path opacity="0.3" d="M67.1644 82.3013L68.9525 81.5595L58.9998 85.1501V93.0009C61.8134 93.0009 64.6269 92.3839 66.77 91.1498L75.3488 86.1085C77.4524 84.8941 78.524 83.3056 78.5568 81.7105C78.5568 81.6383 78.5568 81.5661 78.5503 81.4939L78.5568 84.835V76.5576L76.4598 75.3958H76.2429C75.5263 79.2424 70.9772 81.7761 67.1644 82.3013Z" fill="#7C4EFF"/>
<path d="M51.2353 86.082L43.3796 81.5002C39.1 79.0321 39.1 75.0148 43.3796 72.5467L51.9584 67.5054C56.2379 65.0373 63.2062 65.0373 67.4923 67.5054L75.348 72.0872C79.6275 74.5553 79.6275 78.5726 75.348 81.0407L66.7692 86.082C62.483 88.5502 55.5148 88.5502 51.2353 86.082Z" fill="url(#paint16_linear_123_12420)"/>
<path d="M59.0462 86.6927C56.5547 86.6927 54.0633 86.1479 52.1634 85.0516L45.2544 81.0212C43.4006 79.9513 42.3816 78.5203 42.3816 76.9974C42.3816 75.4679 43.4006 74.0435 45.2544 72.9735L52.7945 68.5427C56.5876 66.3569 62.7604 66.3569 66.5601 68.5427L73.4691 72.5731C75.3229 73.6431 76.3419 75.0741 76.3419 76.597C76.3419 78.1264 75.3229 79.5509 73.4691 80.6208L65.929 85.0516C64.0291 86.1479 61.5377 86.6927 59.0462 86.6927ZM52.2686 84.8744C56.0091 87.0275 62.0899 87.0275 65.8238 84.8744L73.364 80.4436C75.152 79.413 76.1381 78.0477 76.1381 76.597C76.1381 75.1463 75.152 73.7809 73.364 72.7504L66.4549 68.72C62.721 66.5669 56.6336 66.5669 52.8997 68.72L45.3596 73.1508C43.5715 74.1814 42.5854 75.5467 42.5854 76.9974C42.5854 78.4481 43.5715 79.8134 45.3596 80.844L52.2686 84.8744Z" fill="#5351AF"/>
<path d="M75.3427 81.0409L66.7639 86.0822C62.4843 88.5504 55.5161 88.5504 51.23 86.0822L43.3743 81.5004C41.4613 80.3977 40.4029 78.9863 40.1991 77.5357C39.9493 79.3211 41.0011 81.1657 43.3743 82.531L51.23 87.1128C55.5095 89.5809 62.4777 89.5809 66.7639 87.1128L75.3427 82.0715C77.7092 80.7062 78.7676 78.8682 78.5178 77.0762C78.314 78.5269 77.2622 79.9382 75.3427 81.0409Z" fill="white"/>
<path opacity="0.4" d="M49.7292 85.9249L50.4523 85.8262C50.3537 85.7802 50.2551 85.7276 50.1565 85.675L49.7292 85.9249Z" fill="#16E09E"/>
<path opacity="0.4" d="M67.683 84.6511H67.6436L67.1637 84.8483C67.3149 84.8286 67.4858 84.7563 67.683 84.6511Z" fill="#16E09E"/>
<path opacity="0.4" d="M76.32 77.8119C76.3331 77.6475 76.3331 77.5095 76.32 77.3977C76.3068 77.5292 76.2936 77.6738 76.2608 77.8381L76.32 77.8119Z" fill="#16E09E"/>
<path opacity="0.8" d="M78.5555 81.0476C78.5555 81.1198 78.5555 81.1855 78.5555 81.2577C78.5226 82.8528 77.4511 84.4413 75.3474 85.6557L66.7686 90.697C62.4891 93.1651 55.5209 93.1651 51.2347 90.697L43.379 86.1152C41.236 84.8811 40.1645 83.2597 40.1645 81.6384V82.0913C40.1645 83.7127 41.236 85.334 43.379 86.5681L51.2347 91.1499C55.5143 93.618 62.4825 93.618 66.7686 91.1499L75.3474 86.1086C77.4511 84.8942 78.5226 83.3057 78.5555 81.7106C78.5555 81.6384 78.5555 81.5662 78.5489 81.494H78.5555V81.0476Z" fill="#16E09E"/>
<path opacity="0.4" d="M78.5558 77.4634V73.2098L76.2615 74.2535C77.1227 69.0415 69.4971 80.9424 67.1634 81.2641L68.9515 80.5223L57.513 81.3034L49.7231 82.334L50.5645 81.8483C47.442 80.391 45.7657 77.063 44.0762 74.0238L41.6176 75.4876L40.1582 73.794V78.0476C40.1582 79.669 41.2297 81.2903 43.3728 82.5244L51.2285 87.1062C55.508 89.5743 62.4763 89.5743 66.7624 87.1062L75.3412 82.0649C77.4448 80.8505 78.5163 79.262 78.5492 77.6669C78.5558 77.6012 78.5558 77.529 78.5558 77.4634Z" fill="#16E09E"/>
<path d="M78.5566 73.5774V68.6411L76.2623 67.3677C75.6181 71.2734 71.0098 73.8465 67.1642 74.3782L68.9522 73.6365L57.5138 77.7588L49.7239 75.4482L50.5653 74.9624C47.4428 73.5052 45.7664 70.1772 44.077 67.1379L41.6184 68.6017L40.159 69.0087V74.1551C40.159 75.7764 41.2305 77.3978 43.3736 78.6318L51.2293 83.2136C55.5088 85.6818 62.4771 85.6818 66.7632 83.2136L75.342 78.1723C77.4456 76.958 78.5171 75.3694 78.55 73.7743C78.5566 73.7153 78.5566 73.643 78.5566 73.5774Z" fill="url(#paint17_linear_123_12420)"/>
<path d="M78.5566 73.5774V68.6411L76.2623 67.3677C75.6181 71.2734 71.0098 73.8465 67.1642 74.3782L68.9522 73.6365L57.5138 77.7588L49.7239 75.4482L50.5653 74.9624C47.4428 73.5052 45.7664 70.1772 44.077 67.1379L41.6184 68.6017L40.159 69.0087V74.1551C40.159 75.7764 41.2305 77.3978 43.3736 78.6318L51.2293 83.2136C55.5088 85.6818 62.4771 85.6818 66.7632 83.2136L75.342 78.1723C77.4456 76.958 78.5171 75.3694 78.55 73.7743C78.5566 73.7153 78.5566 73.643 78.5566 73.5774Z" fill="url(#paint18_linear_123_12420)"/>
<path opacity="0.3" d="M67.1644 74.3784L68.9525 73.6367L58.9998 77.2273V85.078C61.8134 85.078 64.6269 84.461 66.77 83.2269L75.3488 78.1856C77.4524 76.9713 78.524 75.3827 78.5568 73.7876C78.5568 73.7154 78.5568 73.6432 78.5503 73.571L78.5568 76.9122V68.6348L76.4598 67.4729H76.2429C75.5263 71.3195 70.9772 73.8533 67.1644 74.3784Z" fill="#7C4EFF"/>
<path d="M51.2353 78.1594L43.3796 73.5776C39.1 71.1095 39.1 67.0922 43.3796 64.6241L51.9584 59.5828C56.2379 57.1147 63.2062 57.1147 67.4923 59.5828L75.348 64.1646C79.6275 66.6327 79.6275 70.65 75.348 73.1181L66.7692 78.1594C62.483 80.6276 55.5148 80.6276 51.2353 78.1594Z" fill="url(#paint19_linear_123_12420)"/>
<path d="M59.0462 78.7698C56.5547 78.7698 54.0633 78.225 52.1634 77.1288L45.2544 73.0984C43.4006 72.0284 42.3816 70.5974 42.3816 69.0745C42.3816 67.5451 43.4006 66.1207 45.2544 65.0507L52.7945 60.6199C56.5876 58.434 62.7604 58.434 66.5601 60.6199L73.4691 64.6503C75.3229 65.7202 76.3419 67.1512 76.3419 68.6741C76.3419 70.2036 75.3229 71.628 73.4691 72.698L65.929 77.1288C64.0291 78.225 61.5377 78.7698 59.0462 78.7698ZM52.2686 76.9515C56.0091 79.1046 62.0899 79.1046 65.8238 76.9515L73.364 72.5207C75.152 71.4902 76.1381 70.1248 76.1381 68.6741C76.1381 67.2234 75.152 65.8581 73.364 64.8275L66.4549 60.7971C62.7144 58.644 56.6336 58.644 52.8997 60.7971L45.3596 65.2279C43.5715 66.2585 42.5854 67.6238 42.5854 69.0745C42.5854 70.5252 43.5715 71.8906 45.3596 72.9211L52.2686 76.9515Z" fill="#5351AF"/>
<path d="M75.3427 73.1178L66.7639 78.1591C62.4843 80.6273 55.5161 80.6273 51.23 78.1591L43.3743 73.5773C41.4613 72.4745 40.4029 71.0633 40.1991 69.6126C39.9493 71.4046 41.0011 73.2426 43.3743 74.6079L51.23 79.1897C55.5095 81.6578 62.4777 81.6578 66.7639 79.1897L75.3427 74.1484C77.7092 72.7831 78.7676 70.9451 78.5178 69.1531C78.314 70.6038 77.2622 72.0151 75.3427 73.1178Z" fill="white"/>
<path opacity="0.4" d="M49.7292 78.0022L50.4523 77.9036C50.3537 77.8576 50.2551 77.805 50.1565 77.7524L49.7292 78.0022Z" fill="#16E09E"/>
<path opacity="0.4" d="M67.683 76.7285H67.6436L67.1637 76.9257C67.3149 76.906 67.4858 76.8337 67.683 76.7285Z" fill="#16E09E"/>
<path opacity="0.4" d="M76.32 69.8893C76.3331 69.7249 76.3331 69.5934 76.32 69.4751C76.3068 69.6066 76.2936 69.7512 76.2608 69.9155L76.32 69.8893Z" fill="#16E09E"/>
<path opacity="0.8" d="M78.5555 73.1248C78.5555 73.197 78.5555 73.2626 78.5555 73.3348C78.5226 74.9299 77.4511 76.5184 75.3474 77.7328L66.7686 82.7741C62.4891 85.2422 55.5209 85.2422 51.2347 82.7741L43.379 78.1923C41.236 76.9582 40.1645 75.3369 40.1645 73.7155V74.1685C40.1645 75.7898 41.236 77.4112 43.379 78.6452L51.2347 83.227C55.5143 85.6952 62.4825 85.6952 66.7686 83.227L75.3474 78.1857C77.4511 76.9714 78.5226 75.3828 78.5555 73.7877C78.5555 73.7155 78.5555 73.6433 78.5489 73.5711H78.5555V73.1248Z" fill="#16E09E"/>
<path opacity="0.4" d="M78.5558 69.5408V65.2872L76.2615 66.3309C77.1227 61.1189 69.4971 73.0198 67.1634 73.3414L68.9515 72.5997L57.513 73.3808L49.7231 74.4114L50.5645 73.9257C47.442 72.4684 45.7657 69.1404 44.0762 66.1011L41.6176 67.565L40.1582 65.8714V70.125C40.1582 71.7463 41.2297 73.3677 43.3728 74.6018L51.2285 79.1836C55.508 81.6517 62.4763 81.6517 66.7624 79.1836L75.3412 74.1423C77.4448 72.9279 78.5163 71.3394 78.5492 69.7443C78.5558 69.6786 78.5558 69.6064 78.5558 69.5408Z" fill="#16E09E"/>
<path d="M78.5566 65.6548V60.7185L76.2623 59.4451C75.6181 63.3508 71.0098 65.9239 67.1642 66.4556L68.9522 65.7139L57.5138 69.8362L49.7239 67.5256L50.5653 67.0398C47.4428 65.5826 45.7664 62.2545 44.077 59.2153L41.6184 60.6791L40.159 61.0861V66.2324C40.159 67.8538 41.2305 69.4751 43.3736 70.7092L51.2293 75.291C55.5088 77.7591 62.4771 77.7591 66.7632 75.291L75.342 70.2497C77.4456 69.0353 78.5171 67.4468 78.55 65.8517C78.5566 65.7926 78.5566 65.7204 78.5566 65.6548Z" fill="url(#paint20_linear_123_12420)"/>
<path d="M78.5566 65.6548V60.7185L76.2623 59.4451C75.6181 63.3508 71.0098 65.9239 67.1642 66.4556L68.9522 65.7139L57.5138 69.8362L49.7239 67.5256L50.5653 67.0398C47.4428 65.5826 45.7664 62.2545 44.077 59.2153L41.6184 60.6791L40.159 61.0861V66.2324C40.159 67.8538 41.2305 69.4751 43.3736 70.7092L51.2293 75.291C55.5088 77.7591 62.4771 77.7591 66.7632 75.291L75.342 70.2497C77.4456 69.0353 78.5171 67.4468 78.55 65.8517C78.5566 65.7926 78.5566 65.7204 78.5566 65.6548Z" fill="url(#paint21_linear_123_12420)"/>
<path opacity="0.3" d="M67.1644 66.4556L68.9525 65.7138L58.9998 69.3044V77.1552C61.8134 77.1552 64.6269 76.5382 66.77 75.3041L75.3488 70.2628C77.4524 69.0484 78.524 67.4599 78.5568 65.8648C78.5568 65.7926 78.5568 65.7204 78.5503 65.6482L78.5568 68.9893V60.7119L76.4598 59.55H76.2429C75.5263 63.3967 70.9772 65.9304 67.1644 66.4556Z" fill="#7C4EFF"/>
<path d="M51.2353 70.2366L43.3796 65.6548C39.1 63.1866 39.1 59.1694 43.3796 56.7012L51.9584 51.6599C56.2379 49.1918 63.2062 49.1918 67.4923 51.6599L75.348 56.2417C79.6275 58.7099 79.6275 62.7272 75.348 65.1953L66.7692 70.2366C62.483 72.7047 55.5148 72.7047 51.2353 70.2366Z" fill="url(#paint22_linear_123_12420)"/>
<path d="M59.0462 70.847C56.5547 70.847 54.0633 70.3022 52.1634 69.2059L45.2544 65.1755C43.4006 64.1056 42.3816 62.6746 42.3816 61.1517C42.3816 59.6222 43.4006 58.1978 45.2544 57.1278L52.7945 52.697C56.5876 50.5111 62.7604 50.5111 66.5601 52.697L73.4691 56.7274C75.3229 57.7974 76.3419 59.2284 76.3419 60.7513C76.3419 62.2807 75.3229 63.7052 73.4691 64.7751L65.929 69.2059C64.0291 70.3022 61.5377 70.847 59.0462 70.847ZM52.2686 69.0287C56.0091 71.1818 62.0899 71.1818 65.8238 69.0287L73.364 64.5979C75.152 63.5673 76.1381 62.202 76.1381 60.7513C76.1381 59.3006 75.152 57.9352 73.364 56.9047L66.4549 52.8743C62.721 50.7212 56.6336 50.7212 52.8997 52.8743L45.3596 57.3051C43.5715 58.3357 42.5854 59.701 42.5854 61.1517C42.5854 62.6024 43.5715 63.9677 45.3596 64.9983L52.2686 69.0287Z" fill="#5351AF"/>
<path d="M75.3427 65.195L66.7639 70.2363C62.4843 72.7044 55.5161 72.7044 51.23 70.2363L43.3743 65.6545C41.4613 64.5517 40.4029 63.1404 40.1991 61.6897C39.9493 63.4752 41.0011 65.3197 43.3743 66.6851L51.23 71.2669C55.5095 73.735 62.4777 73.735 66.7639 71.2669L75.3427 66.2256C77.7092 64.8602 78.7676 63.0222 78.5178 61.2302C78.314 62.6809 77.2622 64.0922 75.3427 65.195Z" fill="white"/>
<path opacity="0.4" d="M49.7292 70.0794L50.4523 69.9808C50.3537 69.9348 50.2551 69.8822 50.1565 69.8296L49.7292 70.0794Z" fill="#16E09E"/>
<path opacity="0.4" d="M67.683 68.8054H67.6436L67.1637 69.0026C67.3149 68.9829 67.4858 68.9106 67.683 68.8054Z" fill="#16E09E"/>
<path opacity="0.4" d="M76.32 61.9662C76.3331 61.8018 76.3331 61.6703 76.32 61.552C76.3068 61.6835 76.2936 61.8281 76.2608 61.9924L76.32 61.9662Z" fill="#16E09E"/>
<path opacity="0.8" d="M78.5555 65.2017C78.5555 65.2739 78.5555 65.3395 78.5555 65.4117C78.5226 67.0068 77.4511 68.5953 75.3474 69.8097L66.7686 74.851C62.4891 77.3191 55.5209 77.3191 51.2347 74.851L43.379 70.2692C41.236 69.0351 40.1645 67.4138 40.1645 65.7924V66.2454C40.1645 67.8667 41.236 69.4881 43.379 70.7221L51.2347 75.3039C55.5143 77.7721 62.4825 77.7721 66.7686 75.3039L75.3474 70.2626C77.4511 69.0483 78.5226 67.4597 78.5555 65.8646C78.5555 65.7924 78.5555 65.7202 78.5489 65.648H78.5555V65.2017Z" fill="#16E09E"/>
<path opacity="0.4" d="M118.72 116.409V65.3069L115.861 66.6132C116.939 60.1081 107.42 74.9629 104.501 75.3698L71.7901 94.4716L57.5118 95.4497L11.9422 76.1378L12.994 75.5274C9.10233 73.7091 6.99871 69.554 4.89509 65.7664L1.82514 67.5913L0.00418091 65.4711V116.573C0.00418091 118.595 1.33867 120.623 4.0142 122.159L49.6693 148.482C55.0138 151.56 63.7109 151.56 69.0554 148.482L114.71 122.159C117.34 120.643 118.674 118.661 118.72 116.672C118.72 116.58 118.72 116.593 118.714 116.508L118.72 116.409Z" fill="#16E09E"/>
<path opacity="0.4" d="M118.72 97.2612C118.72 97.3466 118.72 97.4385 118.72 97.5238C118.681 99.5128 117.34 101.495 114.71 103.011L69.0554 129.334C63.7109 132.412 55.0138 132.412 49.6693 129.334L4.0142 103.011C1.33867 101.469 0.00418091 99.4471 0.00418091 97.4253V116.58C0.00418091 118.601 1.33867 120.63 4.0142 122.166L49.6693 148.488C55.0138 151.567 63.7109 151.567 69.0554 148.488L114.71 122.166C117.34 120.649 118.674 118.667 118.72 116.678C118.72 116.586 118.72 116.501 118.714 116.409H118.72V97.2612Z" fill="#7BFFC0"/>
<path opacity="0.8" d="M118.72 97.1958C118.72 97.2811 118.72 97.373 118.72 97.4584C118.681 99.4473 117.34 101.43 114.71 102.946L69.0554 129.268C63.7109 132.347 55.0138 132.347 49.6693 129.268L4.0142 102.946C1.33867 101.403 0.00418091 99.3817 0.00418091 97.3599V98.4692C0.00418091 100.491 1.33867 102.519 4.0142 104.055L49.6693 130.378C55.0138 133.456 63.7109 133.456 69.0554 130.378L114.71 104.055C117.34 102.539 118.674 100.557 118.72 98.5677C118.72 98.4758 118.72 98.3905 118.714 98.2986H118.72V97.1958Z" fill="#7BFFC0"/>
<path d="M118.721 65.7663V59.6091L115.862 58.0206C115.053 62.8978 109.307 66.1077 104.502 66.7772L71.7908 85.879L57.5125 91.0253L11.9429 67.5452L12.9947 66.9348C9.103 65.1165 6.99938 60.9614 4.89576 57.1738L1.82581 58.9987L0.00485229 59.5107V65.937C0.00485229 67.9588 1.33934 69.9871 4.01488 71.5231L49.6699 97.8455C55.0144 100.924 63.7116 100.924 69.0561 97.8455L114.711 71.5231C117.341 70.0068 118.675 68.0244 118.721 66.0355C118.721 65.9436 118.715 65.8517 118.721 65.7663Z" fill="url(#paint23_linear_123_12420)"/>
<path d="M118.721 65.7663V59.6091L115.862 58.0206C115.053 62.8978 109.307 66.1077 104.502 66.7772L71.7908 85.879L57.5125 91.0253L11.9429 67.5452L12.9947 66.9348C9.103 65.1165 6.99938 60.9614 4.89576 57.1738L1.82581 58.9987L0.00485229 59.5107V65.937C0.00485229 67.9588 1.33934 69.9871 4.01488 71.5231L49.6699 97.8455C55.0144 100.924 63.7116 100.924 69.0561 97.8455L114.711 71.5231C117.341 70.0068 118.675 68.0244 118.721 66.0355C118.721 65.9436 118.715 65.8517 118.721 65.7663Z" fill="url(#paint24_linear_123_12420)"/>
<path opacity="0.3" d="M104.502 66.7772L71.7908 85.879L59.3664 90.3623V100.156C62.8768 100.156 66.3872 99.3881 69.0627 97.8455L114.718 71.5231C117.347 70.0068 118.682 68.0244 118.728 66.0355C118.728 65.9436 118.728 65.8582 118.721 65.7663L118.728 115.831V59.6091L116.111 58.1584H115.835C114.941 62.9569 109.255 66.1142 104.502 66.7772Z" fill="#7C4EFF"/>
<path d="M29.659 61.8671C29.922 61.6373 30.2244 61.4207 30.5728 61.2172L54.3174 47.5309C57.0981 45.9292 61.6209 45.9292 64.4016 47.5309L88.1462 61.2172C88.4946 61.4207 88.8035 61.6373 89.0599 61.8671C90.8809 60.272 90.5719 58.0992 88.1462 56.701L64.4016 43.0147C61.6209 41.4131 57.0981 41.4131 54.3174 43.0147L30.5728 56.701C28.1405 58.1058 27.8381 60.272 29.659 61.8671Z" fill="url(#paint25_radial_123_12420)"/>
<path d="M114.711 54.0229L69.0557 27.7006C63.7112 24.622 55.014 24.6154 49.6695 27.7006L4.01448 54.0229C-1.33002 57.1015 -1.33002 62.1166 4.01448 65.2017L49.6695 91.5241C55.014 94.6027 63.7112 94.6027 69.0557 91.5241L114.711 65.2017C120.055 62.1166 120.055 57.1015 114.711 54.0229ZM88.146 62.517L64.4014 76.2033C61.6207 77.805 57.0979 77.805 54.3172 76.2033L30.5726 62.517C27.7919 60.9153 27.7919 58.3028 30.5726 56.7011L54.3172 43.0148C57.0979 41.4131 61.6207 41.4131 64.4014 43.0148L88.146 56.7011C90.9267 58.3028 90.9267 60.9153 88.146 62.517Z" fill="url(#paint26_linear_123_12420)"/>
<path d="M109.603 54.5351L68.1621 30.6414C63.3106 27.8451 55.4155 27.8451 50.564 30.6414L9.12276 54.5351C4.27129 57.3314 4.27129 61.887 9.12276 64.6833L50.564 88.5769C55.4155 91.3733 63.3106 91.3733 68.1621 88.5769L109.603 64.6833C114.455 61.887 114.455 57.3314 109.603 54.5351ZM94.6413 63.1735L65.5457 79.9516C62.1405 81.9143 56.5922 81.9143 53.187 79.9516L24.0847 63.1735C20.6795 61.2108 20.6795 58.0141 24.0847 56.0514L53.1804 39.2733C56.5856 37.3107 62.1339 37.3107 65.5391 39.2733L94.6413 56.0514C98.0466 58.0075 98.0466 61.2043 94.6413 63.1735Z" fill="#7C4EFF"/>
<path opacity="0.4" d="M109.603 54.5351L68.1621 30.6414C63.3106 27.8451 55.4155 27.8451 50.564 30.6414L9.12276 54.5351C4.27129 57.3314 4.27129 61.887 9.12276 64.6833L50.564 88.5769C55.4155 91.3733 63.3106 91.3733 68.1621 88.5769L109.603 64.6833C114.455 61.887 114.455 57.3314 109.603 54.5351ZM94.6413 63.1735L65.5457 79.9516C62.1405 81.9143 56.5922 81.9143 53.187 79.9516L24.0847 63.1735C20.6795 61.2108 20.6795 58.0141 24.0847 56.0514L53.1804 39.2733C56.5856 37.3107 62.1339 37.3107 65.5391 39.2733L94.6413 56.0514C98.0466 58.0075 98.0466 61.2043 94.6413 63.1735Z" fill="#16E09E"/>
<path d="M114.711 65.1953L69.0557 91.5176C63.7112 94.5962 55.014 94.5962 49.6695 91.5176L4.01448 65.1953C1.62818 63.8168 0.306851 62.051 0.0504729 60.2524C-0.26507 62.4843 1.05626 64.7817 4.01448 66.4818L49.6695 92.8042C55.014 95.8828 63.7112 95.8828 69.0557 92.8042L114.711 66.4818C117.669 64.7752 118.984 62.4843 118.668 60.2524C118.418 62.0576 117.097 63.8234 114.711 65.1953Z" fill="white"/>
<path d="M59.3601 86.319C56.6123 86.319 53.8579 85.7151 51.7674 84.5073L16.3017 64.0598C14.2507 62.8783 13.12 61.2963 13.12 59.6093C13.12 57.9223 14.2507 56.3403 16.3017 55.1588L51.7674 34.7114C55.9549 32.2958 62.7719 32.2958 66.9594 34.7114L102.425 55.1588C104.476 56.3403 105.6 57.9223 105.6 59.6093C105.6 61.2963 104.47 62.8783 102.425 64.0598L66.9594 84.5073C64.8624 85.7151 62.1145 86.319 59.3601 86.319ZM59.3601 33.1491C56.6583 33.1491 53.9499 33.7399 51.8923 34.928L16.4266 55.3754C14.461 56.511 13.3764 58.0142 13.3764 59.6093C13.3764 61.2044 14.461 62.7076 16.4266 63.8432L51.8923 84.2906C56.0075 86.6669 62.7128 86.6669 66.828 84.2906L102.294 63.8432C104.259 62.7076 105.344 61.2044 105.344 59.6159C105.344 58.0208 104.259 56.5176 102.294 55.382L66.828 34.9346C64.7704 33.7464 62.062 33.1491 59.3601 33.1491Z" fill="#16E09E"/>
<g opacity="0.4">
<path d="M54.3171 76.2035L30.5725 62.5172C27.7918 60.9155 27.7918 58.3029 30.5725 56.7013L54.3171 43.015C57.0978 41.4133 61.6206 41.4133 64.4013 43.015L88.1459 56.7013C90.9266 58.3029 90.9266 60.9089 88.1459 62.5172L64.4013 76.2035C61.6206 77.8051 57.0978 77.8051 54.3171 76.2035Z" fill="#16E09E"/>
</g>
<path opacity="0.6" d="M78.5475 95.0952C78.5475 95.1674 78.5541 95.2396 78.5541 95.3118C78.5212 96.9069 77.4496 98.4955 75.346 99.7098L66.7672 104.751C62.4877 107.219 55.5195 107.219 51.2333 104.751L43.3776 100.169C41.2346 98.9353 40.1631 97.3139 40.1631 95.6926V97.4846V97.5699V97.9375V100.714V101.824V105.408V105.493V105.86V109.746C40.1631 111.368 41.2346 112.989 43.3776 114.223L51.2333 118.805C55.5129 121.273 62.4811 121.273 66.7672 118.805L75.346 113.764C77.4496 112.549 78.5212 110.961 78.5541 109.366C78.5541 109.294 78.554 109.221 78.5475 109.149H78.5541V108.604V105.263V104.81V101.226V100.681V100.675V100.327V97.3402V96.8872L78.5475 95.0952Z" fill="#7BFFC0"/>
<path opacity="0.5" d="M90.2297 0.00634766H28.482V59.6091C28.482 60.6594 29.1788 61.7162 30.5659 62.5171L54.3104 76.2034C57.0912 77.805 61.6139 77.805 64.3946 76.2034L88.1392 62.5171C89.5263 61.7162 90.2231 60.666 90.2231 59.6091V0.00634766H90.2297Z" fill="url(#paint27_linear_123_12420)"/>
<path opacity="0.8" d="M89.6503 61.2241C90.0316 60.7056 90.2288 60.1607 90.2288 59.6028V0H89.7357L89.6503 61.2241Z" fill="url(#paint28_linear_123_12420)"/>
<path opacity="0.8" d="M29.0662 61.2241C28.6849 60.7056 28.4877 60.1607 28.4877 59.6028V0H28.9807L29.0662 61.2241Z" fill="url(#paint29_linear_123_12420)"/>
<path d="M74.7812 92.4304L68.5953 95.9947C68.4178 96.0997 68.2666 95.9882 68.2666 95.7453C68.2666 95.5024 68.4112 95.2267 68.5953 95.1217L74.7812 91.5573C74.9587 91.4523 75.1099 91.5639 75.1099 91.8068C75.1033 92.0496 74.9587 92.3253 74.7812 92.4304Z" fill="#16E09E"/>
<path d="M87.515 85.0915L81.3291 88.6558C81.1516 88.7609 81.0004 88.6493 81.0004 88.4064C81.0004 88.1635 81.145 87.8878 81.3291 87.7828L87.515 84.2185C87.6925 84.1134 87.8437 84.225 87.8437 84.4679C87.8372 84.7108 87.6925 84.9865 87.515 85.0915Z" fill="#16E09E"/>
<path d="M100.248 77.7529L94.0622 81.3172C93.8847 81.4223 93.7335 81.3107 93.7335 81.0678C93.7335 80.8249 93.8781 80.5492 94.0622 80.4442L100.248 76.8798C100.426 76.7748 100.577 76.8864 100.577 77.1293C100.57 77.3656 100.426 77.6478 100.248 77.7529Z" fill="#16E09E"/>
<path d="M112.981 70.4074L106.795 73.9718C106.618 74.0768 106.467 73.9652 106.467 73.7223C106.467 73.4794 106.611 73.2038 106.795 73.0987L112.981 69.5344C113.159 69.4294 113.31 69.5409 113.31 69.7838C113.303 70.0267 113.159 70.3024 112.981 70.4074Z" fill="#16E09E"/>
<path d="M74.7812 148.266L68.5953 151.83C68.4178 151.935 68.2666 151.823 68.2666 151.58C68.2666 151.338 68.4112 151.062 68.5953 150.957L74.7812 147.393C74.9587 147.288 75.1099 147.399 75.1099 147.642C75.1033 147.878 74.9587 148.161 74.7812 148.266Z" fill="#16E09E"/>
<path d="M87.515 140.92L81.3291 144.484C81.1516 144.589 81.0004 144.478 81.0004 144.235C81.0004 143.992 81.145 143.716 81.3291 143.611L87.515 140.047C87.6925 139.942 87.8437 140.054 87.8437 140.297C87.8372 140.539 87.6925 140.822 87.515 140.92Z" fill="#16E09E"/>
<path d="M100.248 133.581L94.0622 137.146C93.8847 137.251 93.7335 137.139 93.7335 136.896C93.7335 136.654 93.8781 136.378 94.0622 136.273L100.248 132.708C100.426 132.603 100.577 132.715 100.577 132.958C100.57 133.201 100.426 133.476 100.248 133.581Z" fill="#16E09E"/>
<path d="M112.981 126.243L106.795 129.807C106.618 129.912 106.467 129.8 106.467 129.558C106.467 129.315 106.611 129.039 106.795 128.934L112.981 125.37C113.159 125.265 113.31 125.376 113.31 125.619C113.303 125.862 113.159 126.138 112.981 126.243Z" fill="#16E09E"/>
<path d="M43.7575 92.4301L49.9435 95.9945C50.121 96.0995 50.2722 95.9879 50.2722 95.745C50.2722 95.5022 50.1275 95.2265 49.9435 95.1214L43.7575 91.5571C43.58 91.4521 43.4288 91.5636 43.4288 91.8065C43.4288 92.0494 43.5735 92.3251 43.7575 92.4301Z" fill="#16E09E"/>
<path d="M31.0244 85.0913L37.2104 88.6556C37.3879 88.7606 37.5391 88.649 37.5391 88.4062C37.5391 88.1633 37.3944 87.8876 37.2104 87.7826L31.0244 84.2182C30.8469 84.1132 30.6957 84.2248 30.6957 84.4677C30.6957 84.7105 30.8404 84.9862 31.0244 85.0913Z" fill="#16E09E"/>
<path d="M18.2906 77.7526L24.4766 81.317C24.6541 81.422 24.8053 81.3104 24.8053 81.0675C24.8053 80.8247 24.6607 80.549 24.4766 80.4439L18.2906 76.8796C18.1131 76.7746 17.9619 76.8862 17.9619 77.129C17.9619 77.3653 18.1066 77.6476 18.2906 77.7526Z" fill="#16E09E"/>
<path d="M5.55748 70.4072L11.7434 73.9715C11.9209 74.0765 12.0721 73.965 12.0721 73.7221C12.0721 73.4792 11.9275 73.2035 11.7434 73.0985L5.55748 69.5341C5.37999 69.4291 5.22879 69.5407 5.22879 69.7836C5.22879 70.0264 5.37341 70.3021 5.55748 70.4072Z" fill="#16E09E"/>
<path d="M43.7576 148.265L49.9435 151.829C50.121 151.934 50.2722 151.823 50.2722 151.58C50.2722 151.337 50.1276 151.061 49.9435 150.956L43.7576 147.392C43.5801 147.287 43.4289 147.399 43.4289 147.641C43.4289 147.878 43.5735 148.16 43.7576 148.265Z" fill="#16E09E"/>
<path d="M31.0245 140.92L37.2104 144.484C37.3879 144.589 37.5391 144.478 37.5391 144.235C37.5391 143.992 37.3945 143.716 37.2104 143.611L31.0245 140.047C30.847 139.942 30.6958 140.053 30.6958 140.296C30.6958 140.539 30.8404 140.821 31.0245 140.92Z" fill="#16E09E"/>
<path d="M18.2907 133.581L24.4766 137.145C24.6541 137.25 24.8053 137.139 24.8053 136.896C24.8053 136.653 24.6607 136.377 24.4766 136.272L18.2907 132.708C18.1132 132.603 17.962 132.715 17.962 132.957C17.962 133.2 18.1066 133.476 18.2907 133.581Z" fill="#16E09E"/>
<path d="M5.55751 126.242L11.7435 129.807C11.921 129.912 12.0722 129.8 12.0722 129.557C12.0722 129.314 11.9275 129.039 11.7435 128.934L5.55751 125.369C5.38002 125.264 5.22882 125.376 5.22882 125.619C5.22882 125.862 5.37344 126.137 5.55751 126.242Z" fill="#16E09E"/>
<defs>
<linearGradient id="paint0_linear_123_12420" x1="12.7157" y1="93.1971" x2="105.031" y2="146.574" gradientUnits="userSpaceOnUse">
<stop stop-color="#BCBEFF"/>
<stop offset="0.2271" stop-color="#AAADF8"/>
<stop offset="0.6802" stop-color="#7C83E5"/>
<stop offset="1" stop-color="#5761D7"/>
</linearGradient>
<linearGradient id="paint1_linear_123_12420" x1="12.7157" y1="93.1971" x2="105.031" y2="146.574" gradientUnits="userSpaceOnUse">
<stop stop-color="#16E09E"/>
<stop offset="0.0881" stop-color="#31BDA4"/>
<stop offset="0.2288" stop-color="#338DB0"/>
<stop offset="0.3734" stop-color="#356BA5"/>
<stop offset="0.5206" stop-color="#37519C"/>
<stop offset="0.6715" stop-color="#383F96"/>
<stop offset="0.8281" stop-color="#393492"/>
<stop offset="1" stop-color="#393091"/>
</linearGradient>
<linearGradient id="paint2_linear_123_12420" x1="0.00164345" y1="115.287" x2="118.718" y2="115.287" gradientUnits="userSpaceOnUse">
<stop stop-color="#E9E9FD"/>
<stop offset="0.3601" stop-color="#D3D2F9"/>
<stop offset="0.7062" stop-color="#C5C4F7"/>
<stop offset="1" stop-color="#C0BFF6"/>
</linearGradient>
<radialGradient id="paint3_radial_123_12420" cx="0" cy="0" r="1" gradientUnits="userSpaceOnUse" gradientTransform="translate(58.8486 136.304) scale(54.0444 53.9653)">
<stop stop-color="#42E8E0"/>
<stop offset="0.0796" stop-color="#3AC4C9"/>
<stop offset="0.2064" stop-color="#2F92A8"/>
<stop offset="0.3361" stop-color="#25678C"/>
<stop offset="0.4662" stop-color="#1D4375"/>
<stop offset="0.597" stop-color="#172863"/>
<stop offset="0.7289" stop-color="#121556"/>
<stop offset="0.8623" stop-color="#10094F"/>
<stop offset="1" stop-color="#0F054C"/>
</radialGradient>
<radialGradient id="paint4_radial_123_12420" cx="0" cy="0" r="1" gradientUnits="userSpaceOnUse" gradientTransform="translate(58.8475 119.36) scale(53.8513 53.7725)">
<stop stop-color="#42E8E0"/>
<stop offset="0.0796" stop-color="#3AC4C9"/>
<stop offset="0.2064" stop-color="#2F92A8"/>
<stop offset="0.3361" stop-color="#25678C"/>
<stop offset="0.4662" stop-color="#1D4375"/>
<stop offset="0.597" stop-color="#172863"/>
<stop offset="0.7289" stop-color="#121556"/>
<stop offset="0.8623" stop-color="#10094F"/>
<stop offset="1" stop-color="#0F054C"/>
</radialGradient>
<linearGradient id="paint5_linear_123_12420" x1="43.3512" y1="95.2059" x2="74.6017" y2="113.275" gradientUnits="userSpaceOnUse">
<stop stop-color="#BCBEFF"/>
<stop offset="0.2271" stop-color="#AAADF8"/>
<stop offset="0.6802" stop-color="#7C83E5"/>
<stop offset="1" stop-color="#5761D7"/>
</linearGradient>
<linearGradient id="paint6_linear_123_12420" x1="43.3512" y1="95.2059" x2="74.6017" y2="113.275" gradientUnits="userSpaceOnUse">
<stop stop-color="#706EC4"/>
<stop offset="0.0222" stop-color="#6D6BC2"/>
<stop offset="0.2509" stop-color="#5651AC"/>
<stop offset="0.4865" stop-color="#463F9D"/>
<stop offset="0.7314" stop-color="#3C3494"/>
<stop offset="1" stop-color="#393091"/>
</linearGradient>
<linearGradient id="paint7_linear_123_12420" x1="40.1655" y1="100.564" x2="78.5559" y2="100.564" gradientUnits="userSpaceOnUse">
<stop stop-color="#E9E9FD"/>
<stop offset="0.3601" stop-color="#D3D2F9"/>
<stop offset="0.7062" stop-color="#C5C4F7"/>
<stop offset="1" stop-color="#C0BFF6"/>
</linearGradient>
<linearGradient id="paint8_linear_123_12420" x1="43.3512" y1="87.2826" x2="74.6017" y2="105.352" gradientUnits="userSpaceOnUse">
<stop stop-color="#BCBEFF"/>
<stop offset="0.2271" stop-color="#AAADF8"/>
<stop offset="0.6802" stop-color="#7C83E5"/>
<stop offset="1" stop-color="#5761D7"/>
</linearGradient>
<linearGradient id="paint9_linear_123_12420" x1="43.3512" y1="87.2826" x2="74.6017" y2="105.352" gradientUnits="userSpaceOnUse">
<stop stop-color="#706EC4"/>
<stop offset="0.0222" stop-color="#6D6BC2"/>
<stop offset="0.2509" stop-color="#5651AC"/>
<stop offset="0.4865" stop-color="#463F9D"/>
<stop offset="0.7314" stop-color="#3C3494"/>
<stop offset="1" stop-color="#393091"/>
</linearGradient>
<linearGradient id="paint10_linear_123_12420" x1="40.1656" y1="92.6403" x2="78.5561" y2="92.6403" gradientUnits="userSpaceOnUse">
<stop stop-color="#E9E9FD"/>
<stop offset="0.3601" stop-color="#D3D2F9"/>
<stop offset="0.7062" stop-color="#C5C4F7"/>
<stop offset="1" stop-color="#C0BFF6"/>
</linearGradient>
<linearGradient id="paint11_linear_123_12420" x1="43.3511" y1="79.3595" x2="74.6017" y2="97.4284" gradientUnits="userSpaceOnUse">
<stop stop-color="#BCBEFF"/>
<stop offset="0.2271" stop-color="#AAADF8"/>
<stop offset="0.6802" stop-color="#7C83E5"/>
<stop offset="1" stop-color="#5761D7"/>
</linearGradient>
<linearGradient id="paint12_linear_123_12420" x1="43.3511" y1="79.3595" x2="74.6017" y2="97.4284" gradientUnits="userSpaceOnUse">
<stop stop-color="#706EC4"/>
<stop offset="0.0222" stop-color="#6D6BC2"/>
<stop offset="0.2509" stop-color="#5651AC"/>
<stop offset="0.4865" stop-color="#463F9D"/>
<stop offset="0.7314" stop-color="#3C3494"/>
<stop offset="1" stop-color="#393091"/>
</linearGradient>
<linearGradient id="paint13_linear_123_12420" x1="40.1655" y1="84.7174" x2="78.5559" y2="84.7174" gradientUnits="userSpaceOnUse">
<stop stop-color="#E9E9FD"/>
<stop offset="0.3601" stop-color="#D3D2F9"/>
<stop offset="0.7062" stop-color="#C5C4F7"/>
<stop offset="1" stop-color="#C0BFF6"/>
</linearGradient>
<linearGradient id="paint14_linear_123_12420" x1="43.3511" y1="71.4361" x2="74.6017" y2="89.5051" gradientUnits="userSpaceOnUse">
<stop stop-color="#BCBEFF"/>
<stop offset="0.2271" stop-color="#AAADF8"/>
<stop offset="0.6802" stop-color="#7C83E5"/>
<stop offset="1" stop-color="#5761D7"/>
</linearGradient>
<linearGradient id="paint15_linear_123_12420" x1="43.3511" y1="71.4361" x2="74.6017" y2="89.5051" gradientUnits="userSpaceOnUse">
<stop stop-color="#706EC4"/>
<stop offset="0.0222" stop-color="#6D6BC2"/>
<stop offset="0.2509" stop-color="#5651AC"/>
<stop offset="0.4865" stop-color="#463F9D"/>
<stop offset="0.7314" stop-color="#3C3494"/>
<stop offset="1" stop-color="#393091"/>
</linearGradient>
<linearGradient id="paint16_linear_123_12420" x1="40.1655" y1="76.7937" x2="78.5559" y2="76.7937" gradientUnits="userSpaceOnUse">
<stop stop-color="#E9E9FD"/>
<stop offset="0.3601" stop-color="#D3D2F9"/>
<stop offset="0.7062" stop-color="#C5C4F7"/>
<stop offset="1" stop-color="#C0BFF6"/>
</linearGradient>
<linearGradient id="paint17_linear_123_12420" x1="43.3511" y1="63.5127" x2="74.6017" y2="81.5817" gradientUnits="userSpaceOnUse">
<stop stop-color="#BCBEFF"/>
<stop offset="0.2271" stop-color="#AAADF8"/>
<stop offset="0.6802" stop-color="#7C83E5"/>
<stop offset="1" stop-color="#5761D7"/>
</linearGradient>
<linearGradient id="paint18_linear_123_12420" x1="43.3511" y1="63.5127" x2="74.6017" y2="81.5817" gradientUnits="userSpaceOnUse">
<stop stop-color="#706EC4"/>
<stop offset="0.0222" stop-color="#6D6BC2"/>
<stop offset="0.2509" stop-color="#5651AC"/>
<stop offset="0.4865" stop-color="#463F9D"/>
<stop offset="0.7314" stop-color="#3C3494"/>
<stop offset="1" stop-color="#393091"/>
</linearGradient>
<linearGradient id="paint19_linear_123_12420" x1="40.1655" y1="68.8708" x2="78.5559" y2="68.8708" gradientUnits="userSpaceOnUse">
<stop stop-color="#E9E9FD"/>
<stop offset="0.3601" stop-color="#D3D2F9"/>
<stop offset="0.7062" stop-color="#C5C4F7"/>
<stop offset="1" stop-color="#C0BFF6"/>
</linearGradient>
<linearGradient id="paint20_linear_123_12420" x1="43.3511" y1="55.5899" x2="74.6017" y2="73.6588" gradientUnits="userSpaceOnUse">
<stop stop-color="#BCBEFF"/>
<stop offset="0.2271" stop-color="#AAADF8"/>
<stop offset="0.6802" stop-color="#7C83E5"/>
<stop offset="1" stop-color="#5761D7"/>
</linearGradient>
<linearGradient id="paint21_linear_123_12420" x1="43.3511" y1="55.5899" x2="74.6017" y2="73.6588" gradientUnits="userSpaceOnUse">
<stop stop-color="#706EC4"/>
<stop offset="0.0222" stop-color="#6D6BC2"/>
<stop offset="0.2509" stop-color="#5651AC"/>
<stop offset="0.4865" stop-color="#463F9D"/>
<stop offset="0.7314" stop-color="#3C3494"/>
<stop offset="1" stop-color="#393091"/>
</linearGradient>
<linearGradient id="paint22_linear_123_12420" x1="40.1655" y1="60.9477" x2="78.5559" y2="60.9477" gradientUnits="userSpaceOnUse">
<stop stop-color="#E9E9FD"/>
<stop offset="0.3601" stop-color="#D3D2F9"/>
<stop offset="0.7062" stop-color="#C5C4F7"/>
<stop offset="1" stop-color="#C0BFF6"/>
</linearGradient>
<linearGradient id="paint23_linear_123_12420" x1="12.7164" y1="37.5189" x2="105.032" y2="90.8954" gradientUnits="userSpaceOnUse">
<stop stop-color="#BCBEFF"/>
<stop offset="0.2271" stop-color="#AAADF8"/>
<stop offset="0.6802" stop-color="#7C83E5"/>
<stop offset="1" stop-color="#5761D7"/>
</linearGradient>
<linearGradient id="paint24_linear_123_12420" x1="12.7164" y1="37.5189" x2="105.032" y2="90.8954" gradientUnits="userSpaceOnUse">
<stop stop-color="#16E09E"/>
<stop offset="0.0881" stop-color="#31BD9B"/>
<stop offset="0.2288" stop-color="#338DB0"/>
<stop offset="0.3734" stop-color="#356BA5"/>
<stop offset="0.5206" stop-color="#37519C"/>
<stop offset="0.6715" stop-color="#383F96"/>
<stop offset="0.8281" stop-color="#393492"/>
<stop offset="1" stop-color="#393091"/>
</linearGradient>
<radialGradient id="paint25_radial_123_12420" cx="0" cy="0" r="1" gradientUnits="userSpaceOnUse" gradientTransform="translate(58.8474 63.6817) scale(53.8513 53.7725)">
<stop stop-color="#42E8E0"/>
<stop offset="0.0796" stop-color="#3AC4C9"/>
<stop offset="0.2064" stop-color="#2F92A8"/>
<stop offset="0.3361" stop-color="#25678C"/>
<stop offset="0.4662" stop-color="#1D4375"/>
<stop offset="0.597" stop-color="#172863"/>
<stop offset="0.7289" stop-color="#121556"/>
<stop offset="0.8623" stop-color="#10094F"/>
<stop offset="1" stop-color="#0F054C"/>
</radialGradient>
<linearGradient id="paint26_linear_123_12420" x1="0.00117316" y1="59.6084" x2="118.718" y2="59.6084" gradientUnits="userSpaceOnUse">
<stop stop-color="#E9E9FD"/>
<stop offset="0.3601" stop-color="#D3D2F9"/>
<stop offset="0.7062" stop-color="#C5C4F7"/>
<stop offset="1" stop-color="#C0BFF6"/>
</linearGradient>
<linearGradient id="paint27_linear_123_12420" x1="59.3594" y1="77.4068" x2="59.3594" y2="3.94514" gradientUnits="userSpaceOnUse">
<stop stop-color="#16E09E"/>
<stop offset="0.1763" stop-color="#38C3A2"/>
<stop offset="1" stop-color="#38BCC3" stop-opacity="0"/>
</linearGradient>
<linearGradient id="paint28_linear_123_12420" x1="89.9424" y1="61.2269" x2="89.9424" y2="6.9906" gradientUnits="userSpaceOnUse">
<stop stop-color="#16E09E"/>
<stop offset="0.1863" stop-color="#35BAAA"/>
<stop offset="1" stop-color="#287293" stop-opacity="0"/>
</linearGradient>
<linearGradient id="paint29_linear_123_12420" x1="28.7798" y1="61.2269" x2="28.7798" y2="6.9906" gradientUnits="userSpaceOnUse">
<stop stop-color="#16E09E"/>
<stop offset="0.1863" stop-color="#35BAAA"/>
<stop offset="1" stop-color="#287293" stop-opacity="0"/>
</linearGradient>
</defs>
</svg>
