<svg width="160" height="52" viewBox="0 0 160 52" fill="none" xmlns="http://www.w3.org/2000/svg">
<g clip-path="url(#clip0_1_55)">
<path d="M1.67661 14.8375L6.86612 13.9667L9.58064 8.82082L12.0556 13.8875L17.6443 14.8375L13.7322 18.6375L14.5306 24.1792L9.58064 21.8042L4.63064 24.1792L5.26935 18.7167L1.67661 14.8375ZM21.5564 14.8375L26.746 13.9667L29.4605 8.82082L32.0153 13.8875L37.5242 14.8375L33.6121 18.6375L34.4903 24.1792L29.4605 21.8042L24.5903 24.1792L25.229 18.7167L21.5564 14.8375ZM41.8355 14.8375L47.025 13.9667L49.7395 8.82082L52.2145 13.8875L57.8032 14.8375L53.8911 18.6375L54.7694 24.1792L49.7395 21.8042L44.7895 24.1792L45.4282 18.7167L41.8355 14.8375ZM61.4758 14.8375L66.6653 13.9667L69.3798 8.82082L71.9347 13.8875L77.4435 14.8375L73.5315 18.6375L74.4097 24.1792L69.3798 21.8042L64.5097 24.1792L65.1484 18.7167L61.4758 14.8375ZM81.4355 14.8375L86.625 13.9667L89.3395 8.82082L91.8944 13.8875L97.4032 14.8375L93.4911 18.6375L94.3693 24.1792L89.3395 21.8042L84.4694 24.1792L85.1081 18.7167L81.4355 14.8375Z" fill="#FF492C"/>
<path d="M19.1613 14.3625L12.5347 13.4125L9.58065 7.475L6.62662 13.4125L0 14.3625L4.79032 18.9542L3.67258 25.525L9.58065 22.4375L15.4887 25.525L14.371 18.9542L19.1613 14.3625ZM9.58065 21.0125L5.42903 23.2292L6.22742 18.6375L2.87419 15.3917L7.58468 14.6792L9.66048 10.4833L11.7363 14.6792L16.4468 15.3917L13.0935 18.6375L13.8919 23.2292L9.58065 21.0125ZM39.121 14.3625L32.4944 13.4125L29.5403 7.475L26.5863 13.4125L19.9597 14.3625L24.75 18.9542L23.6323 25.525L29.5403 22.4375L35.4484 25.525L34.3306 18.9542L39.121 14.3625ZM29.5403 21.0125L25.3887 23.2292L26.1871 18.6375L22.8339 15.3917L27.5444 14.6792L29.6202 10.4833L31.696 14.6792L36.4065 15.3917L33.0532 18.6375L33.8516 23.2292L29.5403 21.0125ZM59.0806 14.3625L52.454 13.4125L49.5 7.475L46.546 13.4125L39.9194 14.3625L44.7097 18.9542L43.5919 25.525L49.5 22.4375L55.4081 25.525L54.2903 18.9542L59.0806 14.3625ZM49.5 21.0125L45.3484 23.2292L46.1468 18.6375L42.7936 15.3917L47.504 14.6792L49.5798 10.4833L51.6556 14.6792L56.3661 15.3917L53.0129 18.6375L53.8113 23.2292L49.5 21.0125ZM79.0403 14.3625L72.4137 13.4125L69.4597 7.475L66.5056 13.4125L59.879 14.3625L64.6694 18.9542L63.5516 25.525L69.4597 22.4375L75.3677 25.525L74.25 18.9542L79.0403 14.3625ZM69.4597 21.0125L65.3081 23.2292L66.1065 18.6375L62.7532 15.3917L67.4637 14.6792L69.5395 10.4833L71.6153 14.6792L76.3258 15.3917L72.9726 18.6375L73.771 23.2292L69.4597 21.0125ZM99 14.3625L92.3734 13.4125L89.4194 7.475L86.4653 13.4125L79.8387 14.3625L84.629 18.9542L83.5113 25.525L89.4194 22.4375L95.3274 25.525L94.2097 18.9542L99 14.3625ZM89.4194 21.0125L85.2677 23.2292L86.0661 18.6375L82.7129 15.3917L87.4234 14.6792L89.4992 10.4833L91.575 14.6792L96.2855 15.3917L92.9323 18.6375L93.7306 23.2292L89.4194 21.0125Z" fill="#FF492C"/>
</g>
<g clip-path="url(#clip1_1_55)">
<path d="M134 52C148.359 52 160 40.3594 160 26C160 11.6406 148.359 0 134 0C119.641 0 108 11.6406 108 26C108 40.3594 119.641 52 134 52Z" fill="#FF492C"/>
<path d="M145.253 19.916H140.812C140.932 19.2192 141.363 18.8292 142.237 18.3872L143.053 17.9712C144.514 17.2224 145.294 16.3748 145.294 14.9916C145.294 14.1232 144.956 13.4368 144.286 12.9428C143.615 12.4488 142.824 12.2044 141.899 12.2044C141.183 12.196 140.48 12.3966 139.876 12.7816C139.268 13.156 138.815 13.6396 138.534 14.2428L139.819 15.5324C140.318 14.5236 141.041 14.0296 141.992 14.0296C142.798 14.0296 143.292 14.4456 143.292 15.0228C143.292 15.5064 143.053 15.9068 142.128 16.3748L141.602 16.6296C140.464 17.2068 139.673 17.8672 139.216 18.616C138.758 19.3648 138.534 20.306 138.534 21.4448V21.7568H145.253V19.916ZM144.66 23.8784H137.307L133.631 30.2432H140.984L144.66 36.6132L148.336 30.2432L144.66 23.8784Z" fill="#FEFEFE"/>
<path d="M134.265 34.4916C129.585 34.4916 125.774 30.68 125.774 26C125.774 21.32 129.585 17.5084 134.265 17.5084L137.172 11.4296C136.215 11.2393 135.241 11.1435 134.265 11.1436C126.06 11.1436 119.409 17.7944 119.409 26C119.409 34.2056 126.06 40.8564 134.265 40.8564C137.41 40.8623 140.474 39.8639 143.012 38.0068L139.798 32.4324C138.261 33.7605 136.297 34.4913 134.265 34.4916Z" fill="#FEFEFE"/>
</g>
<path d="M1.05 41V34H3.78C4.39333 34 4.91667 34.0967 5.35 34.29C5.78333 34.4833 6.11667 34.7633 6.35 35.13C6.58333 35.4967 6.7 35.9333 6.7 36.44C6.7 36.9467 6.58333 37.3833 6.35 37.75C6.11667 38.11 5.78333 38.3867 5.35 38.58C4.91667 38.7733 4.39333 38.87 3.78 38.87H1.6L2.05 38.41V41H1.05ZM5.73 41L3.95 38.46H5.02L6.82 41H5.73ZM2.05 38.51L1.6 38.02H3.75C4.39 38.02 4.87333 37.8833 5.2 37.61C5.53333 37.33 5.7 36.94 5.7 36.44C5.7 35.94 5.53333 35.5533 5.2 35.28C4.87333 35.0067 4.39 34.87 3.75 34.87H1.6L2.05 34.37V38.51ZM10.5356 41.06C9.96896 41.06 9.46896 40.9433 9.03563 40.71C8.60896 40.4767 8.27563 40.1567 8.03563 39.75C7.80229 39.3433 7.68563 38.8767 7.68563 38.35C7.68563 37.8233 7.79896 37.3567 8.02563 36.95C8.25896 36.5433 8.57563 36.2267 8.97563 36C9.38229 35.7667 9.83896 35.65 10.3456 35.65C10.859 35.65 11.3123 35.7633 11.7056 35.99C12.099 36.2167 12.4056 36.5367 12.6256 36.95C12.8523 37.3567 12.9656 37.8333 12.9656 38.38C12.9656 38.42 12.9623 38.4667 12.9556 38.52C12.9556 38.5733 12.9523 38.6233 12.9456 38.67H8.43563V37.98H12.4456L12.0556 38.22C12.0623 37.88 11.9923 37.5767 11.8456 37.31C11.699 37.0433 11.4956 36.8367 11.2356 36.69C10.9823 36.5367 10.6856 36.46 10.3456 36.46C10.0123 36.46 9.71563 36.5367 9.45563 36.69C9.19563 36.8367 8.99229 37.0467 8.84563 37.32C8.69896 37.5867 8.62563 37.8933 8.62563 38.24V38.4C8.62563 38.7533 8.70563 39.07 8.86563 39.35C9.03229 39.6233 9.26229 39.8367 9.55563 39.99C9.84896 40.1433 10.1856 40.22 10.5656 40.22C10.879 40.22 11.1623 40.1667 11.4156 40.06C11.6756 39.9533 11.9023 39.7933 12.0956 39.58L12.6256 40.2C12.3856 40.48 12.0856 40.6933 11.7256 40.84C11.3723 40.9867 10.9756 41.06 10.5356 41.06ZM17.4422 41V39.88L17.3922 39.67V37.76C17.3922 37.3533 17.2722 37.04 17.0322 36.82C16.7989 36.5933 16.4455 36.48 15.9722 36.48C15.6589 36.48 15.3522 36.5333 15.0522 36.64C14.7522 36.74 14.4989 36.8767 14.2922 37.05L13.8922 36.33C14.1655 36.11 14.4922 35.9433 14.8722 35.83C15.2589 35.71 15.6622 35.65 16.0822 35.65C16.8089 35.65 17.3689 35.8267 17.7622 36.18C18.1555 36.5333 18.3522 37.0733 18.3522 37.8V41H17.4422ZM15.7022 41.06C15.3089 41.06 14.9622 40.9933 14.6622 40.86C14.3689 40.7267 14.1422 40.5433 13.9822 40.31C13.8222 40.07 13.7422 39.8 13.7422 39.5C13.7422 39.2133 13.8089 38.9533 13.9422 38.72C14.0822 38.4867 14.3055 38.3 14.6122 38.16C14.9255 38.02 15.3455 37.95 15.8722 37.95H17.5522V38.64H15.9122C15.4322 38.64 15.1089 38.72 14.9422 38.88C14.7755 39.04 14.6922 39.2333 14.6922 39.46C14.6922 39.72 14.7955 39.93 15.0022 40.09C15.2089 40.2433 15.4955 40.32 15.8622 40.32C16.2222 40.32 16.5355 40.24 16.8022 40.08C17.0755 39.92 17.2722 39.6867 17.3922 39.38L17.5822 40.04C17.4555 40.3533 17.2322 40.6033 16.9122 40.79C16.5922 40.97 16.1889 41.06 15.7022 41.06ZM22.3188 41.06C21.8054 41.06 21.3454 40.9467 20.9388 40.72C20.5388 40.4933 20.2221 40.1767 19.9888 39.77C19.7554 39.3633 19.6388 38.89 19.6388 38.35C19.6388 37.81 19.7554 37.34 19.9888 36.94C20.2221 36.5333 20.5388 36.2167 20.9388 35.99C21.3454 35.7633 21.8054 35.65 22.3188 35.65C22.7654 35.65 23.1688 35.75 23.5288 35.95C23.8888 36.15 24.1754 36.45 24.3888 36.85C24.6088 37.25 24.7188 37.75 24.7188 38.35C24.7188 38.95 24.6121 39.45 24.3988 39.85C24.1921 40.25 23.9088 40.5533 23.5488 40.76C23.1888 40.96 22.7788 41.06 22.3188 41.06ZM22.3988 40.22C22.7321 40.22 23.0321 40.1433 23.2988 39.99C23.5721 39.8367 23.7854 39.62 23.9388 39.34C24.0988 39.0533 24.1788 38.7233 24.1788 38.35C24.1788 37.97 24.0988 37.6433 23.9388 37.37C23.7854 37.09 23.5721 36.8733 23.2988 36.72C23.0321 36.5667 22.7321 36.49 22.3988 36.49C22.0588 36.49 21.7554 36.5667 21.4888 36.72C21.2221 36.8733 21.0088 37.09 20.8488 37.37C20.6888 37.6433 20.6088 37.97 20.6088 38.35C20.6088 38.7233 20.6888 39.0533 20.8488 39.34C21.0088 39.62 21.2221 39.8367 21.4888 39.99C21.7554 40.1433 22.0588 40.22 22.3988 40.22ZM24.2088 41V39.57L24.2687 38.34L24.1688 37.11V33.58H25.1288V41H24.2088ZM31.9007 41.06C31.3674 41.06 30.894 40.9433 30.4807 40.71C30.0674 40.4767 29.7407 40.1567 29.5007 39.75C29.2607 39.3367 29.1407 38.87 29.1407 38.35C29.1407 37.8233 29.2607 37.3567 29.5007 36.95C29.7407 36.5433 30.0674 36.2267 30.4807 36C30.894 35.7667 31.3674 35.65 31.9007 35.65C32.4274 35.65 32.8974 35.7667 33.3107 36C33.7307 36.2267 34.0574 36.5433 34.2907 36.95C34.5307 37.35 34.6507 37.8167 34.6507 38.35C34.6507 38.8767 34.5307 39.3433 34.2907 39.75C34.0574 40.1567 33.7307 40.4767 33.3107 40.71C32.8974 40.9433 32.4274 41.06 31.9007 41.06ZM31.9007 40.22C32.2407 40.22 32.544 40.1433 32.8107 39.99C33.084 39.8367 33.2974 39.62 33.4507 39.34C33.604 39.0533 33.6807 38.7233 33.6807 38.35C33.6807 37.97 33.604 37.6433 33.4507 37.37C33.2974 37.09 33.084 36.8733 32.8107 36.72C32.544 36.5667 32.2407 36.49 31.9007 36.49C31.5607 36.49 31.2574 36.5667 30.9907 36.72C30.724 36.8733 30.5107 37.09 30.3507 37.37C30.1907 37.6433 30.1107 37.97 30.1107 38.35C30.1107 38.7233 30.1907 39.0533 30.3507 39.34C30.5107 39.62 30.724 39.8367 30.9907 39.99C31.2574 40.1433 31.5607 40.22 31.9007 40.22ZM38.2084 41.06C37.755 41.06 37.355 40.9767 37.0084 40.81C36.6684 40.6433 36.4017 40.39 36.2084 40.05C36.0217 39.7033 35.9284 39.27 35.9284 38.75V35.7H36.8884V38.64C36.8884 39.16 37.0117 39.55 37.2584 39.81C37.5117 40.07 37.865 40.2 38.3184 40.2C38.6517 40.2 38.9417 40.1333 39.1884 40C39.435 39.86 39.625 39.66 39.7584 39.4C39.8917 39.1333 39.9584 38.8133 39.9584 38.44V35.7H40.9184V41H40.0084V39.57L40.1584 39.95C39.985 40.3033 39.725 40.5767 39.3784 40.77C39.0317 40.9633 38.6417 41.06 38.2084 41.06ZM42.7459 41V35.7H43.6659V37.14L43.5759 36.78C43.7226 36.4133 43.9693 36.1333 44.3159 35.94C44.6626 35.7467 45.0893 35.65 45.5959 35.65V36.58C45.5559 36.5733 45.5159 36.57 45.4759 36.57C45.4426 36.57 45.4093 36.57 45.3759 36.57C44.8626 36.57 44.4559 36.7233 44.1559 37.03C43.8559 37.3367 43.7059 37.78 43.7059 38.36V41H42.7459ZM49.533 41V35.7H50.453V37.14L50.363 36.78C50.5097 36.4133 50.7564 36.1333 51.103 35.94C51.4497 35.7467 51.8764 35.65 52.383 35.65V36.58C52.343 36.5733 52.303 36.57 52.263 36.57C52.2297 36.57 52.1964 36.57 52.163 36.57C51.6497 36.57 51.243 36.7233 50.943 37.03C50.643 37.3367 50.493 37.78 50.493 38.36V41H49.533ZM55.8774 41.06C55.3108 41.06 54.8108 40.9433 54.3774 40.71C53.9508 40.4767 53.6174 40.1567 53.3774 39.75C53.1441 39.3433 53.0274 38.8767 53.0274 38.35C53.0274 37.8233 53.1408 37.3567 53.3674 36.95C53.6008 36.5433 53.9174 36.2267 54.3174 36C54.7241 35.7667 55.1808 35.65 55.6874 35.65C56.2008 35.65 56.6541 35.7633 57.0474 35.99C57.4408 36.2167 57.7474 36.5367 57.9674 36.95C58.1941 37.3567 58.3074 37.8333 58.3074 38.38C58.3074 38.42 58.3041 38.4667 58.2974 38.52C58.2974 38.5733 58.2941 38.6233 58.2874 38.67H53.7774V37.98H57.7874L57.3974 38.22C57.4041 37.88 57.3341 37.5767 57.1874 37.31C57.0408 37.0433 56.8374 36.8367 56.5774 36.69C56.3241 36.5367 56.0274 36.46 55.6874 36.46C55.3541 36.46 55.0574 36.5367 54.7974 36.69C54.5374 36.8367 54.3341 37.0467 54.1874 37.32C54.0408 37.5867 53.9674 37.8933 53.9674 38.24V38.4C53.9674 38.7533 54.0474 39.07 54.2074 39.35C54.3741 39.6233 54.6041 39.8367 54.8974 39.99C55.1908 40.1433 55.5274 40.22 55.9074 40.22C56.2208 40.22 56.5041 40.1667 56.7574 40.06C57.0174 39.9533 57.2441 39.7933 57.4374 39.58L57.9674 40.2C57.7274 40.48 57.4274 40.6933 57.0674 40.84C56.7141 40.9867 56.3174 41.06 55.8774 41.06ZM60.9328 41L58.6128 35.7H59.6128L61.6728 40.5H61.1928L63.2928 35.7H64.2328L61.9128 41H60.9328ZM65.1288 41V35.7H66.0888V41H65.1288ZM65.6088 34.68C65.4221 34.68 65.2654 34.62 65.1388 34.5C65.0188 34.38 64.9588 34.2333 64.9588 34.06C64.9588 33.88 65.0188 33.73 65.1388 33.61C65.2654 33.49 65.4221 33.43 65.6088 33.43C65.7954 33.43 65.9488 33.49 66.0688 33.61C66.1954 33.7233 66.2588 33.8667 66.2588 34.04C66.2588 34.22 66.1988 34.3733 66.0788 34.5C65.9588 34.62 65.8021 34.68 65.6088 34.68ZM70.2817 41.06C69.7151 41.06 69.2151 40.9433 68.7817 40.71C68.3551 40.4767 68.0217 40.1567 67.7817 39.75C67.5484 39.3433 67.4317 38.8767 67.4317 38.35C67.4317 37.8233 67.5451 37.3567 67.7717 36.95C68.0051 36.5433 68.3217 36.2267 68.7217 36C69.1284 35.7667 69.5851 35.65 70.0917 35.65C70.6051 35.65 71.0584 35.7633 71.4517 35.99C71.8451 36.2167 72.1517 36.5367 72.3717 36.95C72.5984 37.3567 72.7117 37.8333 72.7117 38.38C72.7117 38.42 72.7084 38.4667 72.7017 38.52C72.7017 38.5733 72.6984 38.6233 72.6917 38.67H68.1817V37.98H72.1917L71.8017 38.22C71.8084 37.88 71.7384 37.5767 71.5917 37.31C71.4451 37.0433 71.2417 36.8367 70.9817 36.69C70.7284 36.5367 70.4317 36.46 70.0917 36.46C69.7584 36.46 69.4617 36.5367 69.2017 36.69C68.9417 36.8367 68.7384 37.0467 68.5917 37.32C68.4451 37.5867 68.3717 37.8933 68.3717 38.24V38.4C68.3717 38.7533 68.4517 39.07 68.6117 39.35C68.7784 39.6233 69.0084 39.8367 69.3017 39.99C69.5951 40.1433 69.9317 40.22 70.3117 40.22C70.6251 40.22 70.9084 40.1667 71.1617 40.06C71.4217 39.9533 71.6484 39.7933 71.8417 39.58L72.3717 40.2C72.1317 40.48 71.8317 40.6933 71.4717 40.84C71.1184 40.9867 70.7217 41.06 70.2817 41.06ZM75.0671 41L73.0971 35.7H74.0071L75.7571 40.5H75.3271L77.1471 35.7H77.9571L79.7371 40.5H79.3171L81.1071 35.7H81.9671L79.9871 41H79.0671L77.3971 36.62H77.6771L75.9871 41H75.0671ZM84.3929 41.06C83.9529 41.06 83.5329 41 83.1329 40.88C82.7396 40.76 82.4296 40.6133 82.2029 40.44L82.6029 39.68C82.8296 39.8333 83.1096 39.9633 83.4429 40.07C83.7762 40.1767 84.1162 40.23 84.4629 40.23C84.9096 40.23 85.2296 40.1667 85.4229 40.04C85.6229 39.9133 85.7229 39.7367 85.7229 39.51C85.7229 39.3433 85.6629 39.2133 85.5429 39.12C85.4229 39.0267 85.2629 38.9567 85.0629 38.91C84.8696 38.8633 84.6529 38.8233 84.4129 38.79C84.1729 38.75 83.9329 38.7033 83.6929 38.65C83.4529 38.59 83.2329 38.51 83.0329 38.41C82.8329 38.3033 82.6729 38.16 82.5529 37.98C82.4329 37.7933 82.3729 37.5467 82.3729 37.24C82.3729 36.92 82.4629 36.64 82.6429 36.4C82.8229 36.16 83.0762 35.9767 83.4029 35.85C83.7362 35.7167 84.1296 35.65 84.5829 35.65C84.9296 35.65 85.2796 35.6933 85.6329 35.78C85.9929 35.86 86.2862 35.9767 86.5129 36.13L86.1029 36.89C85.8629 36.73 85.6129 36.62 85.3529 36.56C85.0929 36.5 84.8329 36.47 84.5729 36.47C84.1529 36.47 83.8396 36.54 83.6329 36.68C83.4262 36.8133 83.3229 36.9867 83.3229 37.2C83.3229 37.38 83.3829 37.52 83.5029 37.62C83.6296 37.7133 83.7896 37.7867 83.9829 37.84C84.1829 37.8933 84.4029 37.94 84.6429 37.98C84.8829 38.0133 85.1229 38.06 85.3629 38.12C85.6029 38.1733 85.8196 38.25 86.0129 38.35C86.2129 38.45 86.3729 38.59 86.4929 38.77C86.6196 38.95 86.6829 39.19 86.6829 39.49C86.6829 39.81 86.5896 40.0867 86.4029 40.32C86.2162 40.5533 85.9529 40.7367 85.6129 40.87C85.2729 40.9967 84.8662 41.06 84.3929 41.06ZM92.8382 41.06C92.3049 41.06 91.8315 40.9433 91.4182 40.71C91.0049 40.4767 90.6782 40.1567 90.4382 39.75C90.1982 39.3367 90.0782 38.87 90.0782 38.35C90.0782 37.8233 90.1982 37.3567 90.4382 36.95C90.6782 36.5433 91.0049 36.2267 91.4182 36C91.8315 35.7667 92.3049 35.65 92.8382 35.65C93.3649 35.65 93.8349 35.7667 94.2482 36C94.6682 36.2267 94.9949 36.5433 95.2282 36.95C95.4682 37.35 95.5882 37.8167 95.5882 38.35C95.5882 38.8767 95.4682 39.3433 95.2282 39.75C94.9949 40.1567 94.6682 40.4767 94.2482 40.71C93.8349 40.9433 93.3649 41.06 92.8382 41.06ZM92.8382 40.22C93.1782 40.22 93.4815 40.1433 93.7482 39.99C94.0215 39.8367 94.2349 39.62 94.3882 39.34C94.5415 39.0533 94.6182 38.7233 94.6182 38.35C94.6182 37.97 94.5415 37.6433 94.3882 37.37C94.2349 37.09 94.0215 36.8733 93.7482 36.72C93.4815 36.5667 93.1782 36.49 92.8382 36.49C92.4982 36.49 92.1949 36.5667 91.9282 36.72C91.6615 36.8733 91.4482 37.09 91.2882 37.37C91.1282 37.6433 91.0482 37.97 91.0482 38.35C91.0482 38.7233 91.1282 39.0533 91.2882 39.34C91.4482 39.62 91.6615 39.8367 91.9282 39.99C92.1949 40.1433 92.4982 40.22 92.8382 40.22ZM99.7459 35.65C100.179 35.65 100.559 35.7333 100.886 35.9C101.219 36.0667 101.479 36.32 101.666 36.66C101.853 37 101.946 37.43 101.946 37.95V41H100.986V38.06C100.986 37.5467 100.859 37.16 100.606 36.9C100.359 36.64 100.009 36.51 99.5559 36.51C99.2159 36.51 98.9192 36.5767 98.6659 36.71C98.4125 36.8433 98.2159 37.04 98.0759 37.3C97.9425 37.56 97.8759 37.8833 97.8759 38.27V41H96.9159V35.7H97.8359V37.13L97.6859 36.75C97.8592 36.4033 98.1259 36.1333 98.4859 35.94C98.8459 35.7467 99.2659 35.65 99.7459 35.65Z" fill="black"/>
<defs>
<clipPath id="clip0_1_55">
<rect width="99" height="19" fill="white" transform="translate(0 7)"/>
</clipPath>
<clipPath id="clip1_1_55">
<rect width="52" height="52" fill="white" transform="translate(108)"/>
</clipPath>
</defs>
</svg>
